<svg xmlns="http://www.w3.org/2000/svg" xmlns:xlink="http://www.w3.org/1999/xlink" width="90" height="90" viewBox="0 0 90 90">
  <defs>
    <clipPath id="clip-path">
      <rect id="Rectángulo_40834" data-name="Rectángulo 40834" width="57.795" height="57.796" fill="none"/>
    </clipPath>
  </defs>
  <g id="Grupo_160002" data-name="Grupo 160002" transform="translate(0.082)">
    <circle id="Elipse_4780" data-name="Elipse 4780" cx="45" cy="45" r="45" transform="translate(-0.082 0)" fill="#c4d1ff"/>
    <g id="Grupo_165407" data-name="Grupo 165407" transform="translate(15.918 16)">
      <g id="Grupo_165407-2" data-name="Grupo 165407" transform="translate(0 0)" clip-path="url(#clip-path)">
        <path id="Trazado_149365" data-name="Trazado 149365" d="M0,26.979A.823.823,0,0,0,.111,26.8a3.633,3.633,0,0,1,3.744-2.729q8.578-.006,17.155.011c.521,0,.68-.087.678-.652-.024-6.509-.016-13.017-.015-19.526A3.624,3.624,0,0,1,25.571,0H53.9a3.625,3.625,0,0,1,3.895,3.912q0,10.552,0,21.105a3.626,3.626,0,0,1-3.87,3.88c-.584,0-1.167.02-1.749-.008-.333-.015-.4.1-.394.413.026.789.026,1.58.018,2.37a6.4,6.4,0,0,1-.081,1.009,1.079,1.079,0,0,1-1.7.843c-.69-.378-1.347-.817-2-1.253q-2.346-1.559-4.673-3.145a1.3,1.3,0,0,0-.783-.234c-1.975.01-3.95.02-5.925-.006-.421-.006-.521.1-.52.519.015,6.546-.025,13.092.031,19.638A3.806,3.806,0,0,1,32.19,52.99c-5.623-.063-11.248-.018-16.872-.026a1.487,1.487,0,0,0-.887.266Q11.513,55.2,8.578,57.146c-.334.223-.677.434-1.015.65H6.886c-.77-.259-1.01-.581-1.052-1.511-.037-.825-.006-1.652-.012-2.479-.006-.667-.036-.7-.7-.7-.526,0-1.052,0-1.578,0a3.681,3.681,0,0,1-3.18-1.814A4.136,4.136,0,0,1,0,50.007V26.979" transform="translate(0 0)"/>
        <path id="Trazado_149366" data-name="Trazado 149366" d="M71.106,4.005a1.1,1.1,0,0,1,.947,1.035,3.186,3.186,0,0,1,.018.563q0,10.384,0,20.769c0,1.256-.4,1.657-1.65,1.659-.979,0-1.957.011-2.935,0a1.592,1.592,0,0,0-1.144.371.621.621,0,0,1-.735-.1,9.024,9.024,0,0,0-5.328-1.319c-4.8.043-9.593.011-14.389.018a2.781,2.781,0,0,1-2.026-.688,2.675,2.675,0,0,1-.846-2.073c.008-2.934,0-5.869,0-8.8V5.168c0-.206,0-.413.006-.62,0-.4.146-.6.606-.6q13.57.017,27.142.009a.637.637,0,0,1,.331.044" transform="translate(-16.676 -1.532)" fill="#81bbf3"/>
        <path id="Trazado_149367" data-name="Trazado 149367" d="M36.609,66.368a1.116,1.116,0,0,1-1.174.974c-1.834.007-3.668-.007-5.5-.013a5.932,5.932,0,0,1-.946-.36,7.658,7.658,0,0,0-3.454-.681q-7.555-.015-15.109,0a2.694,2.694,0,0,1-1.711-.442,2.594,2.594,0,0,1-1.089-2.23c.013-4.961.006-9.923.006-14.884,0-1.541,0-3.082,0-4.623A1.125,1.125,0,0,1,7.81,43.3c.43-.009.86-.026,1.291-.026q6.835,0,13.67,0c.206,0,.411.017.616.026a1.086,1.086,0,0,1,.179.749,2.452,2.452,0,0,0,2.773,2.682c3.025.01,6.05,0,9.074,0,.207,0,.413,0,.62.006.42.007.628.141.626.636q-.027,9.3-.012,18.6a.911.911,0,0,1-.039.389" transform="translate(-2.956 -16.775)" fill="#eceaf1"/>
        <path id="Trazado_149368" data-name="Trazado 149368" d="M69.668,3.98C68.785,3.986,67.9,4,67.018,4Q54.751,4,42.486,4c-.721,0-.721,0-.721.739q0,9.785,0,19.57a2.351,2.351,0,0,0,2.515,2.487c5.114,0,10.227.016,15.34-.009a8.138,8.138,0,0,1,4.663,1.365,1,1,0,0,0,.622.225,1.9,1.9,0,0,0-.315,1.172c.014.691,0,1.383,0,2.076-.283.042-.416-.149-.577-.255q-2.26-1.488-4.5-3A2.157,2.157,0,0,0,58.245,28q-8.632.017-17.264.007c-1.283,0-1.672-.394-1.672-1.693q0-10.381,0-20.762c0-1.248.4-1.647,1.66-1.647q13.992,0,27.983,0a1.233,1.233,0,0,1,.716.079" transform="translate(-15.238 -1.507)" fill="#6faae5"/>
        <path id="Trazado_149369" data-name="Trazado 149369" d="M6.371,43.3c0,6.8.027,13.606-.026,20.409a2.577,2.577,0,0,0,2.41,2.419c5.242-.058,10.486-.042,15.729-.014a6.461,6.461,0,0,1,4.01,1.212c-4,.006-8.009.024-12.013.006a2.735,2.735,0,0,0-1.626.5c-1.445.98-2.9,1.944-4.353,2.913l-.547.364c0-.81,0-1.531,0-2.253-.006-1.064-.447-1.506-1.5-1.507s-2.106,0-3.159,0a1.226,1.226,0,0,1-1.37-1.355q-.01-10.689,0-21.379a1.2,1.2,0,0,1,1.326-1.334c.375-.006.75.015,1.125.024" transform="translate(-1.518 -16.776)" fill="#d9d6e4"/>
        <path id="Trazado_149370" data-name="Trazado 149370" d="M46.587,66.349c-.008-.244-.022-.487-.022-.732q0-9.049.01-18.1c0-.487-.113-.639-.622-.635-3.251.024-6.5.012-9.754.012a2.592,2.592,0,0,1-2.834-2.823q0-.394,0-.789c.131-.009.263-.009.392-.029a1.283,1.283,0,0,1,1.5.773,3.278,3.278,0,0,0,3.032,1.626c2.615.007,5.23.011,7.844-.007.407,0,.539.075.538.516q-.021,9.819-.007,19.639a.9.9,0,0,1-.074.549" transform="translate(-12.934 -16.756)" fill="#d9d6e4"/>
        <path id="Trazado_149371" data-name="Trazado 149371" d="M55.079,25a1.561,1.561,0,0,1,.174-.675q2.3-5.742,4.592-11.483c.233-.585.551-1.039,1.241-1.039s1.006.46,1.241,1.042q2.3,5.712,4.616,11.417a1.772,1.772,0,0,1,.206.866A1.236,1.236,0,0,1,66.09,26.22a1.2,1.2,0,0,1-1.259-.758q-.5-1.193-.938-2.41a.582.582,0,0,0-.662-.437c-1.409.022-2.819.019-4.229,0a.52.52,0,0,0-.581.384c-.337.854-.69,1.7-1.069,2.539a1.183,1.183,0,0,1-1.345.685A1.212,1.212,0,0,1,55.079,25" transform="translate(-21.35 -4.576)"/>
        <path id="Trazado_149372" data-name="Trazado 149372" d="M27.955,55.939c-2.344,0-4.637,0-6.929,0a1.239,1.239,0,0,1-1.309-.856,1.175,1.175,0,0,1,1.119-1.528c.92-.03,1.843-.011,2.764-.012.868,0,.865,0,.874-.845a3.015,3.015,0,0,1,.064-.669,1.18,1.18,0,0,1,1.149-.905,1.213,1.213,0,0,1,1.152.906,2.649,2.649,0,0,1,.052.953c-.035.423.074.593.544.573.938-.041,1.879-.016,2.819-.011a1.246,1.246,0,0,1,1.4,1.023,1.2,1.2,0,0,1-1,1.346c-.251.068-.28.21-.315.385A10.508,10.508,0,0,1,27.7,61.437c-.209.227-.249.346.041.545.635.435,1.279.853,1.95,1.23a1.222,1.222,0,1,1-1.187,2.1,16.408,16.408,0,0,1-2.437-1.617.491.491,0,0,0-.758-.006,14.9,14.9,0,0,1-2.531,1.675,1.2,1.2,0,1,1-1.172-2.086q.972-.569,1.9-1.208c.308-.211.418-.345.1-.651a6.55,6.55,0,0,1-.74-.921,1.214,1.214,0,1,1,1.928-1.443c.214.261.443.512.645.783s.323.2.516-.016a8.837,8.837,0,0,0,2-3.879" transform="translate(-7.624 -19.817)"/>
        <path id="Trazado_149373" data-name="Trazado 149373" d="M62.313,23.019l1.574-3.952,1.581,3.952Z" transform="translate(-24.155 -7.391)" fill="#81baf2"/>
      </g>
    </g>
  </g>
</svg>
