<svg xmlns="http://www.w3.org/2000/svg" xmlns:xlink="http://www.w3.org/1999/xlink" width="90" height="90" viewBox="0 0 90 90">
  <defs>
    <clipPath id="clip-path">
      <rect id="Rectángulo_40835" data-name="Rectángulo 40835" width="58.046" height="57.618" fill="none"/>
    </clipPath>
  </defs>
  <g id="Grupo_160003" data-name="Grupo 160003" transform="translate(0.193 -0.01)">
    <circle id="Elipse_4781" data-name="Elipse 4781" cx="45" cy="45" r="45" transform="translate(-0.193 0.01)" fill="#c4d1ff"/>
    <g id="Grupo_165409" data-name="Grupo 165409" transform="translate(15.807 16.01)">
      <g id="Grupo_165408" data-name="Grupo 165408" transform="translate(0 0)" clip-path="url(#clip-path)">
        <path id="Trazado_149374" data-name="Trazado 149374" d="M57.158,49.627a2.114,2.114,0,0,1-.413-1.7A9.723,9.723,0,0,0,51.37,37.305c-.318-.161-.334-.3-.227-.592a22.2,22.2,0,0,0,1.307-6.128,23.425,23.425,0,0,0-1.479-10.18.459.459,0,0,1,.134-.625,5.686,5.686,0,0,0,1.834-2.867.552.552,0,0,1,.44-.439A3.492,3.492,0,0,0,55.391,15,9.775,9.775,0,0,0,55.07,4.074a.821.821,0,0,0-1.131-.317c-.556.468-.621.784-.19,1.4A7.932,7.932,0,0,1,55.183,10.4a7.644,7.644,0,0,1-1.249,3.708.952.952,0,0,1-.179.218c-.151.124-.27.391-.5.279-.188-.093-.086-.344-.087-.523-.007-1.321,0-2.641,0-3.962a3.052,3.052,0,0,0-2.58-2.651c-.221-.045-.425-.064-.408-.407a.773.773,0,0,0-.795-.851c-.462-.046-.8.275-.894.834a4.727,4.727,0,0,1-.908,2.23,5.449,5.449,0,0,1-3.818,1.859,7.94,7.94,0,0,1-2.2.041.835.835,0,0,0-.964.533.79.79,0,0,0,.3,1,.475.475,0,0,1,.218.427c-.008.489,0,.978,0,1.518a1.758,1.758,0,0,1-1-.977A8.059,8.059,0,0,1,45.23,1.947a7.33,7.33,0,0,1,4.506.229,2.44,2.44,0,0,1,.947.359,1.077,1.077,0,0,0,1.439-.143c.17-.791.061-1.011-.683-1.381A9.711,9.711,0,0,0,38.017,6.4c-.165.45-.286.533-.765.357a23.245,23.245,0,0,0-16.52-.026c-.479.175-.659.181-.859-.358A9.747,9.747,0,1,0,2.311,14.664a3.69,3.69,0,0,0,2.172,1.794.65.65,0,0,1,.508.512A5.456,5.456,0,0,0,6.728,19.7a.6.6,0,0,1,.181.814,22.11,22.11,0,0,0-1.455,6.671,23.141,23.141,0,0,0,1.339,9.587c.1.259.056.389-.214.505a7.924,7.924,0,0,0-1.6.95c-.6.449-.658.706-.331,1.4h0c.5.4.944.252,1.433-.084a7.913,7.913,0,0,1,7.643-.939,2.039,2.039,0,0,1,.247.132,7.872,7.872,0,0,1,4.771,6.35,7.757,7.757,0,0,1-.082,2.538,3.953,3.953,0,0,0,.8,3.139,2.177,2.177,0,0,1-1.511,3.5H16.131a8.868,8.868,0,0,0,.663-4.462c0-.983.013-1.967,0-2.951a3.069,3.069,0,0,0-2.535-3.049c-.325-.066-.524-.116-.5-.534a.722.722,0,0,0-.714-.745.777.777,0,0,0-.885.551A6.592,6.592,0,0,0,12,43.8c-.5,2.138-1.995,3.149-4.018,3.56a10.667,10.667,0,0,1-3.05.118c-.495-.043-.915.039-1.082.583-.147.477.034.819.648,1.068.288.118.221.306.228.5A15.922,15.922,0,0,0,4.881,52.9c.111.453.278.893.43,1.375a14.277,14.277,0,0,1-1.856-.013,2.158,2.158,0,0,1-1.5-3.337,4.819,4.819,0,0,0,.823-3.85,7.12,7.12,0,0,1,.671-4.362,1.041,1.041,0,0,0-.188-1.377h0c-.75-.2-1-.085-1.34.623a9.763,9.763,0,0,0-.746,6.018,1.832,1.832,0,0,1-.29,1.455A8.306,8.306,0,0,0,0,51v2.271c.1.009.1.092.125.158A3.9,3.9,0,0,0,4.01,56c.738,0,1.476.01,2.213-.005A1.118,1.118,0,0,1,7,56.255a5.959,5.959,0,0,0,7.489.024A1.187,1.187,0,0,1,15.3,56c.831.016,1.664.017,2.5,0a3.9,3.9,0,0,0,3.684-2.911,7.04,7.04,0,0,0,.088-1.9,23.781,23.781,0,0,0,14.755.01c0,.191.008.339,0,.487A3.9,3.9,0,0,0,40.345,56c.757.007,1.514.014,2.27,0a1.173,1.173,0,0,1,.816.284,5.732,5.732,0,0,0,6.674.482A4.762,4.762,0,0,1,53.169,56c.264.016.53,0,.794,0a3.932,3.932,0,0,0,3.195-6.375M15.011,52.27a4.312,4.312,0,0,1-8.559-.421c-.041-.717,0-1.438-.032-2.155-.019-.382.122-.485.48-.5a8.778,8.778,0,0,0,3.134-.693A5.667,5.667,0,0,0,13.02,45.85a.66.66,0,0,1,.8-.4,1.41,1.41,0,0,1,1.261,1.438c.021.813,0,1.626,0,2.633a22.817,22.817,0,0,1-.079,2.752M43.28,12.879a8.64,8.64,0,0,0,3.7-.953,5.471,5.471,0,0,0,2.432-2.38.686.686,0,0,1,.852-.415,1.363,1.363,0,0,1,1.207,1.358c.028.87.006,1.741.006,2.611h-.006c0,.776.032,1.553-.006,2.327a4.273,4.273,0,0,1-4.334,4.128,4.321,4.321,0,0,1-4.3-4.184c-.028-.662.016-1.326-.019-1.986-.02-.374.113-.489.466-.5m-37.941-1.7a.97.97,0,0,0-1.117.467.8.8,0,0,0,.353,1.117.4.4,0,0,1,.158.4c0,.321.013.644-.005.964-.011.171.119.431-.111.494-.176.048-.338-.152-.453-.3a6.861,6.861,0,0,1-1.421-3.764A8.024,8.024,0,0,1,11.2,1.725a5.451,5.451,0,0,1,2.091.437,7.453,7.453,0,0,1,4.418,3.585,7.815,7.815,0,0,1-.01,8.092,1.725,1.725,0,0,1-.879.84V13.064q-.011-1.191-.021-2.382a3.079,3.079,0,0,0-2.621-3.2c-.324-.065-.424-.177-.419-.51a.715.715,0,0,0-.7-.747.773.773,0,0,0-.91.584c-.068.215-.089.444-.139.665a4.3,4.3,0,0,1-3.083,3.318,8.547,8.547,0,0,1-3.58.392m1.114,4.37c-.035-.565-.022-1.134-.024-1.7,0-.929,0-.926.9-1a8.434,8.434,0,0,0,3.245-.922,5.479,5.479,0,0,0,2.432-2.381.681.681,0,0,1,.853-.41,1.408,1.408,0,0,1,1.223,1.47c.017.794,0,1.588,0,2.563a23.1,23.1,0,0,1-.084,2.819,4.314,4.314,0,0,1-8.553-.437M37.16,49.071a21.93,21.93,0,0,1-16.422,0c-.533-.207-.468-.582-.416-.959a13.761,13.761,0,0,0,.133-3.05,9.86,9.86,0,0,0-8.107-8.6,9.687,9.687,0,0,0-3.439.065c-.319.069-.417-.014-.52-.3a22.123,22.123,0,0,1-1.283-7.728,21.4,21.4,0,0,1,1.3-7.159c.119-.336.213-.457.623-.336A5.976,5.976,0,0,0,16.5,17.021a.765.765,0,0,1,.582-.579A3.524,3.524,0,0,0,19.1,14.808a9.5,9.5,0,0,0,1.362-5.745c-.028-.338.085-.45.372-.561a21.775,21.775,0,0,1,16.2-.018.524.524,0,0,1,.4.652,9.429,9.429,0,0,0,1.437,5.782,3.482,3.482,0,0,0,1.973,1.531.714.714,0,0,1,.551.537,5.981,5.981,0,0,0,7.5,4.009c.379-.111.481-.017.593.3a21.916,21.916,0,0,1,.033,14.886c-.1.3-.188.394-.547.326A9.741,9.741,0,0,0,37.557,47.78c.034.2.029.414.049.621a.581.581,0,0,1-.446.669m14.307,2.67a4.32,4.32,0,0,1-8.634-.044c-.028-.68.014-1.363-.019-2.043-.018-.372.144-.441.46-.453a9.04,9.04,0,0,0,3.085-.664,5.84,5.84,0,0,0,3.115-2.757.548.548,0,0,1,.612-.345A1.375,1.375,0,0,1,51.47,46.8c.031.869.007,1.741.007,2.611h0c0,.776.031,1.553-.006,2.327m4.1,2.007a1.942,1.942,0,0,1-1.167.518H52.6c.993-2.334.491-4.791.572-7.2a3,3,0,0,0-2.638-3.288c-.287-.059-.353-.145-.351-.423a.8.8,0,0,0-.764-.834.86.86,0,0,0-.921.747c-.066.294-.106.6-.192.885a4.614,4.614,0,0,1-3.948,3.211,10.519,10.519,0,0,1-3.05.111c-.513-.046-.925.088-1.064.616a.785.785,0,0,0,.627,1.032c.3.082.24.283.246.481.028.906-.054,1.814.061,2.72a6.8,6.8,0,0,0,.584,1.949,7.592,7.592,0,0,1-2.044-.033,2.183,2.183,0,0,1-1.284-3.444,4.395,4.395,0,0,0,.782-3.42,8.055,8.055,0,0,1,10.922-8.759,3.815,3.815,0,0,1,.4.2,8.052,8.052,0,0,1,4.519,8.89,3.708,3.708,0,0,0,.759,2.979,2.178,2.178,0,0,1-.255,3.062" transform="translate(0.001 0)"/>
        <path id="Trazado_149375" data-name="Trazado 149375" d="M5.815,89a10.586,10.586,0,0,0-.688,2.215,9.35,9.35,0,0,0,.045,2.993,3.854,3.854,0,0,1-.6,2.706c-.106.179-.233.345-.34.524a2.029,2.029,0,0,0,1.407,3.092.8.8,0,0,0,.112.015c.433.012.973.19,1.271-.06.352-.3-.093-.745-.166-1.129a14.751,14.751,0,0,1-.087-2.717A1.158,1.158,0,0,0,6.24,95.49a.877.877,0,0,1-.357-1.052.9.9,0,0,1,.886-.669c.737-.056,1.474.022,2.212-.012a7.064,7.064,0,0,0,2.839-.716,3.9,3.9,0,0,0,2.121-2.66,4.431,4.431,0,0,1,.249-.93.977.977,0,0,1,.981-.638.9.9,0,0,1,.839.733.724.724,0,0,0,.6.582,3.281,3.281,0,0,1,2.5,3.3c.012,1.533.009,3.065,0,4.6a5.531,5.531,0,0,1-.425,2.1c-.158.381-.036.463.327.437.339-.023.681,0,1.021-.01a2.043,2.043,0,0,0,.232-.039,2.843,2.843,0,0,0,.359-3.478,4.479,4.479,0,0,1-.741-3.84,6.921,6.921,0,0,0-.32-3.157,8.3,8.3,0,0,0-3.19-4.615c-.108-.05-.215-.1-.327-.145a7.828,7.828,0,0,0-7.794.862c-.64.436-1.1.408-1.459-.083a6.015,6.015,0,0,0-1.386,1.707h0A.855.855,0,0,1,5.815,89" transform="translate(-2.153 -46.432)" fill="#fe5a95"/>
        <path id="Trazado_149376" data-name="Trazado 149376" d="M11.75,85.951a7.828,7.828,0,0,1,7.794-.862c.112.045.22.1.327.145-.038-.028-.073-.059-.112-.087a.916.916,0,0,1-.144-.17,2.033,2.033,0,0,0-.247-.132,7.913,7.913,0,0,0-7.643.938c-.49.336-.93.485-1.433.084.36.491.818.519,1.458.083" transform="translate(-5.647 -46.236)" fill="#fe5a95"/>
        <path id="Trazado_149377" data-name="Trazado 149377" d="M5.363,92.974a7.117,7.117,0,0,0-.671,4.362,4.821,4.821,0,0,1-.822,3.85,2.157,2.157,0,0,0,1.5,3.337,14.284,14.284,0,0,0,1.856.013c-.153-.481-.319-.921-.43-1.375a15.891,15.891,0,0,1-.156-3.278c-.007-.191.06-.38-.228-.5-.613-.25-.795-.591-.648-1.068.167-.544.588-.626,1.083-.583a10.664,10.664,0,0,0,3.05-.118c2.023-.411,3.522-1.423,4.018-3.56a6.386,6.386,0,0,1,.155-.718.776.776,0,0,1,.885-.551.722.722,0,0,1,.714.746c-.023.419.177.468.5.534a3.069,3.069,0,0,1,2.535,3.049c.018.983,0,1.967,0,2.951a8.865,8.865,0,0,1-.662,4.462h1.816c.059-.058.114-.119.168-.182a2.021,2.021,0,0,1-.231.039c-.34.007-.682-.013-1.021.01-.363.025-.485-.056-.327-.437a5.53,5.53,0,0,0,.425-2.1c.009-1.532.012-3.065,0-4.6a3.28,3.28,0,0,0-2.5-3.3.724.724,0,0,1-.6-.582.9.9,0,0,0-.839-.733.977.977,0,0,0-.98.638,4.4,4.4,0,0,0-.249.93,3.907,3.907,0,0,1-2.121,2.66,7.065,7.065,0,0,1-2.84.716c-.738.034-1.475-.044-2.211.012a.9.9,0,0,0-.886.669A.877.877,0,0,0,6,99.317a1.159,1.159,0,0,1,.534,1.148,14.751,14.751,0,0,0,.087,2.717c.073.384.518.834.166,1.129-.3.25-.838.072-1.271.06a.8.8,0,0,1-.112-.015A2.029,2.029,0,0,1,4,101.266c.107-.178.234-.345.34-.524a3.853,3.853,0,0,0,.6-2.706,9.376,9.376,0,0,1-.045-2.993,10.587,10.587,0,0,1,.688-2.215.855.855,0,0,0-.4-1.232,1.041,1.041,0,0,1,.188,1.377" transform="translate(-1.916 -50.259)" fill="#fe5a95"/>
        <path id="Trazado_149378" data-name="Trazado 149378" d="M111.61,5.662c-.323-.126-.63-.292-.959-.406.279.249.606.441.891.688a8.87,8.87,0,0,1,3.021,5.75,7.94,7.94,0,0,1-.55,3.912c0,.539.01,1.081.035,1.632a1.247,1.247,0,0,0,.7-.718,7.782,7.782,0,0,0-.121-7.933,5.521,5.521,0,0,1-.473-.835.774.774,0,0,1,.5-1.112c-.231.039-.326-.149-.458-.274a6.779,6.779,0,0,0-1.36-1.089.866.866,0,0,1-1.227.385" transform="translate(-60.714 -2.884)" fill="#5b5555"/>
        <path id="Trazado_149379" data-name="Trazado 149379" d="M118.049,9.436a5.48,5.48,0,0,0,.473.835,7.782,7.782,0,0,1,.121,7.933,1.248,1.248,0,0,1-.7.718c-.024-.552-.032-1.094-.034-1.633-.013.033-.023.067-.036.1,0-.7,0-1.4,0-2.107,0-.2.063-.419-.091-.6,0,1.321,0,2.642,0,3.963,0,.179-.1.431.086.523.228.112.347-.156.5-.28a.96.96,0,0,0,.179-.217,7.65,7.65,0,0,0,1.249-3.708,7.932,7.932,0,0,0-1.434-5.237c-.431-.62-.366-.936.19-1.4a.774.774,0,0,0-.5,1.112" transform="translate(-64.613 -4.567)" fill="#5b5555"/>
        <path id="Trazado_149380" data-name="Trazado 149380" d="M111.154,5.182a2.441,2.441,0,0,0-.946-.359,2.037,2.037,0,0,0,.2.195c.328.114.635.28.959.407a.866.866,0,0,0,1.227-.385,1.076,1.076,0,0,1-1.439.143" transform="translate(-60.471 -2.646)" fill="#5b5555"/>
        <path id="Trazado_149381" data-name="Trazado 149381" d="M100.715,96.228a3.139,3.139,0,0,1-.446-2.637,8.427,8.427,0,0,0-1.215-5.954,9.423,9.423,0,0,0-2.2-2.413.66.66,0,0,1-.116-.188,3.851,3.851,0,0,0-.4-.2,8.055,8.055,0,0,0-10.923,8.76,4.391,4.391,0,0,1-.781,3.42,2.182,2.182,0,0,0,1.284,3.444,7.591,7.591,0,0,0,2.044.033,6.778,6.778,0,0,1-.584-1.949c-.115-.906-.033-1.814-.061-2.72-.006-.2.054-.4-.246-.481a.785.785,0,0,1-.628-1.032c.139-.528.551-.663,1.065-.616a10.52,10.52,0,0,0,3.05-.111,4.613,4.613,0,0,0,3.947-3.211c.087-.288.126-.59.192-.885a.859.859,0,0,1,.92-.746.8.8,0,0,1,.764.834c0,.278.063.365.35.424a3,3,0,0,1,2.638,3.287c-.081,2.409.422,4.866-.571,7.2h1.8a3.109,3.109,0,0,0,.116-4.258" transform="translate(-46.202 -46.221)" fill="#fea630"/>
        <path id="Trazado_149382" data-name="Trazado 149382" d="M15.3,9.557c.049-.221.07-.45.139-.665a.773.773,0,0,1,.909-.584.716.716,0,0,1,.705.748c0,.332.1.445.419.51a3.079,3.079,0,0,1,2.621,3.2q.01,1.191.022,2.382a8.218,8.218,0,0,0,.365-5.617,9.133,9.133,0,0,0-3.894-5.285,5.453,5.453,0,0,0-2.091-.437A8.024,8.024,0,0,0,6.04,12.646a6.86,6.86,0,0,0,1.42,3.764c.115.145.277.345.453.3.231-.063.1-.322.111-.494.019-.32,0-.643.006-.964a.4.4,0,0,0-.158-.4.8.8,0,0,1-.353-1.117.969.969,0,0,1,1.117-.467,8.54,8.54,0,0,0,3.58-.392A4.3,4.3,0,0,0,15.3,9.557" transform="translate(-3.297 -2.088)" fill="#c37a4a"/>
        <path id="Trazado_149383" data-name="Trazado 149383" d="M101.145,14.677a8.63,8.63,0,0,0-.98-7.283,8.481,8.481,0,0,0-2.272-2.426c-.143-.1-.329-.185-.378-.368-.017,0-.032-.011-.049-.015A7.954,7.954,0,0,0,88.031,8.16c-1.7,3.008-.987,6.982.645,8.46.039-.595.2-1.129-.193-1.6a.971.971,0,0,1-.178-1.2,1.084,1.084,0,0,1,1.171-.511,8.351,8.351,0,0,0,3.734-.459,4.134,4.134,0,0,0,2.82-3.139,3.983,3.983,0,0,1,.208-.765.9.9,0,0,1,.9-.571.857.857,0,0,1,.9.643c.092.425.345.561.718.68a3.072,3.072,0,0,1,2.309,2.719c0,.01,0,.021,0,.031a.316.316,0,0,1,.088.231,11.467,11.467,0,0,1-.006,1.99" transform="translate(-47.766 -2.287)" fill="#756f6f"/>
        <path id="Trazado_149384" data-name="Trazado 149384" d="M100.833,12.237v-.031a3.072,3.072,0,0,0-2.309-2.719c-.373-.12-.626-.255-.719-.68a.857.857,0,0,0-.9-.643.9.9,0,0,0-.9.571A3.951,3.951,0,0,0,95.8,9.5a4.135,4.135,0,0,1-2.82,3.139,8.354,8.354,0,0,1-3.734.459,1.084,1.084,0,0,0-1.171.511.971.971,0,0,0,.178,1.2c.39.468.231,1,.193,1.6-1.632-1.478-2.347-5.452-.645-8.46a7.954,7.954,0,0,1,9.435-3.575c.017,0,.032.011.049.015a.386.386,0,0,1-.013-.137,7.334,7.334,0,0,0-4.506-.229,8.059,8.059,0,0,0-5.111,11.725,1.758,1.758,0,0,0,1,.977c0-.54-.005-1.029,0-1.518a.476.476,0,0,0-.218-.427.79.79,0,0,1-.3-1,.836.836,0,0,1,.964-.533,7.957,7.957,0,0,0,2.2-.04,5.447,5.447,0,0,0,3.817-1.86,4.728,4.728,0,0,0,.908-2.229c.093-.558.432-.879.894-.834a.773.773,0,0,1,.8.851c-.017.343.187.362.408.407a3.052,3.052,0,0,1,2.58,2.651.208.208,0,0,1,.128.051" transform="translate(-47.535 -2.068)" fill="#756f6f"/>
        <path id="Trazado_149385" data-name="Trazado 149385" d="M110.613,5.494a8.476,8.476,0,0,1,2.272,2.426,8.631,8.631,0,0,1,.98,7.282,11.466,11.466,0,0,0,.006-1.99.315.315,0,0,0-.088-.231c.008.846,0,1.695,0,2.554a7.945,7.945,0,0,0,.55-3.912,8.871,8.871,0,0,0-3.021-5.75c-.285-.247-.612-.439-.891-.688-.062-.022-.124-.042-.188-.059.049.184.235.265.378.368" transform="translate(-60.485 -2.813)" fill="#756f6f"/>
        <path id="Trazado_149386" data-name="Trazado 149386" d="M110.406,5.019a2.2,2.2,0,0,1-.2-.195.375.375,0,0,0,.012.136c.064.017.126.037.188.059" transform="translate(-60.469 -2.647)" fill="#756f6f"/>
        <path id="Trazado_149387" data-name="Trazado 149387" d="M117.9,23.018c.008.7,0,1.4,0,2.107.013-.033.023-.067.036-.1,0-.859,0-1.707,0-2.553a.2.2,0,0,0-.128-.051c.154.18.089.4.091.6" transform="translate(-64.644 -12.301)" fill="#756f6f"/>
        <path id="Trazado_149388" data-name="Trazado 149388" d="M18.262,30.625a4.305,4.305,0,0,0,4.56-3.559,23.182,23.182,0,0,0,.084-2.819c0-.975.012-1.77,0-2.563a1.408,1.408,0,0,0-1.223-1.47.682.682,0,0,0-.854.41A5.476,5.476,0,0,1,18.393,23a8.424,8.424,0,0,1-3.245.921c-.9.077-.907.074-.9,1,0,.567-.011,1.135.023,1.7a4.288,4.288,0,0,0,3.994,4" transform="translate(-7.816 -11.078)" fill="#fcd0a6"/>
        <path id="Trazado_149389" data-name="Trazado 149389" d="M22.894,104.755c0-1.007.017-1.821,0-2.633a1.409,1.409,0,0,0-1.261-1.438.66.66,0,0,0-.8.4,5.664,5.664,0,0,1-2.986,2.654,8.779,8.779,0,0,1-3.134.693c-.358.012-.5.115-.48.5.035.717-.008,1.438.032,2.155a4.312,4.312,0,0,0,8.559.421,22.81,22.81,0,0,0,.078-2.752" transform="translate(-7.804 -55.236)" fill="#fcd0a6"/>
        <path id="Trazado_149390" data-name="Trazado 149390" d="M103.523,102.039a1.374,1.374,0,0,0-1.383-1.367.548.548,0,0,0-.612.345,5.838,5.838,0,0,1-3.115,2.757,9.04,9.04,0,0,1-3.085.664c-.316.012-.479.08-.46.453.033.68-.01,1.363.019,2.043a4.32,4.32,0,0,0,8.634.044c.037-.774.006-1.552.006-2.327h0c0-.871.024-1.742-.007-2.611" transform="translate(-52.052 -55.236)" fill="#fcd0a6"/>
        <path id="Trazado_149391" data-name="Trazado 149391" d="M94.884,26.446a4.321,4.321,0,0,0,4.3,4.184,4.273,4.273,0,0,0,4.334-4.128c.037-.774.005-1.551.005-2.326h.006c0-.871.021-1.742-.007-2.611a1.362,1.362,0,0,0-1.207-1.358.686.686,0,0,0-.852.415A5.473,5.473,0,0,1,99.032,23a8.642,8.642,0,0,1-3.7.953c-.352.016-.486.131-.466.5.035.661-.009,1.325.019,1.986" transform="translate(-52.051 -11.076)" fill="#fcd0a6"/>
        <path id="Trazado_149392" data-name="Trazado 149392" d="M32.635,7.97a8.685,8.685,0,0,1,.706,7.219c-.066.2-.074.464-.37.5v1.615a1.728,1.728,0,0,0,.879-.84,7.818,7.818,0,0,0,.01-8.092,7.454,7.454,0,0,0-4.419-3.585A7.043,7.043,0,0,1,32.635,7.97" transform="translate(-16.155 -2.629)" fill="#b16944"/>
        <path id="Trazado_149393" data-name="Trazado 149393" d="M33.336,10.077a8.218,8.218,0,0,1-.365,5.617c.3-.039.3-.305.37-.5a8.686,8.686,0,0,0-.706-7.22,7.039,7.039,0,0,0-3.193-3.179,9.132,9.132,0,0,1,3.894,5.285" transform="translate(-16.155 -2.629)" fill="#b16944"/>
        <path id="Trazado_149394" data-name="Trazado 149394" d="M35.778,92.674a7.683,7.683,0,0,1-.047,2.588,3.341,3.341,0,0,0,.6,2.674,3.136,3.136,0,0,1,.331,3.175,1.876,1.876,0,0,1-.369.633,1.951,1.951,0,0,0,1.084-2.9,5.775,5.775,0,0,1-.873-4.406,7.278,7.278,0,0,0-1.756-5.615,7.663,7.663,0,0,0-2.1-1.83,8.548,8.548,0,0,1,3.131,5.684" transform="translate(-17.913 -47.731)" fill="#fe3b81"/>
        <path id="Trazado_149395" data-name="Trazado 149395" d="M33.818,88.189A7.278,7.278,0,0,1,35.573,93.8a5.776,5.776,0,0,0,.873,4.407,1.951,1.951,0,0,1-1.084,2.9.941.941,0,0,1-.432.257,2.177,2.177,0,0,0,1.511-3.5,3.956,3.956,0,0,1-.8-3.139,7.745,7.745,0,0,0,.082-2.538,7.871,7.871,0,0,0-4.771-6.35,8.2,8.2,0,0,1,.766.518,7.67,7.67,0,0,1,2.1,1.83" transform="translate(-16.982 -47.101)" fill="#fe3b81"/>
        <path id="Trazado_149396" data-name="Trazado 149396" d="M36.044,100.793a3.138,3.138,0,0,0-.331-3.175,3.34,3.34,0,0,1-.6-2.674,7.683,7.683,0,0,0,.047-2.588,8.546,8.546,0,0,0-3.131-5.684c-.164-.095-.335-.181-.509-.262a8.3,8.3,0,0,1,3.19,4.615,6.921,6.921,0,0,1,.32,3.157,4.478,4.478,0,0,0,.741,3.841,2.843,2.843,0,0,1-.359,3.478,2.139,2.139,0,0,0,.264-.076,1.892,1.892,0,0,0,.369-.633" transform="translate(-17.294 -47.413)" fill="#fe3b81"/>
        <path id="Trazado_149397" data-name="Trazado 149397" d="M31.207,86.1c.174.081.345.167.509.261a8.133,8.133,0,0,0-.765-.518.885.885,0,0,0,.144.17c.039.028.074.059.112.087" transform="translate(-16.982 -47.101)" fill="#fe3b81"/>
        <path id="Trazado_149398" data-name="Trazado 149398" d="M40.2,119.681a2.116,2.116,0,0,1-.264.076c-.054.062-.11.123-.168.181a.946.946,0,0,0,.432-.257" transform="translate(-21.821 -65.668)" fill="#fe3b81"/>
        <path id="Trazado_149399" data-name="Trazado 149399" d="M116.508,94.9a8.05,8.05,0,0,0-4.519-8.89,8.483,8.483,0,0,1,3.716,6.035,8.679,8.679,0,0,1-.071,2.935,2.892,2.892,0,0,0,.592,2.34,3.1,3.1,0,0,1,.406,3.213,1.627,1.627,0,0,1-.788.926,1.94,1.94,0,0,0,1.167-.518,2.178,2.178,0,0,0,.256-3.062,3.708,3.708,0,0,1-.76-2.979" transform="translate(-61.448 -47.193)" fill="#f98816"/>
        <path id="Trazado_149400" data-name="Trazado 149400" d="M116.634,100.533a3.1,3.1,0,0,0-.406-3.213,2.893,2.893,0,0,1-.593-2.34,8.693,8.693,0,0,0,.071-2.936,8.484,8.484,0,0,0-3.716-6.034.683.683,0,0,0,.116.188,9.415,9.415,0,0,1,2.2,2.413,8.425,8.425,0,0,1,1.214,5.953,3.141,3.141,0,0,0,.446,2.637,3.108,3.108,0,0,1-.116,4.258,1.63,1.63,0,0,0,.788-.926" transform="translate(-61.448 -47.193)" fill="#f98816"/>
        <path id="Trazado_149401" data-name="Trazado 149401" d="M59.609,59.268a1.924,1.924,0,0,0,2.05-2.14q.025-3.719,0-7.437a2.03,2.03,0,0,0-2.22-2.171c-1.4,0-2.8-.018-4.2.009-.408.008-.492-.116-.487-.5.023-1.608.021-3.217.005-4.826a2.033,2.033,0,0,0-2.056-2.17q-6.017-.022-12.035,0a1.954,1.954,0,0,0-2.033,1.941q-.063,3.405,0,6.812a1.944,1.944,0,0,0,2.028,1.937c.662.019,1.325,0,1.987.007.821.006.728-.1.73.718,0,1.893-.011,3.785.005,5.677a2.051,2.051,0,0,0,2.162,2.184c.435.01.871.009,1.306,0,.658-.014.891-.212,1.052-.871-.182-.677-.369-.824-1.07-.83-.416,0-.831,0-1.247,0-.319,0-.505-.135-.5-.468q0-3.117.012-6.234c0-.03.039-.06.1-.141.656.6,1.317,1.181,1.952,1.79a2.044,2.044,0,0,0,2.321.565,1.936,1.936,0,0,0,1.29-1.942c0-.4.168-.467.508-.454.49.02.982.009,1.473,0a1.939,1.939,0,0,0,1.805-1.154c.112-.228.2-.356.487-.35,1.133.023,2.266.019,3.4.026,1.831-.047,1.511-.166,1.525,1.448.018,2.076-.007,4.153.013,6.229,0,.513-.166.717-.687.7-.734-.031-1.471-.01-2.207-.012a11.841,11.841,0,0,0-1.939,1.622c-.161.13-.3.288-.463.413-.326.25-.58.155-.625-.25-.033-.3,0-.6-.015-.9a.808.808,0,0,0-.885-.873c-.677-.015-1.356.007-2.033-.008a.884.884,0,0,0-1.007.834c.16.658.393.853,1.051.871a4.57,4.57,0,0,0,.624,0c.371-.04.56.035.616.478a1.939,1.939,0,0,0,1.619,1.675,1.908,1.908,0,0,0,1.855-.619,4.1,4.1,0,0,1,3.743-1.571M53.061,48.5c0,.338-.124.541-.5.526-.394-.016-.79-.02-1.185-.03-.453.01-.905.013-1.358.032a.864.864,0,0,0-.953.951c-.015.359,0,.718-.008,1.077,0,.187,0,.388-.223.475s-.355-.062-.493-.189c-.682-.626-1.371-1.245-2.04-1.885a1.491,1.491,0,0,0-1.119-.438c-1.4.018-2.8-.008-4.195.014-.474.007-.684-.123-.679-.636.02-2.022.012-4.044.005-6.066,0-.377.087-.608.534-.606q5.215.022,10.431.022c.414-.006.829,0,1.243-.02.4-.016.538.183.538.551q0,3.111,0,6.222" transform="translate(-21.181 -21.959)"/>
        <path id="Trazado_149402" data-name="Trazado 149402" d="M58.8,68.886a14.043,14.043,0,0,1,2.54,0c.523.047.755.392.816.989.035.338-.168.833.225.968.338.117.594-.327.862-.547.437-.356.8-.8,1.262-1.131a1.243,1.243,0,0,1,.653-.31c.364-.007.728-.01,1.092-.015.142-.083.195-.254.192-.539-.022-2.512-.012-5.023-.013-7.535-.993,0-1.988.006-2.981-.006a.911.911,0,0,0-.89.467,2.06,2.06,0,0,1-1.852,1.011c-.341,0-.681,0-1.021,0-.653.007-.694.028-.8.683A2.122,2.122,0,0,1,57.4,64.689a2.049,2.049,0,0,1-2.2-.512c-.527-.488-1.1-.925-1.59-1.453-.085-.091-.186-.227-.331-.146-.1.059-.083.2-.083.315,0,1.758-.016,3.517.007,5.275.006.515.167.645.707.672.415.021.834-.025,1.247.029a.747.747,0,0,1,.751.948h2.2c-.064-.55.148-.88.7-.93m2.138-4.949q1.983-.039,3.967,0a.814.814,0,0,1,.861.858c0,.515-.334.819-.934.83-.642.012-1.284,0-1.927,0s-1.285.011-1.927,0a.844.844,0,1,1-.04-1.686" transform="translate(-29.186 -33.339)" fill="#00c1f7"/>
        <path id="Trazado_149403" data-name="Trazado 149403" d="M65.076,78.792c.677.015,1.356-.007,2.033.008a.808.808,0,0,1,.885.873c.015.3-.018.605.015.9.045.4.3.5.625.25.164-.125.3-.284.463-.413a11.841,11.841,0,0,1,1.939-1.622,1.037,1.037,0,0,1,.765-.083.7.7,0,0,0,.413-.058c-.364,0-.728.008-1.092.015a1.243,1.243,0,0,0-.653.31c-.461.334-.825.774-1.261,1.131-.269.219-.524.663-.863.547-.393-.135-.19-.63-.225-.968-.061-.6-.293-.942-.816-.988a14,14,0,0,0-2.54,0c-.547.051-.759.38-.695.93a.884.884,0,0,1,1.007-.834" transform="translate(-35.148 -43.148)" fill="#00c1f7"/>
        <path id="Trazado_149404" data-name="Trazado 149404" d="M55.033,68.668c-.413-.054-.831-.008-1.247-.029-.541-.027-.7-.157-.707-.672-.023-1.758-.009-3.517-.007-5.275,0-.112-.021-.256.083-.315.144-.081.246.055.33.146.49.528,1.064.965,1.59,1.453a2.05,2.05,0,0,0,2.2.512,2.122,2.122,0,0,0,1.488-1.766c.106-.655.146-.676.8-.683.34,0,.681,0,1.021,0a2.06,2.06,0,0,0,1.852-1.011.91.91,0,0,1,.89-.467c.994.012,1.988,0,2.981.006V60.42c-1.133-.006-2.266,0-3.4-.026-.283-.006-.375.121-.487.35a1.939,1.939,0,0,1-1.8,1.154c-.491.011-.983.022-1.474,0-.34-.014-.509.049-.508.454a1.935,1.935,0,0,1-1.29,1.942,2.044,2.044,0,0,1-2.321-.565c-.635-.609-1.3-1.191-1.952-1.79-.057.082-.1.111-.1.141q-.009,3.117-.012,6.234c0,.333.185.471.5.468.416,0,.831,0,1.247,0,.7.006.887.153,1.07.83a.747.747,0,0,0-.751-.948" transform="translate(-29.061 -33.138)" fill="#00c1f7"/>
        <path id="Trazado_149405" data-name="Trazado 149405" d="M53.359,43.815q-5.215-.008-10.431-.023c-.447,0-.535.229-.534.606.006,2.022.015,4.044-.005,6.066,0,.513.2.644.679.636,1.4-.022,2.8,0,4.195-.014a1.491,1.491,0,0,1,1.119.438c.669.639,1.358,1.259,2.04,1.885.138.127.273.274.493.189s.219-.287.223-.474c.008-.359-.007-.718.008-1.077a.864.864,0,0,1,.953-.951c.452-.019.9-.022,1.358-.032q0-3.35.008-6.7a1.011,1.011,0,0,0-.106-.549M49.871,48.31c-.643.011-1.286,0-1.929,0-.662,0-1.324.011-1.986,0a.894.894,0,0,1-.99-.866c0-.5.39-.828,1.007-.831q1.958-.012,3.915,0c.649,0,.993.3,1,.821s-.361.867-1.023.878" transform="translate(-23.259 -24.028)" fill="#feb44e"/>
        <path id="Trazado_149406" data-name="Trazado 149406" d="M82.772,61.378q.008,3.368,0,6.736c0,.418-.012.627-.131.733l.658-.009c.4-.005.588-.181.589-.583q.009-3.453,0-6.905c0-.414-.2-.573-.6-.563a5.01,5.01,0,0,1-.6-.011,1.319,1.319,0,0,1,.079.6" transform="translate(-45.345 -33.348)" fill="#00aaed"/>
        <path id="Trazado_149407" data-name="Trazado 149407" d="M81.58,60.581c.392-.01.6.149.6.562q.005,3.453,0,6.905c0,.4-.19.578-.589.583l-.658.009c-.114.1-.328.109-.734.111a2.37,2.37,0,0,0-.675.032c.736,0,1.473-.019,2.207.012.521.022.692-.182.687-.7-.02-2.076.005-4.153-.013-6.229-.014-1.614.306-1.5-1.525-1.448a.574.574,0,0,1,.1.146,5.107,5.107,0,0,0,.6.011" transform="translate(-43.632 -33.142)" fill="#00aaed"/>
        <path id="Trazado_149408" data-name="Trazado 149408" d="M82.493,68.113q.009-3.368,0-6.736a1.319,1.319,0,0,0-.079-.6h-.1c0,2.512-.009,5.023.013,7.535,0,.286-.05.456-.192.539l.231,0c.119-.106.13-.315.131-.733" transform="translate(-45.065 -33.346)" fill="#00aaed"/>
        <path id="Trazado_149409" data-name="Trazado 149409" d="M80.2,78.77c.406,0,.62-.01.734-.111l-.231,0a.7.7,0,0,1-.413.057,1.037,1.037,0,0,0-.765.083,2.37,2.37,0,0,1,.675-.033" transform="translate(-43.632 -43.16)" fill="#00aaed"/>
        <path id="Trazado_149410" data-name="Trazado 149410" d="M82.609,60.6h.022a.583.583,0,0,0-.1-.146c0,.048,0,.1,0,.145h.081" transform="translate(-45.283 -33.17)" fill="#00aaed"/>
        <path id="Trazado_149411" data-name="Trazado 149411" d="M67.939,43.8c-.414.018-.829.014-1.243.02.282.153.281.429.283.69.011,1.975.009,3.95,0,5.925a.855.855,0,0,1-.188.632c.395.009.79.014,1.185.03.373.015.5-.188.5-.526q0-3.111,0-6.222c0-.367-.142-.567-.538-.551" transform="translate(-36.596 -24.03)" fill="#fd991b"/>
        <path id="Trazado_149412" data-name="Trazado 149412" d="M66.979,44.533c0-.262,0-.538-.283-.691a1.009,1.009,0,0,1,.106.548q-.006,3.35-.008,6.7a.855.855,0,0,0,.188-.632c.006-1.975.009-3.95,0-5.925" transform="translate(-36.596 -24.056)" fill="#fd991b"/>
        <path id="Trazado_149413" data-name="Trazado 149413" d="M69.353,69.461c.642.015,1.284,0,1.927,0s1.285.009,1.927,0c.6-.011.93-.315.933-.83a.814.814,0,0,0-.86-.858q-1.983-.037-3.967,0a.844.844,0,1,0,.04,1.686" transform="translate(-37.56 -37.177)" fill="#000101"/>
        <path id="Trazado_149414" data-name="Trazado 149414" d="M53.023,50.03q-1.957-.011-3.915,0c-.617,0-1,.334-1.007.832a.894.894,0,0,0,.99.866c.662.014,1.324,0,1.986,0,.643,0,1.286.009,1.929,0,.661-.011,1.034-.341,1.023-.878s-.356-.817-1-.821" transform="translate(-26.393 -27.449)" fill="#010100"/>
      </g>
    </g>
  </g>
</svg>
