<svg xmlns="http://www.w3.org/2000/svg" width="110.17" height="95.906" viewBox="0 0 110.17 95.906">
  <g id="Grupo_165572" data-name="Grupo 165572" transform="translate(0 31.577) rotate(-20)">
    <path id="Trazado_118782" data-name="Trazado 118782" d="M-21.787,94.1c-4-4.479-10.332-5.793-15.951-6.674a275.642,275.642,0,0,0-53.044-3.1c-5.656.218-11.384.957-14.982,4.849-3.163,3.416-3.674,8.212-3.9,12.438a179.175,179.175,0,0,0,.02,19.768c.217,3.834.63,7.848,3.029,11.066,3.269,4.389,9.077,5.779,14.866,6.625a274.426,274.426,0,0,0,32.858,2.795,24.188,24.188,0,0,0,20.21,10.714,28.074,28.074,0,0,0,5.273-.511l3.217-.616-2.89-1.54a21.005,21.005,0,0,1-8.393-8.252c4.992-.39,10.842-1.479,15.262-5.217,6.356-5.378,7.586-14.126,8.3-22.626C-17.319,106.7-17.126,99.317-21.787,94.1Z" transform="translate(109.931 -84.122)" fill="#fff"/>
    <g id="Grupo_84976" data-name="Grupo 84976">
      <g id="Grupo_84972" data-name="Grupo 84972">
        <path id="Trazado_118783" data-name="Trazado 118783" d="M-21.787,94.1c-4-4.479-10.332-5.793-15.951-6.674a275.651,275.651,0,0,0-53.044-3.1c-5.656.218-11.384.957-14.982,4.849-3.163,3.416-3.674,8.212-3.9,12.438a179.621,179.621,0,0,0,.022,19.768c.217,3.834.63,7.848,3.029,11.066,3.268,4.389,9.077,5.779,14.866,6.625a274.394,274.394,0,0,0,32.858,2.795,24.188,24.188,0,0,0,20.21,10.714,28.074,28.074,0,0,0,5.273-.511l3.217-.616-2.892-1.54a21.005,21.005,0,0,1-8.393-8.252c4.993-.39,10.844-1.479,15.262-5.217,6.358-5.378,7.588-14.126,8.3-22.626C-17.319,106.7-17.126,99.317-21.787,94.1Zm-5.923,40.583c-4.423,3.742-10.689,4.526-15.654,4.789l-1.7.088.708,1.545a23.477,23.477,0,0,0,7.405,9.1A21.78,21.78,0,0,1-57.3,140.091l-.332-.507-.608-.014a271.948,271.948,0,0,1-33.176-2.786c-5.3-.774-10.581-2.006-13.348-5.717-2.015-2.706-2.376-6.335-2.574-9.819a177.2,177.2,0,0,1-.02-19.512c.208-3.824.652-8.142,3.291-10.994,3.027-3.273,8.218-3.908,13.375-4.109,3.47-.132,6.99-.2,10.467-.2A273.193,273.193,0,0,1-38.1,89.708a42.46,42.46,0,0,1,8.738,2.121L-41.125,99.8a.869.869,0,0,0-.233,1.208.87.87,0,0,0,.72.381.869.869,0,0,0,.487-.15l12.65-8.57a13.839,13.839,0,0,1,3.627,2.625,156.222,156.222,0,0,1-20.434,14.791.871.871,0,0,0-.292,1.193.872.872,0,0,0,.744.419.876.876,0,0,0,.451-.126A158.121,158.121,0,0,0-22.774,96.64a13.463,13.463,0,0,1,1.98,4.129l-11.5,8.7a.867.867,0,0,0-.168,1.217.865.865,0,0,0,.693.345.864.864,0,0,0,.524-.177l10.889-8.237a29.143,29.143,0,0,1,.422,5.3c-2.554,1.888-5.022,3.632-7.409,5.308-2.222,1.563-4.32,3.04-6.241,4.468a.869.869,0,0,0-.177,1.215.868.868,0,0,0,.7.35.874.874,0,0,0,.518-.172c1.906-1.419,3.993-2.887,6.2-4.439,2.051-1.441,4.176-2.95,6.353-4.54-.054,1.172-.13,2.349-.227,3.52-.038.437-.076.876-.116,1.312l-11.144,8.432a.867.867,0,0,0-.168,1.217.865.865,0,0,0,.693.345.862.862,0,0,0,.524-.175l9.851-7.454C-21.348,124.076-22.893,130.606-27.71,134.681Z" transform="translate(109.931 -84.122)" fill="#231f20"/>
      </g>
      <g id="Grupo_165573" data-name="Grupo 165573" transform="translate(4.915 4.107)">
        <rect id="Rectángulo_40935" data-name="Rectángulo 40935" width="80.239" height="45.183" rx="21" transform="translate(2.365 0) rotate(3)" fill="#fff"/>
        <path id="Trazado_150474" data-name="Trazado 150474" d="M.813,9.686q0-.992.046-1.893T.98,6q.076-.891.182-1.787T1.39,2.347a.826.826,0,0,1,.3-.607.917.917,0,0,1,.547-.182.716.716,0,0,1,.612.4,2.1,2.1,0,0,1,.248,1.1q0,.921-.025,1.969t-.056,2.1Q2.989,8.188,2.964,9.2t-.025,1.883q0,.638.02,1.164t.066.906a3.144,3.144,0,0,0,.116.592q.071.213.182.213.182,0,.359-.4a7.622,7.622,0,0,0,.354-1.048q.177-.648.369-1.483t.4-1.7q.208-.865.445-1.7a13.731,13.731,0,0,1,.506-1.483A4.6,4.6,0,0,1,6.335,5.1.856.856,0,0,1,7,4.7a.764.764,0,0,1,.643.43A4.418,4.418,0,0,1,8.106,6.26a14.08,14.08,0,0,1,.339,1.6q.142.9.258,1.837t.223,1.837q.106.9.243,1.6a6.45,6.45,0,0,0,.309,1.134q.172.43.415.43.182,0,.3-.238a2.469,2.469,0,0,0,.187-.653,7.989,7.989,0,0,0,.1-.967q.025-.552.035-1.179t.005-1.291q-.005-.663-.005-1.3,0-1.63.025-3.229t.025-3.219a2.32,2.32,0,0,1,.035-.359,1.889,1.889,0,0,1,.116-.415,1.022,1.022,0,0,1,.223-.339.481.481,0,0,1,.354-.142.844.844,0,0,1,.466.137,1.431,1.431,0,0,1,.369.344,2.122,2.122,0,0,1,.263.461,2.259,2.259,0,0,1,.147.486,10.376,10.376,0,0,1,.127,1.534q.015.876-.01,1.812t-.066,1.863q-.04.926-.04,1.675T12.51,11.3q-.035.865-.137,1.716a15.37,15.37,0,0,1-.283,1.64,6.108,6.108,0,0,1-.491,1.4,2.914,2.914,0,0,1-.754.967,1.747,1.747,0,0,1-2.1.02,2.836,2.836,0,0,1-.739-.9,5.629,5.629,0,0,1-.491-1.27,13.848,13.848,0,0,1-.3-1.453q-.111-.739-.162-1.453T6.973,10.7q-.035-.557-.061-.9t-.086-.339q-.061,0-.147.334t-.2.876q-.116.542-.273,1.24t-.369,1.422q-.213.724-.481,1.422A7.192,7.192,0,0,1,4.746,16,3.533,3.533,0,0,1,4,16.873a1.414,1.414,0,0,1-.916.334,1.247,1.247,0,0,1-.957-.425,3.349,3.349,0,0,1-.643-1.1,7.914,7.914,0,0,1-.39-1.513q-.137-.84-.2-1.675T.823,10.911Q.813,10.162.813,9.686ZM13.7,14.93q0-.223.005-.926t.015-1.7q.01-1,.03-2.207t.051-2.45q.03-1.24.081-2.419T13.993,3.1q.061-.946.142-1.569a1.925,1.925,0,0,1,.182-.744A.843.843,0,0,1,14.58.631a1.194,1.194,0,0,1,.5-.1.778.778,0,0,1,.638.258,1.461,1.461,0,0,1,.294.623,3.514,3.514,0,0,1,.081.764v.673q0,.466-.015,1.129t-.035,1.412q-.02.749-.046,1.529t-.035,1.493q-.01.714-.01,1.3t.03.952q.03.4.172.4t.294-.334q.152-.314.369-.769a5.624,5.624,0,0,1,.526-.881,3.2,3.2,0,0,1,.724-.724,1.6,1.6,0,0,1,.962-.3,1.694,1.694,0,0,1,.845.2,1.845,1.845,0,0,1,.6.531,2.248,2.248,0,0,1,.349.749,3.325,3.325,0,0,1,.111.855q0,.83-.035,1.589T20.811,13.5q-.046.749-.081,1.513t-.035,1.594q0,.314-.182.39a1.159,1.159,0,0,1-.445.076,1.45,1.45,0,0,1-.83-.192.966.966,0,0,1-.375-.531,2.566,2.566,0,0,1-.091-.79q.01-.45.01-.967,0-.375.015-.81t.035-.871q.02-.435.035-.84t.01-.714a4.252,4.252,0,0,0-.03-.491q-.025-.182-.1-.182a.688.688,0,0,0-.41.233,4.431,4.431,0,0,0-.537.633,10.2,10.2,0,0,0-.6.946q-.309.547-.6,1.169t-.542,1.291a13.106,13.106,0,0,0-.425,1.326,1.413,1.413,0,0,1-.273.516.646.646,0,0,1-.526.233.876.876,0,0,1-.623-.213,1.344,1.344,0,0,1-.344-.531,2.626,2.626,0,0,1-.147-.688Q13.7,15.233,13.7,14.93Zm14.87.688a2.353,2.353,0,0,1,.03.709,1.415,1.415,0,0,1-.147.5.742.742,0,0,1-.268.288.663.663,0,0,1-.344.1.6.6,0,0,1-.42-.162,1.393,1.393,0,0,1-.3-.4,2.935,2.935,0,0,1-.2-.516q-.081-.278-.142-.516t-.106-.4q-.046-.162-.106-.162a.407.407,0,0,0-.268.147,3.893,3.893,0,0,0-.319.369q-.172.223-.38.481a3.68,3.68,0,0,1-.466.481,2.478,2.478,0,0,1-.572.369,1.6,1.6,0,0,1-.688.147,1.661,1.661,0,0,1-.941-.283A2.534,2.534,0,0,1,22.2,16a3.92,3.92,0,0,1-.471-1.093,4.9,4.9,0,0,1-.167-1.286,6.39,6.39,0,0,1,.132-1.24,8.194,8.194,0,0,1,.38-1.316,7.3,7.3,0,0,1,.617-1.25,5.363,5.363,0,0,1,.85-1.058,3.94,3.94,0,0,1,1.068-.734,2.985,2.985,0,0,1,1.275-.273,2.3,2.3,0,0,1,.972.187,1.989,1.989,0,0,1,.683.511,2.56,2.56,0,0,1,.445.759,5.211,5.211,0,0,1,.258.936,8.474,8.474,0,0,1,.121,1.038q.03.537.03,1.063t.015,1.022q.015.506.035.957t.056.81Q28.539,15.4,28.57,15.618Zm-4.991-1.6a1.4,1.4,0,0,0,.167.749q.167.263.309.263a.916.916,0,0,0,.547-.2,2.943,2.943,0,0,0,.537-.531,5.3,5.3,0,0,0,.491-.739,8.04,8.04,0,0,0,.4-.825,6.642,6.642,0,0,0,.273-.785,2.433,2.433,0,0,0,.1-.623q0-.01-.005-.111t-.025-.248q-.02-.147-.061-.319a1.335,1.335,0,0,0-.121-.324.778.778,0,0,0-.2-.248.458.458,0,0,0-.294-.1.819.819,0,0,0-.521.213,2.559,2.559,0,0,0-.491.562,5.894,5.894,0,0,0-.435.785,7.909,7.909,0,0,0-.349.886,7.99,7.99,0,0,0-.233.871A3.686,3.686,0,0,0,23.579,14.019Zm8.3-9.05q-.01.121-.02.2a.252.252,0,0,0,.01.127.123.123,0,0,0,.081.071.661.661,0,0,0,.192.02h.106a1.132,1.132,0,0,0,.137-.01q.344-.02.673-.035t.673-.015q.364,0,.855.02a6.065,6.065,0,0,1,.926.106,2.465,2.465,0,0,1,.739.258.527.527,0,0,1,.3.476.624.624,0,0,1-.137.39,1.059,1.059,0,0,1-.43.3,3.153,3.153,0,0,1-.764.2,7.715,7.715,0,0,1-1.129.071q-.223,0-.476.02l-.5.04q-.248.02-.486.046t-.42.035a.414.414,0,0,0-.324.167.812.812,0,0,0-.121.4q-.071,1.1-.106,2.187t-.025,2.075q.01.992.076,1.858A14.57,14.57,0,0,0,31.9,15.5q.091.435.2.779a5.821,5.821,0,0,1,.157.607.906.906,0,0,1-.01.45.585.585,0,0,1-.3.319.88.88,0,0,1-.395.1.864.864,0,0,1-.5-.157,2.006,2.006,0,0,1-.4-.369,2.8,2.8,0,0,1-.294-.42q-.116-.208-.157-.3a4.266,4.266,0,0,1-.268-.987q-.106-.623-.167-1.392t-.086-1.62q-.025-.85-.025-1.675t.02-1.559q.02-.734.051-1.25a1.514,1.514,0,0,0,.01-.283q-.01-.051-.223-.051h-.243a1.406,1.406,0,0,1-.82-.213.619.619,0,0,1-.3-.516.528.528,0,0,1,.1-.314,1.179,1.179,0,0,1,.278-.268,2.637,2.637,0,0,1,.415-.238q.238-.111.511-.223a.864.864,0,0,0,.294-.187.6.6,0,0,0,.121-.369q.02-.385.061-.815t.1-.845q.056-.415.137-.79a5.573,5.573,0,0,1,.182-.663,1.586,1.586,0,0,1,.233-.456.367.367,0,0,1,.283-.167,1.094,1.094,0,0,1,.3.051,1.251,1.251,0,0,1,.334.157,1.029,1.029,0,0,1,.283.283.936.936,0,0,1,.152.42q.01.081.015.334t.005.592q0,.339-.015.734T31.88,4.969ZM44.928,15.618a2.353,2.353,0,0,1,.03.709,1.415,1.415,0,0,1-.147.5.742.742,0,0,1-.268.288.663.663,0,0,1-.344.1.6.6,0,0,1-.42-.162,1.393,1.393,0,0,1-.3-.4,2.936,2.936,0,0,1-.2-.516q-.081-.278-.142-.516t-.106-.4q-.046-.162-.106-.162a.407.407,0,0,0-.268.147,3.893,3.893,0,0,0-.319.369q-.172.223-.38.481a3.68,3.68,0,0,1-.466.481,2.478,2.478,0,0,1-.572.369,1.6,1.6,0,0,1-.688.147,1.661,1.661,0,0,1-.941-.283A2.534,2.534,0,0,1,38.561,16a3.92,3.92,0,0,1-.471-1.093,4.9,4.9,0,0,1-.167-1.286,6.39,6.39,0,0,1,.132-1.24,8.2,8.2,0,0,1,.38-1.316,7.3,7.3,0,0,1,.617-1.25A5.363,5.363,0,0,1,39.9,8.76a3.94,3.94,0,0,1,1.068-.734,2.985,2.985,0,0,1,1.275-.273,2.3,2.3,0,0,1,.972.187,1.989,1.989,0,0,1,.683.511,2.56,2.56,0,0,1,.445.759,5.211,5.211,0,0,1,.258.936,8.476,8.476,0,0,1,.121,1.038q.03.537.03,1.063t.015,1.022q.015.506.035.957t.056.81Q44.9,15.4,44.928,15.618Zm-4.991-1.6a1.4,1.4,0,0,0,.167.749q.167.263.309.263a.916.916,0,0,0,.547-.2A2.942,2.942,0,0,0,41.5,14.3a5.3,5.3,0,0,0,.491-.739,8.04,8.04,0,0,0,.4-.825,6.642,6.642,0,0,0,.273-.785,2.432,2.432,0,0,0,.1-.623q0-.01-.005-.111t-.025-.248q-.02-.147-.061-.319a1.335,1.335,0,0,0-.121-.324.778.778,0,0,0-.2-.248.458.458,0,0,0-.294-.1.819.819,0,0,0-.521.213,2.559,2.559,0,0,0-.491.562,5.894,5.894,0,0,0-.435.785,7.908,7.908,0,0,0-.349.886,7.99,7.99,0,0,0-.233.871A3.686,3.686,0,0,0,39.938,14.019Zm5.81,2.308a2.75,2.75,0,0,1-.071-.491q-.03-.359-.046-.85t-.02-1.058q-.005-.567-.005-1.1t.005-1q.005-.461.005-.734a5.868,5.868,0,0,1,.051-.719,3.376,3.376,0,0,1,.182-.759,1.911,1.911,0,0,1,.349-.6.713.713,0,0,1,.562-.248.542.542,0,0,1,.4.137,1.031,1.031,0,0,1,.213.3q.076.167.127.3t.152.137a.416.416,0,0,0,.243-.152q.142-.142.324-.309a3.049,3.049,0,0,1,.41-.314,2.521,2.521,0,0,1,.506-.248,1.78,1.78,0,0,1,.612-.1,1.862,1.862,0,0,1,.795.167,1.936,1.936,0,0,1,.612.44,2.051,2.051,0,0,1,.395.617,1.82,1.82,0,0,1,.142.7,2.275,2.275,0,0,1-.03.375,1.024,1.024,0,0,1-.111.329.641.641,0,0,1-.228.238.732.732,0,0,1-.39.091.659.659,0,0,1-.461-.137,1.417,1.417,0,0,1-.248-.3,2.327,2.327,0,0,0-.218-.3.446.446,0,0,0-.359-.137,1.05,1.05,0,0,0-.749.38,3.525,3.525,0,0,0-.643.992,7,7,0,0,0-.45,1.4,7.466,7.466,0,0,0-.172,1.6,4.81,4.81,0,0,1-.081.952,2.264,2.264,0,0,1-.223.648.965.965,0,0,1-.324.364.743.743,0,0,1-.395.111.715.715,0,0,1-.324-.071.946.946,0,0,1-.248-.177,1.063,1.063,0,0,1-.177-.233A1.635,1.635,0,0,1,45.748,16.327Zm12.431-5.76a3.277,3.277,0,0,1-.162,1.043,3.753,3.753,0,0,1-.43.891,3.829,3.829,0,0,1-.612.719,5.119,5.119,0,0,1-.693.537,3.745,3.745,0,0,1-.683.349,1.91,1.91,0,0,1-.587.137.483.483,0,0,0-.354.116.356.356,0,0,0-.091.238.623.623,0,0,0,.061.263,1.965,1.965,0,0,0,.111.213,1.189,1.189,0,0,0,.42.385,1.787,1.787,0,0,0,.845.152,4.816,4.816,0,0,0,.683-.061,3.857,3.857,0,0,0,.891-.258,4.891,4.891,0,0,0,2.03-1.6.4.4,0,0,1,.152-.121.424.424,0,0,1,.577.177,1.81,1.81,0,0,1-.03,1.61,2.6,2.6,0,0,1-.552.668,4.457,4.457,0,0,1-.81.562,6.129,6.129,0,0,1-.982.43,7.142,7.142,0,0,1-1.073.273,6.272,6.272,0,0,1-1.078.1,4.248,4.248,0,0,1-1.6-.288,3.211,3.211,0,0,1-1.2-.835,3.74,3.74,0,0,1-.754-1.336,5.653,5.653,0,0,1-.263-1.792,7.9,7.9,0,0,1,.1-1.25,7.674,7.674,0,0,1,.3-1.235,6.213,6.213,0,0,1,.506-1.129,4.144,4.144,0,0,1,.714-.921,3.171,3.171,0,0,1,.926-.623,2.778,2.778,0,0,1,1.134-.228,2.4,2.4,0,0,1,1.2.273,2.306,2.306,0,0,1,.769.688,2.786,2.786,0,0,1,.415.916A3.872,3.872,0,0,1,58.179,10.567ZM54.19,12.278q0,.04.005.111a.336.336,0,0,0,.04.137.3.3,0,0,0,.106.111.375.375,0,0,0,.2.046,1.122,1.122,0,0,0,.653-.258,3.171,3.171,0,0,0,.638-.638,4.042,4.042,0,0,0,.481-.815,1.961,1.961,0,0,0,.192-.779,1.333,1.333,0,0,0-.03-.268,1.222,1.222,0,0,0-.1-.283.634.634,0,0,0-.182-.228.47.47,0,0,0-.3-.091.858.858,0,0,0-.557.288,3.186,3.186,0,0,0-.557.729,5.186,5.186,0,0,0-.425.962A3.125,3.125,0,0,0,54.19,12.278ZM.742,25.789q0-.152.015-.39t.051-.516a4.62,4.62,0,0,1,.106-.557,2.869,2.869,0,0,1,.177-.506,1.181,1.181,0,0,1,.258-.369.5.5,0,0,1,.354-.142.7.7,0,0,1,.516.192,1.3,1.3,0,0,1,.3.486,2.671,2.671,0,0,1,.142.638,6.344,6.344,0,0,1,.035.648q0,.243-.01.638t-.005.835q.005.44.051.886a3.684,3.684,0,0,0,.167.8,1.638,1.638,0,0,0,.329.587.687.687,0,0,0,.531.228,1.145,1.145,0,0,0,.521-.137,1.811,1.811,0,0,0,.506-.395,2.981,2.981,0,0,0,.43-.617,2.947,2.947,0,0,0,.283-.8q.03-.152.061-.481t.066-.739q.035-.41.071-.855t.081-.825q.046-.38.1-.648A.568.568,0,0,1,6,23.431q.02-.02.061-.071a.716.716,0,0,1,.1-.1.74.74,0,0,1,.157-.1.667.667,0,0,1,.238-.056h.081a.7.7,0,0,1,.415.121,1.053,1.053,0,0,1,.288.309,1.341,1.341,0,0,1,.167.4,1.711,1.711,0,0,1,.051.395q0,.82-.005,1.7T7.54,27.7q-.005.79-.01,1.412t-.005.926A18.8,18.8,0,0,1,7.327,33a6.516,6.516,0,0,1-.6,1.974,2.588,2.588,0,0,1-1.007,1.1,2.9,2.9,0,0,1-1.437.339,3.253,3.253,0,0,1-1.027-.147,2.2,2.2,0,0,1-.734-.395,1.635,1.635,0,0,1-.44-.567,1.568,1.568,0,0,1-.147-.663.843.843,0,0,1,.167-.511.5.5,0,0,1,.42-.228.4.4,0,0,1,.339.172l.273.375a1.844,1.844,0,0,0,.369.375,1.006,1.006,0,0,0,.628.172,1.055,1.055,0,0,0,.83-.329,2.1,2.1,0,0,0,.435-.921,7.778,7.778,0,0,0,.182-1.407q.04-.815.061-1.8a1.161,1.161,0,0,0-.02-.218.114.114,0,0,0-.121-.106.553.553,0,0,0-.369.157q-.177.157-.415.349a2.753,2.753,0,0,1-.577.349,2.039,2.039,0,0,1-.855.157,2.022,2.022,0,0,1-1.027-.243,2.165,2.165,0,0,1-.7-.653,3.346,3.346,0,0,1-.445-.952,7.436,7.436,0,0,1-.243-1.149,12.352,12.352,0,0,1-.1-1.235Q.742,26.366.742,25.789ZM11.7,22.864a2.489,2.489,0,0,1,1.392.4,3.607,3.607,0,0,1,1.043,1.053,5.173,5.173,0,0,1,.658,1.473,6.212,6.212,0,0,1,.228,1.67,5.139,5.139,0,0,1-.324,1.863,4.657,4.657,0,0,1-.855,1.437,3.822,3.822,0,0,1-1.225.926,3.284,3.284,0,0,1-1.422.329,2.342,2.342,0,0,1-1.306-.349,2.745,2.745,0,0,1-.865-.9,4,4,0,0,1-.476-1.22,6.19,6.19,0,0,1-.147-1.321,6.927,6.927,0,0,1,.116-1.245,7.756,7.756,0,0,1,.329-1.23,7.173,7.173,0,0,1,.511-1.119,4.823,4.823,0,0,1,.668-.921,3.091,3.091,0,0,1,.795-.623A1.842,1.842,0,0,1,11.7,22.864Zm.172,1.923a.694.694,0,0,0-.5.319,3.383,3.383,0,0,0-.471.83,6.562,6.562,0,0,0-.349,1.154,6.19,6.19,0,0,0-.137,1.291q0,.1.01.395a3.026,3.026,0,0,0,.086.607,1.554,1.554,0,0,0,.253.557.584.584,0,0,0,.5.243.99.99,0,0,0,.638-.263,2.642,2.642,0,0,0,.562-.678,3.974,3.974,0,0,0,.4-.941,3.782,3.782,0,0,0,.152-1.053q0-.172-.01-.425a4.943,4.943,0,0,0-.051-.526,4.3,4.3,0,0,0-.116-.542,2.1,2.1,0,0,0-.2-.486,1.086,1.086,0,0,0-.314-.349A.763.763,0,0,0,11.867,24.787Zm6.1,7.238a1.945,1.945,0,0,1-.926-.208,1.97,1.97,0,0,1-.663-.577,3.018,3.018,0,0,1-.435-.865,6.9,6.9,0,0,1-.253-1.083,11.6,11.6,0,0,1-.121-1.235q-.03-.648-.03-1.306,0-.162.01-.5t.051-.744q.04-.41.121-.845a4.317,4.317,0,0,1,.223-.795,1.85,1.85,0,0,1,.359-.592.689.689,0,0,1,.521-.233.815.815,0,0,1,.359.086.994.994,0,0,1,.309.233,1.183,1.183,0,0,1,.213.344,1.1,1.1,0,0,1,.081.42q0,.435-.04.891t-.086.916q-.046.461-.086.926t-.04.921q0,.152.005.38t.035.486a4.6,4.6,0,0,0,.091.516,2.046,2.046,0,0,0,.167.466.986.986,0,0,0,.268.334.622.622,0,0,0,.395.127.9.9,0,0,0,.709-.329,2.622,2.622,0,0,0,.466-.84,6.205,6.205,0,0,0,.278-1.129q.1-.617.137-1.2t.046-1.053q.005-.471.005-.683a3.276,3.276,0,0,1,.051-.577,1.784,1.784,0,0,1,.162-.5.985.985,0,0,1,.288-.349.685.685,0,0,1,.42-.132.667.667,0,0,1,.44.147,1.1,1.1,0,0,1,.288.38,2.014,2.014,0,0,1,.162.511,3.025,3.025,0,0,1,.051.542q0,.82-.03,1.559t-.061,1.468q-.03.729-.061,1.473t-.03,1.574a2.1,2.1,0,0,1-.253,1.189.778.778,0,0,1-.658.349,1.238,1.238,0,0,1-.537-.091.567.567,0,0,1-.258-.233.732.732,0,0,1-.086-.3q-.01-.162-.01-.3a.65.65,0,0,0-.035-.233.149.149,0,0,0-.157-.091.428.428,0,0,0-.273.121q-.142.121-.344.273a2.274,2.274,0,0,1-.5.273A1.944,1.944,0,0,1,17.971,32.025ZM34.613,15.383a.547.547,0,0,1,.45.228,1.746,1.746,0,0,1,.278.542,3.205,3.205,0,0,1,.137.653,3.793,3.793,0,0,1,.025.552q-.061,2.014-.167,3.892t-.192,3.735q-.086,1.858-.111,3.74t.066,3.907a1.706,1.706,0,0,1-.02.248.883.883,0,0,1-.076.253.584.584,0,0,1-.152.2.357.357,0,0,1-.238.081.8.8,0,0,1-.592-.228,1.634,1.634,0,0,1-.359-.557,3.339,3.339,0,0,1-.192-.693q-.061-.364-.1-.648-.03-.223-.066-.43t-.071-.375a1.355,1.355,0,0,0-.081-.268q-.046-.1-.1-.1a.366.366,0,0,0-.243.132q-.132.132-.294.324t-.369.425a3.113,3.113,0,0,1-.466.425,2.581,2.581,0,0,1-.587.324,1.96,1.96,0,0,1-.734.132,2.581,2.581,0,0,1-1.159-.248,2.476,2.476,0,0,1-.84-.668A2.934,2.934,0,0,1,27.851,30a3.623,3.623,0,0,1-.172-1.114,7.376,7.376,0,0,1,.121-1.311,7.913,7.913,0,0,1,.354-1.311,7.558,7.558,0,0,1,.562-1.2,5.253,5.253,0,0,1,.734-.992,3.3,3.3,0,0,1,.891-.673,2.219,2.219,0,0,1,1.022-.248,1.566,1.566,0,0,1,.435.056q.192.056.354.116t.294.116a.649.649,0,0,0,.253.056.308.308,0,0,0,.228-.086.574.574,0,0,0,.132-.208,1.068,1.068,0,0,0,.061-.243q.015-.121.025-.182.061-.425.1-1.007t.076-1.235q.035-.653.076-1.331t.1-1.3q.056-.623.142-1.144a5.193,5.193,0,0,1,.208-.865.813.813,0,0,1,.288-.344A.787.787,0,0,1,34.613,15.383ZM29.693,29.17a.907.907,0,0,0,.051.324.7.7,0,0,0,.121.213.437.437,0,0,0,.152.116.38.38,0,0,0,.152.035.894.894,0,0,0,.542-.2,2.87,2.87,0,0,0,.516-.516,5.461,5.461,0,0,0,.466-.7,8.308,8.308,0,0,0,.38-.754A5.624,5.624,0,0,0,32.325,27a1.877,1.877,0,0,0,.091-.476,1.1,1.1,0,0,0-.04-.283.845.845,0,0,0-.132-.278.764.764,0,0,0-.238-.213.679.679,0,0,0-.349-.086.892.892,0,0,0-.552.2,2.248,2.248,0,0,0-.476.511,4.5,4.5,0,0,0-.395.7,6.109,6.109,0,0,0-.294.779,7.339,7.339,0,0,0-.182.739A3.219,3.219,0,0,0,29.693,29.17Zm9.647-6.306a2.489,2.489,0,0,1,1.392.4,3.607,3.607,0,0,1,1.043,1.053,5.173,5.173,0,0,1,.658,1.473,6.212,6.212,0,0,1,.228,1.67,5.139,5.139,0,0,1-.324,1.863,4.657,4.657,0,0,1-.855,1.437,3.822,3.822,0,0,1-1.225.926,3.284,3.284,0,0,1-1.422.329,2.342,2.342,0,0,1-1.306-.349,2.745,2.745,0,0,1-.865-.9,4,4,0,0,1-.476-1.22,6.189,6.189,0,0,1-.147-1.321,6.927,6.927,0,0,1,.116-1.245,7.756,7.756,0,0,1,.329-1.23A7.173,7.173,0,0,1,37,24.635a4.823,4.823,0,0,1,.668-.921,3.091,3.091,0,0,1,.795-.623A1.842,1.842,0,0,1,39.34,22.864Zm.172,1.923a.694.694,0,0,0-.5.319,3.382,3.382,0,0,0-.471.83,6.562,6.562,0,0,0-.349,1.154,6.19,6.19,0,0,0-.137,1.291q0,.1.01.395a3.026,3.026,0,0,0,.086.607,1.554,1.554,0,0,0,.253.557.584.584,0,0,0,.5.243.99.99,0,0,0,.638-.263,2.642,2.642,0,0,0,.562-.678,3.974,3.974,0,0,0,.4-.941,3.782,3.782,0,0,0,.152-1.053q0-.172-.01-.425A4.943,4.943,0,0,0,40.6,26.3a4.3,4.3,0,0,0-.116-.542,2.1,2.1,0,0,0-.2-.486,1.086,1.086,0,0,0-.314-.349A.763.763,0,0,0,39.512,24.787Zm4.009,4.191q0-.354-.015-.941t-.01-1.255q.005-.668.051-1.351A10.125,10.125,0,0,1,43.7,24.2a2.99,2.99,0,0,1,.3-.9.583.583,0,0,1,.511-.349,1.29,1.29,0,0,1,.6.116.744.744,0,0,1,.309.531,4.6,4.6,0,0,1,.066.511q.025.309.025.744,0,.233.01.79T45.54,26.9q.005.709.01,1.483t-.005,1.463q-.01.688-.04,1.194a3.456,3.456,0,0,1-.081.668.326.326,0,0,1-.162.187,1.2,1.2,0,0,1-.248.1,1.329,1.329,0,0,1-.243.046q-.116.01-.157.01a.608.608,0,0,1-.476-.238,1.933,1.933,0,0,1-.339-.658,5.367,5.367,0,0,1-.208-.982A9.6,9.6,0,0,1,43.521,28.978Zm.2-10.052a1.946,1.946,0,0,1,.076-.552,1.319,1.319,0,0,1,.228-.45,1.023,1.023,0,0,1,.385-.3,1.279,1.279,0,0,1,.537-.106,1.488,1.488,0,0,1,.42.061.967.967,0,0,1,.369.2,1.056,1.056,0,0,1,.263.364,1.346,1.346,0,0,1,.1.557,1.548,1.548,0,0,1-.111.607,1.2,1.2,0,0,1-.3.435,1.285,1.285,0,0,1-.44.258,1.549,1.549,0,0,1-.511.086,1.034,1.034,0,0,1-.511-.111.885.885,0,0,1-.309-.278,1.02,1.02,0,0,1-.152-.375A2.087,2.087,0,0,1,43.723,18.926Zm2.844,6.2a1.635,1.635,0,0,1,.081-.461,2.113,2.113,0,0,1,.233-.511,1.574,1.574,0,0,1,.375-.415.885.885,0,0,1,.926-.076.6.6,0,0,1,.238.278,1.354,1.354,0,0,1,.1.445q.02.263.02.587,0,.617.192.617.1,0,.2-.152l.425-.638a4.722,4.722,0,0,1,.567-.693,3.243,3.243,0,0,1,.744-.562,1.961,1.961,0,0,1,.967-.233,1.442,1.442,0,0,1,.881.248,1.545,1.545,0,0,1,.511.709,3.752,3.752,0,0,1,.218,1.108,10.4,10.4,0,0,1-.02,1.437q-.051.678-.061,1.731t.081,2.591a1.227,1.227,0,0,1-.015.288.968.968,0,0,1-.1.294.776.776,0,0,1-.182.233.418.418,0,0,1-.283.1,1.152,1.152,0,0,1-.835-.289,1.811,1.811,0,0,1-.445-.688,3.133,3.133,0,0,1-.182-.82q-.035-.42-.035-.673,0-.445.035-.8t.071-.688q.035-.334.071-.663a6.688,6.688,0,0,0,.035-.714,4.654,4.654,0,0,0-.025-.542,1.383,1.383,0,0,0-.071-.324.349.349,0,0,0-.1-.157.183.183,0,0,0-.106-.04.689.689,0,0,0-.4.233,5.216,5.216,0,0,0-.531.6q-.283.364-.577.8t-.537.845a2.344,2.344,0,0,0-.177.4q-.066.2-.086.294a3.335,3.335,0,0,0-.03.5v.653q0,.344-.015.693a3.474,3.474,0,0,1-.081.633,1.353,1.353,0,0,1-.187.461.393.393,0,0,1-.344.177h-.2a.937.937,0,0,1-.3-.056,1.561,1.561,0,0,1-.3-.142,1.493,1.493,0,0,1-.258-.2.739.739,0,0,1-.167-.223,2.989,2.989,0,0,1-.167-.673q-.066-.43-.106-.967t-.051-1.134q-.01-.6-.01-1.164,0-.709.01-1.311T46.568,25.121ZM57.5,23.087a3.091,3.091,0,0,1,.526.04q.233.04.425.091t.334.091a.933.933,0,0,0,.253.04.135.135,0,0,0,.091-.035l.1-.081a.677.677,0,0,1,.127-.081.494.494,0,0,1,.172-.046h.081a.7.7,0,0,1,.415.121,1.054,1.054,0,0,1,.288.309,1.341,1.341,0,0,1,.167.4,1.711,1.711,0,0,1,.051.395q0,.82-.005,1.7t-.01,1.655q-.005.779-.01,1.372t-.005.835a13.659,13.659,0,0,1-.288,3.042,6.132,6.132,0,0,1-.8,2.014,3.136,3.136,0,0,1-1.22,1.119,3.442,3.442,0,0,1-1.534.344,3.253,3.253,0,0,1-1.027-.147,2.2,2.2,0,0,1-.734-.395,1.635,1.635,0,0,1-.44-.567,1.568,1.568,0,0,1-.147-.663.843.843,0,0,1,.167-.511.5.5,0,0,1,.42-.228.4.4,0,0,1,.339.172l.273.375a1.844,1.844,0,0,0,.369.375,1.006,1.006,0,0,0,.628.172,1.409,1.409,0,0,0,.931-.329,2.488,2.488,0,0,0,.658-.921,5.717,5.717,0,0,0,.395-1.407,11.31,11.31,0,0,0,.132-1.8V30.41a1.037,1.037,0,0,0-.01-.147.532.532,0,0,0-.03-.121q-.02-.051-.061-.051a.679.679,0,0,0-.415.208q-.192.187-.43.4a3.066,3.066,0,0,1-.557.39,1.573,1.573,0,0,1-.774.177,1.83,1.83,0,0,1-1.048-.3,2.559,2.559,0,0,1-.754-.8,3.961,3.961,0,0,1-.461-1.144,5.614,5.614,0,0,1-.157-1.326,6.018,6.018,0,0,1,.238-1.675,4.965,4.965,0,0,1,.693-1.478,3.633,3.633,0,0,1,1.124-1.053A2.918,2.918,0,0,1,57.5,23.087Zm-1.194,6.165a1.09,1.09,0,0,0,.537-.147,2.285,2.285,0,0,0,.5-.385,3.538,3.538,0,0,0,.44-.542,4.492,4.492,0,0,0,.582-1.26,2.11,2.11,0,0,0,.086-.562q0-.01-.01-.172a1.173,1.173,0,0,0-.086-.354,1.075,1.075,0,0,0-.233-.354.6.6,0,0,0-.45-.162,1.043,1.043,0,0,0-.683.268,2.417,2.417,0,0,0-.552.688,4.139,4.139,0,0,0-.369.921,3.67,3.67,0,0,0-.137.967,2.259,2.259,0,0,0,.116.779Q56.164,29.251,56.306,29.251Zm5.051-11.125a2.644,2.644,0,0,1,.177-1.093,2.839,2.839,0,0,1,.542-.86,3.468,3.468,0,0,1,.8-.643,5.486,5.486,0,0,1,.936-.44,5.651,5.651,0,0,1,.957-.253,5.173,5.173,0,0,1,.86-.081A3.52,3.52,0,0,1,66.98,15,3.01,3.01,0,0,1,68,15.682a2.919,2.919,0,0,1,.643,1.017,3.538,3.538,0,0,1,.223,1.265,5.128,5.128,0,0,1-.177,1.3,11.164,11.164,0,0,1-.466,1.387q-.288.709-.663,1.422T66.8,23.476q-.385.693-.759,1.346t-.663,1.24a10.461,10.461,0,0,0-.466,1.083,2.641,2.641,0,0,0-.177.871.908.908,0,0,1-.076.38.954.954,0,0,1-.192.283.859.859,0,0,1-.268.182.758.758,0,0,1-.3.066.658.658,0,0,1-.476-.213.961.961,0,0,1-.213-.7A7.305,7.305,0,0,1,63.478,26a11.352,11.352,0,0,1,.673-1.782,17.171,17.171,0,0,1,.881-1.615q.476-.769.881-1.513a10.85,10.85,0,0,0,.673-1.483,4.389,4.389,0,0,0,.268-1.508,3.748,3.748,0,0,0-.025-.395,1.133,1.133,0,0,0-.152-.45,1.041,1.041,0,0,0-.385-.369,1.46,1.46,0,0,0-.734-.152,2.834,2.834,0,0,0-.648.081,2.207,2.207,0,0,0-.673.288,2.672,2.672,0,0,0-.617.552,2.863,2.863,0,0,0-.481.881.96.96,0,0,1-.172.3,1.187,1.187,0,0,1-.248.223,1.1,1.1,0,0,1-.283.137.912.912,0,0,1-.268.046.7.7,0,0,1-.547-.3A1.342,1.342,0,0,1,61.357,18.126ZM62.7,31.195a1.946,1.946,0,0,1,.076-.552,1.319,1.319,0,0,1,.228-.45,1.023,1.023,0,0,1,.385-.3,1.279,1.279,0,0,1,.537-.106,1.489,1.489,0,0,1,.42.061.967.967,0,0,1,.369.2,1.056,1.056,0,0,1,.263.364,1.346,1.346,0,0,1,.1.557,1.548,1.548,0,0,1-.111.607,1.2,1.2,0,0,1-.3.435,1.285,1.285,0,0,1-.44.258,1.549,1.549,0,0,1-.511.086,1.034,1.034,0,0,1-.511-.111.885.885,0,0,1-.309-.278,1.02,1.02,0,0,1-.152-.375A2.088,2.088,0,0,1,62.7,31.195Z" transform="translate(8.548 5.582)"/>
      </g>
    </g>
  </g>
</svg>
