<svg xmlns="http://www.w3.org/2000/svg" xmlns:xlink="http://www.w3.org/1999/xlink" width="90" height="90" viewBox="0 0 90 90">
  <defs>
    <clipPath id="clip-path">
      <rect id="Rectángulo_40836" data-name="Rectángulo 40836" width="62.153" height="61.973" fill="none"/>
    </clipPath>
  </defs>
  <g id="Grupo_160010" data-name="Grupo 160010" transform="translate(0.082)">
    <circle id="Elipse_4780" data-name="Elipse 4780" cx="45" cy="45" r="45" transform="translate(-0.082 0)" fill="#c4d1ff"/>
    <g id="Grupo_165410" data-name="Grupo 165410" transform="translate(13.918 14)">
      <g id="Grupo_165410-2" data-name="Grupo 165410" clip-path="url(#clip-path)">
        <path id="Trazado_149415" data-name="Trazado 149415" d="M13.462,49.587a1,1,0,0,1-1.377-.351A17.588,17.588,0,0,0,5.841,44,10.7,10.7,0,0,1,.12,34.847c-.009-.111.035-.249-.12-.305v-2.67c.156-.4-.017-.831.1-1.236A14.39,14.39,0,0,1,5.46,20.359,46.419,46.419,0,0,1,12,16,12.376,12.376,0,0,0,17.5,9.544a25.309,25.309,0,0,1,2.267-4.737A10.046,10.046,0,0,1,26.9.378a23.776,23.776,0,0,1,11.263.663,16.325,16.325,0,0,1,7.391,5.076c1.515,1.737,2.866,3.606,4.3,5.408a1.028,1.028,0,0,1,.033,1.425.725.725,0,0,1-1.107.182,3.3,3.3,0,0,1-.858-.848c-1.2-1.526-2.363-3.078-3.6-4.572A14.791,14.791,0,0,0,33.985,2.149c-.931-.087-1.855-.084-2.783-.1a16,16,0,0,0-5.624.682,7.787,7.787,0,0,0-4.619,3.951c-.695,1.327-1.265,2.709-1.844,4.088a15.3,15.3,0,0,1-2.077,3.615,16.233,16.233,0,0,1-4.272,3.44,51.9,51.9,0,0,0-6.223,4.2A12.584,12.584,0,0,0,2.1,30.383a19.21,19.21,0,0,0,.243,5.906,8.067,8.067,0,0,0,3.669,5.476c1.12.725,2.286,1.375,3.407,2.1a16.907,16.907,0,0,1,4.312,4.3.888.888,0,0,1-.268,1.427" transform="translate(0 0)"/>
        <path id="Trazado_149416" data-name="Trazado 149416" d="M46.853,79.011a17.083,17.083,0,0,1-10-4.37,40.054,40.054,0,0,1-4.4-4.568,1.047,1.047,0,0,1-.15-1.416.961.961,0,0,1,1.515-.012c.686.74,1.355,1.5,2.03,2.245A21.042,21.042,0,0,0,41.57,75.5a14.1,14.1,0,0,0,4.475,1.453,11.379,11.379,0,0,0,9.781-2.822c1.133-.976,2.29-1.925,3.46-2.858a16.394,16.394,0,0,1,6.1-3,13.954,13.954,0,0,0,7.351-4.992,21.674,21.674,0,0,0,4.7-11.958,23.964,23.964,0,0,0-.948-9.4,11.922,11.922,0,0,0-3.831-5.5c-1.107-.945-2.273-1.82-3.387-2.757a2.748,2.748,0,0,1-.515-.512.857.857,0,0,1,.2-1.256.935.935,0,0,1,1.226-.03c1.667,1.376,3.429,2.635,4.962,4.173a14.247,14.247,0,0,1,3.873,7.724,26.083,26.083,0,0,1-1.442,15.216,19.486,19.486,0,0,1-8.647,10.027,14.059,14.059,0,0,1-3.435,1.316,14.312,14.312,0,0,0-5.705,3.068,43.422,43.422,0,0,1-5.112,3.98A11.458,11.458,0,0,1,49.846,79c-.084.008-.157.019-.181.115H48.208c-.442-.16-.91.024-1.355-.1" transform="translate(-17.379 -17.143)"/>
        <path id="Trazado_149417" data-name="Trazado 149417" d="M64.3,134.924a2.654,2.654,0,0,1,1.355.1H64.319a.2.2,0,0,0-.02-.1" transform="translate(-34.825 -73.056)" fill="#535353"/>
        <path id="Trazado_149418" data-name="Trazado 149418" d="M.1,66.819A2.21,2.21,0,0,1,0,68.055V66.841a.072.072,0,0,1,.1-.022" transform="translate(0 -36.183)" fill="#585858"/>
        <path id="Trazado_149419" data-name="Trazado 149419" d="M85.4,16.968c-.391.687-.341,1.02.262,1.516q1.733,1.424,3.48,2.832a13.11,13.11,0,0,1,4.742,9.038,25.494,25.494,0,0,1-.225,8.747c-1.093,4.915-3.3,9.174-7.4,12.274a12.783,12.783,0,0,1-4.727,2.237,16.471,16.471,0,0,0-6.6,3.558,39.163,39.163,0,0,1-4.776,3.724,10.789,10.789,0,0,1-7.705,1.238c2.434-1.179,4.337-3.077,6.411-4.743a15.106,15.106,0,0,1,5.751-3.017,16.109,16.109,0,0,0,9.72-7.443A23.129,23.129,0,0,0,87.625,38a26.374,26.374,0,0,0,.1-6.577,19.42,19.42,0,0,0-1.268-5.593,13.035,13.035,0,0,0-3.82-5.09c-1.5-1.263-3.115-2.391-4.523-3.759A44.691,44.691,0,0,1,74.04,12.1a40.224,40.224,0,0,0-3.824-4.461,14.5,14.5,0,0,0-4.693-3.062c-.224-.09-.54-.107-.506-.479,5.234-.143,9.719,1.453,13.139,5.591,1.391,1.682,2.7,3.431,4.056,5.135.509.638.788.7,1.5.342a11.24,11.24,0,0,0,1.685,1.8" transform="translate(-33.823 -2.214)" fill="#e1e1e1"/>
        <path id="Trazado_149420" data-name="Trazado 149420" d="M33.335,4.078a.462.462,0,0,0,.312.258,15.6,15.6,0,0,1,6.5,4.776c1.933,2.241,3.615,4.68,5.56,6.908a23.359,23.359,0,0,0,2.917,2.627A25.965,25.965,0,0,1,53.43,23.11a14.8,14.8,0,0,1,2.465,5.914,25.063,25.063,0,0,1,.473,5.7,23.125,23.125,0,0,1-4.929,14.171,16.017,16.017,0,0,1-9.036,5.8,13.424,13.424,0,0,0-5.1,2.784,46.47,46.47,0,0,1-5.686,4.37,1.7,1.7,0,0,1-.846.27A13.814,13.814,0,0,1,24.1,59.335a33.328,33.328,0,0,1-5.476-5.37c-.541-.633-.865-.675-1.564-.256a6.546,6.546,0,0,0-1.46-1.926c.5-.652.477-.9,0-1.55A17.514,17.514,0,0,0,9.861,45.2a20.145,20.145,0,0,1-2.49-1.609,8.171,8.171,0,0,1-3.115-5.432,17.8,17.8,0,0,1,.3-7.928,12.654,12.654,0,0,1,4.171-6.248,46.565,46.565,0,0,1,6.5-4.323,13.735,13.735,0,0,0,6.01-7.041c.46-1.181,1.006-2.33,1.545-3.48a8.388,8.388,0,0,1,6.627-4.8,17.081,17.081,0,0,1,3.921-.261" transform="translate(-2.141 -2.196)" fill="#eee"/>
        <path id="Trazado_149421" data-name="Trazado 149421" d="M77.879,56.149A12.577,12.577,0,1,1,65.351,43.558,12.578,12.578,0,0,1,77.879,56.149" transform="translate(-28.556 -23.591)"/>
        <path id="Trazado_149422" data-name="Trazado 149422" d="M58.686,64.408a10.733,10.733,0,0,1,14.723-15.1,1.545,1.545,0,0,1,.176.158,4.46,4.46,0,0,1,.727,2.465,12.5,12.5,0,0,1-.7,5.719,11.761,11.761,0,0,1-7.488,7,11.4,11.4,0,0,1-6.276.237,2.544,2.544,0,0,1-1.164-.477" transform="translate(-30.731 -25.744)" fill="#fbce3f"/>
        <path id="Trazado_149423" data-name="Trazado 149423" d="M60.984,66.693a14.2,14.2,0,0,0,4.157.622,11.528,11.528,0,0,0,7.062-2.6,11.047,11.047,0,0,0,4.066-6.6,11.591,11.591,0,0,0-.205-5.732c-.065-.211-.12-.425-.18-.637A10.275,10.275,0,0,1,80.5,60.783,10.65,10.65,0,0,1,68.948,71.271a10.3,10.3,0,0,1-7.964-4.578" transform="translate(-33.029 -28.029)" fill="#eea235"/>
        <path id="Trazado_149424" data-name="Trazado 149424" d="M61.743,62.211A8.261,8.261,0,0,1,64.917,56.2a.937.937,0,0,1,1.355-.012.914.914,0,0,1-.171,1.379,6.778,6.778,0,0,0-2.562,5.2.916.916,0,0,1-.958.951c-.565-.04-.875-.5-.837-1.508" transform="translate(-33.439 -30.281)"/>
      </g>
    </g>
  </g>
</svg>
