<svg xmlns="http://www.w3.org/2000/svg" width="119.356" height="85.182" viewBox="0 0 119.356 85.182">
  <g id="Grupo_165580" data-name="Grupo 165580" transform="translate(-1232.655 -169.991)">
    <path id="Trazado_143428" data-name="Trazado 143428" d="M1496.752,462.13c.018-.019.029-.044.051-.063a1.782,1.782,0,0,1,.748-.445c2.121-.775,4.222-1.616,6.338-2.407.554-2.3,1.171-4.58,1.713-6.878.009-.039.036-.06.047-.1a1.167,1.167,0,0,1,.112-.243,1.908,1.908,0,0,1,2.991-.491c1.487,1.9,3.035,3.742,4.533,5.631,2.385-.183,4.773-.306,7.153-.5a1.529,1.529,0,0,1,1.611.9,1.584,1.584,0,0,1,.019,1.938c-1.323,1.976-2.584,4-3.9,5.977.92,2.233,1.783,4.487,2.711,6.714a1.781,1.781,0,0,1-.754,2.036,2.076,2.076,0,0,1-.208.137,1.722,1.722,0,0,1-.354.147.133.133,0,0,0-.033,0,1.606,1.606,0,0,1-.491.035,1.866,1.866,0,0,1-.36-.027c-.041-.008-.074,0-.117-.008-2.254-.644-4.527-1.214-6.788-1.839-1.714,1.449-3.458,2.866-5.161,4.328a1.733,1.733,0,0,1-.791.475.827.827,0,0,1-.109.016,2.072,2.072,0,0,1-.582.057,1.259,1.259,0,0,1-.172-.03,1.826,1.826,0,0,1-1.485-1.048,1.6,1.6,0,0,1-.188-1.02c-.085-2.211-.226-4.419-.328-6.629-1.878-1.16-3.734-2.353-5.614-3.507a1.59,1.59,0,0,1-.819-.671A1.914,1.914,0,0,1,1496.752,462.13Z" transform="matrix(0.438, 0.899, -0.899, 0.438, 1005.975, -1372.445)"/>
    <g id="Grupo_165571" data-name="Grupo 165571" transform="translate(-3.045 3)">
      <g id="Grupo_165570" data-name="Grupo 165570" transform="translate(11991.056 11674.223)">
        <g id="Grupo_157024" data-name="Grupo 157024" transform="translate(-11238.521 -12264.992)">
          <g id="Grupo_165569" data-name="Grupo 165569" transform="translate(518.52 757.761)">
            <path id="Trazado_117323" data-name="Trazado 117323" d="M529.05,765.728c17.174-11.6,42.037-10.357,58.121,2.562a41.349,41.349,0,0,1,6.161,6.313c7.835,10.438,12.332,22.813,6.6,35.328-3.8,8.308-11.792,13.558-20.147,16.49a45.424,45.424,0,0,1-18.069,2.511c-1.146,6.155-5.32,10.309-10.587,13.316-.934.533-3.912,2.142-2.546-2.632,1.287-4.5.6-9.288-.749-13.871a47.941,47.941,0,0,1-19.051-14.11C517.9,798.393,512.449,776.938,529.05,765.728Z" transform="translate(-518.52 -757.761)"/>
            <g id="Grupo_83561" data-name="Grupo 83561" transform="translate(19.142 4.617)">
              <path id="Trazado_117328" data-name="Trazado 117328" d="M685.932,788.188c-12.243-5.33-27.472-5.757-40.22-2.131-.217.062-.326-.262-.134-.364,11.444-6.09,29.568-4.283,40.476,2.235.139.082.031.326-.122.26Z" transform="translate(-645.479 -781.963)" fill="#fff"/>
            </g>
            <g id="Grupo_83562" data-name="Grupo 83562" transform="translate(14.105 9.069)">
              <path id="Trazado_117329" data-name="Trazado 117329" d="M869.3,805.514a2.132,2.132,0,0,1-1.228.943,7.172,7.172,0,0,1-2.23.859.182.182,0,0,1-.19-.271,2.627,2.627,0,0,1,1.556-1.162,4.368,4.368,0,0,1,1.953-.569c.088.01.181.1.138.2Z" transform="translate(-865.631 -805.305)" fill="#fff"/>
            </g>
            <g id="Grupo_83563" data-name="Grupo 83563" transform="translate(44.686 57.551)">
              <path id="Trazado_117330" data-name="Trazado 117330" d="M607.449,1059.618c-5.73,7.262-18.518,11.156-27.418,9.026a.257.257,0,0,1,.023-.492c10.017-1.29,18.8-2.613,27.24-8.664.086-.062.234.03.156.13Z" transform="translate(-579.857 -1059.469)" fill="#fff"/>
            </g>
          </g>
          <g id="Grupo_83560" data-name="Grupo 83560" transform="translate(531.462 775.958)">
            <path id="Trazado_117324" data-name="Trazado 117324" d="M608.281,864.167a74.524,74.524,0,0,0,2.666-9.3q.157-1.579-1.091-1.7-1.363-.1-2.658,3.425t-3.142,8.681q-.378,1.187-2.287,1.368a31.233,31.233,0,0,1-4.721.124,1.468,1.468,0,0,1-1.448-1.849,35.568,35.568,0,0,1,2.474-6.615,3.279,3.279,0,0,0,.2-.907.977.977,0,0,0-.811-1.175,11.251,11.251,0,0,0-1.162-.245q-.992-.1-1.248.617-.352.929-.59,1.462-1.226,2.993-2.235,6.082a5.9,5.9,0,0,1-1.239,2.2,3.121,3.121,0,0,1-2.234.649,6.293,6.293,0,0,0-1.925.161q-.369.168-.442.9a2.388,2.388,0,0,0,.409,1.857,3.481,3.481,0,0,0,1.946.564q1.138.114,1.037,1.142a9.985,9.985,0,0,1-.648,2.42,12.071,12.071,0,0,0-.714,3.081l-.05.885q-.013,1.631,2.263,1.856,1.322.132,1.406-.714a15.946,15.946,0,0,1-.072-3.011,16.774,16.774,0,0,1,.7-3.3,6.9,6.9,0,0,1,1.125-2.373,4.809,4.809,0,0,1,1.722-.533,17.334,17.334,0,0,1,5.038-.316q1.579.156,1.4,1.993a5.167,5.167,0,0,1-.208.98,47.9,47.9,0,0,0-1.232,7.555q-.171,2.468-.171,2.838a5.386,5.386,0,0,0,.536,2.445,1.959,1.959,0,0,0,1.629,1.145l.184.018q1.106.072,1.2-.846l.022-.22a28.41,28.41,0,0,1-.021-4.267Q604.453,875.469,608.281,864.167Z" transform="translate(-586.365 -853.159)" fill="#fff"/>
            <path id="Trazado_117325" data-name="Trazado 117325" d="M719.605,910.872a2.8,2.8,0,0,0-.868-.234,2,2,0,0,0-1.875.963q-1.776,2.567-2.96,4.416-1.981,3.141-2.461,3.13-.3-.029-.1-1.976.16-1.616.606-4.612a1.791,1.791,0,0,0-1.669-2.243l-.437-.08q-1.518-.051-2.43,7.506a3.524,3.524,0,0,0-1.166.7q-.76.556-2.493,1.57a7.556,7.556,0,0,1-4.107,1.409q-.992-.1-1.206-1.305a1.41,1.41,0,0,1-.03-.448q.051-.514,1.09-.894,2.923-1.045,6.544-5.395a4.215,4.215,0,0,0,.747-1.928,3.122,3.122,0,0,0-.221-1.506,3.738,3.738,0,0,0-3.226-2.619q-2.791-.277-5.732,4.326a14.5,14.5,0,0,0-2,4.251q-.369,1.67-.417,2.147-.514,5.177,5.068,5.732.661.065,1.44.068a6.534,6.534,0,0,0,3.208-1.128,11.733,11.733,0,0,0,2.355-1.8,3.409,3.409,0,0,0,1.949,2.342,3.055,3.055,0,0,0,1.01.286,3.63,3.63,0,0,0,3.061-1.328c.252-.3.4-.442.452-.437a6.75,6.75,0,0,1-.087,1.623q-.447,2.626-.6,4.131a10.3,10.3,0,0,0,.211,4.23,4.057,4.057,0,0,0,2.008,2.183,2.11,2.11,0,0,0,.863.271,1.579,1.579,0,0,0,1.119-.445.747.747,0,0,0,.309-.489,1.6,1.6,0,0,0-.332-.774q-.97-1.432-.664-4.517a46.542,46.542,0,0,1,2-8.961q1.194-3.812,1.972-5.664a2.793,2.793,0,0,0,.139-.654A1.742,1.742,0,0,0,719.605,910.872Zm-17.045-.134a.49.49,0,0,1,.422-.143c.244.024.358.134.338.33a10.274,10.274,0,0,1-1.621,2.88,6.482,6.482,0,0,1-2.066,2.131q-.36-.109-.33-.4A38.228,38.228,0,0,1,702.56,910.738Z" transform="translate(-674.401 -896.984)" fill="#fff"/>
            <path id="Trazado_117326" data-name="Trazado 117326" d="M845.331,873.392a2.645,2.645,0,0,0-.909-.357q-1.415-.263-2.406,1.844-.3.582-.615,1.086-4.407,7.178-5.322,12.112-.742,4.405.214,4.919a2.691,2.691,0,0,0,.7.279,1.5,1.5,0,0,0,.865-.214,1.98,1.98,0,0,0,.9-1.409,47.517,47.517,0,0,1,7.117-15.72,2.463,2.463,0,0,0,.343-.837A1.6,1.6,0,0,0,845.331,873.392Z" transform="translate(-788.183 -869.22)" fill="#fff"/>
            <path id="Trazado_117327" data-name="Trazado 117327" d="M827.932,997.621q-1.851-.344-2.456,2.922-.51,2.757.654,3.762a1.186,1.186,0,0,0,.481.239l.109.02q1.428.189,2.86-4.5a5.638,5.638,0,0,0,.227-.821Q829.957,998.033,827.932,997.621Z" transform="translate(-779.739 -970.038)" fill="#fff"/>
          </g>
        </g>
      </g>
    </g>
  </g>
</svg>
