<svg xmlns="http://www.w3.org/2000/svg" xmlns:xlink="http://www.w3.org/1999/xlink" width="90" height="90" viewBox="0 0 90 90">
  <defs>
    <clipPath id="clip-path">
      <rect id="Rectángulo_40837" data-name="Rectángulo 40837" width="62.835" height="56.001" fill="none"/>
    </clipPath>
  </defs>
  <g id="Grupo_161954" data-name="Grupo 161954" transform="translate(0.193 -0.01)">
    <circle id="Elipse_4781" data-name="Elipse 4781" cx="45" cy="45" r="45" transform="translate(-0.193 0.01)" fill="#c4d1ff"/>
    <g id="Grupo_165411" data-name="Grupo 165411" transform="translate(13.807 17.009)">
      <g id="Grupo_165411-2" data-name="Grupo 165411" clip-path="url(#clip-path)">
        <path id="Trazado_149425" data-name="Trazado 149425" d="M17.827,67.028a.943.943,0,0,1-1.14.6,22.687,22.687,0,0,0-11.519.916c-.526.16-1.055.317-1.593.427a2.908,2.908,0,0,1-3.35-1.738C.171,67.113.18,66.939,0,66.9V65.551C.269,63.5,1.031,61.565,1.412,59.54a17.931,17.931,0,0,0,.117-6.7,24.95,24.95,0,0,1,0-9.316,19.191,19.191,0,0,0-.6-8.729A28.829,28.829,0,0,1,0,30.81V29.7A1.349,1.349,0,0,0,.108,29.5,2.914,2.914,0,0,1,3.745,27.45c1.957.477,3.872,1.123,5.867,1.45a18.647,18.647,0,0,0,4.087.2,1.085,1.085,0,0,1,1.285.848c.129.642-.224,1.105-.973,1.136a25.6,25.6,0,0,1-3.491-.033,37.524,37.524,0,0,1-6.1-1.341,9.429,9.429,0,0,0-1.194-.279c-.852-.112-1.308.351-1.138,1.189.142.7.354,1.386.552,2.073a27.959,27.959,0,0,1,1.344,8.318,30.266,30.266,0,0,1-.452,3.954,19.252,19.252,0,0,0,.024,6.645,21.749,21.749,0,0,1-.232,9.48c-.424,1.517-.823,3.04-1.22,4.564-.244.937.29,1.507,1.237,1.29,1.236-.282,2.453-.643,3.678-.97a22.341,22.341,0,0,1,9.367-.447,3.149,3.149,0,0,1,.948.242.9.9,0,0,1,.492,1.256" transform="translate(0 -17.051)"/>
        <path id="Trazado_149426" data-name="Trazado 149426" d="M6.268,63.055c.2-1.186.443-2.363.543-3.567a20.5,20.5,0,0,0-.255-5.312,21.678,21.678,0,0,1-.017-7.866,22.352,22.352,0,0,0-.661-10.42c-.3-1.039-.564-2.087-.838-3.132-.308-1.175.353-1.812,1.546-1.506,1.758.45,3.492.994,5.277,1.341a22.147,22.147,0,0,0,5.25.318c.628-.028.89-.416.968-.985l2.353-.375a2.338,2.338,0,0,0,2.194.2,49.194,49.194,0,0,1,8.182-1.131c1.737-.1,3.471-.112,5.2-.089A46.9,46.9,0,0,1,46.4,31.742a44.036,44.036,0,0,0,5.537,1.034,5.575,5.575,0,0,0,1.57.083c.473.008.694.206.584.674a9.813,9.813,0,0,1-.451,2.183,1.117,1.117,0,0,1-.814.18c-.593.016-1.187-.033-1.778.027-.54.055-.887.356-.832.721.072.479.448.59.857.629.183.017.368.01.552.01.716,0,1.431-.006,2.147,0,.259,0,.6-.077.73.187s-.135.491-.3.683c-1,1.164-1.977,2.343-2.972,3.509A16.376,16.376,0,0,0,50.1,43.041c-.466.684-.248,1.234.561,1.4a17.043,17.043,0,0,0,2.692.09c.3.013.621-.062.873.183a8.208,8.208,0,0,1,.056,2.676c-.079.978-.305,1.937-.425,2.91a21.767,21.767,0,0,0,.826,8.966c.321,1.077.629,2.159.857,3.26a2.116,2.116,0,0,1-2.307,2.724,3.832,3.832,0,0,1-.905-.145c-1.024-.283-2.046-.573-3.076-.835-.286-.073-.626-.1-.7-.489.025-.375.305-.615.493-.9a6.785,6.785,0,0,0,1.27-3.965,3.515,3.515,0,0,0-1.226-2.707,1.363,1.363,0,0,1-.5-1.128c.008-1.677,0-3.355,0-5.032A10.143,10.143,0,0,0,38.382,39.831H30.772a10.208,10.208,0,0,0-10.151,8.657,5.435,5.435,0,0,0-.046.857c0,1.861,0,3.723,0,5.584a1.327,1.327,0,0,1-.469,1.143,3.679,3.679,0,0,0-1.326,3.739,5.943,5.943,0,0,0,3.3,4.8.632.632,0,0,1,.408.788c-.15.373-.472.335-.777.317A53.712,53.712,0,0,1,11.26,64.124a18.675,18.675,0,0,0-4.357-.6c-.283-.006-.733.1-.634-.469" transform="translate(-3.096 -19.027)" fill="#e4ebf0"/>
        <path id="Trazado_149427" data-name="Trazado 149427" d="M74.447,30.178A45.133,45.133,0,0,1,67.593,28.9,55.808,55.808,0,0,0,54.041,28a45.4,45.4,0,0,0-9.75,1.387,1.049,1.049,0,0,1-1.365-.593c.019-.767.224-1.028.943-1.206A57.713,57.713,0,0,1,62.079,26.3a52.472,52.472,0,0,1,8.868,1.489A20.049,20.049,0,0,0,81.605,27.5c1.056-.31,2.12-.6,3.192-.855a2.9,2.9,0,0,1,3.54,3.517c-.456,1.925-1.044,3.82-1.46,5.753a18.885,18.885,0,0,0-.06,7.432,21.3,21.3,0,0,1,.028,7.868,21.426,21.426,0,0,0,.663,10.294q.447,1.495.807,3.014a2.919,2.919,0,0,1-3.683,3.611c-1.879-.471-3.721-1.091-5.639-1.407a20.377,20.377,0,0,0-8.331.366c-1.267.316-2.546.579-3.825.844a.984.984,0,0,0-.572.3,12.467,12.467,0,0,1-19.329-1.188.478.478,0,0,0-.091-.077,8.019,8.019,0,0,1-1.972-4.442c.048-.3-.1-.413-.368-.527a6.369,6.369,0,0,1-3.358-6.676,3.336,3.336,0,0,1,1.293-2.082.926.926,0,0,0,.41-.868c-.005-1.963-.062-3.93.042-5.887a10.277,10.277,0,0,1,10.05-9.577q4.109-.038,8.219,0a10.324,10.324,0,0,1,10.09,10.066c.026,1.84,0,3.681.012,5.521,0,.213-.069.44.162.614,1.642,1.237,1.783,2.908,1.347,4.737a7.558,7.558,0,0,1-1.649,3.1,1.645,1.645,0,0,1-.946.912,1.516,1.516,0,0,0-.852,1.117,12.63,12.63,0,0,1-.914,2.511,1.5,1.5,0,0,0,.749-.106,25.041,25.041,0,0,1,7.213-.924,24.025,24.025,0,0,1,5.914.966c.847.238,1.7.456,2.549.68,1.252.33,1.754-.2,1.442-1.448-.541-2.16-1.25-4.279-1.576-6.494a21.276,21.276,0,0,1,.145-7.137,20.966,20.966,0,0,0-.073-7.742,21.684,21.684,0,0,1,.588-9.709c.328-1.2.651-2.409.961-3.617.245-.956-.242-1.48-1.226-1.288-1.124.22-2.223.551-3.326.859a20.082,20.082,0,0,1-4.157.757c-1.051.065-2.112-.089-3.17-.113" transform="translate(-25.588 -16.274)"/>
        <path id="Trazado_149428" data-name="Trazado 149428" d="M22.368,119.171a15.217,15.217,0,0,0,1.973,4.442l-3.432-.723c.035-.836-.168-1.076-1-1.239a23.308,23.308,0,0,0-11.432.8c-.682.208-1.373.393-2.067.556A1.1,1.1,0,0,1,5,121.535c.409-1.533.833-3.063,1.25-4.594.032.272.219.3.443.3a25.686,25.686,0,0,1,6.3.991,50.1,50.1,0,0,0,6.3,1,14.718,14.718,0,0,1,2.428.2c.216.059.557.147.636-.259" transform="translate(-3.081 -72.913)" fill="#d5e3e9"/>
        <path id="Trazado_149429" data-name="Trazado 149429" d="M135.915,14.609c.963,0,1.774,0,2.585,0,.453,0,.844.085.854.635s-.36.672-.822.671c-1.328,0-2.656,0-3.984,0-.336,0-.676-.025-.833-.384a.877.877,0,0,1,.251-1c1-1.077,1.989-2.157,3.074-3.333-.806,0-1.507-.009-2.208,0-.479.008-.9-.091-.9-.658s.423-.674.895-.674q1.777,0,3.555,0c.363,0,.7.035.863.43a.838.838,0,0,1-.257.94l-3.07,3.374" transform="translate(-83.327 -6.151)"/>
        <path id="Trazado_149430" data-name="Trazado 149430" d="M118.732.983h-1.722c-.352,0-.617-.129-.6-.524.014-.363.279-.459.6-.459q1.348,0,2.7,0c.268,0,.533-.014.669.3a.627.627,0,0,1-.191.719c-.724.8-1.453,1.6-2.294,2.521.7,0,1.277,0,1.849,0,.331,0,.7-.023.719.449.02.5-.35.53-.716.532-.94,0-1.879,0-2.819,0-.273,0-.54-.019-.672-.314a.662.662,0,0,1,.216-.768L118.732.983" transform="translate(-72.448 0)" fill="#010101"/>
        <path id="Trazado_149431" data-name="Trazado 149431" d="M119.159,34.032c3.6.253,7-.7,10.411-1.645,1.332-.37,1.96.273,1.61,1.619-.493,1.895-1.089,3.764-1.449,5.691a20.715,20.715,0,0,0-.035,7.62,21.2,21.2,0,0,1,.011,7.805,22.3,22.3,0,0,0,.683,10.479c.291,1,.543,2.008.806,3.015.327,1.251-.328,1.878-1.6,1.549-1.678-.435-3.334-.958-5.037-1.292a22.665,22.665,0,0,0-10.612.543c-.367.1-.745.171-1.2.273a12.9,12.9,0,0,0,1.271-3.514.426.426,0,0,1,.306-.346,5.28,5.28,0,0,0,1.509-1.02c.013.287.265.292.444.341,1.216.335,2.432.673,3.657.973a2.019,2.019,0,0,0,2.712-1.633,2.366,2.366,0,0,0-.14-1.067c-.434-1.925-1.084-3.8-1.451-5.737a19.714,19.714,0,0,1-.2-5.9,32.056,32.056,0,0,0,.509-6.009c.266-.218.585-.135.885-.149a6.013,6.013,0,0,0,1.463-.091c.355-.106.663-.28.618-.715s-.369-.561-.747-.57c-1-.025-2,0-3.005-.015-.333-.007-.78.14-.949-.232-.157-.345.241-.571.441-.811,1.216-1.46,2.448-2.909,3.667-4.366.079-.094.165-.183.235-.283.24-.34.478-.691.256-1.127-.213-.418-.62-.415-1.014-.418-.593,0-1.186.006-1.779,0-.239,0-.5.04-.687-.173.123-.757.232-1.517.376-2.27.073-.381-.082-.42-.409-.426a3.939,3.939,0,0,1-1.561-.1" transform="translate(-70.3 -20.129)" fill="#d5e3e9"/>
        <path id="Trazado_149432" data-name="Trazado 149432" d="M127.566,44.345q1.256.012,2.512.025c.453,0,.936-.028,1.156.485a1.223,1.223,0,0,1-.326,1.345q-2.043,2.407-4.068,4.83c-.123.147-.315.26-.325.537h3.177c.245,0,.491-.006.736.01.6.039.945.34.949.823s-.32.8-.932.846c-.529.035-1.062.01-1.594.018-.223,0-.447.023-.67.036-1.018-.012-2.037-.018-3.056-.041-.5-.011-1.07.069-1.341-.5-.279-.589.03-1.046.407-1.488,1.443-1.689,2.873-3.388,4.4-5.191-1.114,0-2.119,0-3.123,0a3.472,3.472,0,0,1-.731-.034.8.8,0,0,1-.718-.79.78.78,0,0,1,.68-.817,9.184,9.184,0,0,1,1.768-.064c.366-.016.733-.018,1.1-.026" transform="translate(-77.113 -27.649)"/>
        <path id="Trazado_149433" data-name="Trazado 149433" d="M65.7,77.266a.989.989,0,0,0,.758.883c1.15.124,1.361.306,1.392,1.511.054,2.065.021,4.131.012,6.2a.8.8,0,0,1-.223.674,1.79,1.79,0,0,0-1.29.905,1.14,1.14,0,0,1-1.918.064,4.258,4.258,0,0,0-.441-.587.643.643,0,0,0-.729-.168.712.712,0,0,0-.444.614,1.4,1.4,0,0,0,.294.976,2.724,2.724,0,0,0,3.7.779,2.669,2.669,0,0,1,.786-.463c.241.1.227.319.24.518a11.906,11.906,0,0,1-8.028,12.358,4.2,4.2,0,0,1-2.332.3,10.292,10.292,0,0,1-6.519-4.9,9.723,9.723,0,0,1-1.332-3.781,1.014,1.014,0,0,0-1.028-1.006,1.791,1.791,0,0,1-1.174-.594,4.91,4.91,0,0,1-1.463-3.027,2.151,2.151,0,0,1,2.232-2.645c1.159-.1,1.311-.268,1.311-1.424,0-1.043,0-2.085,0-3.127a2.922,2.922,0,0,1,3.211-3.183q4.6-.007,9.2,0c.574,0,1.008-.146,1.123-.78.046-.067.094-.159.167-.171a4.412,4.412,0,0,1,2.5.071" transform="translate(-28.639 -48.04)" fill="#fecabd"/>
        <path id="Trazado_149434" data-name="Trazado 149434" d="M68.666,66.442a10.75,10.75,0,0,0-2.666.1c-.05-.76-.345-1.06-1.109-1.061-3.187-.006-6.375-.05-9.561.018a4.594,4.594,0,0,0-4.374,3c-.07.164-.064.366-.229.487a8.528,8.528,0,0,1,6.99-9.176,10.9,10.9,0,0,1,1.952-.121q3.83.014,7.66.022a6.8,6.8,0,0,1,2.538,1.76,9.272,9.272,0,0,1,2.182,3.5c.13.393.128.394-.071.63a11.92,11.92,0,0,0-2.2-.119c-.7.026-.963.256-1.116.962" transform="translate(-31.606 -37.216)" fill="#a54c31"/>
        <path id="Trazado_149435" data-name="Trazado 149435" d="M76.585,103.62a10.506,10.506,0,0,0,6.122-2.637A11.889,11.889,0,0,0,86.7,90.474c-.13-.182.035-.3.105-.427.444-.822.425-.971-.221-1.611a.163.163,0,0,1-.043-.164c.294-.048.248-.276.248-.476,0-2.125.008-4.249-.008-6.374a5.176,5.176,0,0,0-.176-.893.517.517,0,0,0-.637-.491.414.414,0,0,1-.4-.1A9.714,9.714,0,0,1,87.525,80a2.8,2.8,0,0,1,2.362,2.734c.037,1.226.009,2.455.016,3.682,0,.919.228,1.161,1.125,1.247,1.814.173,2.592,1.255,2.2,3.049a5.175,5.175,0,0,1-1.344,2.571,1.76,1.76,0,0,1-1.033.619c-.732.075-.978.514-1.1,1.174a10.359,10.359,0,0,1-6.234,8.019,9.759,9.759,0,0,1-6.931.523" transform="translate(-47.751 -49.831)" fill="#fcac9c"/>
        <path id="Trazado_149436" data-name="Trazado 149436" d="M99.531,65.635a4.078,4.078,0,0,0-.706-2.011,9.224,9.224,0,0,0-3.779-3.7c-.067-.034-.11-.116-.164-.176a8.229,8.229,0,0,1,6.991,4.266,7.58,7.58,0,0,1,1.066,4.8,4.985,4.985,0,0,0-3.408-3.179" transform="translate(-59.159 -37.253)" fill="#893e25"/>
        <path id="Trazado_149437" data-name="Trazado 149437" d="M77.338,122.033a4.9,4.9,0,0,1-3.113-1.088.906.906,0,0,1-.264-1.333.937.937,0,0,1,1.358-.132,3.365,3.365,0,0,0,4.192.011.937.937,0,0,1,1.361.108.9.9,0,0,1-.24,1.338,4.922,4.922,0,0,1-3.294,1.1" transform="translate(-45.996 -74.355)"/>
        <path id="Trazado_149438" data-name="Trazado 149438" d="M95.032,102.1c.78.432.91.843.5,1.635-.1.2-.23.379-.346.568a2.9,2.9,0,0,1-4.5-.113,2.268,2.268,0,0,1-.459-.924.861.861,0,0,1,.561-1.083.839.839,0,0,1,1.125.458,1.44,1.44,0,0,0,.6.738,1.011,1.011,0,0,0,1.41-.57,1.078,1.078,0,0,1,1.1-.709" transform="translate(-56.244 -63.659)"/>
        <path id="Trazado_149439" data-name="Trazado 149439" d="M65.228,105.321a2.859,2.859,0,0,1-2.646-1.74.958.958,0,0,1,.389-1.36c.5-.241.967-.039,1.267.58a1.053,1.053,0,0,0,1.973,0c.3-.619.768-.817,1.271-.575a.96.96,0,0,1,.4,1.358,2.859,2.859,0,0,1-2.649,1.74" transform="translate(-38.944 -63.674)"/>
      </g>
    </g>
  </g>
</svg>
