<svg xmlns="http://www.w3.org/2000/svg" width="42" height="42.511" viewBox="0 0 42 42.511">
  <path id="Trazado_143427" data-name="Trazado 143427" d="M1497.106,468.838c.029-.03.047-.07.082-.1a2.853,2.853,0,0,1,1.2-.713c3.4-1.241,6.761-2.588,10.149-3.855.886-3.68,1.875-7.334,2.744-11.014.014-.062.057-.1.075-.158a1.881,1.881,0,0,1,.18-.389,3.056,3.056,0,0,1,4.79-.786c2.382,3.037,4.86,5.992,7.26,9.017,3.819-.293,7.644-.49,11.455-.8a2.449,2.449,0,0,1,2.58,1.438,2.537,2.537,0,0,1,.03,3.1c-2.119,3.164-4.138,6.4-6.251,9.572,1.474,3.575,2.855,7.186,4.342,10.752a2.852,2.852,0,0,1-1.207,3.26,3.359,3.359,0,0,1-.333.219,2.763,2.763,0,0,1-.568.236.21.21,0,0,0-.052,0,2.574,2.574,0,0,1-.787.057,2.981,2.981,0,0,1-.577-.044c-.066-.013-.119.005-.188-.013-3.61-1.031-7.25-1.945-10.87-2.946-2.744,2.321-5.538,4.589-8.265,6.932a2.775,2.775,0,0,1-1.267.761,1.312,1.312,0,0,1-.175.026,3.317,3.317,0,0,1-.931.092,2.017,2.017,0,0,1-.276-.048,2.924,2.924,0,0,1-2.378-1.679,2.566,2.566,0,0,1-.3-1.634c-.136-3.54-.363-7.076-.525-10.616-3.007-1.858-5.98-3.768-8.991-5.617a2.547,2.547,0,0,1-1.312-1.075A3.065,3.065,0,0,1,1497.106,468.838Z" transform="translate(-1496.162 -450.977)"/>
</svg>
