<svg id="Grupo_157021" data-name="Grupo 157021" xmlns="http://www.w3.org/2000/svg" width="66.116" height="103.47" viewBox="0 0 66.116 103.47">
  <path id="Trazado_117337" data-name="Trazado 117337" d="M1399.489,1052.952c-1.225,0-2.411-1.482-3.913-3.36l-.441-.55a.424.424,0,0,1-.07-.132.383.383,0,0,1-.006-.358c4.3-8.822,9.107-17.7,13.271-25.33a.761.761,0,0,0-.668-1.126.73.73,0,0,0-.115.009c-1.389.213-2.739.388-4.015.52h0c-.337,0-.9-.812-1.17-1.2-.137-.2-.264-.379-.377-.519-.984-1.219-1.845-2.344-2.634-3.442-.074-.1-.057-.132-.038-.162a.689.689,0,0,0,.073-.149.893.893,0,0,0,.133-.17c3.944-6.993,8.3-13.821,12.421-20.157a.761.761,0,0,0-.637-1.176.7.7,0,0,0-.114.009l-2.41.364c-.19.028-.412.078-.648.131a5.872,5.872,0,0,1-1.143.182.851.851,0,0,1-.231-.024c-.411-.112-1.014-.981-1.373-1.5-.166-.239-.319-.458-.454-.627l-.15-.188c-.73-.91-1.484-1.851-2.136-2.82-.087-.128-.053-.171-.016-.219,5.914-10.1,11.088-20.752,16.09-31.051q1.956-4.024,3.918-8.029a.355.355,0,0,1,.248-.107c10.806-.058,21.785-.415,32.4-.76l.147,0a.185.185,0,0,1,.194.1,1.077,1.077,0,0,0,.123.159,54.422,54.422,0,0,0,3.747,4.751.35.35,0,0,1-.012.526c-4.987,5.941-9.684,12.3-14.225,18.453q-1.665,2.257-3.334,4.505a.763.763,0,0,0,.688,1.211l6.7-.689a.775.775,0,0,0,.168-.037.467.467,0,0,0,.085.014c.047.055.167.155.2.188,1.437,1.693,2.719,3.323,3.918,4.982a.429.429,0,0,1-.128.359c-6.048,7.048-12.358,14.079-18.459,20.878l-.139.155a.761.761,0,0,0,.566,1.27c.024,0,6.915-.663,6.915-.663a.6.6,0,0,0,.114-.02.563.563,0,0,0,.1.022c.038.027.09.063.1.068l.025.024a62.8,62.8,0,0,1,3.974,5.057.362.362,0,0,1-.058.292c-7.267,6.534-14.788,13.041-22.06,19.334q-4.26,3.686-8.513,7.379l-14.352,12.485a3.735,3.735,0,0,1-2.266,1.147Z" transform="translate(-1394.253 -950.244)" fill="#fff"/>
  <path id="Trazado_117338" data-name="Trazado 117338" d="M1456.766,953.736a1.1,1.1,0,0,0,0-1.518,54.611,54.611,0,0,1-3.733-4.734c-.016-.022-.034-.038-.05-.059a.936.936,0,0,0-.876-.473c-10.838.352-21.683.706-32.528.764a1.063,1.063,0,0,0-.927.532c-6.42,13.046-12.583,26.386-19.923,38.945a.9.9,0,0,0-.018,1.116c.715,1.061,1.524,2.06,2.323,3.058.527.658,1.329,2.141,2.218,2.385a6.629,6.629,0,0,0,2.34-.271c.8-.123,1.606-.242,2.409-.364-4.314,6.634-8.567,13.32-12.446,20.2a.8.8,0,0,0-.186.284.862.862,0,0,0,.062,1.015c.852,1.186,1.742,2.339,2.66,3.475.5.613,1.255,2.1,2.217,2,1.352-.141,2.7-.319,4.052-.525-4.573,8.38-9.105,16.79-13.287,25.361a1.092,1.092,0,0,0-.031.932,1.166,1.166,0,0,0,.2.369c2.769,3.437,4.334,5.806,7.715,2.86q7.172-6.248,14.351-12.485c10.21-8.884,20.519-17.671,30.583-26.72a1.062,1.062,0,0,0,.168-1.3,61.952,61.952,0,0,0-3.984-5.066,1.1,1.1,0,0,0-.071-.086l-.014-.016s-.007,0-.012-.008a1.385,1.385,0,0,0-.418-.277h-.007a.852.852,0,0,0-.493-.012q-3.42.327-6.842.658c6.255-6.97,12.511-13.939,18.609-21.046a1.079,1.079,0,0,0,.168-1.3c-1.252-1.733-2.572-3.4-3.954-5.028a.849.849,0,0,0-.432-.387.832.832,0,0,0-.09-.042l-.012,0a.839.839,0,0,0-.571,0q-3.35.344-6.7.689C1444.969,968.951,1450.595,961.089,1456.766,953.736Zm-24.108,21.525c.129.238.286.464.426.681.264.41.526.827.806,1.23-.947.089-1.893.178-2.84.261Q1431.855,976.347,1432.658,975.261Zm2.157,1.825c-.365-.588-.815-1.133-1.225-1.69a5.346,5.346,0,0,0-.543-.664q.643-.873,1.284-1.75c.309.575.717,1.127,1.014,1.66a15.756,15.756,0,0,0,1.081,2.229c-.019.024-.037.048-.055.072C1435.852,976.994,1435.333,977.036,1434.815,977.086Zm12.284-21.176c.26.723.649,1.437.9,2.076.283.736.409,1.76.771,2.543-.4.524-.8,1.051-1.2,1.576-.218-.461-.5-.9-.652-1.2a19.252,19.252,0,0,0-1.313-3.055C1446.1,957.2,1446.6,956.553,1447.1,955.911Zm-2.119,2.747a19.2,19.2,0,0,0,.936,2.241c.259.618.582,1.205.838,1.825.045.11.077.213.108.311q-.657.864-1.313,1.729c-.156-.429-.359-.847-.525-1.229a20.583,20.583,0,0,0-1.455-3.028C1444.035,959.887,1444.509,959.273,1444.979,958.658Zm-2,2.634c.18.549.468,1.086.686,1.581.322.731.685,1.432.956,2.186a6.05,6.05,0,0,1,.185.684c-.453.6-.91,1.194-1.362,1.792a14.038,14.038,0,0,0-.733-1.542c-.389-.8-.785-1.792-1.28-2.64Q1442.2,962.32,1442.977,961.292Zm-2.187,2.919c.215.531.5,1.047.719,1.507a18.755,18.755,0,0,1,.919,2.171c.1.288.141.5.22.693q-.782,1.038-1.561,2.079c-.361-.819-.725-1.636-1.132-2.432a18.592,18.592,0,0,0-.909-1.662Q1439.918,965.388,1440.79,964.21Zm-2.292,3.1c.331.725.72,1.439,1.034,2.119a8.826,8.826,0,0,0,.917,2.083q-.753,1-1.506,2.006a12.047,12.047,0,0,0-1.2-2.487,10.611,10.611,0,0,0-.924-1.437Q1437.657,968.451,1438.5,967.31Zm-2.213,3.012c.235.4.5.781.7,1.152.515.94.833,1.962,1.305,2.914l-1.258,1.675a13.038,13.038,0,0,0-.826-1.515,9.782,9.782,0,0,0-1.417-2.187Q1435.535,971.341,1436.285,970.322Zm13.329-10.911c-.229-.757-.613-1.522-.84-2.093a10.555,10.555,0,0,0-1.039-2.211q.848-1.077,1.7-2.146c.19.583.474,1.154.7,1.677a19.561,19.561,0,0,1,.771,2.047c.086.277.124.534.191.779q-.6.788-1.207,1.575C1449.8,959.162,1449.708,959.287,1449.614,959.411Zm1.822-8.892a15.336,15.336,0,0,0,.639,2.259,9.251,9.251,0,0,0,.9,2.282c-.359.459-.723.914-1.079,1.376-.167-.516-.418-1.024-.586-1.43A15.675,15.675,0,0,0,1450,952.26C1450.474,951.675,1450.957,951.1,1451.436,950.519Zm3.232,2.457a.436.436,0,0,0-.146.12c-.362.444-.711.9-1.066,1.348-.164-.641-.5-1.289-.7-1.855-.3-.851-.547-1.734-.917-2.559.073-.087.144-.175.217-.262.586.791,1.184,1.573,1.8,2.342A6,6,0,0,0,1454.668,952.976Zm-35.865-.2q.845-1.7,1.684-3.409c-.109.222,10.738.309,12.035.28q8.632-.2,17.26-.485c-7.7,9.338-14.708,19.32-21.938,29.009a1.079,1.079,0,0,0,.927,1.615c4.944-.4,9.88-.918,14.814-1.431-7.887,9.126-15.978,18.081-24.059,27.034-.555.613-.249,1.961.759,1.832,5.247-.669,10.519-1.176,15.786-1.677-13.416,12.009-27.078,23.756-40.677,35.559,3.811-7.537,7.825-14.977,11.876-22.39l0-.005q1.738-3.181,3.474-6.361a1.085,1.085,0,0,0-1.212-1.577c-3.711.573-7.412,1.207-11.11,1.854,5.166-8.97,10.918-17.635,16.564-26.3a1.079,1.079,0,0,0-.927-1.616c-4.145.433-8.275,1.008-12.392,1.653C1407.892,975.471,1413.243,964.011,1418.8,952.781Zm26.527,28.512c.407,1.03.775,2.1,1.2,3.116-.382.438-.766.874-1.149,1.312a12.212,12.212,0,0,0-1.813-4.076q.673-.775,1.346-1.551A9.218,9.218,0,0,0,1445.33,981.293Zm-3.054,5.594a18.288,18.288,0,0,0-1.052-2.542c.654-.747,1.3-1.5,1.953-2.25.311,1.521,1.227,2.925,1.446,4.49-.563.642-1.123,1.285-1.688,1.925C1442.756,987.933,1442.471,987.363,1442.276,986.887Zm-3.064,2.246a9.348,9.348,0,0,0,.817,2.655c-.4.453-.807.9-1.21,1.357a14.458,14.458,0,0,0-.615-1.711c-.324-.774-.657-1.66-1.082-2.441q.841-.95,1.682-1.9A13.591,13.591,0,0,0,1439.211,989.132Zm-5.075,9.261c-.3-.765-.608-1.524-.876-2.3-.218-.632-.367-1.382-.654-2.025q.772-.862,1.545-1.724a15.367,15.367,0,0,0,.635,1.927,7.394,7.394,0,0,0,1.023,2.248Q1434.973,997.455,1434.136,998.394Zm-9.333,4.352c.13.345.305.683.41.963a5.431,5.431,0,0,0,.3.755c-.843.092-1.683.2-2.525.294Zm.523-.579q1.05-1.165,2.1-2.33c.2.781.63,1.605.844,2.277.189.6.309,1.342.538,2q-1.258.129-2.515.265A6.043,6.043,0,0,0,1425.326,1002.167Zm3.719-.68a6.853,6.853,0,0,0-1.059-2.271q.865-.962,1.728-1.926a13.337,13.337,0,0,0,.533,1.38c.382.936.7,1.924,1.092,2.861-.556.62-1.106,1.243-1.662,1.863C1429.509,1002.713,1429.226,1002.025,1429.044,1001.487Zm2.415-2.431a25.463,25.463,0,0,0-1.022-2.573q.733-.816,1.464-1.632c.112.52.3,1.037.445,1.492a20.585,20.585,0,0,0,1.1,2.823c-.458.512-.913,1.027-1.372,1.539A13.143,13.143,0,0,0,1431.46,999.056Zm4.189-4.72c-.355-.818-.646-1.691-1.059-2.489.628-.7,1.25-1.412,1.876-2.117.129.412.3.817.456,1.207a17.424,17.424,0,0,1,1.066,3.138q-.86.968-1.723,1.932A7.3,7.3,0,0,0,1435.649,994.336Zm1.805,18.363c-.522-1.364-1.066-2.723-1.619-4.073.656-.586,1.318-1.168,1.973-1.755a12.739,12.739,0,0,0,.59,2.223,21.911,21.911,0,0,0,.655,2.2Q1438.255,1012,1437.454,1012.7Zm-4.841,4.238a24.425,24.425,0,0,1-1.033-2.343c-.18-.523-.343-1.122-.58-1.667.612-.542,1.22-1.087,1.831-1.629.239.749.58,1.507.818,2.18a10.565,10.565,0,0,0,.756,1.895Q1433.511,1016.156,1432.613,1016.937Zm-2.368,2.064a21.493,21.493,0,0,1-1.161-2.41c-.183-.467-.333-.992-.545-1.475.609-.537,1.21-1.081,1.819-1.618.129.579.327,1.153.5,1.669a9.465,9.465,0,0,0,1.045,2.39Q1431.073,1018.281,1430.245,1019Zm-2.452,2.139c-.3-.807-.6-1.617-.928-2.412a9.623,9.623,0,0,0-.719-1.517c.6-.528,1.209-1.052,1.811-1.581.146.619.373,1.239.55,1.792a6.973,6.973,0,0,0,1.071,2.162Zm-4.694,4.094c-.24-.557-.52-1.1-.76-1.652a13.77,13.77,0,0,0-1.039-2.134l1.625-1.421c.148.479.362.949.514,1.346a11.5,11.5,0,0,0,1.147,2.565Zm-23.942,20.841a18.305,18.305,0,0,0-.831-1.843c-.328-.643-.57-1.385-.92-2.034q.929-.807,1.86-1.612a14.426,14.426,0,0,0,.691,1.518c.34.7.61,1.636,1.046,2.365Zm-2.7.134a10.006,10.006,0,0,0-1.157-2.188l1.51-1.31a9.368,9.368,0,0,0,.486,1.248c.4.9.851,1.772,1.2,2.689q-.652.568-1.3,1.134C1396.993,1047.217,1396.663,1046.652,1396.461,1046.209Zm4.552-3.853a25.36,25.36,0,0,0-1.149-2.292q.944-.818,1.887-1.636a15.3,15.3,0,0,0,.762,1.757,22.329,22.329,0,0,0,.939,2.15l-1.689,1.47C1401.556,1043.3,1401.244,1042.8,1401.013,1042.356Zm2.421-2.257a15.548,15.548,0,0,0-1.061-2.21q.866-.752,1.732-1.5a16.872,16.872,0,0,0,.664,1.7,20.962,20.962,0,0,0,.955,2.278l-1.512,1.315C1403.982,1041.134,1403.681,1040.609,1403.434,1040.1Zm2.272-1.643c-.375-.805-.7-1.681-1.14-2.471q.92-.8,1.838-1.592a14.533,14.533,0,0,0,.688,1.518c.309.661.608,1.325.852,2.014.054.149.086.279.119.4l-1.711,1.488C1406.166,1039.349,1405.915,1038.9,1405.707,1038.457Zm2.571-1.9a21.786,21.786,0,0,0-1.246-2.7l1.811-1.569a144.73,144.73,0,0,0,1.84,3.767l-1.876,1.632C1408.653,1037.274,1408.42,1036.872,1408.278,1036.554Zm2.088-2.634c-.347-.641-.649-1.4-1.044-2.055l1.888-1.636c.156.39.351.769.516,1.123a16.792,16.792,0,0,0,1.27,2.684l-1.792,1.558A7.885,7.885,0,0,0,1410.366,1033.919Zm2.295-2.18c-.326-.622-.579-1.335-.882-2.005l1.613-1.4a11.09,11.09,0,0,0,.529,1.333,20.492,20.492,0,0,0,1.144,2.565l-1.495,1.3A11.334,11.334,0,0,0,1412.661,1031.74Zm2.231-1.737c-.33-.689-.592-1.451-.944-2.147l1.646-1.427c.119.375.289.743.442,1.1.392.922.737,1.919,1.2,2.814l-1.524,1.326C1415.488,1031.092,1415.143,1030.529,1414.891,1030Zm2.145-2.158c-.271-.6-.517-1.308-.864-1.92.6-.522,1.2-1.048,1.8-1.572.193.657.527,1.3.767,1.9.278.7.495,1.419.748,2.125l-1.635,1.426A15.038,15.038,0,0,0,1417.036,1027.845Zm2.554-1.824a11.49,11.49,0,0,0-.976-2.227q1.134-.988,2.265-1.98a14.835,14.835,0,0,0,.6,1.72,24.432,24.432,0,0,0,.938,2.293q-1.1.961-2.2,1.922C1420.03,1027.165,1419.806,1026.589,1419.59,1026.021Zm4.595-4.854c-.2-.5-.362-1.145-.6-1.713.645-.565,1.293-1.128,1.936-1.693.17.554.437,1.1.63,1.595.316.807.605,1.624.892,2.441l-1.822,1.589C1424.938,1022.629,1424.466,1021.871,1424.185,1021.167Zm10.742-6.662c-.306-.618-.521-1.279-.767-1.922a11.136,11.136,0,0,0-.773-1.78q.9-.8,1.793-1.594a35.448,35.448,0,0,0,1.591,4.089q-.848.742-1.694,1.487C1435.027,1014.692,1434.976,1014.6,1434.928,1014.5Zm-28.322.952a12.689,12.689,0,0,0-.638-1.328c-.088-.169-.175-.368-.27-.566q1.066-.176,2.133-.347Zm-4.625.746a15.415,15.415,0,0,0-1.176-1.817c.527-.091,1.054-.184,1.581-.274a9.431,9.431,0,0,0,.848,1.781,12.353,12.353,0,0,0,.794,1.569c-.411.063-.823.125-1.236.179A8.492,8.492,0,0,0,1401.98,1016.2Zm8.078-27.359c-.111-.465-.193-.982-.319-1.476.726-.092,1.455-.178,2.184-.263l-1.643,2.516C1410.205,989.342,1410.112,989.073,1410.057,988.844Zm-8.548-.292c.734-.116,1.468-.233,2.2-.344a14.7,14.7,0,0,0,.57,1.943c.133.4.2.88.325,1.327l-.644.1C1403.115,990.6,1402.284,989.594,1401.509,988.552Zm3.955,2.8a10.815,10.815,0,0,0-.373-1.078,14.778,14.778,0,0,0-.953-2.125q1.037-.156,2.079-.3c.1.656.231,1.309.369,1.958a9.008,9.008,0,0,0,.3,1.331Zm2.391-.363c-.1-.487-.36-1.011-.461-1.407a9.072,9.072,0,0,0-.594-1.821c.7-.1,1.407-.188,2.11-.28a11.226,11.226,0,0,0,.2,1.319,5.065,5.065,0,0,0,.525,1.82l-.073.111C1408.99,990.811,1408.423,990.9,1407.856,990.985Zm-7.794,26.137c-.624-.748-1.221-1.517-1.809-2.293l1.522-.264c.335.647.839,1.25,1.21,1.84.217.345.418.9.678,1.38-.231.028-.461.062-.692.088C1400.011,1017.982,1400.721,1017.913,1400.062,1017.121Zm4.852.191a8.434,8.434,0,0,0-.9-1.879,9.12,9.12,0,0,0-.813-1.465c.531-.089,1.062-.172,1.593-.26.087.276.217.548.3.784a7.865,7.865,0,0,0,.846,1.786.479.479,0,0,0,.138.13q-.211.389-.423.775C1405.413,1017.232,1405.163,1017.269,1404.913,1017.312Zm-11.493,28.342,1.289-1.117c.249.613.675,1.243.9,1.738.288.643.579,1.281.832,1.938.017.044.034.083.05.125C1395.274,1049,1394.406,1047.2,1393.42,1045.655Zm48.219-36.638q-.541.481-1.084.962c-.225.2-.453.4-.679.6-.153-.437-.358-.868-.493-1.265a28.706,28.706,0,0,0-1-2.952c.249-.223.5-.442.749-.666.581.668,1.144,1.351,1.667,2.067A14.468,14.468,0,0,1,1441.639,1009.016Zm-.872-18.058c-.128-.552-.375-1.1-.534-1.624a25.108,25.108,0,0,0-.915-2.822c.463-.526.931-1.049,1.393-1.577a11.055,11.055,0,0,0,.624,1.789c.238.628.469,1.255.665,1.9.079.258.12.511.176.756l-.175.2C1441.591,990.039,1441.177,990.5,1440.767,990.958Zm6.995-7.953c-.218.252-.44.5-.658.751a13.282,13.282,0,0,0-.658-1.709c-.278-.654-.535-1.314-.8-1.974a5.789,5.789,0,0,1-.19-.6c.233-.269.468-.536.7-.805.738.876,1.456,1.767,2.138,2.69C1449.18,982.524,1448.784,981.824,1447.762,983.006Zm-41.92.208a270.242,270.242,0,0,1,13.676-27.772c.032-.057.131-.017.107.046a238.941,238.941,0,0,1-13.537,27.829C1406.015,983.446,1405.783,983.356,1405.842,983.213Zm13.981-28.726a1.824,1.824,0,0,1,.266-1.049,1.14,1.14,0,0,1,.56-.685.119.119,0,0,1,.177.1c.011.519-.312,1.589-.9,1.691A.085.085,0,0,1,1419.823,954.487Zm4.437,43.413a82.122,82.122,0,0,1,11.883-14.179c.085-.086.207.04.13.13-4,4.686-7.906,9.444-11.881,14.151C1424.329,998.075,1424.209,997.979,1424.26,997.9Zm12.455-14.812c.167-.567.581-1.258,1.207-1.361a.119.119,0,0,1,.145.145c-.1.589-.732,1.021-1.2,1.329A.1.1,0,0,1,1436.714,983.088Zm-30.978,46.579a127.825,127.825,0,0,1,15.429-13.613c.15-.111.314.124.193.25-4.728,4.915-10.286,9.1-15.466,13.518C1405.786,1029.912,1405.638,1029.77,1405.736,1029.667Zm16.516-14.172a.113.113,0,0,1-.109-.109c-.052-.577.793-1.1,1.283-1.2.084-.017.193.058.155.155C1423.4,1014.8,1422.8,1015.556,1422.252,1015.5Z" transform="translate(-1390.953 -946.953)"/>
</svg>
