<svg xmlns="http://www.w3.org/2000/svg" width="128.692" height="59.695" viewBox="0 0 128.692 59.695">
  <g id="Grupo_81200" data-name="Grupo 81200" transform="matrix(-0.966, -0.259, 0.259, -0.966, 205.247, 189.602)">
    <g id="Grupo_81059" data-name="Grupo 81059" transform="translate(119.183 106.547)">
      <g id="Grupo_81053" data-name="Grupo 81053" transform="translate(1.464 1.464)" style="mix-blend-mode: overlay;isolation: isolate">
        <path id="Trazado_114995" data-name="Trazado 114995" d="M154.2,131.323l5.063,20.652-36.7,12.575Z" transform="translate(-121.937 -122.704)" fill="#3c384f"/>
        <path id="Trazado_114996" data-name="Trazado 114996" d="M122.172,164.784a.617.617,0,0,1-.447-1.043l31.64-33.227a.617.617,0,0,1,1.047.279l5.064,20.652a.618.618,0,0,1-.4.731l-36.7,12.574A.61.61,0,0,1,122.172,164.784Zm31.309-32.6L124.36,162.764l33.782-11.573Z" transform="translate(-121.555 -122.321)" fill="#3c384f"/>
        <path id="Trazado_114997" data-name="Trazado 114997" d="M158,136.349l-35.442,30.123,49.105-20.114Z" transform="translate(-121.937 -124.626)" fill="#3c384f"/>
        <path id="Trazado_114998" data-name="Trazado 114998" d="M122.172,166.707a.617.617,0,0,1-.4-1.088L157.214,135.5a.618.618,0,0,1,.765-.028l13.664,10.009a.618.618,0,0,1-.131,1.07L122.406,166.66A.613.613,0,0,1,122.172,166.707Zm35.47-29.954-32.114,27.294,44.494-18.225Z" transform="translate(-121.555 -124.244)" fill="#3c384f"/>
        <path id="Trazado_114999" data-name="Trazado 114999" d="M154.2,126.367l-31.641,33.226,20.826-41.228Z" transform="translate(-121.937 -117.748)" fill="#3c384f"/>
        <path id="Trazado_115000" data-name="Trazado 115000" d="M122.172,159.829a.618.618,0,0,1-.551-.9L142.447,117.7a.618.618,0,0,1,.919-.218l10.814,8a.617.617,0,0,1,.08.922l-31.64,33.227A.616.616,0,0,1,122.172,159.829Zm21.048-40.913-18.61,36.841,28.274-29.691Z" transform="translate(-121.555 -117.366)" fill="#3c384f"/>
        <path id="Trazado_115001" data-name="Trazado 115001" d="M148.825,131.461q-2.6,5.382-5.484,10.618c-.383.7.682,1.32,1.066.623q2.884-5.235,5.484-10.617C150.236,131.372,149.171,130.746,148.825,131.461Z" transform="translate(-129.855 -122.636)" fill="#3c384f"/>
        <path id="Trazado_115002" data-name="Trazado 115002" d="M149.329,145.228a.629.629,0,0,0-.284-.369.622.622,0,0,0-.475-.062.609.609,0,0,0-.369.284l-.629,1.316a.66.66,0,0,0-.062.476.629.629,0,0,0,.284.369.622.622,0,0,0,.476.062.607.607,0,0,0,.369-.284l.629-1.316A.66.66,0,0,0,149.329,145.228Z" transform="translate(-131.473 -127.848)" fill="#3c384f"/>
        <path id="Trazado_115003" data-name="Trazado 115003" d="M179.291,152.873q-6.019,2.6-11.984,5.325c-.722.33-.1,1.394.623,1.066q5.965-2.724,11.984-5.325C180.642,153.625,180.013,152.56,179.291,152.873Z" transform="translate(-138.931 -130.924)" fill="#3c384f"/>
      </g>
      <g id="Grupo_81058" data-name="Grupo 81058">
        <g id="Grupo_81057" data-name="Grupo 81057">
          <g id="Grupo_81054" data-name="Grupo 81054" transform="translate(0 8.002)">
            <path id="Trazado_115004" data-name="Trazado 115004" d="M151.824,128.951l5.063,20.652-36.7,12.575Z" transform="translate(-119.566 -128.334)" fill="#fff"/>
            <path id="Trazado_115005" data-name="Trazado 115005" d="M119.8,162.413a.618.618,0,0,1-.447-1.044l31.641-33.226a.617.617,0,0,1,1.047.279l5.064,20.652a.618.618,0,0,1-.4.731L120,162.38A.627.627,0,0,1,119.8,162.413Zm31.31-32.6-29.121,30.581,33.782-11.573Z" transform="translate(-119.183 -127.952)"/>
          </g>
          <g id="Grupo_81055" data-name="Grupo 81055" transform="translate(0 11.106)">
            <path id="Trazado_115006" data-name="Trazado 115006" d="M155.625,133.978,120.183,164.1l49.105-20.114Z" transform="translate(-119.566 -133.36)" fill="#fff"/>
            <path id="Trazado_115007" data-name="Trazado 115007" d="M119.8,164.335a.617.617,0,0,1-.4-1.088l35.441-30.123a.618.618,0,0,1,.765-.027l13.664,10.008a.617.617,0,0,1-.131,1.07l-49.105,20.114A.61.61,0,0,1,119.8,164.335Zm35.469-29.954-32.113,27.294,44.494-18.225Z" transform="translate(-119.183 -132.978)"/>
          </g>
          <g id="Grupo_81056" data-name="Grupo 81056">
            <path id="Trazado_115008" data-name="Trazado 115008" d="M151.824,124l-31.641,33.226,20.826-41.228Z" transform="translate(-119.566 -115.377)" fill="#fff"/>
            <path id="Trazado_115009" data-name="Trazado 115009" d="M119.8,157.458a.618.618,0,0,1-.551-.9l20.826-41.228a.616.616,0,0,1,.918-.218l10.815,8a.618.618,0,0,1,.08.923l-31.64,33.226A.617.617,0,0,1,119.8,157.458Zm21.047-40.914-18.61,36.842,28.274-29.691Z" transform="translate(-119.183 -114.994)"/>
          </g>
          <path id="Trazado_115010" data-name="Trazado 115010" d="M146.454,129.09q-2.6,5.381-5.484,10.618c-.384.7.682,1.32,1.066.623q2.884-5.235,5.484-10.617C147.864,129,146.8,128.374,146.454,129.09Z" transform="translate(-127.484 -120.264)"/>
          <path id="Trazado_115011" data-name="Trazado 115011" d="M146.958,142.856a.63.63,0,0,0-.284-.369.623.623,0,0,0-.476-.062.607.607,0,0,0-.369.283q-.315.659-.629,1.317a.66.66,0,0,0-.062.476.63.63,0,0,0,.283.369.624.624,0,0,0,.476.062.61.61,0,0,0,.369-.284l.63-1.316A.665.665,0,0,0,146.958,142.856Z" transform="translate(-129.102 -125.477)"/>
          <path id="Trazado_115012" data-name="Trazado 115012" d="M176.92,150.5q-6.019,2.6-11.984,5.325c-.723.33-.1,1.394.623,1.066q5.965-2.723,11.984-5.325C178.27,151.253,177.642,150.189,176.92,150.5Z" transform="translate(-136.559 -128.553)"/>
        </g>
      </g>
    </g>
    <g id="Grupo_81063" data-name="Grupo 81063" transform="translate(155.187 92.907)">
      <g id="Grupo_81060" data-name="Grupo 81060">
        <path id="Trazado_115013" data-name="Trazado 115013" d="M178.1,115.67a.618.618,0,0,1-.464-1.025,62.456,62.456,0,0,1,5.254-5.324.617.617,0,1,1,.826.918,61.173,61.173,0,0,0-5.15,5.219A.617.617,0,0,1,178.1,115.67Zm9.99-9.169a.617.617,0,0,1-.366-1.115c1.333-.982,2.722-1.923,4.127-2.8a.618.618,0,1,1,.653,1.049c-1.378.858-2.741,1.782-4.049,2.744A.616.616,0,0,1,188.093,106.5Zm70.969-2.725a.613.613,0,0,1-.327-.094q-.561-.351-1.129-.691a.618.618,0,0,1,.634-1.06q.579.346,1.152.705a.618.618,0,0,1-.329,1.141Zm-60.38-3.595a.617.617,0,0,1-.264-1.175c1.875-.887,3.811-1.692,5.756-2.391a.617.617,0,0,1,.418,1.162c-1.908.687-3.807,1.476-5.646,2.345A.61.61,0,0,1,198.682,100.181Zm53.79,0a.619.619,0,0,1-.262-.059A62.9,62.9,0,0,0,245.4,97.4a.618.618,0,0,1,.391-1.172A64.137,64.137,0,0,1,252.735,99a.618.618,0,0,1-.263,1.177Zm-43.38-3.856a.617.617,0,0,1-.162-1.213,62.282,62.282,0,0,1,7.32-1.539.618.618,0,0,1,.18,1.222,61.146,61.146,0,0,0-7.175,1.507A.6.6,0,0,1,209.092,96.324Zm31.761-.272a.6.6,0,0,1-.15-.019c-1.972-.492-3.989-.894-6-1.194a.618.618,0,0,1,.183-1.222c2.045.306,4.1.716,6.112,1.218a.617.617,0,0,1-.149,1.217Zm-18.37-1.844a.618.618,0,0,1-.028-1.234c1.651-.076,3.329-.088,4.987-.033a.618.618,0,1,1-.04,1.234c-1.627-.053-3.271-.042-4.89.033Z" transform="translate(-177.486 -92.907)"/>
      </g>
    </g>
  </g>
</svg>
