<svg xmlns="http://www.w3.org/2000/svg" width="210" height="27" viewBox="0 0 210 27">
  <g id="Grupo_161118" data-name="Grupo 161118" transform="translate(-285.333 -135.016)">
    <path id="Trazado_141799" data-name="Trazado 141799" d="M0,0H210a27,27,0,0,1-27,27H0Z" transform="translate(285.333 135.016)" fill="#3c3fa7"/>
    <path id="Trazado_142346" data-name="Trazado 142346" d="M3.1-1.777H7.376V0H.793V-9.953H3.1ZM11.758.144A3.434,3.434,0,0,1,9.123-.875a3.622,3.622,0,0,1-.954-2.577v-.26a4.139,4.139,0,0,1,.9-2.762,3.193,3.193,0,0,1,2.6-1.06,3,3,0,0,1,2.321.9,3.486,3.486,0,0,1,.824,2.454v1.21H10.575l-.014.041a1.436,1.436,0,0,0,.431.94,1.5,1.5,0,0,0,1.08.359,4.681,4.681,0,0,0,1.1-.109,6.959,6.959,0,0,0,1.008-.349l.554,1.408A4.228,4.228,0,0,1,13.453-.1,5.931,5.931,0,0,1,11.758.144Zm-.089-5.9a.953.953,0,0,0-.817.352,1.766,1.766,0,0,0-.3.954l.014.034h2v-.178a1.537,1.537,0,0,0-.2-.868A.773.773,0,0,0,11.669-5.756Zm6.8,2.707.137.786.041.007.15-.793L19.776-7.4H22.2L19.8,0H17.452L15.046-7.4h2.434ZM26.093.144A3.434,3.434,0,0,1,23.458-.875,3.622,3.622,0,0,1,22.5-3.452v-.26a4.139,4.139,0,0,1,.9-2.762A3.193,3.193,0,0,1,26-7.533a3,3,0,0,1,2.321.9,3.486,3.486,0,0,1,.824,2.454v1.21H24.91l-.014.041a1.436,1.436,0,0,0,.431.94,1.5,1.5,0,0,0,1.08.359,4.681,4.681,0,0,0,1.1-.109,6.959,6.959,0,0,0,1.008-.349l.554,1.408A4.228,4.228,0,0,1,27.788-.1,5.931,5.931,0,0,1,26.093.144ZM26-5.756a.953.953,0,0,0-.817.352,1.766,1.766,0,0,0-.3.954l.014.034h2v-.178a1.537,1.537,0,0,0-.2-.868A.773.773,0,0,0,26-5.756ZM32.546,0H30.229V-10.664h2.317Zm8.2-5.94a1.3,1.3,0,0,0,.957-.335,1.257,1.257,0,0,0,.335-.93,1.048,1.048,0,0,0-.342-.79,1.285,1.285,0,0,0-.923-.325,1.112,1.112,0,0,0-.742.256.838.838,0,0,0-.3.673H37.481l-.014-.041A2.2,2.2,0,0,1,38.4-9.358,3.807,3.807,0,0,1,40.77-10.1a4.175,4.175,0,0,1,2.594.742,2.487,2.487,0,0,1,.974,2.1,2.078,2.078,0,0,1-.41,1.244,2.8,2.8,0,0,1-1.114.9,2.608,2.608,0,0,1,1.244.885A2.352,2.352,0,0,1,44.5-2.789a2.535,2.535,0,0,1-1.049,2.15A4.356,4.356,0,0,1,40.77.144a4.129,4.129,0,0,1-2.447-.735,2.369,2.369,0,0,1-1-2.129l.014-.041H39.58a1.071,1.071,0,0,0,.335.807,1.184,1.184,0,0,0,.854.321,1.508,1.508,0,0,0,1.022-.345,1.088,1.088,0,0,0,.4-.858,1.333,1.333,0,0,0-.379-1.056,1.574,1.574,0,0,0-1.07-.332H39.648V-5.94Z" transform="translate(295.333 153.016)" fill="#fff"/>
    <path id="Trazado_142345" data-name="Trazado 142345" d="M6.6-4.375H2.912v2.844H7.3V0H.916V-9.953H7.287v1.538H2.912v2.5H6.6ZM10.377-7.4l.089,1.06a2.705,2.705,0,0,1,.909-.882,2.36,2.36,0,0,1,1.21-.314,2.2,2.2,0,0,1,1.75.721,3.419,3.419,0,0,1,.629,2.28V0h-2V-4.525a1.771,1.771,0,0,0-.277-1.125,1.02,1.02,0,0,0-.831-.332,1.743,1.743,0,0,0-.783.167,1.528,1.528,0,0,0-.557.461V0h-2V-7.4Zm5.783,3.76a4.79,4.79,0,0,1,.759-2.823,2.462,2.462,0,0,1,2.133-1.073,2.1,2.1,0,0,1,1.094.28,2.455,2.455,0,0,1,.807.8l.157-.943h1.716V-.034A2.749,2.749,0,0,1,21.882,2.2a3.983,3.983,0,0,1-2.632.79,5.014,5.014,0,0,1-1.189-.154,5.524,5.524,0,0,1-1.162-.42l.335-1.49a4.581,4.581,0,0,0,.947.332,4.692,4.692,0,0,0,1.056.113,1.787,1.787,0,0,0,1.207-.342,1.353,1.353,0,0,0,.386-1.066v-.67a2.233,2.233,0,0,1-.772.636,2.277,2.277,0,0,1-1.019.219,2.51,2.51,0,0,1-2.119-1,4.248,4.248,0,0,1-.759-2.639Zm2,.144a3.039,3.039,0,0,0,.325,1.528,1.135,1.135,0,0,0,1.063.557,1.648,1.648,0,0,0,.776-.167,1.279,1.279,0,0,0,.509-.489V-5.271A1.364,1.364,0,0,0,20.32-5.8a1.493,1.493,0,0,0-.762-.185,1.12,1.12,0,0,0-1.066.649,3.7,3.7,0,0,0-.335,1.7ZM26.455,0h-2V-10.664h2Zm3.739,0h-2V-7.4h2Zm0-9.167h-2v-1.5h2Zm5.64,7.116a.689.689,0,0,0-.318-.564,3.229,3.229,0,0,0-1.179-.414,4.7,4.7,0,0,1-1.972-.786,1.717,1.717,0,0,1-.673-1.429,2.038,2.038,0,0,1,.807-1.62,3.252,3.252,0,0,1,2.146-.67,3.51,3.51,0,0,1,2.246.67A1.957,1.957,0,0,1,37.7-5.2l-.014.041H35.759a.968.968,0,0,0-.287-.725,1.136,1.136,0,0,0-.827-.28,1.13,1.13,0,0,0-.759.239.744.744,0,0,0-.28.588.664.664,0,0,0,.291.557,3.234,3.234,0,0,0,1.179.386,4.8,4.8,0,0,1,2.027.8,1.762,1.762,0,0,1,.667,1.459,1.952,1.952,0,0,1-.854,1.634,3.688,3.688,0,0,1-2.256.636A3.429,3.429,0,0,1,32.324-.6a2.093,2.093,0,0,1-.817-1.706l.014-.041h1.825a1.037,1.037,0,0,0,.39.861,1.609,1.609,0,0,0,.964.267,1.371,1.371,0,0,0,.844-.222A.721.721,0,0,0,35.834-2.051ZM41-6.46a2.541,2.541,0,0,1,.854-.79,2.252,2.252,0,0,1,1.121-.284,2.265,2.265,0,0,1,1.815.769,3.588,3.588,0,0,1,.66,2.375V0h-2V-4.4a2.044,2.044,0,0,0-.277-1.22.984.984,0,0,0-.831-.359,1.987,1.987,0,0,0-.8.147,1.374,1.374,0,0,0-.55.42V0h-2V-10.664h2ZM50.593,0V-9.953h3.473a4.107,4.107,0,0,1,3.008,1.166A4.018,4.018,0,0,1,58.256-5.8v1.647a4,4,0,0,1-1.183,2.991A4.12,4.12,0,0,1,54.065,0Zm2-8.415v6.884h1.477a1.949,1.949,0,0,0,1.586-.735,2.876,2.876,0,0,0,.6-1.883V-5.811a2.852,2.852,0,0,0-.6-1.873,1.952,1.952,0,0,0-1.586-.731ZM59.4-3.767a3.969,3.969,0,0,1,.923-2.71,3.217,3.217,0,0,1,2.557-1.056,3.251,3.251,0,0,1,2.57,1.053,3.948,3.948,0,0,1,.93,2.714v.144a3.954,3.954,0,0,1-.926,2.717A3.237,3.237,0,0,1,62.891.144,3.246,3.246,0,0,1,60.324-.906,3.954,3.954,0,0,1,59.4-3.623Zm1.989.144A3.218,3.218,0,0,0,61.742-2a1.227,1.227,0,0,0,1.148.612A1.215,1.215,0,0,0,64.022-2a3.2,3.2,0,0,0,.359-1.62v-.144a3.164,3.164,0,0,0-.362-1.606A1.226,1.226,0,0,0,62.877-6a1.211,1.211,0,0,0-1.131.625,3.192,3.192,0,0,0-.359,1.6ZM70.813.144A3.328,3.328,0,0,1,68.229-.872a3.721,3.721,0,0,1-.93-2.615V-3.76a4.05,4.05,0,0,1,.9-2.721,3.068,3.068,0,0,1,2.481-1.053,2.872,2.872,0,0,1,2.287.913,3.607,3.607,0,0,1,.8,2.458v1.032H69.357l-.021.041a2,2,0,0,0,.461,1.23,1.545,1.545,0,0,0,1.227.472,4.106,4.106,0,0,0,1.138-.137,4.644,4.644,0,0,0,.967-.417l.54,1.23a3.705,3.705,0,0,1-1.2.608A5.336,5.336,0,0,1,70.813.144ZM70.684-6a1.109,1.109,0,0,0-.926.414,2.075,2.075,0,0,0-.393,1.1l.014.034h2.434V-4.6a1.728,1.728,0,0,0-.267-1.022A.986.986,0,0,0,70.684-6Zm8.244,3.944a.689.689,0,0,0-.318-.564,3.229,3.229,0,0,0-1.179-.414,4.7,4.7,0,0,1-1.972-.786,1.717,1.717,0,0,1-.673-1.429,2.038,2.038,0,0,1,.807-1.62,3.252,3.252,0,0,1,2.146-.67,3.51,3.51,0,0,1,2.246.67,1.957,1.957,0,0,1,.81,1.668l-.014.041H78.853a.968.968,0,0,0-.287-.725,1.136,1.136,0,0,0-.827-.28,1.13,1.13,0,0,0-.759.239.744.744,0,0,0-.28.588.664.664,0,0,0,.291.557,3.234,3.234,0,0,0,1.179.386,4.8,4.8,0,0,1,2.027.8,1.762,1.762,0,0,1,.667,1.459,1.952,1.952,0,0,1-.854,1.634,3.688,3.688,0,0,1-2.256.636A3.429,3.429,0,0,1,75.417-.6,2.093,2.093,0,0,1,74.6-2.311l.014-.041h1.825a1.037,1.037,0,0,0,.39.861,1.609,1.609,0,0,0,.964.267,1.371,1.371,0,0,0,.844-.222A.721.721,0,0,0,78.928-2.051ZM93.639-3.2h.041L95-9.953h2.058L94.732,0H92.88L91.048-6.556h-.041L89.182,0H87.329L85-9.953h2.058l1.326,6.747h.041l1.791-6.747h1.613Zm3.808-.567a3.969,3.969,0,0,1,.923-2.71,3.217,3.217,0,0,1,2.557-1.056A3.251,3.251,0,0,1,103.5-6.48a3.948,3.948,0,0,1,.93,2.714v.144A3.954,3.954,0,0,1,103.5-.906a3.237,3.237,0,0,1-2.56,1.049A3.246,3.246,0,0,1,98.373-.906a3.954,3.954,0,0,1-.926-2.717Zm1.989.144A3.218,3.218,0,0,0,99.791-2a1.227,1.227,0,0,0,1.148.612A1.215,1.215,0,0,0,102.071-2a3.2,3.2,0,0,0,.359-1.62v-.144a3.164,3.164,0,0,0-.362-1.606A1.226,1.226,0,0,0,100.926-6a1.211,1.211,0,0,0-1.131.625,3.192,3.192,0,0,0-.359,1.6Zm10.11-2.058-.731-.021a1.329,1.329,0,0,0-.731.185,1.17,1.17,0,0,0-.437.52V0h-1.989V-7.4h1.853L107.6-6.3a2.333,2.333,0,0,1,.673-.906,1.5,1.5,0,0,1,.954-.325,1.492,1.492,0,0,1,.277.024q.126.024.256.058ZM113.087-3.1h-.506V0h-2V-10.664h2v6.05h.444L114.8-7.4h2.311L114.7-4.026,117.435,0h-2.3Z" transform="translate(357.333 153.016)" fill="#fff"/>
    <line id="Línea_184" data-name="Línea 184" y2="15.857" transform="translate(347.833 140.516)" fill="none" stroke="#fff" stroke-linecap="round" stroke-width="2"/>
  </g>
</svg>
