<svg xmlns="http://www.w3.org/2000/svg" width="608.548" height="490.102" viewBox="0 0 608.548 490.102">
  <g id="Grupo_165423" data-name="Grupo 165423" transform="translate(-540.154 -1504.039)">
    <g id="Grupo_165422" data-name="Grupo 165422" transform="translate(43.703 71)">
      <path id="Trazado_149483" data-name="Trazado 149483" d="M183.712,283.9H379.835l29.311-44.5H154.4Z" transform="translate(518.953 1480.927)" fill="#fc5f65"/>
      <path id="Trazado_149484" data-name="Trazado 149484" d="M158.129,244.064H412.875l29.311-44.5H128.817Z" transform="translate(515.224 1473.121)" fill="#fc5f65"/>
      <path id="Trazado_149485" data-name="Trazado 149485" d="M234.879,363.583h78.874l29.312-44.5h-137.5Z" transform="translate(526.409 1496.538)" fill="#f02e2e"/>
      <path id="Trazado_149486" data-name="Trazado 149486" d="M231.151,358.923,270.588,418.8l39.438-59.872Z" transform="translate(530.138 1504.345)" fill="#ce0909"/>
      <path id="Trazado_149487" data-name="Trazado 149487" d="M209.3,323.744H346.8l29.311-44.5H179.983Z" transform="translate(522.681 1488.732)" fill="#f23c43"/>
      <path id="Trazado_149488" data-name="Trazado 149488" d="M132.545,204.225h313.37l29.311-44.5H103.233Z" transform="translate(511.496 1465.314)" fill="#ff9fa3"/>
      <path id="Trazado_149489" data-name="Trazado 149489" d="M52.066,80.045l29.311,44.5H511.995l29.312-44.5Z" transform="translate(504.039 1449.703)" fill="#ffbfc1"/>
      <path id="Trazado_149490" data-name="Trazado 149490" d="M574.347,40.205H26.483l29.312,44.5H545.036Z" transform="translate(500.311 1441.897)" fill="#ffdfe0"/>
      <path id="Trazado_149491" data-name="Trazado 149491" d="M106.962,164.385H478.955l29.311-44.5H77.649Z" transform="translate(507.768 1457.509)" fill="#ff9fa3"/>
      <path id="Trazado_149492" data-name="Trazado 149492" d="M0,0,30.341,46.065H578.206L608.548,0Z" transform="translate(496.452 1433.038)" fill="#fff0f1"/>
    </g>
    <path id="Trazado_151234" data-name="Trazado 151234" d="M29.414,12.547H25.727L24.961,15H22.578L26.414,3.625H28.75L32.57,15H30.188Zm-3.125-1.789h2.57L27.6,6.75h-.047ZM35.891,15H33.609V2.813h2.281Zm9.227-3.141h.047l1.023-5.312h2.219L46.258,15H44.352l-1.57-4.875h-.047L41.164,15h-1.9L37.117,6.547h2.219l1.039,5.289h.047L42,6.547h1.523ZM54.523,15a4.8,4.8,0,0,1-.215-.609,4.239,4.239,0,0,1-.129-.656,3.127,3.127,0,0,1-.93,1.023,2.33,2.33,0,0,1-1.375.406,2.855,2.855,0,0,1-2.047-.684,2.449,2.449,0,0,1-.719-1.863,2.229,2.229,0,0,1,.957-1.926,4.78,4.78,0,0,1,2.793-.684h1.281V9.336a1.315,1.315,0,0,0-.32-.945,1.257,1.257,0,0,0-.953-.336,1.239,1.239,0,0,0-.855.27.941.941,0,0,0-.3.738h-2.2L49.5,9.016a2.144,2.144,0,0,1,.934-1.848,4.055,4.055,0,0,1,2.582-.777,3.784,3.784,0,0,1,2.465.766,2.667,2.667,0,0,1,.941,2.2v3.492a6.605,6.605,0,0,0,.09,1.117A5.606,5.606,0,0,0,56.8,15Zm-2.086-1.523a1.944,1.944,0,0,0,1.063-.3,1.6,1.6,0,0,0,.641-.687V11.3H52.859a1.519,1.519,0,0,0-1.1.359,1.181,1.181,0,0,0-.371.883.881.881,0,0,0,.277.684A1.1,1.1,0,0,0,52.438,13.477Zm8.625-2.023.094.469H61.2L62.82,6.547h2.453l-3.43,9.719a4.474,4.474,0,0,1-.977,1.527,2.505,2.505,0,0,1-1.852.621,2.863,2.863,0,0,1-.535-.047q-.246-.047-.6-.133l.266-1.664.219.031a1.611,1.611,0,0,0,.211.016,1.243,1.243,0,0,0,.867-.277,1.83,1.83,0,0,0,.469-.691l.266-.656-3-8.445h2.453Zm9.7,1.2a.787.787,0,0,0-.363-.645,3.69,3.69,0,0,0-1.348-.473,5.375,5.375,0,0,1-2.254-.9,1.962,1.962,0,0,1-.77-1.633,2.329,2.329,0,0,1,.922-1.852A3.717,3.717,0,0,1,69.4,6.391a4.011,4.011,0,0,1,2.566.766,2.237,2.237,0,0,1,.926,1.906l-.016.047h-2.2a1.106,1.106,0,0,0-.328-.828,1.534,1.534,0,0,0-1.812-.047.85.85,0,0,0-.32.672.759.759,0,0,0,.332.637,3.7,3.7,0,0,0,1.348.441,5.484,5.484,0,0,1,2.316.918,2.014,2.014,0,0,1,.762,1.668,2.231,2.231,0,0,1-.977,1.867,4.215,4.215,0,0,1-2.578.727,3.918,3.918,0,0,1-2.668-.855,2.392,2.392,0,0,1-.934-1.949l.016-.047h2.086a1.186,1.186,0,0,0,.445.984,1.838,1.838,0,0,0,1.1.3,1.567,1.567,0,0,0,.965-.254A.824.824,0,0,0,70.758,12.656ZM31.27,51.625V59.07A3.741,3.741,0,0,1,30,62.078a4.916,4.916,0,0,1-3.3,1.086,4.858,4.858,0,0,1-3.285-1.086,3.757,3.757,0,0,1-1.262-3.008V51.625h2.289V59.07a2.341,2.341,0,0,0,.609,1.742,2.244,2.244,0,0,0,1.648.6,2.293,2.293,0,0,0,1.672-.6,2.324,2.324,0,0,0,.617-1.742V51.625Zm6.375,9.031a.787.787,0,0,0-.363-.645,3.69,3.69,0,0,0-1.348-.473,5.375,5.375,0,0,1-2.254-.9,1.962,1.962,0,0,1-.77-1.633,2.329,2.329,0,0,1,.922-1.852,3.717,3.717,0,0,1,2.453-.766,4.011,4.011,0,0,1,2.566.766,2.237,2.237,0,0,1,.926,1.906l-.016.047h-2.2a1.106,1.106,0,0,0-.328-.828,1.534,1.534,0,0,0-1.812-.047.85.85,0,0,0-.32.672.759.759,0,0,0,.332.637,3.7,3.7,0,0,0,1.348.441,5.484,5.484,0,0,1,2.316.918,2.014,2.014,0,0,1,.762,1.668,2.231,2.231,0,0,1-.977,1.867,4.215,4.215,0,0,1-2.578.727,3.918,3.918,0,0,1-2.668-.855,2.392,2.392,0,0,1-.934-1.949l.016-.047H34.8a1.186,1.186,0,0,0,.445.984,1.838,1.838,0,0,0,1.1.3,1.567,1.567,0,0,0,.965-.254A.824.824,0,0,0,37.645,60.656ZM46.5,61.75a2.87,2.87,0,0,1-.992,1.047,2.63,2.63,0,0,1-1.4.367,2.57,2.57,0,0,1-2.09-.906,4.347,4.347,0,0,1-.754-2.812v-4.9h2.273v4.914a2.729,2.729,0,0,0,.3,1.52,1.081,1.081,0,0,0,.934.41,2.273,2.273,0,0,0,.938-.176,1.58,1.58,0,0,0,.641-.52V54.547h2.281V63H46.746ZM55.34,63a4.8,4.8,0,0,1-.215-.609A4.239,4.239,0,0,1,55,61.734a3.127,3.127,0,0,1-.93,1.023,2.33,2.33,0,0,1-1.375.406,2.855,2.855,0,0,1-2.047-.684,2.449,2.449,0,0,1-.719-1.863,2.229,2.229,0,0,1,.957-1.926,4.78,4.78,0,0,1,2.793-.684h1.281v-.672a1.315,1.315,0,0,0-.32-.945,1.257,1.257,0,0,0-.953-.336,1.239,1.239,0,0,0-.855.27.941.941,0,0,0-.3.738h-2.2l-.016-.047a2.144,2.144,0,0,1,.934-1.848,4.055,4.055,0,0,1,2.582-.777,3.784,3.784,0,0,1,2.465.766,2.667,2.667,0,0,1,.941,2.2v3.492a6.605,6.605,0,0,0,.09,1.117A5.606,5.606,0,0,0,57.613,63Zm-2.086-1.523a1.944,1.944,0,0,0,1.063-.3,1.6,1.6,0,0,0,.641-.687V59.3H53.676a1.519,1.519,0,0,0-1.1.359,1.181,1.181,0,0,0-.371.883.881.881,0,0,0,.277.684A1.1,1.1,0,0,0,53.254,61.477ZM61.348,63H59.066V50.813h2.281Zm4.273,0H63.34V50.813h2.281Zm4.922-3.547.094.469h.047L72.3,54.547h2.453l-3.43,9.719a4.474,4.474,0,0,1-.977,1.527,2.505,2.505,0,0,1-1.852.621,2.863,2.863,0,0,1-.535-.047q-.246-.047-.6-.133l.266-1.664.219.031a1.612,1.612,0,0,0,.211.016,1.243,1.243,0,0,0,.867-.277,1.83,1.83,0,0,0,.469-.691l.266-.656-3-8.445h2.453Zm-32.07,46.883a4.776,4.776,0,0,1-1.32,3.465,4.571,4.571,0,0,1-3.437,1.363,4.529,4.529,0,0,1-3.422-1.367,4.8,4.8,0,0,1-1.312-3.461v-2.047a4.807,4.807,0,0,1,1.309-3.457,4.5,4.5,0,0,1,3.41-1.371,4.583,4.583,0,0,1,3.445,1.371,4.768,4.768,0,0,1,1.328,3.457ZM36.2,104.273a3.44,3.44,0,0,0-.664-2.18,2.2,2.2,0,0,0-1.836-.852,2.129,2.129,0,0,0-1.8.852,3.512,3.512,0,0,0-.645,2.18v2.063a3.537,3.537,0,0,0,.648,2.2,2.148,2.148,0,0,0,1.813.852,2.177,2.177,0,0,0,1.828-.852,3.507,3.507,0,0,0,.656-2.2ZM40.7,111v-6.852H39.441v-1.6H40.7v-.937a2.859,2.859,0,0,1,.82-2.191,3.239,3.239,0,0,1,2.3-.77,4.168,4.168,0,0,1,.59.043q.3.043.66.121l-.2,1.7q-.187-.031-.363-.055a3.144,3.144,0,0,0-.41-.023,1.1,1.1,0,0,0-.84.3,1.233,1.233,0,0,0-.285.875v.938h1.625v1.6H42.98V111Zm7.719-10.523v2.07h1.43v1.6h-1.43v4.3a.982.982,0,0,0,.207.7.727.727,0,0,0,.543.211,2.178,2.178,0,0,0,.313-.02,2.632,2.632,0,0,0,.3-.066l.188,1.648a4.618,4.618,0,0,1-.668.176,3.982,3.982,0,0,1-.707.059,2.431,2.431,0,0,1-1.816-.648,2.843,2.843,0,0,1-.637-2.055v-4.312H44.91v-1.6h1.234v-2.07Zm6.5,10.688A3.8,3.8,0,0,1,51.965,110a4.252,4.252,0,0,1-1.062-2.988V106.7a4.628,4.628,0,0,1,1.031-3.109,3.506,3.506,0,0,1,2.836-1.2,3.282,3.282,0,0,1,2.613,1.043,4.122,4.122,0,0,1,.91,2.809v1.18H53.254l-.023.047a2.284,2.284,0,0,0,.527,1.406,1.766,1.766,0,0,0,1.4.539,4.692,4.692,0,0,0,1.3-.156,5.307,5.307,0,0,0,1.105-.477l.617,1.406a4.234,4.234,0,0,1-1.375.7A6.1,6.1,0,0,1,54.918,111.164Zm-.148-7.016a1.267,1.267,0,0,0-1.059.473,2.371,2.371,0,0,0-.449,1.254l.016.039h2.781v-.172a1.974,1.974,0,0,0-.3-1.168A1.127,1.127,0,0,0,54.77,104.148Zm6.938-1.6.1,1.211a3.092,3.092,0,0,1,1.039-1.008,2.7,2.7,0,0,1,1.383-.359,2.513,2.513,0,0,1,2,.824,3.908,3.908,0,0,1,.719,2.605V111H64.66v-5.172a2.024,2.024,0,0,0-.316-1.285,1.166,1.166,0,0,0-.949-.379,1.992,1.992,0,0,0-.895.191,1.746,1.746,0,0,0-.637.527V111H59.582v-8.453ZM17.684,154.273H13.316V159H11.035V147.625H18.48v1.758H13.316v3.133h4.367ZM24,152.508l-.836-.023a1.519,1.519,0,0,0-.836.211,1.337,1.337,0,0,0-.5.594V159H19.559v-8.453h2.117l.1,1.25a2.667,2.667,0,0,1,.77-1.035,1.8,1.8,0,0,1,1.406-.344q.145.027.293.066Zm4.7,6.656A3.8,3.8,0,0,1,25.754,158a4.252,4.252,0,0,1-1.062-2.988V154.7a4.628,4.628,0,0,1,1.031-3.109,3.506,3.506,0,0,1,2.836-1.2,3.282,3.282,0,0,1,2.613,1.043,4.122,4.122,0,0,1,.91,2.809v1.18H27.043l-.023.047a2.284,2.284,0,0,0,.527,1.406,1.766,1.766,0,0,0,1.4.539,4.692,4.692,0,0,0,1.3-.156,5.307,5.307,0,0,0,1.105-.477l.617,1.406a4.234,4.234,0,0,1-1.375.7A6.1,6.1,0,0,1,28.707,159.164Zm-.148-7.016a1.267,1.267,0,0,0-1.059.473,2.371,2.371,0,0,0-.449,1.254l.016.039h2.781v-.172a1.974,1.974,0,0,0-.3-1.168A1.127,1.127,0,0,0,28.559,152.148Zm4.5,2.7a5.493,5.493,0,0,1,.863-3.227,2.8,2.8,0,0,1,2.434-1.227,2.413,2.413,0,0,1,1.234.309,2.766,2.766,0,0,1,.914.887l.211-1.039h1.938v11.7H38.371v-4.039a2.515,2.515,0,0,1-.879.711,2.629,2.629,0,0,1-1.152.242,2.858,2.858,0,0,1-2.418-1.141,4.871,4.871,0,0,1-.863-3.016Zm2.273.164a3.511,3.511,0,0,0,.375,1.758,1.3,1.3,0,0,0,1.219.648,1.836,1.836,0,0,0,.859-.187,1.512,1.512,0,0,0,.586-.547v-3.75a1.608,1.608,0,0,0-.582-.578,1.681,1.681,0,0,0-.848-.2,1.286,1.286,0,0,0-1.223.75,4.244,4.244,0,0,0-.387,1.945Zm12.289,2.742a2.87,2.87,0,0,1-.992,1.047,2.63,2.63,0,0,1-1.4.367,2.57,2.57,0,0,1-2.09-.906,4.347,4.347,0,0,1-.754-2.812v-4.9H44.66v4.914a2.729,2.729,0,0,0,.3,1.52,1.081,1.081,0,0,0,.934.41,2.273,2.273,0,0,0,.938-.176,1.58,1.58,0,0,0,.641-.52v-6.148h2.281V159H47.863Zm7.516,1.414A3.8,3.8,0,0,1,52.184,158a4.252,4.252,0,0,1-1.062-2.988V154.7a4.628,4.628,0,0,1,1.031-3.109,3.506,3.506,0,0,1,2.836-1.2,3.282,3.282,0,0,1,2.613,1.043,4.122,4.122,0,0,1,.91,2.809v1.18H53.473l-.023.047a2.284,2.284,0,0,0,.527,1.406,1.766,1.766,0,0,0,1.4.539,4.692,4.692,0,0,0,1.3-.156,5.307,5.307,0,0,0,1.105-.477l.617,1.406a4.234,4.234,0,0,1-1.375.7A6.1,6.1,0,0,1,55.137,159.164Zm-.148-7.016a1.267,1.267,0,0,0-1.059.473,2.371,2.371,0,0,0-.449,1.254l.016.039h2.781v-.172a1.974,1.974,0,0,0-.3-1.168A1.127,1.127,0,0,0,54.988,152.148Zm6.938-1.6.1,1.211a3.092,3.092,0,0,1,1.039-1.008,2.7,2.7,0,0,1,1.383-.359,2.513,2.513,0,0,1,2,.824,3.908,3.908,0,0,1,.719,2.605V159H64.879v-5.172a2.024,2.024,0,0,0-.316-1.285,1.166,1.166,0,0,0-.949-.379,1.992,1.992,0,0,0-.895.191,1.746,1.746,0,0,0-.637.527V159H59.8v-8.453Zm9.68-2.07v2.07h1.43v1.6h-1.43v4.3a.982.982,0,0,0,.207.7.727.727,0,0,0,.543.211,2.179,2.179,0,0,0,.313-.02,2.631,2.631,0,0,0,.3-.066l.188,1.648a4.618,4.618,0,0,1-.668.176,3.982,3.982,0,0,1-.707.059,2.431,2.431,0,0,1-1.816-.648,2.843,2.843,0,0,1-.637-2.055v-4.312H68.1v-1.6h1.234v-2.07ZM76.84,159H74.559V146.813H76.84Zm4.922-3.547.094.469H81.9l1.617-5.375h2.453l-3.43,9.719a4.474,4.474,0,0,1-.977,1.527,2.505,2.505,0,0,1-1.852.621,2.863,2.863,0,0,1-.535-.047q-.246-.047-.6-.133l.266-1.664.219.031a1.61,1.61,0,0,0,.211.016,1.243,1.243,0,0,0,.867-.277,1.83,1.83,0,0,0,.469-.691l.266-.656-3-8.445h2.453Zm-67.5,48.578a1.33,1.33,0,0,0-.457-1.055,4.592,4.592,0,0,0-1.605-.75,9.124,9.124,0,0,1-2.988-1.4,2.646,2.646,0,0,1-1.02-2.2,2.761,2.761,0,0,1,1.148-2.285,4.654,4.654,0,0,1,2.93-.887,4.621,4.621,0,0,1,3.043.953,2.982,2.982,0,0,1,1.113,2.5l-.016.047H14.2a1.657,1.657,0,0,0-.516-1.309,2.106,2.106,0,0,0-1.445-.457,1.91,1.91,0,0,0-1.3.406,1.323,1.323,0,0,0-.461,1.039,1.135,1.135,0,0,0,.5.949,6.689,6.689,0,0,0,1.727.785,7.429,7.429,0,0,1,2.859,1.387,2.841,2.841,0,0,1,.984,2.254,2.713,2.713,0,0,1-1.141,2.3,4.952,4.952,0,0,1-3.016.844,5.388,5.388,0,0,1-3.152-.914,3.015,3.015,0,0,1-1.277-2.727l.016-.047H10.18a1.79,1.79,0,0,0,.594,1.484,2.5,2.5,0,0,0,1.609.477,2.2,2.2,0,0,0,1.395-.383A1.242,1.242,0,0,0,14.258,204.031ZM17.7,202.7a4.536,4.536,0,0,1,1.055-3.1,3.676,3.676,0,0,1,2.922-1.207,3.715,3.715,0,0,1,2.938,1.2,4.512,4.512,0,0,1,1.063,3.1v.164a4.519,4.519,0,0,1-1.059,3.105,3.7,3.7,0,0,1-2.926,1.2,3.709,3.709,0,0,1-2.934-1.2,4.519,4.519,0,0,1-1.059-3.105Zm2.273.164a3.677,3.677,0,0,0,.406,1.855,1.561,1.561,0,0,0,2.605,0,3.653,3.653,0,0,0,.41-1.852V202.7a3.616,3.616,0,0,0-.414-1.836,1.4,1.4,0,0,0-1.3-.711,1.384,1.384,0,0,0-1.293.715,3.648,3.648,0,0,0-.41,1.832Zm9.227-4.312.094,1.117a2.84,2.84,0,0,1,1.02-.941,2.932,2.932,0,0,1,1.418-.332,2.582,2.582,0,0,1,1.391.359,2.217,2.217,0,0,1,.875,1.086,2.93,2.93,0,0,1,1.016-1.062,2.756,2.756,0,0,1,1.469-.383,2.408,2.408,0,0,1,1.973.887,4.233,4.233,0,0,1,.723,2.707V207H36.891v-5.023a2.369,2.369,0,0,0-.312-1.414,1.109,1.109,0,0,0-.93-.4,1.592,1.592,0,0,0-.84.215,1.565,1.565,0,0,0-.566.6q0,.148.008.254t.008.215V207H31.984v-5.023a2.376,2.376,0,0,0-.312-1.4,1.1,1.1,0,0,0-.937-.41,1.769,1.769,0,0,0-.809.176,1.551,1.551,0,0,0-.574.5V207H27.078v-8.453Zm15.391,8.617A3.8,3.8,0,0,1,41.633,206a4.252,4.252,0,0,1-1.062-2.988V202.7a4.628,4.628,0,0,1,1.031-3.109,3.506,3.506,0,0,1,2.836-1.2,3.282,3.282,0,0,1,2.613,1.043,4.122,4.122,0,0,1,.91,2.809v1.18H42.922l-.023.047a2.284,2.284,0,0,0,.527,1.406,1.766,1.766,0,0,0,1.4.539,4.692,4.692,0,0,0,1.3-.156,5.307,5.307,0,0,0,1.105-.477l.617,1.406a4.234,4.234,0,0,1-1.375.7A6.1,6.1,0,0,1,44.586,207.164Zm-.148-7.016a1.267,1.267,0,0,0-1.059.473,2.371,2.371,0,0,0-.449,1.254l.016.039h2.781v-.172a1.974,1.974,0,0,0-.3-1.168A1.127,1.127,0,0,0,44.438,200.148Zm7.586-3.672v2.07h1.43v1.6h-1.43v4.3a.982.982,0,0,0,.207.7.727.727,0,0,0,.543.211,2.179,2.179,0,0,0,.313-.02,2.631,2.631,0,0,0,.3-.066l.188,1.648a4.618,4.618,0,0,1-.668.176,3.982,3.982,0,0,1-.707.059,2.431,2.431,0,0,1-1.816-.648,2.843,2.843,0,0,1-.637-2.055v-4.312H48.516v-1.6H49.75v-2.07ZM57.258,207H54.977v-8.453h2.281Zm0-10.477H54.977v-1.711h2.281Zm3.992,2.023.094,1.117a2.84,2.84,0,0,1,1.02-.941,2.932,2.932,0,0,1,1.418-.332,2.582,2.582,0,0,1,1.391.359,2.217,2.217,0,0,1,.875,1.086,2.93,2.93,0,0,1,1.016-1.062,2.756,2.756,0,0,1,1.469-.383,2.408,2.408,0,0,1,1.973.887,4.233,4.233,0,0,1,.723,2.707V207H68.945v-5.023a2.369,2.369,0,0,0-.312-1.414,1.109,1.109,0,0,0-.93-.4,1.592,1.592,0,0,0-.84.215,1.565,1.565,0,0,0-.566.6q0,.148.008.254t.008.215V207H64.039v-5.023a2.376,2.376,0,0,0-.312-1.4,1.1,1.1,0,0,0-.937-.41,1.769,1.769,0,0,0-.809.176,1.551,1.551,0,0,0-.574.5V207H59.133v-8.453Zm15.391,8.617A3.8,3.8,0,0,1,73.688,206a4.252,4.252,0,0,1-1.062-2.988V202.7a4.628,4.628,0,0,1,1.031-3.109,3.506,3.506,0,0,1,2.836-1.2,3.282,3.282,0,0,1,2.613,1.043,4.122,4.122,0,0,1,.91,2.809v1.18H74.977l-.023.047a2.284,2.284,0,0,0,.527,1.406,1.766,1.766,0,0,0,1.4.539,4.692,4.692,0,0,0,1.3-.156,5.307,5.307,0,0,0,1.105-.477l.617,1.406a4.234,4.234,0,0,1-1.375.7A6.1,6.1,0,0,1,76.641,207.164Zm-.148-7.016a1.267,1.267,0,0,0-1.059.473,2.371,2.371,0,0,0-.449,1.254l.016.039h2.781v-.172a1.974,1.974,0,0,0-.3-1.168A1.127,1.127,0,0,0,76.492,200.148Zm9.422,4.508a.787.787,0,0,0-.363-.645,3.69,3.69,0,0,0-1.348-.473,5.375,5.375,0,0,1-2.254-.9,1.962,1.962,0,0,1-.77-1.633,2.329,2.329,0,0,1,.922-1.852,3.717,3.717,0,0,1,2.453-.766,4.011,4.011,0,0,1,2.566.766,2.237,2.237,0,0,1,.926,1.906l-.016.047h-2.2a1.106,1.106,0,0,0-.328-.828,1.534,1.534,0,0,0-1.812-.047.85.85,0,0,0-.32.672.759.759,0,0,0,.332.637,3.7,3.7,0,0,0,1.348.441,5.484,5.484,0,0,1,2.316.918,2.014,2.014,0,0,1,.762,1.668,2.231,2.231,0,0,1-.977,1.867,4.215,4.215,0,0,1-2.578.727,3.918,3.918,0,0,1-2.668-.855,2.392,2.392,0,0,1-.934-1.949l.016-.047H83.07a1.186,1.186,0,0,0,.445.984,1.838,1.838,0,0,0,1.1.3,1.567,1.567,0,0,0,.965-.254A.824.824,0,0,0,85.914,204.656Z" transform="translate(796.154 1512)" fill="#12263f"/>
    <path id="Trazado_151233" data-name="Trazado 151233" d="M12.25,9.989a4.442,4.442,0,0,1-1.32,3.305,4.689,4.689,0,0,1-3.437,1.3,4.645,4.645,0,0,1-3.422-1.3,4.459,4.459,0,0,1-1.312-3.3V8.036a4.469,4.469,0,0,1,1.309-3.3,4.614,4.614,0,0,1,3.41-1.308,4.7,4.7,0,0,1,3.445,1.308,4.435,4.435,0,0,1,1.328,3.3ZM9.977,8.022a3.178,3.178,0,0,0-.664-2.079A2.241,2.241,0,0,0,7.477,5.13a2.169,2.169,0,0,0-1.8.812,3.242,3.242,0,0,0-.645,2.079V9.989a3.265,3.265,0,0,0,.648,2.1,2.188,2.188,0,0,0,1.813.812A2.219,2.219,0,0,0,9.32,12.09a3.239,3.239,0,0,0,.656-2.1Zm7.438,4.9a1.3,1.3,0,0,0,.945-.339,1.2,1.2,0,0,0,.352-.905h2.078l.016.045a2.474,2.474,0,0,1-.953,2.046,3.67,3.67,0,0,1-2.437.823,3.687,3.687,0,0,1-2.9-1.144,4.222,4.222,0,0,1-1.023-2.925V10.3a4.249,4.249,0,0,1,1.02-2.925A3.653,3.653,0,0,1,17.4,6.226a3.587,3.587,0,0,1,2.492.85A2.772,2.772,0,0,1,20.8,9.311l-.016.045H18.711a1.56,1.56,0,0,0-.348-1.04A1.192,1.192,0,0,0,17.4,7.9a1.314,1.314,0,0,0-1.254.674,3.555,3.555,0,0,0-.371,1.725v.224a3.542,3.542,0,0,0,.371,1.736A1.334,1.334,0,0,0,17.414,12.925Zm8.25,0a1.3,1.3,0,0,0,.945-.339,1.2,1.2,0,0,0,.352-.905h2.078l.016.045a2.474,2.474,0,0,1-.953,2.046,3.67,3.67,0,0,1-2.437.823,3.687,3.687,0,0,1-2.9-1.144,4.222,4.222,0,0,1-1.023-2.925V10.3a4.249,4.249,0,0,1,1.02-2.925,3.653,3.653,0,0,1,2.887-1.151,3.587,3.587,0,0,1,2.492.85,2.772,2.772,0,0,1,.914,2.236l-.016.045H26.961a1.56,1.56,0,0,0-.348-1.04,1.192,1.192,0,0,0-.965-.414,1.314,1.314,0,0,0-1.254.674,3.555,3.555,0,0,0-.371,1.725v.224a3.542,3.542,0,0,0,.371,1.736A1.334,1.334,0,0,0,25.664,12.925Zm9.7,1.513a4.438,4.438,0,0,1-.215-.581,3.879,3.879,0,0,1-.129-.626,3.038,3.038,0,0,1-.93.976,2.411,2.411,0,0,1-1.375.388,2.942,2.942,0,0,1-2.047-.652,2.28,2.28,0,0,1-.719-1.777,2.1,2.1,0,0,1,.957-1.837A4.959,4.959,0,0,1,33.7,9.676h1.281V9.035a1.219,1.219,0,0,0-.32-.9,1.293,1.293,0,0,0-.953-.32,1.279,1.279,0,0,0-.855.257.878.878,0,0,0-.3.7h-2.2l-.016-.045a2.015,2.015,0,0,1,.934-1.762,4.192,4.192,0,0,1,2.582-.741,3.909,3.909,0,0,1,2.465.73,2.493,2.493,0,0,1,.941,2.094v3.331a6.017,6.017,0,0,0,.09,1.066,5.155,5.155,0,0,0,.285.991Zm-2.086-1.453a2.014,2.014,0,0,0,1.063-.283,1.554,1.554,0,0,0,.641-.656v-1.14H33.7a1.565,1.565,0,0,0-1.1.343,1.1,1.1,0,0,0-.371.842.822.822,0,0,0,.277.652A1.131,1.131,0,0,0,33.281,12.985ZM43.547,12.2a.743.743,0,0,0-.363-.615,3.8,3.8,0,0,0-1.348-.451,5.522,5.522,0,0,1-2.254-.857,1.84,1.84,0,0,1-.77-1.557,2.187,2.187,0,0,1,.922-1.766,3.839,3.839,0,0,1,2.453-.73,4.147,4.147,0,0,1,2.566.73,2.1,2.1,0,0,1,.926,1.818l-.016.045h-2.2a1.03,1.03,0,0,0-.328-.79,1.594,1.594,0,0,0-1.812-.045.8.8,0,0,0-.32.641.714.714,0,0,0,.332.607,3.817,3.817,0,0,0,1.348.421A5.634,5.634,0,0,1,45,10.529a1.886,1.886,0,0,1,.762,1.591,2.1,2.1,0,0,1-.977,1.781,4.364,4.364,0,0,1-2.578.693,4.043,4.043,0,0,1-2.668-.816,2.242,2.242,0,0,1-.934-1.859l.016-.045H40.7a1.111,1.111,0,0,0,.445.939,1.9,1.9,0,0,0,1.1.291,1.623,1.623,0,0,0,.965-.242A.773.773,0,0,0,43.547,12.2Zm6.078,2.236H47.344V6.375h2.281Zm0-9.993H47.344V2.813h2.281Zm1.523,5.887A4.2,4.2,0,0,1,52.2,7.377a3.764,3.764,0,0,1,2.922-1.151,3.805,3.805,0,0,1,2.938,1.148,4.183,4.183,0,0,1,1.063,2.959v.156a4.188,4.188,0,0,1-1.059,2.962,4.324,4.324,0,0,1-5.859,0,4.188,4.188,0,0,1-1.059-2.962Zm2.273.156a3.376,3.376,0,0,0,.406,1.77,1.42,1.42,0,0,0,1.313.667,1.4,1.4,0,0,0,1.293-.671,3.354,3.354,0,0,0,.41-1.766v-.156A3.32,3.32,0,0,0,56.43,8.58a1.417,1.417,0,0,0-1.3-.678,1.4,1.4,0,0,0-1.293.682,3.35,3.35,0,0,0-.41,1.748Zm9.2-4.114.1,1.155a3.032,3.032,0,0,1,1.039-.961,2.8,2.8,0,0,1,1.383-.343,2.573,2.573,0,0,1,2,.786A3.606,3.606,0,0,1,67.859,9.5v4.941H65.57V9.5a1.864,1.864,0,0,0-.316-1.226,1.2,1.2,0,0,0-.949-.361,2.073,2.073,0,0,0-.895.183,1.73,1.73,0,0,0-.637.5v5.835H60.492V6.375Zm11.93,8.063a4.438,4.438,0,0,1-.215-.581,3.878,3.878,0,0,1-.129-.626,3.038,3.038,0,0,1-.93.976,2.411,2.411,0,0,1-1.375.388,2.942,2.942,0,0,1-2.047-.652,2.28,2.28,0,0,1-.719-1.777,2.1,2.1,0,0,1,.957-1.837,4.959,4.959,0,0,1,2.793-.652h1.281V9.035a1.22,1.22,0,0,0-.32-.9,1.293,1.293,0,0,0-.953-.32,1.279,1.279,0,0,0-.855.257.878.878,0,0,0-.3.7h-2.2l-.016-.045a2.015,2.015,0,0,1,.934-1.762,4.192,4.192,0,0,1,2.582-.741,3.909,3.909,0,0,1,2.465.73,2.493,2.493,0,0,1,.941,2.094v3.331a6.016,6.016,0,0,0,.09,1.066,5.155,5.155,0,0,0,.285.991Zm-2.086-1.453a2.014,2.014,0,0,0,1.063-.283,1.554,1.554,0,0,0,.641-.656v-1.14H72.883a1.565,1.565,0,0,0-1.1.343,1.1,1.1,0,0,0-.371.842.822.822,0,0,0,.277.652A1.131,1.131,0,0,0,72.461,12.985Zm8.094,1.453H78.273V2.813h2.281Zm4.273,0H82.547V2.813h2.281Zm4.922-3.383.094.447h.047l1.617-5.127h2.453l-3.43,9.27a4.25,4.25,0,0,1-.977,1.457,2.58,2.58,0,0,1-1.852.592,3,3,0,0,1-.535-.045q-.246-.045-.6-.127l.266-1.587.219.03a1.688,1.688,0,0,0,.211.015,1.283,1.283,0,0,0,.867-.265,1.745,1.745,0,0,0,.469-.66l.266-.626-3-8.056H88.32ZM27.758,57.392a1.243,1.243,0,0,0-.457-1.006,4.69,4.69,0,0,0-1.605-.715,9.322,9.322,0,0,1-2.988-1.334,2.48,2.48,0,0,1-1.02-2.094,2.6,2.6,0,0,1,1.148-2.18,4.812,4.812,0,0,1,2.93-.846,4.772,4.772,0,0,1,3.043.909,2.79,2.79,0,0,1,1.113,2.385l-.016.045H27.7a1.544,1.544,0,0,0-.516-1.248,2.173,2.173,0,0,0-1.445-.436,1.972,1.972,0,0,0-1.3.388,1.237,1.237,0,0,0-.461.991,1.069,1.069,0,0,0,.5.905A6.843,6.843,0,0,0,26.2,53.9a7.577,7.577,0,0,1,2.859,1.323,2.656,2.656,0,0,1,.984,2.15,2.55,2.55,0,0,1-1.141,2.2,5.127,5.127,0,0,1-3.016.8,5.578,5.578,0,0,1-3.152-.872,2.83,2.83,0,0,1-1.277-2.6l.016-.045H23.68a1.67,1.67,0,0,0,.594,1.416,2.585,2.585,0,0,0,1.609.455,2.274,2.274,0,0,0,1.395-.365A1.164,1.164,0,0,0,27.758,57.392Zm7.453,2.988a3.9,3.9,0,0,1-2.953-1.107,3.946,3.946,0,0,1-1.062-2.85v-.3a4.286,4.286,0,0,1,1.031-2.966,3.586,3.586,0,0,1,2.836-1.148,3.363,3.363,0,0,1,2.613.995,3.816,3.816,0,0,1,.91,2.679v1.125H33.547l-.023.045a2.121,2.121,0,0,0,.527,1.341,1.811,1.811,0,0,0,1.4.514,4.907,4.907,0,0,0,1.3-.149,5.446,5.446,0,0,0,1.105-.455l.617,1.341a4.313,4.313,0,0,1-1.375.663A6.37,6.37,0,0,1,35.211,60.38Zm-.148-6.692A1.293,1.293,0,0,0,34,54.139a2.2,2.2,0,0,0-.449,1.2l.016.037h2.781v-.164a1.818,1.818,0,0,0-.3-1.114A1.15,1.15,0,0,0,35.063,53.688Zm7.25,6.536H40.031V48.6h2.281Zm1.523-3.965a5.06,5.06,0,0,1,.863-3.078,2.848,2.848,0,0,1,2.434-1.17,2.46,2.46,0,0,1,1.141.261,2.709,2.709,0,0,1,.891.745V48.6h2.289V60.224H49.508l-.2-.991a2.776,2.776,0,0,1-.945.853,2.6,2.6,0,0,1-1.25.294A2.912,2.912,0,0,1,44.7,59.292a4.494,4.494,0,0,1-.863-2.877Zm2.273.156a3.16,3.16,0,0,0,.375,1.666,1.323,1.323,0,0,0,1.219.607,1.845,1.845,0,0,0,.859-.19,1.559,1.559,0,0,0,.6-.555V54.508a1.713,1.713,0,0,0-.6-.592,1.649,1.649,0,0,0-.848-.212,1.3,1.3,0,0,0-1.223.708,3.844,3.844,0,0,0-.387,1.848Zm6.758-.3a4.2,4.2,0,0,1,1.055-2.955,3.764,3.764,0,0,1,2.922-1.151,3.805,3.805,0,0,1,2.938,1.148,4.183,4.183,0,0,1,1.063,2.958v.156a4.188,4.188,0,0,1-1.059,2.962,4.324,4.324,0,0,1-5.859,0,4.188,4.188,0,0,1-1.059-2.962Zm2.273.156a3.376,3.376,0,0,0,.406,1.77,1.42,1.42,0,0,0,1.313.667,1.4,1.4,0,0,0,1.293-.671,3.354,3.354,0,0,0,.41-1.766v-.156a3.32,3.32,0,0,0-.414-1.751,1.417,1.417,0,0,0-1.3-.678,1.4,1.4,0,0,0-1.293.682,3.35,3.35,0,0,0-.41,1.748Zm9.227-4.114.094,1.066a2.794,2.794,0,0,1,1.02-.9,3.048,3.048,0,0,1,1.418-.317,2.679,2.679,0,0,1,1.391.343,2.138,2.138,0,0,1,.875,1.036,2.76,2.76,0,0,1,2.484-1.379,2.459,2.459,0,0,1,1.973.846,3.9,3.9,0,0,1,.723,2.582v4.784H72.063V55.432a2.178,2.178,0,0,0-.312-1.349,1.134,1.134,0,0,0-.93-.38,1.653,1.653,0,0,0-.84.2,1.526,1.526,0,0,0-.566.57q0,.142.008.242t.008.2v5.3H67.156V55.432a2.184,2.184,0,0,0-.312-1.338,1.128,1.128,0,0,0-.937-.391,1.841,1.841,0,0,0-.809.168,1.532,1.532,0,0,0-.574.473v5.88H62.25V52.161ZM28.785,101.673v4.337H26.5V95.159h3.938a4.877,4.877,0,0,1,3.043.846,2.809,2.809,0,0,1,1.1,2.359,2.3,2.3,0,0,1-.465,1.442,3.224,3.224,0,0,1-1.355.98,2.451,2.451,0,0,1,1.449.946,2.9,2.9,0,0,1,.441,1.639v.8a3.773,3.773,0,0,0,.129.95,1.3,1.3,0,0,0,.441.734v.156H32.871a1.186,1.186,0,0,1-.4-.79,6.627,6.627,0,0,1-.09-1.066v-.768a1.678,1.678,0,0,0-.465-1.263,1.813,1.813,0,0,0-1.316-.451Zm0-1.677H30.4a2.212,2.212,0,0,0,1.43-.388,1.4,1.4,0,0,0,.469-1.148,1.54,1.54,0,0,0-.473-1.185,1.967,1.967,0,0,0-1.387-.44H28.785Zm12.727,6.014a4.439,4.439,0,0,1-.215-.581,3.879,3.879,0,0,1-.129-.626,3.038,3.038,0,0,1-.93.976,2.411,2.411,0,0,1-1.375.388,2.942,2.942,0,0,1-2.047-.652,2.28,2.28,0,0,1-.719-1.777,2.1,2.1,0,0,1,.957-1.837,4.959,4.959,0,0,1,2.793-.652h1.281v-.641a1.219,1.219,0,0,0-.32-.9,1.293,1.293,0,0,0-.953-.32,1.279,1.279,0,0,0-.855.257.878.878,0,0,0-.3.7H36.5l-.016-.045a2.015,2.015,0,0,1,.934-1.762A4.192,4.192,0,0,1,40,97.8a3.909,3.909,0,0,1,2.465.73,2.493,2.493,0,0,1,.941,2.094v3.331a6.017,6.017,0,0,0,.09,1.066,5.155,5.155,0,0,0,.285.991Zm-2.086-1.453a2.014,2.014,0,0,0,1.063-.283,1.554,1.554,0,0,0,.641-.656v-1.14H39.848a1.565,1.565,0,0,0-1.1.343,1.1,1.1,0,0,0-.371.842.822.822,0,0,0,.277.652A1.131,1.131,0,0,0,39.426,104.557Zm10.141-4.74-.836-.022a1.577,1.577,0,0,0-.836.2,1.293,1.293,0,0,0-.5.566v5.448H45.121V97.947h2.117l.1,1.192a2.558,2.558,0,0,1,.77-.987,1.87,1.87,0,0,1,1.406-.328q.145.026.293.063Zm4.7,6.349a3.9,3.9,0,0,1-2.953-1.107,3.946,3.946,0,0,1-1.062-2.85v-.3a4.286,4.286,0,0,1,1.031-2.966A3.586,3.586,0,0,1,54.121,97.8a3.363,3.363,0,0,1,2.613.995,3.816,3.816,0,0,1,.91,2.679V102.6H52.605l-.023.045a2.121,2.121,0,0,0,.527,1.341,1.811,1.811,0,0,0,1.4.514,4.907,4.907,0,0,0,1.3-.149,5.447,5.447,0,0,0,1.105-.455l.617,1.341a4.313,4.313,0,0,1-1.375.663A6.37,6.37,0,0,1,54.27,106.166Zm-.148-6.692a1.293,1.293,0,0,0-1.059.451,2.2,2.2,0,0,0-.449,1.2l.016.037H55.41v-.164a1.818,1.818,0,0,0-.3-1.114A1.151,1.151,0,0,0,54.121,99.474Zm7.25,6.536H59.09V94.384h2.281Zm4.922-3.383.094.447h.047l1.617-5.127H70.5l-3.43,9.27a4.251,4.251,0,0,1-.977,1.457,2.58,2.58,0,0,1-1.852.592,3,3,0,0,1-.535-.045q-.246-.045-.6-.127l.266-1.587.219.03a1.687,1.687,0,0,0,.211.015,1.283,1.283,0,0,0,.867-.265,1.745,1.745,0,0,0,.469-.66L65.41,106l-3-8.056h2.453ZM17.66,151.8H15.379v-4.509H10.746V151.8H8.465v-10.85h2.281v4.665h4.633v-4.665H17.66Zm6.906,0a4.437,4.437,0,0,1-.215-.581,3.879,3.879,0,0,1-.129-.626,3.038,3.038,0,0,1-.93.976,2.411,2.411,0,0,1-1.375.388,2.941,2.941,0,0,1-2.047-.652,2.28,2.28,0,0,1-.719-1.777,2.1,2.1,0,0,1,.957-1.837,4.959,4.959,0,0,1,2.793-.652h1.281v-.641a1.219,1.219,0,0,0-.32-.9,1.293,1.293,0,0,0-.953-.32,1.279,1.279,0,0,0-.855.257.878.878,0,0,0-.3.7h-2.2l-.016-.045a2.015,2.015,0,0,1,.934-1.762,4.192,4.192,0,0,1,2.582-.741,3.909,3.909,0,0,1,2.465.73,2.493,2.493,0,0,1,.941,2.094v3.331a6.016,6.016,0,0,0,.09,1.066,5.155,5.155,0,0,0,.285.991Zm-2.086-1.453a2.014,2.014,0,0,0,1.063-.283,1.554,1.554,0,0,0,.641-.656v-1.14H22.9a1.565,1.565,0,0,0-1.1.343,1.1,1.1,0,0,0-.371.842.822.822,0,0,0,.277.652A1.131,1.131,0,0,0,22.48,150.343Zm10.141-4.74-.836-.022a1.577,1.577,0,0,0-.836.2,1.293,1.293,0,0,0-.5.566V151.8H28.176v-8.063h2.117l.1,1.192a2.558,2.558,0,0,1,.77-.987,1.87,1.87,0,0,1,1.406-.328q.145.026.293.063Zm.688,2.228a5.06,5.06,0,0,1,.863-3.078,2.848,2.848,0,0,1,2.434-1.17,2.46,2.46,0,0,1,1.141.261,2.71,2.71,0,0,1,.891.745V140.17h2.289V151.8H38.98l-.2-.991a2.776,2.776,0,0,1-.945.853,2.6,2.6,0,0,1-1.25.294,2.912,2.912,0,0,1-2.418-1.088,4.494,4.494,0,0,1-.863-2.877Zm2.273.156a3.16,3.16,0,0,0,.375,1.666,1.323,1.323,0,0,0,1.219.607,1.845,1.845,0,0,0,.859-.19,1.559,1.559,0,0,0,.6-.555V146.08a1.713,1.713,0,0,0-.6-.592,1.649,1.649,0,0,0-.848-.212,1.3,1.3,0,0,0-1.223.708,3.844,3.844,0,0,0-.387,1.848ZM45.09,151.8H42.809V140.17H45.09Zm4.922-3.383.094.447h.047l1.617-5.127h2.453L50.793,153a4.25,4.25,0,0,1-.977,1.457,2.58,2.58,0,0,1-1.852.592,3,3,0,0,1-.535-.045q-.246-.045-.6-.127l.266-1.587.219.03a1.686,1.686,0,0,0,.211.015,1.283,1.283,0,0,0,.867-.265,1.745,1.745,0,0,0,.469-.66l.266-.626-3-8.056h2.453Zm12.773,3.54a3.9,3.9,0,0,1-2.953-1.107A3.946,3.946,0,0,1,58.77,148v-.3a4.286,4.286,0,0,1,1.031-2.966,3.586,3.586,0,0,1,2.836-1.148,3.363,3.363,0,0,1,2.613.995,3.816,3.816,0,0,1,.91,2.679v1.125H61.121l-.023.045a2.121,2.121,0,0,0,.527,1.341,1.811,1.811,0,0,0,1.4.514,4.906,4.906,0,0,0,1.3-.149,5.447,5.447,0,0,0,1.105-.455l.617,1.341a4.313,4.313,0,0,1-1.375.663A6.37,6.37,0,0,1,62.785,151.952Zm-.148-6.692a1.293,1.293,0,0,0-1.059.451,2.2,2.2,0,0,0-.449,1.2l.016.037h2.781v-.164a1.818,1.818,0,0,0-.3-1.114A1.151,1.151,0,0,0,62.637,145.26Zm7.8,3.532.148.745h.047l.156-.745,1.391-5.06h2.383L71.691,151.8h-2.18l-2.875-8.063H69.02Zm8.68,3.16a3.9,3.9,0,0,1-2.953-1.107A3.946,3.946,0,0,1,75.105,148v-.3a4.286,4.286,0,0,1,1.031-2.966,3.586,3.586,0,0,1,2.836-1.148,3.363,3.363,0,0,1,2.613.995,3.816,3.816,0,0,1,.91,2.679v1.125H77.457l-.023.045a2.121,2.121,0,0,0,.527,1.341,1.811,1.811,0,0,0,1.4.514,4.906,4.906,0,0,0,1.3-.149,5.447,5.447,0,0,0,1.105-.455l.617,1.341a4.313,4.313,0,0,1-1.375.663A6.37,6.37,0,0,1,79.121,151.952Zm-.148-6.692a1.293,1.293,0,0,0-1.059.451,2.2,2.2,0,0,0-.449,1.2l.016.037h2.781v-.164a1.818,1.818,0,0,0-.3-1.114A1.151,1.151,0,0,0,78.973,145.26Zm9.3.343-.836-.022a1.577,1.577,0,0,0-.836.2,1.293,1.293,0,0,0-.5.566V151.8H83.824v-8.063h2.117l.1,1.192a2.558,2.558,0,0,1,.77-.987,1.87,1.87,0,0,1,1.406-.328q.145.026.293.063ZM37.43,197.582H35.148l-4.586-7.318-.047.007v7.311H28.234v-10.85h2.281l4.586,7.311.047-.007v-7.3H37.43Zm5.586.156a3.9,3.9,0,0,1-2.953-1.107A3.946,3.946,0,0,1,39,193.781v-.3a4.286,4.286,0,0,1,1.031-2.966,3.586,3.586,0,0,1,2.836-1.148,3.363,3.363,0,0,1,2.613.995,3.816,3.816,0,0,1,.91,2.679v1.125H41.352l-.023.045a2.121,2.121,0,0,0,.527,1.341,1.811,1.811,0,0,0,1.4.514,4.907,4.907,0,0,0,1.3-.149,5.445,5.445,0,0,0,1.105-.455l.617,1.341a4.313,4.313,0,0,1-1.375.663A6.37,6.37,0,0,1,43.016,197.738Zm-.148-6.692a1.293,1.293,0,0,0-1.059.451,2.2,2.2,0,0,0-.449,1.2l.016.037h2.781v-.164a1.818,1.818,0,0,0-.3-1.114A1.15,1.15,0,0,0,42.867,191.046Zm7.8,3.532.148.745h.047l.156-.745,1.391-5.06H54.8l-2.875,8.063h-2.18l-2.875-8.063H49.25Zm8.68,3.16a3.9,3.9,0,0,1-2.953-1.107,3.946,3.946,0,0,1-1.062-2.85v-.3a4.286,4.286,0,0,1,1.031-2.966A3.586,3.586,0,0,1,59.2,189.37a3.363,3.363,0,0,1,2.613.995,3.816,3.816,0,0,1,.91,2.679v1.125H57.688l-.023.045a2.121,2.121,0,0,0,.527,1.341,1.811,1.811,0,0,0,1.4.514,4.907,4.907,0,0,0,1.3-.149A5.445,5.445,0,0,0,62,195.465l.617,1.341a4.313,4.313,0,0,1-1.375.663A6.37,6.37,0,0,1,59.352,197.738Zm-.148-6.692a1.293,1.293,0,0,0-1.059.451,2.2,2.2,0,0,0-.449,1.2l.016.037h2.781v-.164a1.818,1.818,0,0,0-.3-1.114A1.15,1.15,0,0,0,59.2,191.046Zm9.3.343-.836-.022a1.577,1.577,0,0,0-.836.2,1.293,1.293,0,0,0-.5.566v5.448H64.055v-8.063h2.117l.1,1.192a2.558,2.558,0,0,1,.77-.987,1.871,1.871,0,0,1,1.406-.328q.145.026.293.063Z" transform="translate(796.154 1759.426)" fill="#fff"/>
  </g>
</svg>
