<svg xmlns="http://www.w3.org/2000/svg" xmlns:xlink="http://www.w3.org/1999/xlink" width="315.302" height="265" viewBox="0 0 315.302 265">
  <defs>
    <clipPath id="clip-path">
      <path id="Trazado_149804" data-name="Trazado 149804" d="M19.074,182.688l271.969,1.784.332-177.807-271-2.229Z" transform="translate(-19.074 -4.436)" fill="none"/>
    </clipPath>
    <clipPath id="clip-path-2">
      <path id="Trazado_149806" data-name="Trazado 149806" d="M78.639,336.783c-7.055,4.391-11.307,11.549-14.507,19.015a37.163,37.163,0,0,1-2.581,5c-6.134,9.852-10.335,20.9-11.043,33.19,3.227,3.365,8.22,4.38,12.882,4.355s9.312-.909,13.964-.6c4.69.317,9.269,1.846,13.97,1.8a113.945,113.945,0,0,1,10.248-32.4l-1.379,3.1,4.525,4.18a58.061,58.061,0,0,1,9.407-10.083c-3.658-5.049-3.357-12.355-7.568-16.953-2-2.186-4.779-3.465-7.479-4.688l-8.189-6.535a10.818,10.818,0,0,1-5.717-.038,14.639,14.639,0,0,0-2.964-.414,6.5,6.5,0,0,0-3.568,1.063" transform="translate(-50.508 -335.72)" fill="none"/>
    </clipPath>
  </defs>
  <g id="Grupo_165527" data-name="Grupo 165527" transform="translate(-223.154 -3303)">
    <g id="Grupo_85029" data-name="Grupo 85029" transform="translate(-41.544 65.263)">
      <g id="Grupo_85023" data-name="Grupo 85023">
        <rect id="Rectángulo_34651" data-name="Rectángulo 34651" width="315" height="174" transform="translate(265 3328.188)" fill="#6b8dff"/>
        <g id="Grupo_165518" data-name="Grupo 165518" transform="translate(267.275 3267.301)">
          <path id="Trazado_149740" data-name="Trazado 149740" d="M19.1,182.281l271.965,1.685.077-41.361-.78-135.461L139.745,5.9,20.389,5.129Z" transform="translate(-0.015 -0.487)" fill="#fff1eb"/>
          <g id="Grupo_165519" data-name="Grupo 165519" transform="translate(19.074 4.436)">
            <g id="Grupo_165518-2" data-name="Grupo 165518" transform="translate(0)" clip-path="url(#clip-path)">
              <path id="Trazado_149741" data-name="Trazado 149741" d="M117.149,272.62a.163.163,0,0,1-.063-.013.16.16,0,0,1-.1-.147l.04-20.137-22.337.086L94.81,272.2a.16.16,0,0,1-.048.115.162.162,0,0,1-.116.045l-24.351-.794a.159.159,0,0,1-.154-.159L70.1,252.5l-23.391.09-.076,19.338a.159.159,0,0,1-.05.115.139.139,0,0,1-.118.043l-24.351-1.323a.159.159,0,0,1-.151-.16l.177-17.918-20.662.08h0a.159.159,0,0,1-.159-.151L0,228.267a.159.159,0,0,1,.159-.168h0l22.225.214.237-24.043-20.878-.2a.159.159,0,0,1-.158-.155l-.529-23.028a.159.159,0,0,1,.158-.163l21.64-.127.211-21.377L5.186,159.07a.159.159,0,0,1,0-.318h0l17.881.147.222-22.488a.159.159,0,0,1,.159-.158h0a.159.159,0,0,1,.157.161L23.388,158.9l23.372.192.089-22.681a.162.162,0,0,1,.047-.113.2.2,0,0,1,.114-.046l23.028.265a.159.159,0,0,1,.157.159l.044,22.608,23.582.193L93.7,138.8a.159.159,0,0,1,.159-.16h23.557a.159.159,0,0,1,.113.047.161.161,0,0,1,.047.113l-.041,20.878,16.823.138a.159.159,0,0,1,.157.144l1.853,20.116a.16.16,0,0,1-.158.174l-18.717.11-.049,24.523,19.825.194a.159.159,0,0,1,.157.157l.265,24.351a.159.159,0,0,1-.047.114.189.189,0,0,1-.114.047l-20.135-.194L117.349,252l21.5-.083h0a.159.159,0,0,1,.109.275l-21.7,20.381a.158.158,0,0,1-.109.043m.2-20.3-.039,19.77,21.141-19.852ZM70.459,271.248l24.032.784-.117-19.621-23.952.092Zm-48.171-.791,24.032,1.306.075-19.168-23.931.092ZM.327,228.419,1.633,252.45l20.515-.079.234-23.739Zm22.374.216-.234,23.735,23.93-.092.091-23.413Zm24.105.232-.091,23.409,23.389-.09-.045-23.095Zm23.571.227.045,23.091,23.951-.092-.135-22.768Zm24.179.233.135,22.764,22.34-.086.045-22.461Zm22.839-.1,19.975.192-.261-24.033-19.667-.192Zm-22.841-.22,22.523.217.047-24.033-22.713-.222Zm-24.178-.233,23.859.23-.143-24.037-23.764-.232Zm-23.569-.227,23.25.224-.047-24.04L46.9,204.507Zm-24.1-.232,23.785.229.094-24.041-23.642-.231Zm71.7-23.664,22.716.222.049-24.518-22.908.135Zm-24.081-.235,23.763.232-.144-24.157-23.665.139ZM46.9,204.189l23.107.226-.047-23.78-22.969.135Zm-23.958-.234,23.64.231.092-23.414-23.5.138ZM1.9,203.75l20.724.2.227-23.041-21.473.127Zm21.483-44.53-.211,21.372,23.5-.138.082-21.043Zm23.692.194L47,180.451l22.967-.135L69.921,159.6Zm23.162.19.041,20.711,23.664-.139L93.823,159.8Zm23.9.2.121,20.374,22.911-.135.04-20.05Zm23.39.191-.04,20.046,18.541-.109-1.823-19.8Zm-23.392-.51,23.074.189.041-20.716H94.017ZM47.078,159.1l22.842.187-.044-22.448-22.71-.261Z" transform="translate(-5.653 -97.185)" fill="#c5c0cd"/>
              <path id="Trazado_149742" data-name="Trazado 149742" d="M568.2,6.68l.316,140.99L677.74,149V5.787Z" transform="translate(-405.453 -5.386)" fill="#fff"/>
              <path id="Trazado_149743" data-name="Trazado 149743" d="M588.708,6.419,567.78,34.112V51.446L609.636,6.419Z" transform="translate(-405.155 -5.831)" fill="#f2f9ff"/>
              <path id="Trazado_149744" data-name="Trazado 149744" d="M630.354,5.838,568.2,70.948l-.423,8.879,72.3-74.834Z" transform="translate(-405.155 -4.828)" fill="#f2f9ff"/>
              <path id="Trazado_149745" data-name="Trazado 149745" d="M663.833,1.268,568.705,129.373l-.211,15.221,14.8-.634,95.55-132.122L678.631,0Z" transform="translate(-405.657 -1.314)" fill="#f2f9ff"/>
              <path id="Trazado_149746" data-name="Trazado 149746" d="M754.781,176.174l-77.159,91.534,10.147.846,67.858-84.347Z" transform="translate(-482.442 -125.275)" fill="#f2f9ff"/>
              <path id="Trazado_149747" data-name="Trazado 149747" d="M862.7,335.944l-33.5,45.132h17.862l15.217-25.261Z" transform="translate(-589.097 -237.692)" fill="#f2f9ff"/>
              <path id="Trazado_149748" data-name="Trazado 149748" d="M676.928,148.6h0l-109.536-.613a.318.318,0,0,1-.316-.318L567.05,5.08a.318.318,0,0,1,.637,0l.024,142.27,109.219.611a.318.318,0,0,1,0,.637" transform="translate(-404.641 -4.665)" fill="#f2c9b8"/>
              <path id="Trazado_149749" data-name="Trazado 149749" d="M780.86,148.924a.318.318,0,0,1-.318-.317L780.176,9.753a.319.319,0,0,1,.317-.319h0a.319.319,0,0,1,.318.317l.365,138.853a.318.318,0,0,1-.318.319Z" transform="translate(-554.601 -7.953)" fill="#f2c9b8"/>
              <path id="Trazado_149750" data-name="Trazado 149750" d="M569.671,84.774a.318.318,0,0,1,0-.637l110.351-.731h0a.318.318,0,0,1,0,.637l-110.352.731Z" transform="translate(-406.261 -60.002)" fill="#f2c9b8"/>
              <path id="Trazado_149751" data-name="Trazado 149751" d="M861.8,455.5a19.4,19.4,0,0,0,.367,4.382,6.515,6.515,0,0,0,2.218,3.709c1.7,1.3,4.012,1.33,6.149,1.307,2.122-.022,4.434-.112,6.052-1.484a6.19,6.19,0,0,0,1.94-3.783,35.02,35.02,0,0,0,.168-4.361Z" transform="translate(-612.035 -321.655)" fill="#a85454"/>
              <path id="Trazado_149752" data-name="Trazado 149752" d="M883.608,395.863a.318.318,0,0,1-.308-.237,25.6,25.6,0,0,1,6.681-24.333.318.318,0,0,1,.447.453,24.953,24.953,0,0,0-6.513,23.718.319.319,0,0,1-.308.4" transform="translate(-626.604 -262.499)" fill="#c1e3d4"/>
              <path id="Trazado_149753" data-name="Trazado 149753" d="M880,396.808h-.024a.318.318,0,0,1-.294-.34c.306-4.241.623-8.627-.3-12.844-1.016-4.657-3.535-8.374-6.912-10.2a.319.319,0,0,1,.3-.56c3.54,1.914,6.175,5.785,7.231,10.624.939,4.306.619,8.739.309,13.025a.318.318,0,0,1-.317.3" transform="translate(-619.426 -263.642)" fill="#c1e3d4"/>
              <path id="Trazado_149754" data-name="Trazado 149754" d="M881.081,331.726h-.031a.318.318,0,0,1-.286-.348c.555-5.666,1.129-11.526.42-17.267-.553-4.472-2.185-10.777-6.818-15.414a.318.318,0,1,1,.45-.45c4.762,4.766,6.435,11.215,7,15.786.718,5.811.141,11.706-.418,17.407a.318.318,0,0,1-.317.287" transform="translate(-620.809 -211.1)" fill="#c1e3d4"/>
              <path id="Trazado_149755" data-name="Trazado 149755" d="M878.432,355.261a.318.318,0,0,1-.3-.212,44.689,44.689,0,0,1,6.9-41.818.318.318,0,0,1,.5.395,44.04,44.04,0,0,0-6.8,41.21.318.318,0,0,1-.3.425" transform="translate(-621.812 -221.626)" fill="#c1e3d4"/>
              <path id="Trazado_149756" data-name="Trazado 149756" d="M899.26,345.552a14.378,14.378,0,0,1,7.822-14.345c1.6-.769,3.579-1.2,5.092-.275A4.187,4.187,0,0,1,914,334.3a8.226,8.226,0,0,1-.909,3.841c-2.469,5.3-8.01,9.036-13.827,7.406" transform="translate(-638.321 -233.796)" fill="#8fbfab"/>
              <path id="Trazado_149757" data-name="Trazado 149757" d="M889.264,425.238a15.113,15.113,0,0,1,.366-8.088c1.006-2.542,3.467-4.672,6.2-4.538a3.516,3.516,0,0,1,2.657,1.246c1.084,1.437.425,3.52-.548,5.035-1.581,2.464-3.9,4.445-8.673,6.345" transform="translate(-631.097 -291.632)" fill="#8fbfab"/>
              <path id="Trazado_149758" data-name="Trazado 149758" d="M852.829,350.453a26.421,26.421,0,0,0-1.212-7.261,8.911,8.911,0,0,0-4.756-5.365c-2.289-.908-5.26-.261-6.542,1.841-1.273,2.087-.591,4.853.718,6.918,2.207,3.482,6.129,5.816,11.793,3.867" transform="translate(-596.441 -238.735)" fill="#8fbfab"/>
              <path id="Trazado_149759" data-name="Trazado 149759" d="M861.543,279.618a16.068,16.068,0,0,0-3.611-13.24,5.1,5.1,0,0,0-3.544-2.081,3.71,3.71,0,0,0-3.1,1.9,6.509,6.509,0,0,0-.751,3.678c.276,5.037,4.637,9.53,11,9.74" transform="translate(-604.099 -187.279)" fill="#8fbfab"/>
              <path id="Trazado_149760" data-name="Trazado 149760" d="M892.524,288.138a52.949,52.949,0,0,1,.815-10.28,17.757,17.757,0,0,1,4.608-9.079c1.461-1.432,3.648-2.552,5.505-1.7s2.427,3.25,2.281,5.291a17.233,17.233,0,0,1-4.921,10.275c-2.645,2.828-5.916,4.986-8.288,5.488" transform="translate(-633.651 -189.03)" fill="#8fbfab"/>
              <path id="Trazado_149761" data-name="Trazado 149761" d="M865.733,406.755a20.788,20.788,0,0,0-.939-6.323,7.207,7.207,0,0,0-4.246-4.52c-1.788-.58-4.126.1-4.713,1.889a3.562,3.562,0,0,0,.394,2.811,8.494,8.494,0,0,0,1.933,2.172,16.3,16.3,0,0,0,7.571,3.972" transform="translate(-607.738 -279.745)" fill="#8fbfab"/>
              <path id="Trazado_149762" data-name="Trazado 149762" d="M18.892,5.787V49.755l129.6-.164.852-43.263Z" transform="translate(-18.946 -5.386)" fill="#f2c9b8"/>
              <path id="Trazado_149763" data-name="Trazado 149763" d="M236.3,50.353h0a.159.159,0,0,1-.159-.159l.046-42.139a.159.159,0,0,1,.159-.159h0a.159.159,0,0,1,.159.16l-.046,42.139a.159.159,0,0,1-.159.159" transform="translate(-171.81 -6.871)" fill="#de8371"/>
              <path id="Trazado_149764" data-name="Trazado 149764" d="M900.051,362.483a.159.159,0,0,1-.116-.269c2.712-2.848,5.578-5.612,8.52-8.215a.159.159,0,1,1,.211.238c-2.935,2.6-5.795,5.355-8.5,8.2a.159.159,0,0,1-.115.05" transform="translate(-638.835 -250.367)" fill="#608a78"/>
              <path id="Trazado_149765" data-name="Trazado 149765" d="M865.858,364.859a.159.159,0,0,1-.106-.04l-7.267-6.505a.159.159,0,1,1,.212-.237l7.268,6.5a.159.159,0,0,1-.106.278" transform="translate(-609.662 -253.236)" fill="#608a78"/>
              <path id="Trazado_149766" data-name="Trazado 149766" d="M875.171,300.755a.159.159,0,0,1-.131-.068l-4.3-6.154a.159.159,0,1,1,.261-.182l4.3,6.154a.159.159,0,0,1-.039.221.156.156,0,0,1-.091.029" transform="translate(-618.306 -208.378)" fill="#608a78"/>
              <path id="Trazado_149767" data-name="Trazado 149767" d="M891.158,435.364a.159.159,0,0,1-.148-.217,22.069,22.069,0,0,1,5.194-7.837.159.159,0,0,1,.221.229,21.761,21.761,0,0,0-5.119,7.723.158.158,0,0,1-.148.1" transform="translate(-632.578 -301.948)" fill="#608a78"/>
              <path id="Trazado_149768" data-name="Trazado 149768" d="M877.66,418.745a.159.159,0,0,1-.14-.084,14.5,14.5,0,0,0-4.837-5.265.159.159,0,0,1,.174-.267,14.822,14.822,0,0,1,4.944,5.381.159.159,0,0,1-.14.234" transform="translate(-619.639 -291.983)" fill="#608a78"/>
              <path id="Trazado_149769" data-name="Trazado 149769" d="M893.008,299.479a.157.157,0,0,1-.084-.024.159.159,0,0,1-.051-.219,73.031,73.031,0,0,0,7.408-15.916.159.159,0,1,1,.3.1,73.363,73.363,0,0,1-7.44,15.985.159.159,0,0,1-.135.075" transform="translate(-633.88 -200.587)" fill="#608a78"/>
              <path id="Trazado_149770" data-name="Trazado 149770" d="M675.4,262.68a39.55,39.55,0,0,0-8.25,1.027,13.109,13.109,0,0,0-7.057,4.047c-1.869,2.236-2.636,5.167-3.35,7.992l-2.784,11a2.7,2.7,0,0,0,1.364,3.688,42.721,42.721,0,0,1,6.107,4.757,99.542,99.542,0,0,0,3.241,11.109c.631,8.125-1.587,16.164-3.594,24.062s-4.96,18.006-3.543,26.03c0,0,59.8-.388,59.423-.742.342-6.984-5.617-21.965-9.148-28s-5.981-6.406-6.5-13.675A64.811,64.811,0,0,1,701,295.357a95.249,95.249,0,0,0,12.7-4.4c-.5-5.958-1.032-12.06-3.563-17.477s-7.515-10.094-13.478-10.524c-2.509-.181-5.361.286-7.256-1.368Z" transform="translate(-465.628 -185.371)" fill="#d5bee6"/>
              <path id="Trazado_149771" data-name="Trazado 149771" d="M683.315,302.585a1.1,1.1,0,0,0,0,2.209,1.1,1.1,0,0,0,0-2.209" transform="translate(-485.68 -214.22)" fill="#fceee8"/>
              <path id="Trazado_149772" data-name="Trazado 149772" d="M727.021,319.781a1.1,1.1,0,0,0,0,2.209,1.1,1.1,0,0,0,0-2.209" transform="translate(-516.432 -226.319)" fill="#fceee8"/>
              <path id="Trazado_149773" data-name="Trazado 149773" d="M785.058,301.152a1.1,1.1,0,0,0,0,2.209,1.1,1.1,0,0,0,0-2.209" transform="translate(-557.269 -213.211)" fill="#fceee8"/>
              <path id="Trazado_149774" data-name="Trazado 149774" d="M826.614,311.9a1.1,1.1,0,0,0,0,2.209,1.1,1.1,0,0,0,0-2.209" transform="translate(-586.508 -220.774)" fill="#fceee8"/>
              <path id="Trazado_149775" data-name="Trazado 149775" d="M763.562,342.709a1.1,1.1,0,0,0,0,2.209,1.1,1.1,0,0,0,0-2.209" transform="translate(-542.144 -242.452)" fill="#fceee8"/>
              <path id="Trazado_149776" data-name="Trazado 149776" d="M810.135,348.441a1.1,1.1,0,0,0,0,2.209,1.1,1.1,0,0,0,0-2.209" transform="translate(-574.913 -246.485)" fill="#fceee8"/>
              <path id="Trazado_149777" data-name="Trazado 149777" d="M728.454,364.2a1.1,1.1,0,0,0,0,2.209,1.1,1.1,0,0,0,0-2.209" transform="translate(-517.441 -257.576)" fill="#fceee8"/>
              <path id="Trazado_149778" data-name="Trazado 149778" d="M689.047,341.993a1.1,1.1,0,0,0,0,2.209,1.1,1.1,0,0,0,0-2.209" transform="translate(-489.713 -241.948)" fill="#fceee8"/>
              <path id="Trazado_149779" data-name="Trazado 149779" d="M787.207,383.55a1.1,1.1,0,0,0,0,2.209,1.1,1.1,0,0,0,0-2.209" transform="translate(-558.781 -271.188)" fill="#fceee8"/>
              <path id="Trazado_149780" data-name="Trazado 149780" d="M752.815,405.761a1.1,1.1,0,0,0,0,2.209,1.1,1.1,0,0,0,0-2.209" transform="translate(-534.582 -286.816)" fill="#fceee8"/>
              <path id="Trazado_149781" data-name="Trazado 149781" d="M699.794,390a1.1,1.1,0,0,0,0,2.209,1.1,1.1,0,0,0,0-2.209" transform="translate(-497.275 -275.725)" fill="#fceee8"/>
              <path id="Trazado_149782" data-name="Trazado 149782" d="M791.973,421.865a1.1,1.1,0,0,0,0,2.209,1.1,1.1,0,0,0,0-2.209" transform="translate(-562.134 -298.147)" fill="#fceee8"/>
              <path id="Trazado_149783" data-name="Trazado 149783" d="M713.639,460.294a1.1,1.1,0,0,0,0,2.209,1.1,1.1,0,0,0,0-2.209" transform="translate(-507.017 -325.187)" fill="#fceee8"/>
              <path id="Trazado_149784" data-name="Trazado 149784" d="M769.064,474.335a1.1,1.1,0,0,0,0,2.209,1.1,1.1,0,0,0,0-2.209" transform="translate(-546.015 -335.066)" fill="#fceee8"/>
              <path id="Trazado_149785" data-name="Trazado 149785" d="M738.765,497.244a1.1,1.1,0,0,0,0,2.209,1.1,1.1,0,0,0,0-2.209" transform="translate(-524.696 -351.186)" fill="#fceee8"/>
              <path id="Trazado_149786" data-name="Trazado 149786" d="M814.144,483.2a1.1,1.1,0,0,0,0,2.209,1.1,1.1,0,0,0,0-2.209" transform="translate(-577.734 -341.306)" fill="#fceee8"/>
              <path id="Trazado_149787" data-name="Trazado 149787" d="M780.149,518.675a1.1,1.1,0,0,0,0,2.209,1.1,1.1,0,0,0,0-2.209" transform="translate(-553.814 -366.265)" fill="#fceee8"/>
              <path id="Trazado_149788" data-name="Trazado 149788" d="M837.053,513.5a1.1,1.1,0,0,0,0,2.209,1.1,1.1,0,0,0,0-2.209" transform="translate(-593.853 -362.625)" fill="#fceee8"/>
              <path id="Trazado_149789" data-name="Trazado 149789" d="M701.815,508.329a1.1,1.1,0,0,0,0,2.209,1.1,1.1,0,0,0,0-2.209" transform="translate(-498.697 -358.985)" fill="#fceee8"/>
              <path id="Trazado_149790" data-name="Trazado 149790" d="M737.287,542.323a1.1,1.1,0,0,0,0,2.209,1.1,1.1,0,0,0,0-2.209" transform="translate(-523.656 -382.904)" fill="#fceee8"/>
              <path id="Trazado_149791" data-name="Trazado 149791" d="M683.34,542.323a1.1,1.1,0,0,0,0,2.209,1.1,1.1,0,0,0,0-2.209" transform="translate(-485.698 -382.904)" fill="#fceee8"/>
              <path id="Trazado_149792" data-name="Trazado 149792" d="M817.839,546.018a1.1,1.1,0,0,0,0,2.209,1.1,1.1,0,0,0,0-2.209" transform="translate(-580.334 -385.504)" fill="#fceee8"/>
              <path id="Trazado_149793" data-name="Trazado 149793" d="M719.507,289.235l.078-.673a3.327,3.327,0,0,0-1.468-2.863,2.782,2.782,0,0,1-1.064-2,2.592,2.592,0,0,0-1.662-2.264c-1.651-.809-1.723-2.087-1.786-3.215a2.951,2.951,0,0,0-.507-1.87c-.644-.728-.468-1.81-.312-2.764.142-.868.276-1.687-.224-2.057-1.28-.946.448-3.572.523-3.683l.265.177c-.459.689-1.46,2.614-.6,3.25.656.486.507,1.4.349,2.364a3.037,3.037,0,0,0,.236,2.5,3.228,3.228,0,0,1,.586,2.063c.061,1.091.124,2.219,1.607,2.946a2.885,2.885,0,0,1,1.836,2.494,2.488,2.488,0,0,0,.944,1.8,3.826,3.826,0,0,1,1.583,2.646,6.793,6.793,0,0,1,2.809-2.365,4.131,4.131,0,0,0,2.851-3.353c.227-.932,1.073-1.1,1.97-1.275a3.719,3.719,0,0,0,3.188-2.169,4.791,4.791,0,0,1,2.434-2.542,2.444,2.444,0,0,0,1.582-1.96,4.39,4.39,0,0,1,1.962-3.169,4.9,4.9,0,0,0,2-2.8l.3.1a5.229,5.229,0,0,1-2.113,2.958,4.125,4.125,0,0,0-1.843,2.977,2.761,2.761,0,0,1-1.744,2.179A4.46,4.46,0,0,0,731,279.063a4.031,4.031,0,0,1-3.417,2.35c-.9.177-1.544.3-1.723,1.038a4.419,4.419,0,0,1-3.063,3.58c-1.508.486-2.91,2.616-2.924,2.637Z" transform="translate(-506.695 -189.777)" fill="#ac8dc6"/>
              <rect id="Rectángulo_40888" data-name="Rectángulo 40888" width="0.318" height="10.192" transform="translate(233.26 99.955) rotate(-5.713)" fill="#ac8dc6"/>
              <path id="Trazado_149794" data-name="Trazado 149794" d="M704.4,440.369a27.337,27.337,0,0,1-8.9-1.2l.115-.3c.042.016,4.3,1.617,11.921,1.063l.023.318c-1.127.081-2.182.116-3.161.116" transform="translate(-495.026 -310.114)" fill="#ac8dc6"/>
              <path id="Trazado_149795" data-name="Trazado 149795" d="M743.321,384.365c-3.378-2.307-10.082-9.881-10.15-9.957l.239-.211c.067.076,6.745,7.62,10.09,9.9Z" transform="translate(-521.527 -264.607)" fill="#ac8dc6"/>
              <path id="Trazado_149796" data-name="Trazado 149796" d="M734.759,399.3c-1.151-3.618-9.278-8.137-9.359-8.182l.154-.279c.339.187,8.32,4.625,9.509,8.364Z" transform="translate(-516.059 -276.315)" fill="#ac8dc6"/>
              <path id="Trazado_149797" data-name="Trazado 149797" d="M802.469,480.616c-.521-4.685-6.492-18.134-6.552-18.269l.291-.129c.247.554,6.051,13.629,6.578,18.363Z" transform="translate(-565.676 -326.54)" fill="#ac8dc6"/>
              <path id="Trazado_149798" data-name="Trazado 149798" d="M733.028,471.663c-.094-6.08,1.666-21.988,1.684-22.148l.317.036c-.018.16-1.775,16.047-1.682,22.108Z" transform="translate(-521.424 -317.603)" fill="#ac8dc6"/>
              <rect id="Rectángulo_40889" data-name="Rectángulo 40889" width="0.318" height="5.858" transform="matrix(0.994, -0.109, 0.109, 0.994, 218.052, 132.901)" fill="#ac8dc6"/>
              <rect id="Rectángulo_40890" data-name="Rectángulo 40890" width="1.978" height="0.318" transform="translate(204.505 132.841) rotate(-74.489)" fill="#ac8dc6"/>
              <path id="Trazado_149799" data-name="Trazado 149799" d="M678.811,346.048c-.036-.111-.858-2.822.436-12.076l.315.044c-1.284,9.182-.457,11.908-.448,11.934Z" transform="translate(-483.074 -236.304)" fill="#ac8dc6"/>
              <path id="Trazado_149800" data-name="Trazado 149800" d="M674.423,346.333a10.4,10.4,0,0,0-1.731-4.821l.262-.18a10.526,10.526,0,0,1,1.786,5Z" transform="translate(-478.973 -241.482)" fill="#ac8dc6"/>
              <path id="Trazado_149801" data-name="Trazado 149801" d="M50.107,531.323a69.3,69.3,0,0,0-.625,15.51l33.091-.239.689-10.569Z" transform="translate(-40.344 -375.164)" fill="#f2c9b8"/>
              <path id="Trazado_149802" data-name="Trazado 149802" d="M202.414,277.5a11.818,11.818,0,0,0,2.057-3.5,4.205,4.205,0,0,0-.475-3.8c-.5-.673-1.25-1.2-1.678-1.907a12.061,12.061,0,0,1-.737-2.063,5.612,5.612,0,0,0-5.531-3.242,30.8,30.8,0,0,0-6.839-1.391,10.175,10.175,0,0,0-6.583,1.685c-1.22.929-2.026,2.219-3.316,3.075-1.12.743-2.526,1.1-3.675,1.815s-2.033,2.028-1.42,3.123c.341.609,1.08,1.021,1.334,1.661.581,1.465-1.684,3.006-.963,4.424.512,1.005,2.2,1.18,2.855,2.122.409.586.32,1.331.574,1.979s1.251,1.2,1.809.71l16.735-.15Z" transform="translate(-128.096 -185.371)" fill="#d67272"/>
              <path id="Trazado_149803" data-name="Trazado 149803" d="M90.889,336.171c-4.986,1.494-7.83-2.139-12.249.612-7.055,4.391-11.307,11.549-14.508,19.015a37.09,37.09,0,0,1-2.581,5c-6.134,9.852-10.335,20.9-11.043,33.19,3.227,3.365,8.22,4.38,12.882,4.356s9.312-.909,13.963-.6c4.69.317,9.269,1.846,13.97,1.8a113.956,113.956,0,0,1,10.248-32.4l-1.378,3.1,4.525,4.18a58.07,58.07,0,0,1,9.407-10.083c-3.658-5.049-3.357-12.355-7.568-16.953-2-2.186-4.779-3.465-7.478-4.688Z" transform="translate(-41.192 -237.534)" fill="#c1e3d4"/>
            </g>
          </g>
          <g id="Grupo_165521" data-name="Grupo 165521" transform="translate(28.39 102.622)">
            <g id="Grupo_165520" data-name="Grupo 165520" transform="translate(0)" clip-path="url(#clip-path-2)">
              <path id="Trazado_149805" data-name="Trazado 149805" d="M77.927,378.852l-.117,0c-3.2-.116-6.872-.1-10.759-.074-16.743.093-37.572.208-48.777-10.151a3.167,3.167,0,0,1-.347-.377,12.967,12.967,0,0,1-2.389-10.355,9.559,9.559,0,0,1,4.722-6.637c6.185-3.371,13.127,1.429,15.74,3.236l.054.038a43.96,43.96,0,0,0,43.574,4.017c-.693-.166-1.373-.322-1.943-.452a21.836,21.836,0,0,0-7.029.248c-1,.138-2.033.28-3.081.379a40.553,40.553,0,0,1-22.745-4.88c-7.821-4.3-13.084-10.763-14.82-18.2a3.23,3.23,0,0,1-.071-.451c-.426-4.955,2.317-9.6,6.522-11.052,6.149-2.12,11.5,2.886,14.7,5.878A48.01,48.01,0,0,0,66.591,340.1c4.611,1.76,13.86,2.841,18.521.19a4.569,4.569,0,0,0,2.379-2.92,3.386,3.386,0,0,0-2.413-1.864c-9.051.874-16.377.156-22.385-2.192-7.537-2.947-13.173-8.573-16.752-16.723a3.183,3.183,0,0,1,5.829-2.56c5.373,12.236,15.6,16.891,33.165,15.091a3.22,3.22,0,0,1,.877.032c3.915.69,7.948,3.754,8.082,8.276a3.176,3.176,0,0,1-.046.64,10.883,10.883,0,0,1-5.589,7.754c-6.795,3.862-18.088,2.456-23.938.223a54.3,54.3,0,0,1-17.515-11.377c-2.908-2.722-5.944-5.312-8.272-4.508-1.363.47-2.352,2.36-2.267,4.277,1.381,5.553,5.5,10.456,11.63,13.826a34.534,34.534,0,0,0,19.08,4.12c.912-.086,1.833-.213,2.809-.347a26.739,26.739,0,0,1,9.2-.173l.074.016c2.365.541,4.29.994,5.755,1.5,1.07.368,3.913,1.346,4.227,4.1.386,3.392-3.5,5.277-6.074,6.525a50.152,50.152,0,0,1-50.619-4.3c-4.3-2.972-7.18-3.881-9.046-2.865a3.335,3.335,0,0,0-1.534,2.337,6.659,6.659,0,0,0,1.03,4.953c9.436,8.464,28.708,8.358,44.213,8.272,3.955-.023,7.691-.043,11.025.078a3.183,3.183,0,0,1-.113,6.364" transform="translate(-25.726 -319.118)" fill="#8fbfab"/>
            </g>
          </g>
          <g id="Grupo_165523" data-name="Grupo 165523" transform="translate(19.074 4.436)">
            <g id="Grupo_165522" data-name="Grupo 165522" transform="translate(0)" clip-path="url(#clip-path)">
              <path id="Trazado_149807" data-name="Trazado 149807" d="M207.719,291.7c-.35,1.212-3.764,1.944-5.121,1.441a2.932,2.932,0,0,0-1.194-.325c-.552.042-.971.492-1.448.774-1.318.778-2.989.228-4.491-.1a3.409,3.409,0,0,0-2.1,1.752c-.467.814-.745,1.722-1.159,2.563-.079.16-.186.336-.362.364-.3.048-.459-.343-.472-.645-.024-.536.061-1.075,0-1.608a1.6,1.6,0,0,0-.8-1.316,1.433,1.433,0,0,0-1.358.176,3.721,3.721,0,0,0-.959,1.049,6.329,6.329,0,0,0-1.184,2.635,2.9,2.9,0,0,0,.957,2.656,49.369,49.369,0,0,1-5.553,4.73c1.3,3.673,2.792,7.61,6.182,9.624a2.87,2.87,0,0,0,1.068.4c1.547.211,2.108-1.014,2.616-2.07a3.213,3.213,0,0,1,1.846-1.889,12.262,12.262,0,0,0,2.433,1.814c3.364,1.73,5.335-.367,6.359-1.95a21.118,21.118,0,0,1,1.644-2.214,11.553,11.553,0,0,0,2.488-5.014,25.243,25.243,0,0,1,1.212-3.977,9.907,9.907,0,0,0,.628-2.259c.339-2.418-1.069-4.057-1.238-6.606" transform="translate(-134.049 -206.561)" fill="#ff9b85"/>
              <path id="Trazado_149808" data-name="Trazado 149808" d="M206.782,309.883a.159.159,0,0,1-.156-.127,11.806,11.806,0,0,0-.97-2.814.159.159,0,0,1,.285-.141,12.125,12.125,0,0,1,1,2.89.159.159,0,0,1-.123.188.137.137,0,0,1-.033,0" transform="translate(-150.345 -217.124)" fill="#fa453e"/>
              <path id="Trazado_149809" data-name="Trazado 149809" d="M204.969,314.76a.16.16,0,0,1-.15-.1,4.609,4.609,0,0,1-.2-2.419.159.159,0,0,1,.313.058,4.289,4.289,0,0,0,.188,2.252.159.159,0,0,1-.095.2.155.155,0,0,1-.055.01" transform="translate(-149.572 -220.919)" fill="#fa453e"/>
              <path id="Trazado_149810" data-name="Trazado 149810" d="M202.487,324.513a2.112,2.112,0,0,1-1.417-.532.159.159,0,0,1,.215-.235,1.807,1.807,0,0,0,2.035.241.159.159,0,1,1,.154.279,2.05,2.05,0,0,1-.986.246" transform="translate(-147.093 -229.08)" fill="#fa453e"/>
              <path id="Trazado_149811" data-name="Trazado 149811" d="M213.512,338.806a.159.159,0,0,1-.113-.047c-2.113-2.114-3.17-4.88-3.324-8.707a.16.16,0,0,1,.153-.166.166.166,0,0,1,.166.153c.151,3.742,1.178,6.441,3.231,8.495a.159.159,0,0,1-.113.272" transform="translate(-153.466 -233.43)" fill="#fa453e"/>
              <path id="Trazado_149812" data-name="Trazado 149812" d="M248.452,330a.159.159,0,0,1-.075-.3l1.277-.679a7.281,7.281,0,0,1-.25-3.955.153.153,0,0,1,.013-.038,4.838,4.838,0,0,1,1.608-1.869.159.159,0,1,1,.181.262,4.527,4.527,0,0,0-1.5,1.733,6.956,6.956,0,0,0,.289,3.886.159.159,0,0,1-.074.2l-1.4.744a.156.156,0,0,1-.075.019" transform="translate(-180.357 -228.678)" fill="#fa453e"/>
              <path id="Trazado_149813" data-name="Trazado 149813" d="M232.471,319.774c.265,2.088,1.918,3.223,3.667,1.6.11-1.9-1.986-1.938-3.667-1.6" transform="translate(-169.224 -226.197)" fill="#fff"/>
              <path id="Trazado_149814" data-name="Trazado 149814" d="M237.538,320.044a.685.685,0,0,0-.733-.126,1.911,1.911,0,0,0-1.217,1.458c-.131.718.791,1.372,1.639.66a1.318,1.318,0,0,0,.311-1.992" transform="translate(-171.409 -226.379)" fill="#473e57"/>
              <path id="Trazado_149815" data-name="Trazado 149815" d="M234.955,320.822a.159.159,0,0,1-.159-.152,1.791,1.791,0,0,0-.752-1.512,3.34,3.34,0,0,0-2.98.154.159.159,0,1,1-.12-.295,3.618,3.618,0,0,1,3.272-.127,2.093,2.093,0,0,1,.9,1.765.158.158,0,0,1-.151.166h-.007" transform="translate(-168.08 -225.459)" fill="#fa453e"/>
              <path id="Trazado_149816" data-name="Trazado 149816" d="M255.359,328.871c.156,1.95,1.487,3.077,2.95,1.389.115-1.975-1.559-1.745-2.95-1.389" transform="translate(-185.329 -232.547)" fill="#fff"/>
              <path id="Trazado_149817" data-name="Trazado 149817" d="M259.5,328.5a.513.513,0,0,0-.611-.2,1.8,1.8,0,0,0-1.195,1.391c-.075.423.036,1.242.942,1.042a1.552,1.552,0,0,0,.864-2.235" transform="translate(-186.962 -232.294)" fill="#473e57"/>
              <path id="Trazado_149818" data-name="Trazado 149818" d="M257.263,329.7a.159.159,0,0,1-.159-.155,1.672,1.672,0,0,0-.627-1.5c-.493-.294-1.3-.172-2.329.352a.159.159,0,0,1-.144-.284c1.149-.584,2.036-.7,2.636-.341a1.956,1.956,0,0,1,.782,1.766.159.159,0,0,1-.155.163Z" transform="translate(-184.314 -231.801)" fill="#fa453e"/>
              <path id="Trazado_149819" data-name="Trazado 149819" d="M239.114,348.787a2.811,2.811,0,0,1-1.1-.224,2.857,2.857,0,0,1-1.519-1.58.159.159,0,0,1,.3-.113,2.486,2.486,0,0,0,3.29,1.4.159.159,0,1,1,.124.293,2.8,2.8,0,0,1-1.091.219" transform="translate(-172.048 -245.308)" fill="#fa453e"/>
              <path id="Trazado_149820" data-name="Trazado 149820" d="M244.044,343.111a.159.159,0,0,1-.024-.317l1.016-.159a.159.159,0,1,1,.049.315l-1.016.159-.025,0" transform="translate(-177.256 -242.399)" fill="#fa453e"/>
              <path id="Trazado_149821" data-name="Trazado 149821" d="M261.423,319.768a.159.159,0,0,1-.07-.3,2.822,2.822,0,0,1,2.221-.088.159.159,0,1,1-.116.3,2.5,2.5,0,0,0-1.966.079.162.162,0,0,1-.07.016" transform="translate(-189.483 -225.904)" fill="#fa453e"/>
              <path id="Trazado_149822" data-name="Trazado 149822" d="M237.26,312.291a.157.157,0,0,1-.1-.037,7.349,7.349,0,0,0-4.894-1.7.159.159,0,1,1-.009-.318,7.7,7.7,0,0,1,5.108,1.774.159.159,0,0,1-.1.281" transform="translate(-168.963 -219.601)" fill="#fa453e"/>
              <path id="Trazado_149823" data-name="Trazado 149823" d="M210.718,364.356a.159.159,0,0,1-.126-.257,7.941,7.941,0,0,1,1.654-1.591.159.159,0,0,1,.186.259,7.637,7.637,0,0,0-1.588,1.528.158.158,0,0,1-.126.062" transform="translate(-153.807 -256.362)" fill="#fa453e"/>
              <path id="Trazado_149824" data-name="Trazado 149824" d="M182.172,397.595a.159.159,0,0,1-.157-.137l-1.606-11.506a.159.159,0,0,1,.135-.18.162.162,0,0,1,.18.136l1.606,11.506a.159.159,0,0,1-.135.18h-.023" transform="translate(-132.591 -272.751)" fill="#72a18c"/>
              <path id="Trazado_149825" data-name="Trazado 149825" d="M218.658,422.377a.164.164,0,0,1-.068-.015.16.16,0,0,1-.076-.212l5.912-12.488a.159.159,0,0,1,.288.136L218.8,422.286a.16.16,0,0,1-.144.091" transform="translate(-159.393 -289.497)" fill="#72a18c"/>
              <path id="Trazado_149826" data-name="Trazado 149826" d="M227.559,434.179a.157.157,0,0,1-.084-.024.159.159,0,0,1-.05-.219,12.986,12.986,0,0,1,4.879-4.546.159.159,0,0,1,.15.281,12.662,12.662,0,0,0-4.76,4.434.159.159,0,0,1-.135.075" transform="translate(-165.656 -303.428)" fill="#72a18c"/>
              <path id="Trazado_149827" data-name="Trazado 149827" d="M132.174,423.755a.15.15,0,0,1-.033,0,.159.159,0,0,1-.114-.093,33.91,33.91,0,0,0-8.06-11.406.159.159,0,0,1,.216-.234,34.244,34.244,0,0,1,8.046,11.307l1.511-1.414a.159.159,0,1,1,.218.232l-1.676,1.568a.158.158,0,0,1-.109.043" transform="translate(-92.844 -291.19)" fill="#72a18c"/>
              <path id="Trazado_149828" data-name="Trazado 149828" d="M124.428,431.707a.159.159,0,0,1-.1-.033,13.005,13.005,0,0,0-6.563-2.572.159.159,0,0,1-.143-.174.165.165,0,0,1,.174-.143,13.328,13.328,0,0,1,6.726,2.636.159.159,0,0,1-.1.286" transform="translate(-88.416 -303.017)" fill="#72a18c"/>
              <path id="Trazado_149829" data-name="Trazado 149829" d="M125.326,490.548a.162.162,0,0,1-.075-.018.16.16,0,0,1-.066-.215,51.448,51.448,0,0,1,10.314-13.5.159.159,0,0,1,.218.232,51.12,51.12,0,0,0-10.251,13.417.16.16,0,0,1-.141.085" transform="translate(-93.723 -336.781)" fill="#72a18c"/>
              <path id="Trazado_149830" data-name="Trazado 149830" d="M169.313,496.568H169.3a.159.159,0,0,1-.146-.171l.679-8.87a.165.165,0,0,1,.171-.147.16.16,0,0,1,.147.171l-.679,8.87a.159.159,0,0,1-.159.147" transform="translate(-124.673 -344.244)" fill="#72a18c"/>
              <path id="Trazado_149831" data-name="Trazado 149831" d="M71.053,465.226a.159.159,0,0,1-.159-.154,70.284,70.284,0,0,1,1.585-17.451.159.159,0,1,1,.311.068,69.955,69.955,0,0,0-1.578,17.371.159.159,0,0,1-.153.165Z" transform="translate(-55.506 -316.183)" fill="#72a18c"/>
              <path id="Trazado_149832" data-name="Trazado 149832" d="M11.064,569.28l274.661-.322V580.69H11.171Z" transform="translate(-13.438 -401.646)" fill="#a85454"/>
              <path id="Trazado_149833" data-name="Trazado 149833" d="M324.589,198.482c-.813.814-1.627,1.628-2.4,2.393a161.754,161.754,0,0,0-20.756,7.861A37.057,37.057,0,0,0,290,228.149c-.755,3.359-1.088,6.953-3.026,9.8-1.776,2.608-4.946,4.888-4.547,8.144a2.371,2.371,0,0,0-.541,4.265A17.078,17.078,0,0,0,280.4,255.9a6.082,6.082,0,0,0,2.114,5.129c5.087,1.68,2.227-7.151,5.691-8a7.754,7.754,0,0,1,8.755,4.508,5.194,5.194,0,0,0,1.57-4.177c-.067-.721-.286-1.425-.313-2.149a9.138,9.138,0,0,1,1.116-3.881c1.559-1.98,3.119-3.96,4.837-5.9a86.506,86.506,0,0,1,3.681,15.487s50.745,2.472,51.835,1.686c.621-5.575,1.644-11.105,2.768-16.361l4.825,5.813a1.807,1.807,0,0,0-1.976.94,5.284,5.284,0,0,0-.531,2.283l-.395,5c2.638-1.771,6.2-2.406,9.042-.989s3.194,4.786,1.764,7.624c1.3.114,2.795.39,5.86-1.958a6.285,6.285,0,0,0,2.594-4.263c.193-2.192-1.1-4.671.2-6.452a15.152,15.152,0,0,0-1.725-1.523c1.413-4.6-4.094-11.164-5.489-15.768-2.832-9.344-2.279-14.385-10.923-23.03-1.887-1.887-14.348-7.367-20.538-9.329a7.038,7.038,0,0,0-4.488-2.078Z" transform="translate(-202.945 -140.971)" fill="#72568f"/>
              <path id="Trazado_149834" data-name="Trazado 149834" d="M555.846,309.819l-.027,0a.16.16,0,0,1-.13-.184l2.466-14.3a.159.159,0,0,1,.314.054L556,309.686a.16.16,0,0,1-.157.132" transform="translate(-396.645 -209.021)" fill="#4f3070"/>
              <path id="Trazado_149835" data-name="Trazado 149835" d="M562.29,315.38a.157.157,0,0,1-.059-.011.159.159,0,0,1-.089-.207,20.792,20.792,0,0,1,3.308-5.6.159.159,0,0,1,.246.2,20.487,20.487,0,0,0-3.258,5.512.159.159,0,0,1-.148.1" transform="translate(-401.18 -219.09)" fill="#4f3070"/>
              <path id="Trazado_149836" data-name="Trazado 149836" d="M352.7,312.884a.159.159,0,0,1-.156-.132,70.782,70.782,0,0,0-3.672-13.275.159.159,0,1,1,.3-.114,71.1,71.1,0,0,1,3.688,13.335.159.159,0,0,1-.13.184.14.14,0,0,1-.028,0" transform="translate(-251.12 -211.881)" fill="#4f3070"/>
              <path id="Trazado_149837" data-name="Trazado 149837" d="M349.476,317.133a.159.159,0,0,1-.133-.072l-2.213-3.384a.159.159,0,0,1,.266-.174l2.213,3.383a.159.159,0,0,1-.046.22.157.157,0,0,1-.087.026" transform="translate(-249.882 -221.851)" fill="#4f3070"/>
              <path id="Trazado_149838" data-name="Trazado 149838" d="M302.809,358.637a.16.16,0,0,1-.136-.076,8.379,8.379,0,0,0-6.6-3.656,20.206,20.206,0,0,0-7.762,1.282.159.159,0,0,1-.1-.3,20.467,20.467,0,0,1,7.887-1.3,8.7,8.7,0,0,1,6.846,3.808.159.159,0,0,1-.136.242" transform="translate(-208.368 -250.781)" fill="#4f3070"/>
              <path id="Trazado_149839" data-name="Trazado 149839" d="M286.013,366.8a.159.159,0,0,1-.119-.266,7.684,7.684,0,0,1,3.705-2.148,22.937,22.937,0,0,1,4.225-.641.16.16,0,0,1,.172.145.159.159,0,0,1-.145.172,22.672,22.672,0,0,0-4.167.63,7.369,7.369,0,0,0-3.555,2.055.159.159,0,0,1-.118.052" transform="translate(-206.786 -257.256)" fill="#4f3070"/>
              <path id="Trazado_149840" data-name="Trazado 149840" d="M285.894,363.693a.159.159,0,0,1-.088-.292A7.524,7.524,0,0,1,290.6,362.2a.159.159,0,0,1,.144.173.165.165,0,0,1-.173.144,7.211,7.211,0,0,0-4.59,1.154.16.16,0,0,1-.088.026" transform="translate(-206.702 -256.142)" fill="#4f3070"/>
              <path id="Trazado_149841" data-name="Trazado 149841" d="M289.785,378.187a.159.159,0,0,1-.129-.253,29.015,29.015,0,0,1,3.051-3.559.159.159,0,0,1,.224.226,28.622,28.622,0,0,0-3.017,3.52.16.16,0,0,1-.129.066" transform="translate(-209.44 -264.7)" fill="#4f3070"/>
              <path id="Trazado_149842" data-name="Trazado 149842" d="M324.059,380.264a.16.16,0,0,1-.134-.072,8.864,8.864,0,0,0-5.352-3.754.159.159,0,1,1,.073-.31,9.187,9.187,0,0,1,5.546,3.889.159.159,0,0,1-.133.246" transform="translate(-229.721 -265.963)" fill="#4f3070"/>
              <path id="Trazado_149843" data-name="Trazado 149843" d="M328.7,349.276a.16.16,0,0,1-.107-.041l-3.462-3.125a2.94,2.94,0,0,1-.725-.851,1.1,1.1,0,0,1,.074-1.177,1.121,1.121,0,0,1,1.285-.224,2.94,2.94,0,0,1,.967.8c.7.775,1.42,1.575,2.123,4.423a.159.159,0,0,1-.154.2m-3.453-5.207a.66.66,0,0,0-.522.216.8.8,0,0,0-.033.834,2.665,2.665,0,0,0,.653.755l3.069,2.77a7.567,7.567,0,0,0-1.918-3.774,2.71,2.71,0,0,0-.857-.72,1.008,1.008,0,0,0-.392-.081" transform="translate(-233.819 -243.186)" fill="#4f3070"/>
              <path id="Trazado_149844" data-name="Trazado 149844" d="M335.565,338.607a.159.159,0,0,1-.152-.114,24.174,24.174,0,0,0-2.823-6.125.159.159,0,1,1,.268-.172,24.483,24.483,0,0,1,2.86,6.206.159.159,0,0,1-.107.2.151.151,0,0,1-.046.007" transform="translate(-239.653 -235.004)" fill="#4f3070"/>
              <path id="Trazado_149845" data-name="Trazado 149845" d="M575.291,357.292a.159.159,0,0,1-.1-.282,14.962,14.962,0,0,1,2.956-2.07,5.139,5.139,0,0,1,3.585-.457,1.055,1.055,0,0,1,.636.453.486.486,0,0,1,.033.389c-.1.3-.424.388-.694.432a45.889,45.889,0,0,0-6.369,1.528.154.154,0,0,1-.045.007m5.321-2.639a5.406,5.406,0,0,0-2.328.574,12.055,12.055,0,0,0-2.3,1.538,42.87,42.87,0,0,1,5.665-1.322c.168-.028.4-.08.444-.22a.169.169,0,0,0-.014-.14.754.754,0,0,0-.441-.294,3.784,3.784,0,0,0-1.032-.138" transform="translate(-410.328 -250.632)" fill="#4f3070"/>
              <path id="Trazado_149846" data-name="Trazado 149846" d="M575,350.94a.159.159,0,0,1-.13-.251,9.37,9.37,0,0,1,6.158-3.8.159.159,0,0,1,.047.314,9.047,9.047,0,0,0-5.944,3.67.16.16,0,0,1-.13.068" transform="translate(-410.12 -245.391)" fill="#4f3070"/>
              <path id="Trazado_149847" data-name="Trazado 149847" d="M589.086,369.845a.159.159,0,0,1-.135-.075,10.925,10.925,0,0,0-4.167-3.869,10.136,10.136,0,0,0-2.667-.967c-2.579-.533-5.318.039-7.733.544a.159.159,0,0,1-.065-.312c2.447-.511,5.218-1.092,7.863-.544a10.473,10.473,0,0,1,2.751,1,11.245,11.245,0,0,1,4.288,3.983.159.159,0,0,1-.051.219.156.156,0,0,1-.084.024" transform="translate(-409.667 -257.714)" fill="#4f3070"/>
              <path id="Trazado_149848" data-name="Trazado 149848" d="M614.99,368.149a.162.162,0,0,1-.074-.018l-3.105-1.623a.159.159,0,0,1,.147-.282l3.106,1.623a.159.159,0,0,1-.074.3" transform="translate(-436.075 -258.986)" fill="#4f3070"/>
              <path id="Trazado_149849" data-name="Trazado 149849" d="M607.5,396.072a.159.159,0,0,1-.159-.147,14.348,14.348,0,0,0-1.54-5.435.159.159,0,1,1,.283-.146,14.682,14.682,0,0,1,1.575,5.557.16.16,0,0,1-.147.171H607.5" transform="translate(-431.898 -275.908)" fill="#4f3070"/>
              <path id="Trazado_149850" data-name="Trazado 149850" d="M617.153,398.382a.159.159,0,0,1-.126-.061l-1.326-1.7a.159.159,0,1,1,.251-.2l1.327,1.7a.159.159,0,0,1-.126.257" transform="translate(-438.849 -280.204)" fill="#4f3070"/>
              <path id="Trazado_149851" data-name="Trazado 149851" d="M567.81,380.9a.159.159,0,0,1-.049-.311,29.065,29.065,0,0,1,8.019-1.41.159.159,0,1,1,.01.318,28.728,28.728,0,0,0-7.931,1.395.16.16,0,0,1-.049.008" transform="translate(-405.064 -268.113)" fill="#4f3070"/>
              <path id="Trazado_149852" data-name="Trazado 149852" d="M568.566,377.025a.159.159,0,0,1-.031-.315,12.266,12.266,0,0,1,4.709-.012.16.16,0,0,1,.126.187.162.162,0,0,1-.187.126,11.928,11.928,0,0,0-4.585.012.158.158,0,0,1-.031,0" transform="translate(-405.596 -266.211)" fill="#4f3070"/>
              <path id="Trazado_149853" data-name="Trazado 149853" d="M427.5,224.619a.157.157,0,0,1-.092-.029c-1.126-.8-1.389-2.187-1.643-3.528a9.46,9.46,0,0,0-.656-2.355,8.44,8.44,0,0,0-.868-1.326c-.2-.263-.4-.536-.583-.819a9.62,9.62,0,0,1-1.275-5.8,28.129,28.129,0,0,1,1.241-5.831.159.159,0,0,1,.306.088,27.875,27.875,0,0,0-1.229,5.764,9.306,9.306,0,0,0,1.226,5.606c.175.274.376.542.57.8a8.688,8.688,0,0,1,.9,1.377,9.706,9.706,0,0,1,.683,2.435,6.254,6.254,0,0,0,1.012,2.861,3.153,3.153,0,0,1,3.715-3.944.159.159,0,1,1-.068.311,2.842,2.842,0,0,0-3.1,4.153.159.159,0,0,1-.139.236" transform="translate(-302.831 -145.427)" fill="#4f3070"/>
              <path id="Trazado_149854" data-name="Trazado 149854" d="M468.269,225.686a.159.159,0,0,1-.148-.1,9.969,9.969,0,0,0-1.827-3.374,3.246,3.246,0,0,0-3.376-1.005.159.159,0,0,1-.116-.3,3.566,3.566,0,0,1,3.723,1.082,7.691,7.691,0,0,1,1.409,2.272,9.369,9.369,0,0,1,.927-4.006c.328-.737.713-1.46,1.086-2.159a27.342,27.342,0,0,0,1.288-2.64,13.655,13.655,0,0,0,.155-9.639.159.159,0,1,1,.3-.109,13.975,13.975,0,0,1-.159,9.866,27.522,27.522,0,0,1-1.3,2.671c-.37.694-.752,1.411-1.076,2.138a7.78,7.78,0,0,0-.729,5.1.159.159,0,0,1-.1.192.156.156,0,0,1-.049.008" transform="translate(-331.218 -145.982)" fill="#4f3070"/>
              <path id="Trazado_149855" data-name="Trazado 149855" d="M378.822,202.93A160.529,160.529,0,0,0,374.033,232c3.611.75,7.137.985,10.743,1.876,3.132.774,6.338,1.733,9.587,1.132,3.818-.707,7.629-2.639,11.345-3.068a116.885,116.885,0,0,0-5.65-29.8,4.255,4.255,0,0,1,1.653.654,134.207,134.207,0,0,1,6.561,30.532c1.347,4.613,1.02,9.527,1.51,14.308s2.087,9.872,6.445,12.415c1.177,17.546,2.241,33.392,3.418,50.938,0,0-59.339.994-59.079.195.949-16.706,1.9-33.413,3.457-50.316-.356-2.316,1.36-4.36,2.6-6.351,2.582-4.161,3.3-9.175,3.964-14.027a25.783,25.783,0,0,1,2.043-8.127,64.449,64.449,0,0,1,4.522-28.935,2.242,2.242,0,0,0,1.675-.5" transform="translate(-259.354 -143.55)" fill="#ffb987"/>
              <path id="Trazado_149856" data-name="Trazado 149856" d="M423.045,351.235c-4.631,0-9.26-.137-13.862-.411a.159.159,0,0,1-.15-.16l.194-26.01a.16.16,0,0,1,.149-.158c.681-.045,1.367-.1,2.056-.153a26.42,26.42,0,0,1,13.911,1.362,32.8,32.8,0,0,0,4.8,1.327c2.791.474,6.7.034,8.519-2.763a.159.159,0,0,1,.285.041c1.343,4.375.85,9.047.373,13.564-.442,4.188-.9,8.518.108,12.6a.158.158,0,0,1-.026.132.16.16,0,0,1-.117.065c-5.384.376-10.811.563-16.236.563m-13.692-.72a233.778,233.778,0,0,0,29.718-.148c-.963-4.081-.509-8.374-.071-12.527.462-4.376.939-8.9-.267-13.121-1.974,2.678-5.854,3.1-8.648,2.626a33.055,33.055,0,0,1-4.842-1.339,26.121,26.121,0,0,0-13.786-1.346c-.64.05-1.278.1-1.912.144Z" transform="translate(-293.458 -229.338)" fill="#db7239"/>
              <path id="Trazado_149857" data-name="Trazado 149857" d="M374.468,381.74a.159.159,0,0,1-.1-.286,19.492,19.492,0,0,0,6.146-7.954.159.159,0,1,1,.293.123,19.807,19.807,0,0,1-6.246,8.084.159.159,0,0,1-.1.033" transform="translate(-269.025 -264.048)" fill="#db7239"/>
              <path id="Trazado_149858" data-name="Trazado 149858" d="M378.375,403.1a.159.159,0,0,1-.07-.3l4.931-2.427a.159.159,0,0,1,.141.285l-4.931,2.426a.157.157,0,0,1-.07.017" transform="translate(-271.773 -283.01)" fill="#db7239"/>
              <path id="Trazado_149859" data-name="Trazado 149859" d="M532.844,393.048a.159.159,0,0,1-.09-.028,22.939,22.939,0,0,1-6.319-6.546.159.159,0,1,1,.268-.171,22.618,22.618,0,0,0,6.231,6.454.159.159,0,0,1-.09.29" transform="translate(-376.045 -273.074)" fill="#db7239"/>
              <path id="Trazado_149860" data-name="Trazado 149860" d="M535.1,407.77a.157.157,0,0,1-.049-.008l-3-.968a.159.159,0,1,1,.1-.3l3,.967a.159.159,0,0,1-.049.311" transform="translate(-379.937 -287.325)" fill="#db7239"/>
              <path id="Trazado_149861" data-name="Trazado 149861" d="M440.045,458.867a.159.159,0,0,1-.122-.057l-6.135-7.362a.159.159,0,0,1,.244-.2l6.135,7.362a.159.159,0,0,1-.122.261" transform="translate(-310.849 -318.778)" fill="#db7239"/>
              <path id="Trazado_149862" data-name="Trazado 149862" d="M427.558,471.9a.159.159,0,0,1-.151-.108l-1.928-5.609a.159.159,0,1,1,.3-.1l1.928,5.609a.159.159,0,0,1-.1.2.166.166,0,0,1-.052.009" transform="translate(-305.023 -329.181)" fill="#db7239"/>
              <path id="Trazado_149863" data-name="Trazado 149863" d="M539.607,511.4a.159.159,0,0,1-.159-.158l-.117-16.127a.159.159,0,0,1,.158-.16h0a.159.159,0,0,1,.159.158l.117,16.127a.159.159,0,0,1-.158.16Z" transform="translate(-385.137 -349.572)" fill="#db7239"/>
              <path id="Trazado_149864" data-name="Trazado 149864" d="M583.726,554.753s-.141,7.011-.017,10.437l12.462-.121.048-10.343Z" transform="translate(-416.327 -391.63)" fill="#fff"/>
              <path id="Trazado_149865" data-name="Trazado 149865" d="M587.851,549.512a1.88,1.88,0,0,1,1.193-1.791,5.512,5.512,0,0,1,2.26-.33l3.261-.017a4.777,4.777,0,0,1,2.164.326,1.636,1.636,0,0,1,.961,1.792Z" transform="translate(-419.271 -386.457)" fill="#473e57"/>
              <path id="Trazado_149866" data-name="Trazado 149866" d="M761.8,561.168c-1.717-1.166-4.041-.8-5.988-.079s-3.839,1.766-5.914,1.842c-.642.023-1.287-.048-1.926.02a2.453,2.453,0,0,0-1.7.8,1.313,1.313,0,0,0,.05,1.745,2.921,2.921,0,0,0,1.549.415,9.532,9.532,0,0,1,3.26,1.586,13.82,13.82,0,0,0,8.85,1.8,7.2,7.2,0,0,0,3.955-1.629,3.742,3.742,0,0,0,1.135-3.931c-.592-1.553-2.464-2.017-3.276-2.568" transform="translate(-530.53 -395.635)" fill="#8fbfab"/>
              <path id="Trazado_149867" data-name="Trazado 149867" d="M746.471,564.7c-.415-.693.166-1.623.915-1.925a6.665,6.665,0,0,1,2.4-.207c2.533-.042,4.858-1.308,7.273-2.072s5.38-.9,7.155.905a2.788,2.788,0,0,1,.624,3.31,3.609,3.609,0,0,1-2.12,1.293,17.629,17.629,0,0,1-6.052.687,35.16,35.16,0,0,1-4.709-.718c-1.85-.368-3.7-.736-5.486-1.273" transform="translate(-530.788 -395.314)" fill="#c5ebcc"/>
              <path id="Trazado_149868" data-name="Trazado 149868" d="M782.793,567.084a6.548,6.548,0,0,0-5.107.283.727.727,0,0,0-.4.36.513.513,0,0,0,.2.548,1.367,1.367,0,0,0,.58.217,10.05,10.05,0,0,0,4.953-.274c.15-.047.325-.129.339-.286.013-.141-.115-.251-.233-.329-.4-.261-.836-.46-.337-.519" transform="translate(-552.552 -400.053)" fill="#a85454"/>
              <path id="Trazado_149869" data-name="Trazado 149869" d="M576.453,245.623a5.019,5.019,0,0,1,3.04,1.447,9.2,9.2,0,0,0,2.852,1.871c1.279,2.11,2.558,4.22,3.88,6.451a20.652,20.652,0,0,1,.578,5.794c2.632,7.959,7.495,13.869,13.152,19.583.207-1.2.417-1.833.437-2.149,2.266,1.6,6.755,5.216,6.755,5.216a30.056,30.056,0,0,0,.965,3.634A23.258,23.258,0,0,1,603.4,297.82a2.738,2.738,0,0,1-3.613.562c-3.965-2.556-6.5-5.043-8.073-9.672,0-2.23-.469-1.207-.466-3.436,0-.781.47-1.582.156-2.3-.17-.386-.818-.572-1.008-.949-.438-.872-.115-2.038-.285-3-1.057-5.95-6.1-10.885-6.226-16.908a31.193,31.193,0,0,1-1.448-5.6l-2.927-4.5a2.387,2.387,0,0,1-.4-.852.813.813,0,0,1,.309-.838.5.5,0,0,1,.743.295c-1.182-1.636-2.364-3.273-3.7-5.006" transform="translate(-411.257 -174.14)" fill="#ff9b85"/>
              <path id="Trazado_149870" data-name="Trazado 149870" d="M593.584,266.6a.159.159,0,0,1-.1-.034,10.713,10.713,0,0,1-2.507-2.812,27.861,27.861,0,0,1-2.966-2.531.159.159,0,1,1,.225-.224,27.78,27.78,0,0,0,2.957,2.52.15.15,0,0,1,.039.044,10.4,10.4,0,0,0,2.449,2.754.159.159,0,0,1-.1.284" transform="translate(-419.358 -184.928)" fill="#fa453e"/>
              <path id="Trazado_149871" data-name="Trazado 149871" d="M659.083,372.457a.159.159,0,0,1-.152-.113,21.892,21.892,0,0,0-4.8-8.41.159.159,0,1,1,.234-.215,22.206,22.206,0,0,1,4.872,8.532.159.159,0,0,1-.106.2.157.157,0,0,1-.046.007" transform="translate(-465.882 -257.199)" fill="#fa453e"/>
              <path id="Trazado_149872" data-name="Trazado 149872" d="M705.629,141.888a15.671,15.671,0,0,0-16.574-1.517c-5.193,2.727-8.1,6.759-7.738,12.613.16,2.563.945,5.253-.064,7.615a21.247,21.247,0,0,1-2.606,3.685c-.873,1.23-1.491,2.858-.865,4.231.588,1.289,2.138,2.036,2.45,3.418.353,1.565-1.036,2.913-2.148,4.069s-3.191,3.01-1.359,4.274c3.48-2.726,8.707-3.889,13.506-3.975,1.434-.025,2.755.336,4.073.416,5.731.345,11.556,1.313,16.889.047l11.936,4.552c1.034-1.982-.411-4.356-2.04-5.886s-3.635-2.994-4.033-5.194c-.257-1.417.219-2.942-.295-4.287-.574-1.5-2.173-2.3-3.339-3.4-4.167-3.953-3.073-10.949-3.635-14.417a10.158,10.158,0,0,0-4.158-6.24" transform="translate(-481.3 -98.893)" fill="#473e57"/>
              <path id="Trazado_149873" data-name="Trazado 149873" d="M657.357,396.189c1.666,5.1,3.332,10.208,5.187,15.555A24.449,24.449,0,0,1,668.468,415a8.246,8.246,0,0,1,3.233,5.735,7.237,7.237,0,0,1-2.416,5.527,10.86,10.86,0,0,1-5.574,2.58c-1.972.337-4.194.192-5.686-1.142a6.842,6.842,0,0,1-1.914-4.248,15.542,15.542,0,0,1,2.256-10.379c-1.493-4.416-2.986-8.832-4.4-13.271a7.651,7.651,0,0,0-2.915-1.549c2.025-.622,4.051-1.243,6.31-2.06" transform="translate(-463.743 -280.081)" fill="#ffb87a"/>
              <path id="Trazado_149874" data-name="Trazado 149874" d="M661.593,428.771a5.994,5.994,0,0,1-4.053-1.334,6.913,6.913,0,0,1-1.966-4.345,15.728,15.728,0,0,1,2.239-10.422c-1.456-4.306-2.96-8.756-4.367-13.158a7.514,7.514,0,0,0-2.821-1.488.159.159,0,0,1,0-.305c1.989-.611,4.046-1.242,6.3-2.058a.157.157,0,0,1,.124.007.16.16,0,0,1,.081.094l.014.043c1.627,4.983,3.308,10.136,5.15,15.444a24.294,24.294,0,0,1,5.9,3.247,8.378,8.378,0,0,1,3.292,5.85A7.391,7.391,0,0,1,669.015,426a10.982,10.982,0,0,1-5.656,2.619,10.581,10.581,0,0,1-1.765.154m-10.388-30.9a7.842,7.842,0,0,1,2.482,1.427.161.161,0,0,1,.048.073c1.415,4.427,2.928,8.9,4.392,13.235l.011.033a.159.159,0,0,1-.017.137,15.4,15.4,0,0,0-2.232,10.272,6.614,6.614,0,0,0,1.862,4.151c1.677,1.5,4.2,1.336,5.553,1.1a10.658,10.658,0,0,0,5.493-2.539,7.066,7.066,0,0,0,2.366-5.4,8.062,8.062,0,0,0-3.176-5.62,24.3,24.3,0,0,0-5.885-3.228.16.16,0,0,1-.087-.094c-1.837-5.294-3.515-10.432-5.138-15.4-2.02.726-3.878,1.3-5.673,1.857" transform="translate(-463.364 -279.703)" fill="#fff1eb"/>
              <path id="Trazado_149875" data-name="Trazado 149875" d="M656.744,389.471c.277.707.475,1.532.752,2.239.033.083.114.353.114.353s.294-.1.42-.136c.912-.259,1.824-.636,2.736-.9l-.726-1.911a.557.557,0,0,0-.2-.3.682.682,0,0,0-.489-.027,16.586,16.586,0,0,0-2.612.673" transform="translate(-467.751 -274.858)" fill="#d68976"/>
              <path id="Trazado_149876" data-name="Trazado 149876" d="M660.092,398.407c.8-.247,2.084-.684,3.124-1.036.3.767.721,1.815.949,2.652a.868.868,0,0,1,.02.564.9.9,0,0,1-.561.408l-1.17.443c-.879.333-1.186-.178-1.283-.39a27.61,27.61,0,0,1-1.079-2.64" transform="translate(-470.107 -280.913)" fill="#d68976"/>
              <path id="Trazado_149877" data-name="Trazado 149877" d="M674.586,477.885a3.324,3.324,0,0,0-.569,2.833,3.9,3.9,0,0,0,1.5,2.341,3.117,3.117,0,0,0,2.707.457A2.6,2.6,0,0,0,680,481.475a1.1,1.1,0,0,0-.257-.97,1.983,1.983,0,0,0-1.112-.293,2.184,2.184,0,0,1-1.341-.695,5.751,5.751,0,0,1-.636-1.055,1.94,1.94,0,0,0-.832-.884,1.064,1.064,0,0,0-1.233.306" transform="translate(-479.839 -337.29)" fill="#eb9963"/>
              <path id="Trazado_149878" data-name="Trazado 149878" d="M681.27,459.953c-.5.22-1.053.5-1.2,1.027a1.117,1.117,0,0,0,1.035,1.307,1.563,1.563,0,0,0,1.453-1.046,1.165,1.165,0,0,0-.1-1.131,1.055,1.055,0,0,0-1.191-.158" transform="translate(-484.142 -324.871)" fill="#eb9963"/>
              <path id="Trazado_149879" data-name="Trazado 149879" d="M699.979,464.546a1.652,1.652,0,0,0-1.423.57,1.121,1.121,0,0,0,.057,1.454c.364.341.925.336,1.38.538a1.624,1.624,0,0,1,.938,1.528c-.042.826-.717,1.637-.4,2.4a1.281,1.281,0,0,0,1.509.63,2.3,2.3,0,0,0,1.31-1.145,3.96,3.96,0,0,0,.111-3.614,4.054,4.054,0,0,0-3.484-2.361" transform="translate(-497.003 -328.175)" fill="#eb9963"/>
              <path id="Trazado_149880" data-name="Trazado 149880" d="M692.34,476.122a1.643,1.643,0,0,0-.482.451.561.561,0,0,0,0,.625.544.544,0,0,0,.387.185.7.7,0,0,0,.628-.285.568.568,0,0,0-.024-.672c-.157-.182-.465-.22-.5-.3" transform="translate(-492.39 -336.324)" fill="#eb9963"/>
              <path id="Trazado_149881" data-name="Trazado 149881" d="M701.334,493.94a.4.4,0,0,0-.181.458.383.383,0,0,0,.419.251.368.368,0,0,0,.289-.389c-.021-.177-.2-.321-.527-.319" transform="translate(-498.986 -348.861)" fill="#eb9963"/>
              <path id="Trazado_149882" data-name="Trazado 149882" d="M697.548,459.9a2.641,2.641,0,0,0-.83-1.092,2.523,2.523,0,0,0-.743-.537,3.588,3.588,0,0,0-.744-.232,1.447,1.447,0,0,0-.98-.075c-.719.3-.455,1.3.033,1.71a6.758,6.758,0,0,0,.939.744,2.608,2.608,0,0,0,.721.477,2.238,2.238,0,0,0,1.03.078.868.868,0,0,0,.574-1.073" transform="translate(-493.831 -323.508)" fill="#fff"/>
              <path id="Trazado_149883" data-name="Trazado 149883" d="M710.089,469.939a.631.631,0,0,0,0,1.262.631.631,0,0,0,0-1.262" transform="translate(-504.849 -331.973)" fill="#fff"/>
              <path id="Trazado_149884" data-name="Trazado 149884" d="M683.193,495.176a.919.919,0,0,0-.409-.092c-.039-.006-.077-.009-.116-.014l-.012,0-.042-.013c-.3-.151-.587-.421-.941-.318a.637.637,0,0,0-.151,1.154,2.528,2.528,0,0,0,1.035.429h.011c.765.235,1.317-.661.626-1.143" transform="translate(-484.971 -349.405)" fill="#fff"/>
              <path id="Trazado_149885" data-name="Trazado 149885" d="M676.676,406.416a14.886,14.886,0,0,1,3.89-.913,3.577,3.577,0,0,1,2,.238,2.49,2.49,0,0,1,1.112,2.752,4.081,4.081,0,0,1-1.941,2.433,12.115,12.115,0,0,1-2.972,1.149l.233,1.37c10.677-2.092,6.827-13.476-2.846-8.585Z" transform="translate(-481.406 -285.331)" fill="#fff1eb"/>
              <path id="Trazado_149886" data-name="Trazado 149886" d="M155.994,430.061c1.129,2.578,3.8,8.016,5.35,11.7a29.1,29.1,0,0,0,3.062,5.525,238.824,238.824,0,0,0,14.905,19.477A11.241,11.241,0,0,0,190.8,471.48c1.2-.463,2.526-.023,3.758.332a4,4,0,0,0,3.9-.436,3.874,3.874,0,0,0,1.563.509c.552.015,1.154-.272,1.157-.883-1.832-1.153-3.663-2.307-5.5-3.6-2.913-.556-5.826-1.112-8.825-1.65-2.026-1.212-3.181-3.438-4.233-5.552-3.385-6.8-6.769-13.594-10.03-20.083a51.271,51.271,0,0,1-7.207-16.445,36.127,36.127,0,0,1-6.8,5.531,4.952,4.952,0,0,1-2.594.862" transform="translate(-115.414 -299.416)" fill="#ff9b85"/>
              <path id="Trazado_149887" data-name="Trazado 149887" d="M236.338,442.764c.969,1.639,2.026,3.547,2.985,5.56A80,80,0,0,0,246.96,461.2a118.352,118.352,0,0,1,7.7,11.423,6.122,6.122,0,0,0,2.095,3.487,5,5,0,0,0,2.774.615,15.5,15.5,0,0,1,2.977.065,9.314,9.314,0,0,1,2.758.548,3.413,3.413,0,0,0,2.733-.194.421.421,0,0,0-.038-.452,1.1,1.1,0,0,0-.369-.3,8.984,8.984,0,0,0-2.435-.94c1.447.01,2.9-.024,4.372-.064l3.277.964a1.4,1.4,0,0,0,.856.066c.274-.1.467-.462.287-.692a.342.342,0,0,0,.517-.1.556.556,0,0,0-.077-.577,1.636,1.636,0,0,0-.473-.386c-1.347-.84-2.693-1.681-4.324-2.891a48.373,48.373,0,0,1-9.516-1.8c-4.057-5.7-6.731-12.311-9.711-19.964a36.542,36.542,0,0,0-1.969-4.252c-1.791-3.28-3.981-8.289-5.139-10.955Z" transform="translate(-171.945 -307.247)" fill="#ff9b85"/>
              <path id="Trazado_149888" data-name="Trazado 149888" d="M281.537,579.914a.16.16,0,0,1-.049-.008l-3.193-1.045c-1.321-.23-2.767-.455-4.165-.672l.041-.316-.025.157.033-.156c1.4.218,2.847.443,4.193.679l3.215,1.05a.159.159,0,0,1-.049.311" transform="translate(-198.536 -407.917)" fill="#fa453e"/>
              <path id="Trazado_149889" data-name="Trazado 149889" d="M287.473,576.341a.158.158,0,0,1-.089-.027,33.113,33.113,0,0,0-3.917-2.252,15,15,0,0,0-4.332-1.156.159.159,0,0,1-.141-.175.156.156,0,0,1,.175-.141,15.318,15.318,0,0,1,4.431,1.183,33.466,33.466,0,0,1,3.963,2.277.159.159,0,0,1-.089.291" transform="translate(-201.958 -404.2)" fill="#fa453e"/>
              <path id="Trazado_149890" data-name="Trazado 149890" d="M323.675,568.718l-.028,0a19.28,19.28,0,0,1-3.924-1.14.159.159,0,0,1,.121-.295A18.976,18.976,0,0,0,323.7,568.4a.159.159,0,0,1-.028.316" transform="translate(-230.547 -400.456)" fill="#fa453e"/>
              <path id="Trazado_149891" data-name="Trazado 149891" d="M344.382,567.065a.16.16,0,0,1-.062-.012l-4.075-1.714c-1.13-.237-2.344-.453-3.518-.661a.159.159,0,0,1,.056-.314c1.176.209,2.393.425,3.557.672l4.1,1.723a.159.159,0,0,1-.062.306" transform="translate(-242.489 -398.411)" fill="#fa453e"/>
              <path id="Trazado_149892" data-name="Trazado 149892" d="M347.282,564.362a.159.159,0,0,1-.095-.031,19.573,19.573,0,0,0-3.982-2.267,10.9,10.9,0,0,0-3.175-.635.16.16,0,0,1-.153-.166.166.166,0,0,1,.166-.152,11.227,11.227,0,0,1,3.277.657,19.893,19.893,0,0,1,4.056,2.308.159.159,0,0,1-.095.287" transform="translate(-244.798 -396.123)" fill="#fa453e"/>
              <path id="Trazado_149893" data-name="Trazado 149893" d="M288.531,385.913c3.227,6.655,8.328,9.619,16.542,16.173a9.434,9.434,0,0,0,1.655,5.767c.377,1.56.74,4.946,3.081,4.114a1.126,1.126,0,0,0,1.934.574c.541,1.39,2.464.81,2.6-.523l.372,1.111c2.7,1.1,2.009-2.882,2.458-4.357.469.606,1.441,1.305,2.109.615.6-1.838-1.833-3.546-2.742-5.071-.916-4.754-8.781-7.546-10.664-12.477-1.382-2.306-2.43-4.793-3.592-6.939-2.419-6.354-12.947-5.792-13.754,1.012" transform="translate(-208.669 -269.011)" fill="#ff9b85"/>
              <path id="Trazado_149894" data-name="Trazado 149894" d="M528.019,392.572c-3.685,6.413-9.612,9.013-18.265,14.976a9.434,9.434,0,0,1-2.054,5.637c-.485,1.529-1.084,4.882-3.361,3.888a1.126,1.126,0,0,1-1.97.438c-.637,1.349-2.514.636-2.558-.7l-.449,1.083c-2.771.906-1.8-3.015-2.147-4.518-.51.572-1.529,1.2-2.148.466-.465-1.875,2.076-3.409,3.09-4.867,1.247-4.678,9.287-6.913,11.511-11.7,1.541-2.2,4.407-6.6,5.716-8.66,1.1-3.423,12.305-2.882,12.634,3.961" transform="translate(-353.953 -273.301)" fill="#ff9b85"/>
              <path id="Trazado_149895" data-name="Trazado 149895" d="M405.955,502.095c-10.055-2.4-32.743-4.48-49.387,1.034a1.842,1.842,0,0,0-1.143,2.362c5.633,16.1,16.041,19.739,26.209,19.734,13.269-.006,24.545-7.2,25.733-21.172a1.848,1.848,0,0,0-1.412-1.958" transform="translate(-255.663 -352.866)" fill="#fff"/>
              <path id="Trazado_149896" data-name="Trazado 149896" d="M384.108,477.131c3.21,2.92,6.554,5.693,10.118,8.4a5.388,5.388,0,0,0,4.063,3.768,1.453,1.453,0,0,1-.292-.672.5.5,0,0,1,.387-.546.973.973,0,0,0-.3-1.121c-.117-.089-.269-.171-.291-.317-.029-.2.226-.335.415-.275a.9.9,0,0,1,.423.4,8.106,8.106,0,0,0-3.949-2.376,116.364,116.364,0,0,0-10.361-8.981,9.885,9.885,0,0,1-.217,1.716" transform="translate(-275.919 -335.826)" fill="#d67272"/>
              <path id="Trazado_149897" data-name="Trazado 149897" d="M469.425,477.131c-3.21,2.92-6.554,5.693-10.119,8.4a5.388,5.388,0,0,1-4.063,3.768,1.456,1.456,0,0,0,.292-.672.5.5,0,0,0-.388-.546.973.973,0,0,1,.3-1.121c.117-.089.268-.171.291-.317.029-.2-.226-.335-.415-.275a.9.9,0,0,0-.424.4,8.11,8.11,0,0,1,3.949-2.376,116.325,116.325,0,0,1,10.362-8.981,9.847,9.847,0,0,0,.217,1.716" transform="translate(-325.728 -335.826)" fill="#d67272"/>
              <path id="Trazado_149898" data-name="Trazado 149898" d="M393.573,513.167a1.084,1.084,0,0,0-1.21-.523,3.172,3.172,0,0,0-1.244.67l-1.413,1.064a2.245,2.245,0,0,0-3.124-.06l.626.275a6.523,6.523,0,0,0-1.744-1.224,2.208,2.208,0,0,0-2.052.095,1.355,1.355,0,0,0-.4,1.865,2.2,2.2,0,0,0,1.418.619l3.38.577c1.17.2,2.34.4,3.516.559a51.152,51.152,0,0,0,6.966.472c.941,0,2.118-.2,2.374-1.106a1.528,1.528,0,0,0-.683-1.573,4.477,4.477,0,0,0-1.709-.609c-1.746-.365-3.492-.73-4.7-1.1" transform="translate(-274.99 -362.005)" fill="#8fbfab"/>
              <path id="Trazado_149899" data-name="Trazado 149899" d="M447.856,509.743c.193-.669-.231-1.533.275-2.01a.7.7,0,0,1,1.116.8,3.869,3.869,0,0,1,1.832-2.142c.378-.18.909-.237,1.147.108a.928.928,0,0,1-.186,1.037,2.184,2.184,0,0,0-.573.955,1.621,1.621,0,0,0,1.519-.062,3.653,3.653,0,0,1,1.493-.5c.529.01,1.09.5.92,1.006a1.161,1.161,0,0,1-.545.557,9.172,9.172,0,0,1-6.116,1.241,1.05,1.05,0,0,1-.566-.211,1.806,1.806,0,0,1-.316-.783" transform="translate(-320.774 -357.521)" fill="#8fbfab"/>
              <path id="Trazado_149900" data-name="Trazado 149900" d="M466.471,513.418a25.961,25.961,0,0,0,15.1-3l-1.2-.758a4.876,4.876,0,0,1,2.109-1.492,2.5,2.5,0,0,0-2.808-.528,7.323,7.323,0,0,0-2.411,1.839l-.316-1.285a2.053,2.053,0,0,0-1.032.847,2.511,2.511,0,0,0-4.054,2.792l-1.711.412a1.079,1.079,0,0,0-.808-1.316,1.757,1.757,0,0,0-1.581.537,9.925,9.925,0,0,0-1.279,1.952" transform="translate(-333.872 -358.357)" fill="#8fbfab"/>
              <path id="Trazado_149901" data-name="Trazado 149901" d="M368.3,514.486a4.384,4.384,0,0,0-1.238-.174,2.271,2.271,0,0,1-1.193-.335.926.926,0,0,1-.363-1.1.59.59,0,0,1,1-.073.917.917,0,0,1,.364-1.25,1.234,1.234,0,0,1,1.359.212,1.927,1.927,0,0,1,.587,1.3,1.649,1.649,0,0,1-.52,1.412" transform="translate(-262.779 -361.173)" fill="#8fbfab"/>
              <path id="Trazado_149902" data-name="Trazado 149902" d="M397.835,510.664a1.587,1.587,0,0,1,.192-1.544,2.615,2.615,0,0,1,1.315-.917,1.905,1.905,0,0,1,1.76.134,1.77,1.77,0,0,1,.567.892,1.966,1.966,0,0,1-.017,1.377,1.93,1.93,0,0,1-1.75,1.011,2.008,2.008,0,0,1-2.067-.952" transform="translate(-285.492 -358.792)" fill="#f04f5f"/>
              <path id="Trazado_149903" data-name="Trazado 149903" d="M377.737,514.233a22.6,22.6,0,0,1-2.707-.287,1.639,1.639,0,0,1-.731-.252,1.006,1.006,0,0,1-.117-1.378,1.414,1.414,0,0,1,1.4-.436.813.813,0,0,1,.01-1.125,1.081,1.081,0,0,1,1.167-.192,1.64,1.64,0,0,1,.836.894c.163.386.213.809.147,2.776" transform="translate(-268.782 -360.495)" fill="#f04f5f"/>
              <path id="Trazado_149904" data-name="Trazado 149904" d="M416.876,522.652a1.969,1.969,0,1,1,3.792.507,26.215,26.215,0,0,1-3.792-.507" transform="translate(-298.968 -367.538)" fill="#f04f5f"/>
              <path id="Trazado_149905" data-name="Trazado 149905" d="M384.88,518.33a2.613,2.613,0,0,1,3.382,2.01l-3.314-.661a4.223,4.223,0,0,1-.068-1.349" transform="translate(-276.439 -365.933)" fill="#f04f5f"/>
              <path id="Trazado_149906" data-name="Trazado 149906" d="M439.146,514.076a2.091,2.091,0,0,0-3.377.51,10.233,10.233,0,0,0-.473,2.123c-.18.705-.749,1.438-1.471,1.348a56.544,56.544,0,0,0,12.691-.391,2.663,2.663,0,0,0-1.656-2.349,8,8,0,0,0-2.978-.543c-1.014-.056-2.122-.061-2.735-.7" transform="translate(-310.9 -362.577)" fill="#f04f5f"/>
              <path id="Trazado_149907" data-name="Trazado 149907" d="M495.239,517.486a2.078,2.078,0,0,0-2.694,2.593,20.592,20.592,0,0,0,3.179-.64c.354-.1.757-.262.854-.617a.759.759,0,0,0-.393-.8,4.587,4.587,0,0,0-.945-.537" transform="translate(-352.15 -365.343)" fill="#f04f5f"/>
              <path id="Trazado_149908" data-name="Trazado 149908" d="M481.7,508.988a1.712,1.712,0,0,0-3.336.309.93.93,0,0,0-1.05.29,2.032,2.032,0,0,0-.411,1.077,1.9,1.9,0,0,0,.307,1.519,1.417,1.417,0,0,0,1.043.441,2.621,2.621,0,0,0,1.124-.275c1.128-.519,2.875-1.573,2.323-3.361" transform="translate(-341.189 -358.6)" fill="#f04f5f"/>
              <path id="Trazado_149909" data-name="Trazado 149909" d="M408.367,519.543a1.543,1.543,0,0,1,1.82-1.818,2.822,2.822,0,0,0,.1.824.934.934,0,0,1-.148.791.963.963,0,0,1-.367.224,1.588,1.588,0,0,1-1.4-.02" transform="translate(-292.968 -365.575)" fill="#ffb987"/>
              <path id="Trazado_149910" data-name="Trazado 149910" d="M433.165,510.4a3.936,3.936,0,0,0-.777,1.1,1.64,1.64,0,0,0-.03,1.315,1.05,1.05,0,0,0,1.1.614,1.508,1.508,0,0,0,.958-.986,2.071,2.071,0,0,0,.17-1.438,1.064,1.064,0,0,0-1.418-.607" transform="translate(-309.781 -360.396)" fill="#ffb987"/>
              <path id="Trazado_149911" data-name="Trazado 149911" d="M385.006,512.079a.7.7,0,0,1,.609-.645,1.037,1.037,0,0,1,.866.347,2.113,2.113,0,0,1,.447.85.708.708,0,0,1-.056.689.632.632,0,0,1-.607.107,1.5,1.5,0,0,1-1.259-1.348" transform="translate(-276.551 -361.164)" fill="#ffb987"/>
              <path id="Trazado_149912" data-name="Trazado 149912" d="M483.563,523.241a1.938,1.938,0,0,0-2.158.023c-.229.163-.432.472-.277.707a.606.606,0,0,0,.446.21,4.015,4.015,0,0,0,1.7-.139.887.887,0,0,0,.506-.311c.112-.169.031-.318-.221-.49" transform="translate(-344.146 -369.254)" fill="#ffb987"/>
              <path id="Trazado_149913" data-name="Trazado 149913" d="M471.437,511.522a2.342,2.342,0,0,0-1.917-.451,3.082,3.082,0,0,0-1.71,1.03,1.294,1.294,0,0,0-.391.967,1.166,1.166,0,0,0,.71.828,2.245,2.245,0,0,0,2.057-.081,2.952,2.952,0,0,0,1.251-2.293" transform="translate(-334.534 -360.883)" fill="#ffb987"/>
              <path id="Trazado_149914" data-name="Trazado 149914" d="M384.39,467.173a.16.16,0,0,1-.154-.119,22.676,22.676,0,0,1-.635-3.67.159.159,0,0,1,.145-.172.164.164,0,0,1,.172.144,22.385,22.385,0,0,0,.626,3.618.159.159,0,0,1-.114.194.152.152,0,0,1-.04.005" transform="translate(-275.562 -327.239)" fill="#fa453e"/>
              <path id="Trazado_149915" data-name="Trazado 149915" d="M376.19,477.808h-.01a.159.159,0,0,1-.149-.169l.249-4.059a.159.159,0,0,1,.318.019l-.249,4.059a.159.159,0,0,1-.159.15" transform="translate(-270.236 -334.43)" fill="#fa453e"/>
              <path id="Trazado_149916" data-name="Trazado 149916" d="M367.731,478.218h-.007a.16.16,0,0,1-.152-.166l.175-3.99a.164.164,0,0,1,.166-.152.16.16,0,0,1,.152.166l-.175,3.99a.16.16,0,0,1-.159.152" transform="translate(-264.284 -334.767)" fill="#fa453e"/>
              <path id="Trazado_149917" data-name="Trazado 149917" d="M359.4,478.012a.159.159,0,0,1-.159-.152l-.146-3.42a.159.159,0,0,1,.152-.166.162.162,0,0,1,.166.152l.146,3.42a.16.16,0,0,1-.152.166Z" transform="translate(-258.323 -335.023)" fill="#fa453e"/>
              <path id="Trazado_149918" data-name="Trazado 149918" d="M502.284,467.142a.139.139,0,0,1-.031,0,.158.158,0,0,1-.125-.187l.688-3.5a.156.156,0,0,1,.187-.125.159.159,0,0,1,.125.187l-.688,3.5a.159.159,0,0,1-.156.128" transform="translate(-358.958 -327.321)" fill="#fa453e"/>
              <path id="Trazado_149919" data-name="Trazado 149919" d="M510.966,480.065h0a.159.159,0,0,1-.155-.164l.088-3.353a.165.165,0,0,1,.163-.155.159.159,0,0,1,.155.163l-.088,3.354a.159.159,0,0,1-.159.155" transform="translate(-365.067 -336.515)" fill="#fa453e"/>
              <path id="Trazado_149920" data-name="Trazado 149920" d="M519.293,481.079h0a.159.159,0,0,1-.156-.163l.089-4.052a.165.165,0,0,1,.162-.156.159.159,0,0,1,.156.162l-.089,4.052a.159.159,0,0,1-.159.156" transform="translate(-370.926 -336.737)" fill="#fa453e"/>
              <path id="Trazado_149921" data-name="Trazado 149921" d="M527.13,480.947h-.023a.159.159,0,0,1-.135-.18l.491-3.443a.162.162,0,0,1,.18-.135.16.16,0,0,1,.135.18l-.491,3.443a.16.16,0,0,1-.157.137" transform="translate(-376.44 -337.072)" fill="#fa453e"/>
              <path id="Trazado_149922" data-name="Trazado 149922" d="M406.128,103.734a3.116,3.116,0,0,0-.355-2.455,9.454,9.454,0,0,1-1.046-2.321c-.407-2.056,1.291-4.138,1.065-5.879a8.453,8.453,0,0,1,3.1-7.159,20,20,0,0,1,7.2-3.646,18.673,18.673,0,0,1,8.479-1.164c2.846.437,5.643,2.268,6.036,5.265a4.077,4.077,0,0,1,3.166,1.25,8.168,8.168,0,0,1,1.8,2.988,16.968,16.968,0,0,1-1.662,15.086l-24.995,2.437Z" transform="translate(-290.383 -58.293)" fill="#a85454"/>
              <path id="Trazado_149923" data-name="Trazado 149923" d="M432.54,121.453a11.377,11.377,0,0,1-3.6,6.077,11.047,11.047,0,0,1-7.023,2.672,11.548,11.548,0,0,1-4.025,3.692c-1.654.8-3.765.876-5.019-.3a1.825,1.825,0,0,1-2.388-1.222,12.106,12.106,0,0,0,.529,3.928,4.232,4.232,0,0,0,2.74,2.722,14.658,14.658,0,0,0,2.707,6.783c.763,4.189,1.559,8.473,3.7,12.155a19.046,19.046,0,0,0,4.544,5.265,45.915,45.915,0,0,1,6.667-7.635,47.106,47.106,0,0,0,2.365-10.265,18.936,18.936,0,0,0,2.792-6.435c2.556-1.983,2.625-4.846,2.493-7.245a1.2,1.2,0,0,0-.449-1.041.859.859,0,0,0-1.045.318,2.508,2.508,0,0,0-.37,1.122c-.612-.2-.478-1.087-.639-1.71a3.569,3.569,0,0,0-1.171-1.513,10.33,10.33,0,0,1-2.8-7.365" transform="translate(-294.479 -86.772)" fill="#ff9b85"/>
              <path id="Trazado_149924" data-name="Trazado 149924" d="M438.792,209.843a4.763,4.763,0,0,1-1.4-.2,7.813,7.813,0,0,1-2.919-1.919,23.669,23.669,0,0,1-3.934-4.823.159.159,0,0,1,.263-.18h0a23.422,23.422,0,0,0,3.888,4.769,7.539,7.539,0,0,0,2.795,1.848,5.24,5.24,0,0,0,3.544-.287,10.319,10.319,0,0,0,3.013-2.085,16.243,16.243,0,0,0,3.57-4.7.159.159,0,0,1,.28.151,16.74,16.74,0,0,1-3.632,4.778,10.639,10.639,0,0,1-3.107,2.146,6.106,6.106,0,0,1-2.362.5" transform="translate(-308.571 -143.576)" fill="#fa453e"/>
              <path id="Trazado_149925" data-name="Trazado 149925" d="M449.871,179.718a.16.16,0,0,1-.117-.052,5.129,5.129,0,0,0-1.365-1.058.16.16,0,0,1-.08-.178l.015-.06a15.7,15.7,0,0,0,.658-4.744,4.944,4.944,0,0,0-2.094-3.924.159.159,0,1,1,.167-.271A5.261,5.261,0,0,1,449.3,173.6a15.731,15.731,0,0,1-.653,4.783,5.446,5.446,0,0,1,1.342,1.065.159.159,0,0,1-.117.267" transform="translate(-320.039 -120.514)" fill="#fa453e"/>
              <path id="Trazado_149926" data-name="Trazado 149926" d="M451.24,208.063h-.028a4.48,4.48,0,0,1-3.012-1.207.159.159,0,1,1,.218-.232,4.159,4.159,0,0,0,2.8,1.121h.027a4.159,4.159,0,0,0,2.784-1.083.159.159,0,0,1,.215.234,4.48,4.48,0,0,1-3,1.167" transform="translate(-320.98 -146.669)" fill="#fa453e"/>
              <path id="Trazado_149927" data-name="Trazado 149927" d="M468.333,175.936a2.077,2.077,0,0,1-.882-.187,3.611,3.611,0,0,1-.536-.331,3.574,3.574,0,0,0-.441-.28.8.8,0,0,0-.891.018.159.159,0,0,1-.223-.228,1.11,1.11,0,0,1,1.258-.074,3.96,3.96,0,0,1,.48.3,3.262,3.262,0,0,0,.488.3,2.154,2.154,0,0,0,1.665-.027,6.714,6.714,0,0,0,1.526-.939.159.159,0,0,1,.19.256,6.967,6.967,0,0,1-1.6.98,2.869,2.869,0,0,1-1.033.205" transform="translate(-333.057 -124.07)" fill="#a85454"/>
              <path id="Trazado_149928" data-name="Trazado 149928" d="M470.738,164.556a.314.314,0,0,1-.118-.023,8.732,8.732,0,0,0-6.412,0,.318.318,0,1,1-.236-.591,9.374,9.374,0,0,1,6.884,0,.318.318,0,0,1-.118.614" transform="translate(-331.972 -116.205)" fill="#a85454"/>
              <path id="Trazado_149929" data-name="Trazado 149929" d="M434.146,164.782a.319.319,0,0,1-.128-.027,11.628,11.628,0,0,0-4.269-.971.318.318,0,0,1-.308-.328.324.324,0,0,1,.328-.308,12.27,12.27,0,0,1,4.5,1.024.318.318,0,0,1-.129.61" transform="translate(-307.817 -116.109)" fill="#a85454"/>
              <path id="Trazado_149930" data-name="Trazado 149930" d="M431.522,176.163a2.76,2.76,0,0,1-.853-.138,6.348,6.348,0,0,1-1.855-1.134.159.159,0,0,1,.2-.251,6.025,6.025,0,0,0,1.758,1.083,1.939,1.939,0,0,0,1.86-.256c.073-.064.139-.135.206-.206a1.844,1.844,0,0,1,.446-.383.786.786,0,0,1,.641-.049.508.508,0,0,1,.308.311.159.159,0,1,1-.3.1.192.192,0,0,0-.122-.116.472.472,0,0,0-.372.031,1.589,1.589,0,0,0-.368.322c-.074.079-.148.157-.228.228a1.963,1.963,0,0,1-1.317.457" transform="translate(-307.332 -124.172)" fill="#a85454"/>
              <path id="Trazado_149931" data-name="Trazado 149931" d="M498.7,162.764l-.025,0a.16.16,0,0,1-.132-.183l1.053-6.6a.159.159,0,1,1,.314.05l-1.052,6.6a.16.16,0,0,1-.157.134" transform="translate(-356.434 -110.971)" fill="#fa453e"/>
              <path id="Trazado_149932" data-name="Trazado 149932" d="M418.034,165.891a.159.159,0,0,1-.155-.127l-.753-3.627a.159.159,0,0,1,.311-.065l.753,3.627a.159.159,0,0,1-.124.188.134.134,0,0,1-.033,0" transform="translate(-299.149 -115.263)" fill="#fa453e"/>
              <path id="Trazado_149933" data-name="Trazado 149933" d="M710.926,161.343c-9.681,5.285-13.532,6.593-13.532,6.593s.069.339.157.888a20.868,20.868,0,0,1-.031,6.308,12.648,12.648,0,0,0,.375,5.018,34.429,34.429,0,0,0,2.56,6.23,5.946,5.946,0,0,0,1.859,2.526c1.537,1,3.568.389,5.481-.151a4.716,4.716,0,0,1,.292,1.953,1.61,1.61,0,0,1-1.195,1.423,14.849,14.849,0,0,1-1.605.116c.194,3.442.716,7.88,3.008,10.454a5.254,5.254,0,0,1,1.363,1.874c.277.969-.143,2.23,1.139,2.7,1.562-2.818,5.418-3.391,7.672-5.693,1.341-1.37,2.008-3.24,2.931-4.921a7.9,7.9,0,0,1,4.452-3.98,7.835,7.835,0,0,1-6.615-6.44,48.752,48.752,0,0,1-.489-7.8,18.806,18.806,0,0,0,.942-1.784,6.553,6.553,0,0,1-1.982-5.5l-1.09,1.135a6.5,6.5,0,0,1-.894-5.28c-3.421,0-5.966-3.127-4.8-5.676" transform="translate(-496.354 -114.839)" fill="#ff9b85"/>
              <path id="Trazado_149934" data-name="Trazado 149934" d="M711.956,230.687c.5-.7,1.108-.735,1.933-.348a2.831,2.831,0,0,1,3.177-.185c-.387,2.206-4.784,3.354-5.109.533" transform="translate(-506.6 -162.969)" fill="#ff836e"/>
              <path id="Trazado_149935" data-name="Trazado 149935" d="M732.387,235.283a.159.159,0,0,1-.068-.3,18.46,18.46,0,0,0,5.821-3.726,9.063,9.063,0,0,0,2.049-3.652.159.159,0,0,1,.306.087,9.378,9.378,0,0,1-2.122,3.781,18.714,18.714,0,0,1-5.919,3.8.165.165,0,0,1-.068.015" transform="translate(-520.863 -161.378)" fill="#fa453e"/>
              <path id="Trazado_149936" data-name="Trazado 149936" d="M763.643,202.87a.147.147,0,0,1-.04-.005.158.158,0,0,1-.113-.194l.567-2.164a.157.157,0,0,1,.194-.114.159.159,0,0,1,.114.194l-.567,2.164a.159.159,0,0,1-.154.119" transform="translate(-542.856 -142.311)" fill="#fa453e"/>
              <path id="Trazado_149937" data-name="Trazado 149937" d="M765.653,207.827a.159.159,0,0,1-.141-.232,3.3,3.3,0,0,0,.367-1.573.159.159,0,0,1,.156-.162.162.162,0,0,1,.162.156,3.62,3.62,0,0,1-.4,1.725.159.159,0,0,1-.141.086" transform="translate(-544.27 -146.162)" fill="#fa453e"/>
              <path id="Trazado_149938" data-name="Trazado 149938" d="M763.27,219.6a1.546,1.546,0,0,1-.678-.154.159.159,0,0,1,.14-.286,1.247,1.247,0,0,0,1.11-.016.159.159,0,1,1,.148.282,1.554,1.554,0,0,1-.72.174" transform="translate(-542.165 -155.494)" fill="#fa453e"/>
              <path id="Trazado_149939" data-name="Trazado 149939" d="M729.1,277.992h-.02a4.983,4.983,0,0,1-2.942-1.472.159.159,0,0,1,.229-.221,4.662,4.662,0,0,0,2.753,1.378.159.159,0,0,1-.02.317" transform="translate(-516.545 -195.689)" fill="#fa453e"/>
              <path id="Trazado_149940" data-name="Trazado 149940" d="M733.863,263.357a.159.159,0,0,1-.152-.111,10.953,10.953,0,0,1-.5-2.719.159.159,0,0,1,.15-.168.151.151,0,0,1,.167.15,10.636,10.636,0,0,0,.482,2.64.159.159,0,0,1-.1.2.162.162,0,0,1-.048.007" transform="translate(-521.557 -184.508)" fill="#fa453e"/>
              <path id="Trazado_149941" data-name="Trazado 149941" d="M710.614,203.424a.161.161,0,0,1-.081-.022l-1.857-1.093a.16.16,0,0,1-.07-.187,18.443,18.443,0,0,1,.762-1.856,15.723,15.723,0,0,0,.832-2.089,3.954,3.954,0,0,0-.59-3.865.159.159,0,1,1,.23-.22,4.261,4.261,0,0,1,.666,4.174,15.971,15.971,0,0,1-.848,2.132c-.251.552-.51,1.122-.709,1.7l1.746,1.028a.159.159,0,0,1-.081.3" transform="translate(-504.237 -137.847)" fill="#fa453e"/>
              <path id="Trazado_149942" data-name="Trazado 149942" d="M716.645,222.651a.159.159,0,0,1-.074-.018l-1.075-.563a.159.159,0,0,1,.148-.282l1.075.564a.159.159,0,0,1-.074.3" transform="translate(-509.031 -157.357)" fill="#fa453e"/>
              <path id="Trazado_149943" data-name="Trazado 149943" d="M712.806,231.4a3.451,3.451,0,0,1-2.07-.625.159.159,0,0,1,.19-.256,3.447,3.447,0,0,0,2.707.482,10.617,10.617,0,0,0,2.707-1.067.159.159,0,0,1,.143.284,10.843,10.843,0,0,1-2.789,1.1,4.694,4.694,0,0,1-.888.087" transform="translate(-505.696 -163.089)" fill="#fa453e"/>
              <path id="Trazado_149944" data-name="Trazado 149944" d="M726.93,198.97a1.725,1.725,0,0,0,1.037,1.658,2.448,2.448,0,0,0,2.021-.084,4.307,4.307,0,0,0,1.557-1.36c-.531-.3-1.007-.694-1.535-1a2.813,2.813,0,0,0-1.742-.454,1.487,1.487,0,0,0-1.339,1.241" transform="translate(-517.132 -140.43)" fill="#fff"/>
              <path id="Trazado_149945" data-name="Trazado 149945" d="M728.063,198.485a2.1,2.1,0,0,0,.023,1.511,1.874,1.874,0,0,0,.941,1.164.915.915,0,0,0,1.135-.933c.182-1.833-1.311-2.774-2.1-1.742" transform="translate(-517.841 -140.672)" fill="#473e57"/>
              <path id="Trazado_149946" data-name="Trazado 149946" d="M725.62,199.267a.159.159,0,0,1-.148-.218,2.674,2.674,0,0,1,1.493-1.666c1.331-.341,2.959.829,3.811,1.557a.159.159,0,1,1-.206.242c-.648-.553-2.288-1.8-3.526-1.49a2.41,2.41,0,0,0-1.277,1.475.159.159,0,0,1-.148.1" transform="translate(-516.102 -140.155)" fill="#b04a46"/>
              <path id="Trazado_149947" data-name="Trazado 149947" d="M700.177,199.268a1.7,1.7,0,0,0,.911,1.609,1.965,1.965,0,0,0,1.775-.082,3.921,3.921,0,0,0,1.367-1.319c-.466-.293-.884-.673-1.348-.972a2.3,2.3,0,0,0-1.53-.44,1.366,1.366,0,0,0-1.176,1.2" transform="translate(-498.308 -140.666)" fill="#fff"/>
              <path id="Trazado_149948" data-name="Trazado 149948" d="M701.171,198.8a2.232,2.232,0,0,0,.02,1.466,1.786,1.786,0,0,0,.826,1.129c.321.115.92-.049,1-.905.16-1.778-1.151-2.692-1.844-1.69" transform="translate(-498.931 -140.9)" fill="#473e57"/>
              <path id="Trazado_149949" data-name="Trazado 149949" d="M698.981,199.55a.148.148,0,0,1-.054-.01.159.159,0,0,1-.1-.2,2.52,2.52,0,0,1,1.323-1.623c1.184-.334,2.622.806,3.374,1.516a.159.159,0,0,1-.218.231c-.566-.534-2-1.743-3.07-1.44a2.261,2.261,0,0,0-1.11,1.424.159.159,0,0,1-.15.105" transform="translate(-497.358 -140.388)" fill="#b04a46"/>
              <path id="Trazado_149950" data-name="Trazado 149950" d="M728.028,189.064a.159.159,0,0,1-.091-.028,5.85,5.85,0,0,0-5.943-.363.159.159,0,0,1-.148-.282,6.179,6.179,0,0,1,6.273.383.159.159,0,0,1-.091.29" transform="translate(-513.499 -133.394)" fill="#473e57"/>
              <path id="Trazado_149951" data-name="Trazado 149951" d="M697.186,189.736a.159.159,0,0,1-.094-.287,3.515,3.515,0,0,1,4.05-.007.159.159,0,1,1-.187.257,3.189,3.189,0,0,0-3.674.007.159.159,0,0,1-.094.031" transform="translate(-496.095 -134.16)" fill="#473e57"/>
              <path id="Trazado_149952" data-name="Trazado 149952" d="M756.678,280.639a.159.159,0,0,1-.007-.318,27.622,27.622,0,0,0,5.574-.84.159.159,0,1,1,.08.308,27.928,27.928,0,0,1-5.639.85h-.007" transform="translate(-537.956 -197.959)" fill="#fa453e"/>
              <path id="Trazado_149953" data-name="Trazado 149953" d="M720.6,366.378a105.122,105.122,0,0,1,0,14.168c-6.639.443-15.654,1.04-20.54-1.011-4.634-1.945-7.388-5.547-10.876-8.963a38.759,38.759,0,0,0-5.382,2.206,2.062,2.062,0,0,0-.873.633c-.091.136.373,1.273.373,1.984,0,.855.443.874.566,2.291a1.7,1.7,0,0,0,.363,1.1,2.38,2.38,0,0,1,.464.4,2,2,0,0,1,.187.514c.266.806,1.135,1.22,1.72,1.644,1.921,1.39,2.085.5,1.838-1.016,3.263,1.194,5.334,4.373,8.941,4.237,8.675,5.139,20.252,8.981,30.526,7.8a3.735,3.735,0,0,0,3.3-3.276,158.112,158.112,0,0,0,.614-26.7,98.057,98.057,0,0,0-11.22,3.991" transform="translate(-486.169 -256.298)" fill="#ff9b85"/>
              <path id="Trazado_149954" data-name="Trazado 149954" d="M697.176,420.357a.16.16,0,0,1-.131-.068,6.5,6.5,0,0,0-1.18-.779c-.119-.068-.216-.124-.276-.161a.159.159,0,0,1,.162-.274c.427.238,1.043.57,1.664.9l.1.055a.159.159,0,1,1-.151.28l-.055-.03a.164.164,0,0,1-.043.045.16.16,0,0,1-.091.028" transform="translate(-495.031 -296.17)" fill="#fa453e"/>
              <path id="Trazado_149955" data-name="Trazado 149955" d="M688.154,412.36a.157.157,0,0,1-.043-.006.16.16,0,0,1-.11-.2,1.215,1.215,0,0,1,.665-.655l2.414-1.3a.159.159,0,0,1,.151.28l-2.415,1.3c-.226.122-.453.258-.51.461a.159.159,0,0,1-.153.116" transform="translate(-489.74 -289.928)" fill="#fa453e"/>
              <path id="Trazado_149956" data-name="Trazado 149956" d="M685.028,400.081a.16.16,0,0,1-.077-.02.706.706,0,0,1-.348-.525.979.979,0,0,1,.106-.615,2.163,2.163,0,0,1,.835-.74l3.682-2.226a.159.159,0,1,1,.164.272l-3.682,2.226a1.891,1.891,0,0,0-.721.621.663.663,0,0,0-.07.411.4.4,0,0,0,.186.3.159.159,0,0,1-.077.3" transform="translate(-487.346 -279.901)" fill="#fa453e"/>
              <path id="Trazado_149957" data-name="Trazado 149957" d="M686.644,406.389a.16.16,0,0,1-.151-.108,1.7,1.7,0,0,1,.634-1.763,4.956,4.956,0,0,1,1.391-.73l.252-.1a2.98,2.98,0,0,0,1.387-.953.159.159,0,1,1,.263.179,3.257,3.257,0,0,1-1.53,1.068l-.256.1a4.723,4.723,0,0,0-1.3.679,1.383,1.383,0,0,0-.536,1.417.159.159,0,0,1-.1.2.151.151,0,0,1-.051.008" transform="translate(-488.637 -284.637)" fill="#fa453e"/>
              <path id="Trazado_149958" data-name="Trazado 149958" d="M814.645,423.323l-.025,0a14.291,14.291,0,0,0-4.447,0,.161.161,0,0,1-.182-.132.159.159,0,0,1,.133-.182,14.639,14.639,0,0,1,4.547,0,.159.159,0,0,1-.025.316" transform="translate(-575.577 -298.826)" fill="#fa453e"/>
              <path id="Trazado_149959" data-name="Trazado 149959" d="M685.573,563.708a3.2,3.2,0,0,0-4.1.82,3.81,3.81,0,0,0-.031,4.311,4.737,4.737,0,0,0,3.95,1.973,6.3,6.3,0,0,0,4.142-1.751,4.611,4.611,0,0,0,6.38-.249,2.11,2.11,0,0,0,1.645-1.151,3.029,3.029,0,0,0,.215-2.043,3.87,3.87,0,0,0-6.134-2.233,4.51,4.51,0,0,0-3.437-1.361c-1.269.065-2.5.7-2.626,1.683" transform="translate(-484.667 -396.763)" fill="#f04f5f"/>
              <path id="Trazado_149960" data-name="Trazado 149960" d="M700.574,572.317a.159.159,0,0,1-.137-.241,3.324,3.324,0,0,0-2.412-5.011,1.064,1.064,0,0,0-.961.246.156.156,0,0,1-.164.055l-.636-.16a.159.159,0,1,1,.078-.309l.543.137a1.385,1.385,0,0,1,1.183-.285,3.644,3.644,0,0,1,2.643,5.491.158.158,0,0,1-.136.077" transform="translate(-495.474 -400.076)" fill="#cc1b23"/>
              <path id="Trazado_149961" data-name="Trazado 149961" d="M715.974,571.423a.159.159,0,0,1-.142-.231,3.489,3.489,0,0,0-5.843-3.75.159.159,0,0,1-.25-.2,3.808,3.808,0,0,1,6.376,4.091.159.159,0,0,1-.142.088" transform="translate(-505.016 -399.429)" fill="#cc1b23"/>
            </g>
          </g>
        </g>
      </g>
    </g>
    <rect id="Rectángulo_40893" data-name="Rectángulo 40893" width="315" height="265" transform="translate(223.154 3303)" fill="none"/>
  </g>
</svg>
