<svg xmlns="http://www.w3.org/2000/svg" xmlns:xlink="http://www.w3.org/1999/xlink" width="315" height="265" viewBox="0 0 315 265">
  <defs>
    <clipPath id="clip-path">
      <rect id="Rectángulo_40892" data-name="Rectángulo 40892" width="263.38" height="205.198" fill="none"/>
    </clipPath>
  </defs>
  <g id="Grupo_165528" data-name="Grupo 165528" transform="translate(-643.154 -3303)">
    <g id="Grupo_157609" data-name="Grupo 157609" transform="translate(378.61 67)">
      <g id="Grupo_85023" data-name="Grupo 85023">
        <path id="Trazado_150104" data-name="Trazado 150104" d="M0,0H315V170H0Z" transform="translate(264.544 3328.188)" fill="#6b8dff"/>
        <g id="Grupo_165526" data-name="Grupo 165526">
          <path id="Trazado_150103" data-name="Trazado 150103" d="M215.848,263.613C277.51,207.376,238.465,20.5,156.684,62.07S85,165.2,42,166.1s-60.807,66.544-15.439,96.928Z" transform="translate(298.496 3193.908)" fill="#ffbfc1"/>
          <g id="Grupo_165525" data-name="Grupo 165525" transform="translate(290.354 3252)">
            <g id="Grupo_165524" data-name="Grupo 165524" clip-path="url(#clip-path)">
              <path id="Trazado_149963" data-name="Trazado 149963" d="M20.384,386.082q22.688-.035,45.377-.051,25.665-.02,51.33-.026,26.762-.006,53.524,0,25.995.006,51.989.023,23.146.016,46.293.048l5.033.007a.233.233,0,0,0,0-.466q-22.666-.035-45.332-.051-25.654-.02-51.308-.026-26.761-.006-53.523,0-26,.006-52.009.023-23.166.016-46.334.047l-5.04.007a.233.233,0,0,0,0,.466" transform="translate(-10.775 -206.071)" fill="#2b244a"/>
              <path id="Trazado_149964" data-name="Trazado 149964" d="M51.062,10.07A56.359,56.359,0,0,0,37.4,2.741,37.2,37.2,0,0,0,22.527.035,21.91,21.91,0,0,0,9.964,4.426a24.85,24.85,0,0,0-7.231,9.817C-.057,20.787-.177,28.045.1,35.046A165.029,165.029,0,0,0,2.289,55.165a377.338,377.338,0,0,0,11.3,46.947c4.785,16,10.229,31.806,16.139,47.425,4.855,12.833,10,25.571,15.669,38.069q.8,1.774,1.626,3.539c.126.271.527.035.4-.235-5.454-11.717-10.374-23.686-15.042-35.736-5.838-15.068-11.233-30.315-16.063-45.736a435.934,435.934,0,0,1-12.192-46.7A208.169,208.169,0,0,1,1.01,41.729,96.7,96.7,0,0,1,.775,23.946C1.594,15.276,6,5.978,14.357,2.332c9.881-4.31,21.4-.614,30.341,4.254a53.142,53.142,0,0,1,6.129,3.886c.242.178.474-.226.235-.4" transform="translate(0 0)" fill="#2b244a"/>
              <path id="Trazado_149965" data-name="Trazado 149965" d="M80.466,30.751A27,27,0,0,0,53.919,58.194s-.5,8.578,1.6,9.451c22.158,9.208,48.734.46,51.089-.885,1.632-.932,1.777-3.615,1.706-4.87-.114-1.992-.049-3.192-.238-4.813-.2-1.691-.444-3.377-.807-5.04a26.782,26.782,0,0,0-4.463-10.1,26.942,26.942,0,0,0-22.34-11.191" transform="translate(-28.792 -16.434)" fill="#ffeae0"/>
              <path id="Trazado_149966" data-name="Trazado 149966" d="M54.219,89.6A112.673,112.673,0,0,0,75.063,92.34,112.271,112.271,0,0,0,96.11,91.148,116.013,116.013,0,0,0,108.186,88.7a.233.233,0,0,0-.131-.447A113.661,113.661,0,0,1,86.887,91.7a112.476,112.476,0,0,1-20.934-.531,112.043,112.043,0,0,1-11.617-2.013c-.293-.067-.409.384-.116.45" transform="translate(-28.889 -47.169)" fill="#d9a389"/>
              <path id="Trazado_149967" data-name="Trazado 149967" d="M56.566,71.69a109.017,109.017,0,0,0,19.939,2.6,108.133,108.133,0,0,0,20.169-1.129,105.78,105.78,0,0,0,11.047-2.273c.29-.076.159-.523-.131-.447a105.914,105.914,0,0,1-19.832,3.221,108.488,108.488,0,0,1-20.008-.519,108.2,108.2,0,0,1-11.067-1.906c-.292-.066-.409.385-.116.451" transform="translate(-30.144 -37.647)" fill="#d9a389"/>
              <path id="Trazado_149968" data-name="Trazado 149968" d="M64.35,55.393a109.3,109.3,0,0,0,17,1.849,108.13,108.13,0,0,0,17.158-.848q4.8-.623,9.522-1.677c.292-.065.161-.512-.131-.447A106.428,106.428,0,0,1,90.938,56.64a108.716,108.716,0,0,1-16.943-.332q-4.792-.469-9.529-1.366c-.293-.055-.411.4-.116.451" transform="translate(-34.304 -29.004)" fill="#d9a389"/>
              <path id="Trazado_149969" data-name="Trazado 149969" d="M80.424,40.049a108.884,108.884,0,0,0,22.319.294q1.535-.138,3.065-.321.793-.095,1.585-.2a13.153,13.153,0,0,1,1.474-.209.233.233,0,0,0-.007-.465,10.852,10.852,0,0,0-1.248.177q-.735.1-1.472.19-1.36.167-2.724.3-2.783.27-5.579.393a108.62,108.62,0,0,1-11.176-.078q-3.13-.183-6.247-.546c-.3-.034-.286.432.008.465" transform="translate(-42.867 -20.925)" fill="#d9a389"/>
              <path id="Trazado_149970" data-name="Trazado 149970" d="M75.629,410.374H99.735a1.124,1.124,0,0,1,1.124,1.124v1.741H74.5V411.5a1.124,1.124,0,0,1,1.124-1.124" transform="translate(-39.823 -219.346)" fill="#2b244a"/>
              <path id="Trazado_149971" data-name="Trazado 149971" d="M109.142,26.275a.233.233,0,0,1-.233-.233v-4.1a.233.233,0,0,1,.465,0v4.1a.233.233,0,0,1-.233.233" transform="translate(-58.212 -11.602)" fill="#2b244a"/>
              <path id="Trazado_149972" data-name="Trazado 149972" d="M482.747,288.066a4.294,4.294,0,0,1,2.43,1.87,3.924,3.924,0,0,1,.349,1.376l.25,1.791q.26,1.866.52,3.731l2.074,14.878,2.1,15.078q1.049,7.528,2.1,15.056,1.033,7.406,2.064,14.811.13.928.259,1.856c.041.3.49.17.449-.124q-1.049-7.524-2.1-15.047l-2.125-15.248L489,312.874q-1.057-7.581-2.114-15.163-.265-1.9-.53-3.8-.13-.93-.259-1.86a13.912,13.912,0,0,0-.26-1.714,4.32,4.32,0,0,0-2.693-2.617c-.089-.037-.18-.073-.272-.1-.286-.092-.408.357-.124.449" transform="translate(-257.944 -153.726)" fill="#dec6bd"/>
              <path id="Trazado_149973" data-name="Trazado 149973" d="M410.961,287.613a3.133,3.133,0,0,0-3.029,2.7c-.256,1.165-.348,2.388-.513,3.57l-.507,3.638-2.054,14.737q-1.034,7.417-2.068,14.834t-2.065,14.813q-1.023,7.338-2.045,14.675-.126.9-.252,1.81c-.041.293.407.42.449.124l2-14.378,2.025-14.527,2.031-14.565q1.01-7.246,2.02-14.492.5-3.609,1.006-7.218l.253-1.812a8.934,8.934,0,0,1,.292-1.551,2.653,2.653,0,0,1,1.434-1.7,2.724,2.724,0,0,1,1.021-.191.233.233,0,0,0,0-.465" transform="translate(-212.96 -153.73)" fill="#dec6bd"/>
              <path id="Trazado_149974" data-name="Trazado 149974" d="M504.266,216.526a33.174,33.174,0,0,1-5.048,15.833h-3.705a50.137,50.137,0,0,1,7.917-16.156.468.468,0,0,1,.837.323" transform="translate(-264.853 -115.464)" fill="#ccb16c"/>
              <path id="Trazado_149975" data-name="Trazado 149975" d="M495.982,203.051c.673,3.787,2.029,14.1-1.327,22.171h-3.31a47.852,47.852,0,0,1,3.745-22.263.467.467,0,0,1,.891.092" transform="translate(-262.546 -108.327)" fill="#ccb16c"/>
              <path id="Trazado_149976" data-name="Trazado 149976" d="M481.346,212.233c1.344,2.161,4.292,8.011,4.461,17.983h-3.09a36.372,36.372,0,0,1-2.229-17.8.467.467,0,0,1,.858-.179" transform="translate(-256.646 -113.322)" fill="#ccb16c"/>
              <path id="Trazado_149977" data-name="Trazado 149977" d="M470.565,224.582a26.811,26.811,0,0,1,7.75,12.289h-3.792a19.114,19.114,0,0,1-4.735-11.913.469.469,0,0,1,.776-.376" transform="translate(-251.103 -119.977)" fill="#ccb16c"/>
              <path id="Trazado_149978" data-name="Trazado 149978" d="M499.152,241.311a47.289,47.289,0,0,0,1.767-9.46c.025-.3-.441-.3-.465,0a46.7,46.7,0,0,1-1.751,9.337.233.233,0,0,0,.449.123" transform="translate(-266.553 -123.805)" fill="#2b244a"/>
              <path id="Trazado_149979" data-name="Trazado 149979" d="M492.052,244.3a42.914,42.914,0,0,1-.776-6.133c-.013-.3-.478-.3-.465,0a43.75,43.75,0,0,0,.792,6.257c.056.294.5.169.449-.124" transform="translate(-262.34 -127.18)" fill="#2b244a"/>
              <path id="Trazado_149980" data-name="Trazado 149980" d="M481.178,236.7A34.494,34.494,0,0,1,483,240.2a25.487,25.487,0,0,1,1.4,3.645.233.233,0,0,0,.449-.124,26.084,26.084,0,0,0-1.411-3.671,34.611,34.611,0,0,0-1.861-3.575.233.233,0,0,0-.4.235" transform="translate(-257.172 -126.335)" fill="#2b244a"/>
              <path id="Trazado_149981" data-name="Trazado 149981" d="M489.176,251.116H474.606a.377.377,0,0,0-.378.374,45.847,45.847,0,0,0,.728,8.891,25.923,25.923,0,0,0,2.419,6.258h9.033a25.923,25.923,0,0,0,2.419-6.258,45.8,45.8,0,0,0,.727-8.891.377.377,0,0,0-.378-.374" transform="translate(-253.476 -134.222)" fill="#ffeae0"/>
              <path id="Trazado_149982" data-name="Trazado 149982" d="M424.088,229H394.32a.855.855,0,0,0-.793.535l-10.205,25.281h31.612l9.947-24.641a.855.855,0,0,0-.793-1.175" transform="translate(-204.887 -122.404)" fill="#2b244a"/>
              <path id="Trazado_149983" data-name="Trazado 149983" d="M368.6,280.8H349.124a1.136,1.136,0,0,0-1.136,1.136v.569H368.6Z" transform="translate(-186.001 -150.089)" fill="#2b244a"/>
              <path id="Trazado_149984" data-name="Trazado 149984" d="M387.405,254.037l3.866-9.594,4.077-10.118,1.039-2.578c.331-.822.55-1.885,1.413-2.3.27-.13.034-.532-.235-.4a2.93,2.93,0,0,0-1.322,1.825l-.933,2.316-2.031,5.04L389.1,248.587l-2.145,5.325c-.112.278.338.4.449.124" transform="translate(-206.82 -122.411)" fill="#8c75b5"/>
              <path id="Trazado_149985" data-name="Trazado 149985" d="M384.857,281.119a1.275,1.275,0,0,1,.22.051l.054.019c.019.007.051.022.014.005.034.016.068.032.1.05a1.516,1.516,0,0,1,.192.123c-.042-.031,0,0,.013.012l.043.037c.031.028.06.057.088.087s.052.056.076.086l.018.022c-.015-.02-.018-.023-.008-.009l.033.046a1.478,1.478,0,0,1,.112.193c0,.007.027.061.015.031s.009.026.012.032c.012.034.023.068.033.1s.017.069.023.1l0,.027c0-.03-.005-.036,0-.018s0,.041,0,.062a.233.233,0,1,0,.465,0,1.681,1.681,0,0,0-1.386-1.511.239.239,0,0,0-.286.162.235.235,0,0,0,.162.286" transform="translate(-205.617 -150.017)" fill="#8c75b5"/>
              <path id="Trazado_149986" data-name="Trazado 149986" d="M428.277,256.315a2.03,2.03,0,0,1-1.721-.8,2.287,2.287,0,0,1-.185-2.1,4.277,4.277,0,0,1,3.716-2.747,2.03,2.03,0,0,1,1.721.8,2.286,2.286,0,0,1,.185,2.1,4.277,4.277,0,0,1-3.716,2.747m1.81-5.182a3.78,3.78,0,0,0-3.277,2.435,1.808,1.808,0,0,0,.125,1.673,1.581,1.581,0,0,0,1.342.608,3.78,3.78,0,0,0,3.277-2.435,1.808,1.808,0,0,0-.125-1.673,1.579,1.579,0,0,0-1.342-.608" transform="translate(-227.809 -133.983)" fill="#8c75b5"/>
              <path id="Trazado_149987" data-name="Trazado 149987" d="M169.505,272.517s-1.337,5.92,3.533,5.92h36.619c3.772,0,4.225,5.18,2.005,11.625s-6.23,18.93-6.23,18.93h2.578s5.736-16.794,6.66-18.715,5.156-14.753-2.2-17.044-42.969-.716-42.969-.716" transform="translate(-90.511 -145.379)" fill="#b06641"/>
              <rect id="Rectángulo_40891" data-name="Rectángulo 40891" width="59.253" height="8.337" transform="translate(61.654 161.083)" fill="#b06641"/>
              <path id="Trazado_149988" data-name="Trazado 149988" d="M131.9,331.43l-10.788,50.918h2.22l14.991-50.918Z" transform="translate(-64.737 -177.151)" fill="#b06641"/>
              <path id="Trazado_149989" data-name="Trazado 149989" d="M166.059,331.43,155.27,382.349h2.22l14.991-50.918Z" transform="translate(-82.993 -177.151)" fill="#b06641"/>
              <path id="Trazado_149990" data-name="Trazado 149990" d="M240.575,331.43l10.788,50.918h-2.22L234.151,331.43Z" transform="translate(-125.155 -177.151)" fill="#b06641"/>
              <path id="Trazado_149991" data-name="Trazado 149991" d="M206.421,331.43l10.788,50.918h-2.22L200,331.43Z" transform="translate(-106.899 -177.151)" fill="#b06641"/>
              <path id="Trazado_149992" data-name="Trazado 149992" d="M101.358,252.135S90.233,227.7,87.177,211.081s7.448-21.484,23.489-22.152,29.434,2.84,32.227,9.357,3.581,45.547,3.581,45.547-41.44,11.358-45.116,8.3" transform="translate(-46.314 -100.94)" fill="#ffc37a"/>
              <path id="Trazado_149993" data-name="Trazado 149993" d="M109.849,203.5c2.241,6.334,4.37,12.713,6.113,19.2a121.621,121.621,0,0,1,3.745,19.734,85.762,85.762,0,0,1,.374,11.194c-.01.3.456.3.465,0a93.677,93.677,0,0,0-1.611-19.961,159.945,159.945,0,0,0-4.993-19.494c-1.146-3.623-2.377-7.219-3.645-10.8-.1-.28-.549-.16-.448.124" transform="translate(-58.707 -108.618)" fill="#2b244a"/>
              <path id="Trazado_149994" data-name="Trazado 149994" d="M119.726,312c-3.1,1.417-2.276,12.254,2.451,14.546,3.684,1.786,17.088,1.234,30.325,1.114,17.133-.155,26.675-.423,31.417-.525,6.341-.137,8.854-15.994-2.8-18.381s-46.741-3.461-61.4,3.246" transform="translate(-63.013 -164.049)" fill="#ffc37a"/>
              <path id="Trazado_149995" data-name="Trazado 149995" d="M118.516,314.694a7.785,7.785,0,0,1,2.81-3.822,11.078,11.078,0,0,1,4.523-2.122,41.125,41.125,0,0,1,6.261-.832c2.564-.2,5.133-.336,7.7-.456q5.113-.24,10.231-.365,5.855-.149,11.712-.163h1.507a.233.233,0,0,0,0-.466q-6.015-.008-12.028.134-5.31.123-10.618.357c-2.7.121-5.4.263-8.092.462a50.254,50.254,0,0,0-6.127.735,11.971,11.971,0,0,0-4.713,1.861,9.869,9.869,0,0,0-3.192,3.451,6.422,6.422,0,0,0-.424,1.1.233.233,0,0,0,.449.124" transform="translate(-63.102 -163.808)" fill="#2b244a"/>
              <path id="Trazado_149996" data-name="Trazado 149996" d="M176.606,363.969h-4.619a.233.233,0,0,0,0,.465h4.619a.233.233,0,0,0,0-.465" transform="translate(-91.807 -194.543)" fill="#2b244a"/>
              <path id="Trazado_149997" data-name="Trazado 149997" d="M142.2,363.969h-4.619a.233.233,0,0,0,0,.465H142.2a.233.233,0,0,0,0-.465" transform="translate(-73.417 -194.543)" fill="#2b244a"/>
              <path id="Trazado_149998" data-name="Trazado 149998" d="M248.948,363.969h-4.619a.233.233,0,0,0,0,.465h4.619a.233.233,0,0,0,0-.465" transform="translate(-130.474 -194.543)" fill="#2b244a"/>
              <path id="Trazado_149999" data-name="Trazado 149999" d="M214.568,363.969h-4.619a.233.233,0,0,0,0,.465h4.619a.233.233,0,0,0,0-.465" transform="translate(-112.098 -194.543)" fill="#2b244a"/>
              <path id="Trazado_150000" data-name="Trazado 150000" d="M199.5,351.754v5.334a.233.233,0,0,0,.465,0v-5.334a.233.233,0,0,0-.465,0" transform="translate(-106.632 -187.893)" fill="#2b244a"/>
              <path id="Trazado_150001" data-name="Trazado 150001" d="M272.269,200.18s5.221,10.6,12.4,13.048c7.325,2.5,13.919-3.32,11.281-17.362-2.634-14.023-4.527-23-6.122-26.3-1.675-3.465-4.637-6.326-13.329-5.691s1.335,5.068,1.335,5.068l3.142,2.25,1.474,18.232-4.6-5.836Z" transform="translate(-145.529 -87.545)" fill="#e0785e"/>
              <path id="Trazado_150002" data-name="Trazado 150002" d="M293.488,218.608q.015,3.078.031,6.155a.233.233,0,0,0,.465,0q-.016-3.078-.031-6.155a.233.233,0,0,0-.465,0" transform="translate(-156.87 -116.726)" fill="#2b244a"/>
              <path id="Trazado_150003" data-name="Trazado 150003" d="M288.739,167.994q2.3.526,4.578,1.14a.233.233,0,0,0,.124-.449q-2.278-.615-4.578-1.14c-.292-.067-.416.382-.124.449" transform="translate(-154.243 -89.55)" fill="#2b244a"/>
              <path id="Trazado_150004" data-name="Trazado 150004" d="M274.566,194.459l-11.842,9.5-4.267-20.172,6.819-7.758a16.325,16.325,0,0,1,2.982,2.67c2.185,2.622,6.309,15.756,6.309,15.756" transform="translate(-138.146 -94.09)" fill="#ffeae0"/>
              <path id="Trazado_150005" data-name="Trazado 150005" d="M279.209,211.838l4.836-4.075c.229-.193-.1-.521-.33-.329l-4.836,4.075c-.229.193.1.521.329.329" transform="translate(-149.021 -110.843)" fill="#2b244a"/>
              <path id="Trazado_150006" data-name="Trazado 150006" d="M366.9,416.923s.626,5.049,1.231,10.505h27.6s.2-2.722-3.19-4.448c-1.77-.9-7.871-3.447-9.81-4.546-.769-.435-1.886-.774-2.4-1.778,0,0-4.864,1.877-13.437.266" transform="translate(-196.109 -222.705)" fill="#2b244a"/>
              <path id="Trazado_150007" data-name="Trazado 150007" d="M366.582,415.705a13.932,13.932,0,0,1,5.27.462c2.976.815,5.021-.921,6.195-2.847a3.18,3.18,0,0,1,1.538-1.474l-1.713-4.189-12.38,2.983Z" transform="translate(-195.357 -217.894)" fill="#ffeae0"/>
              <path id="Trazado_150008" data-name="Trazado 150008" d="M367.988,435.33H395.4a.233.233,0,0,0,0-.465H367.988a.233.233,0,0,0,0,.465" transform="translate(-196.571 -232.437)" fill="#8c75b5"/>
              <path id="Trazado_150009" data-name="Trazado 150009" d="M323.269,323.452c-2.766-5.029-5.448-10.1-8.146-15.169s-5.407-10.117-8.232-15.108-5.776-9.943-8.927-14.752q-1.173-1.791-2.385-3.555a32.35,32.35,0,0,0-2.381-3.185c-3.131-3.533-7.683-4.2-12.13-4.2,0,0-17.072-.043-17.78-.041-.6,1.657,1.961,10.593,1.291,13.419-.451,1.9-.889,3.834-1.291,5.785H266a24.481,24.481,0,0,1,4.833.16,12.933,12.933,0,0,1,6.5,3.458c3.245,3.213,5.21,7.429,7.242,11.452q3.25,6.432,6.559,12.834,3.3,6.376,6.652,12.722c2.2,4.162,3.647,7.131,5.885,11.273,2.078-.135,22.364-5.04,24.756-5.868-2.037-3.435-3.232-5.728-5.156-9.227" transform="translate(-140.68 -142.95)" fill="#2b244a"/>
              <path id="Trazado_150010" data-name="Trazado 150010" d="M360.227,401.473l12.8-3.258,4.313-1.1a.233.233,0,0,0-.124-.449l-12.8,3.258-4.313,1.1a.233.233,0,0,0,.124.449" transform="translate(-192.388 -212.016)" fill="#8c75b5"/>
              <path id="Trazado_150011" data-name="Trazado 150011" d="M321.509,416.923s.627,5.049,1.231,10.505h27.6s.2-2.722-3.19-4.448c-1.77-.9-7.871-3.447-9.811-4.546-.769-.435-1.886-.774-2.4-1.778,0,0-4.863,1.877-13.437.266" transform="translate(-171.848 -222.705)" fill="#2b244a"/>
              <path id="Trazado_150012" data-name="Trazado 150012" d="M321.318,416.778a17.369,17.369,0,0,1,6.437.235c2.976.815,3.727-1.766,4.9-3.692a3.183,3.183,0,0,1,1.538-1.474l-1.713-4.189L320.1,410.64Z" transform="translate(-171.095 -217.894)" fill="#ffeae0"/>
              <path id="Trazado_150013" data-name="Trazado 150013" d="M324.2,435.33h26.821a.233.233,0,0,0,0-.465H324.2a.233.233,0,0,0,0,.465" transform="translate(-173.166 -232.437)" fill="#8c75b5"/>
              <path id="Trazado_150014" data-name="Trazado 150014" d="M229.789,325.012c2.078-.135,22.364-5.04,24.755-5.868q-3.055-5.153-5.93-10.41c-2.765-5.029-5.448-10.1-8.146-15.169s-5.407-10.117-8.232-15.108-5.776-9.943-8.926-14.752q-1.173-1.791-2.385-3.555a32.357,32.357,0,0,0-2.381-3.186c-3.131-3.532-7.682-4.2-12.129-4.2h-10.9a22.17,22.17,0,0,0-2.508,0c.177-.7.317-1.262.493-1.967l-21.087-10.893a76.571,76.571,0,0,0-8.036,13.257c-1.91,4.136-3.746,8.678-2.68,13.3a9.641,9.641,0,0,0,2.894,5.084,2.666,2.666,0,0,0,.818.38h25.936a24.483,24.483,0,0,1,4.833.16,12.925,12.925,0,0,1,6.5,3.458c3.245,3.213,5.21,7.429,7.243,11.451q3.25,6.433,6.559,12.835,3.3,6.376,6.651,12.722,3.3,6.244,6.659,12.456" transform="translate(-86.262 -128.232)" fill="#2b244a"/>
              <path id="Trazado_150015" data-name="Trazado 150015" d="M303.284,405.174l19.372-4.931,5.211-1.327a.233.233,0,0,0-.124-.449L308.372,403.4l-5.213,1.327a.233.233,0,0,0,.124.449" transform="translate(-161.952 -212.978)" fill="#8c75b5"/>
              <path id="Trazado_150016" data-name="Trazado 150016" d="M271.64,269.031c4.307.647,6.835,4.83,8.957,8.2q4.217,6.7,8.3,13.483,4.153,6.894,8.175,13.868,4.008,6.948,7.885,13.969,3.831,6.939,7.529,13.951.46.874.918,1.748c.139.265.541.03.4-.235q-3.714-7.088-7.568-14.1-3.9-7.108-7.944-14.14-4.027-7.012-8.185-13.946-4.143-6.907-8.421-13.733a50.6,50.6,0,0,0-3.766-5.54,11.365,11.365,0,0,0-4.7-3.606,7.5,7.5,0,0,0-1.457-.367c-.293-.044-.419.4-.124.449" transform="translate(-145.103 -143.557)" fill="#8c75b5"/>
              <path id="Trazado_150017" data-name="Trazado 150017" d="M200.46,266.993h13.81a.233.233,0,0,0,0-.465H200.46a.233.233,0,0,0,0,.465" transform="translate(-107.026 -142.46)" fill="#8c75b5"/>
              <path id="Trazado_150018" data-name="Trazado 150018" d="M172.489,198.411s4.124,2.681,9.439,5.407c4.4,2.258,17.017,7.666,17.017,7.666h6.661s9.175-19.855,11.751-34.757c2.591-14.989-7.719-15.465-15.7-12.816-4.289,1.424-18.62,13.812-29.171,34.5" transform="translate(-92.196 -86.948)" fill="#ffeae0"/>
              <path id="Trazado_150019" data-name="Trazado 150019" d="M249.3,162.776a8.308,8.308,0,0,0,2.154,4.979c.2.225.526-.105.329-.329a7.787,7.787,0,0,1-2.017-4.65c-.02-.3-.486-.3-.465,0" transform="translate(-133.25 -86.885)" fill="#2b244a"/>
              <path id="Trazado_150020" data-name="Trazado 150020" d="M257.972,153.325l-4.14,4.46a14.91,14.91,0,0,0,1.128,3.2,16.828,16.828,0,0,0,2.1,2.869l6.71-6.982Z" transform="translate(-135.674 -81.953)" fill="#e0785e"/>
              <path id="Trazado_150021" data-name="Trazado 150021" d="M220.792,238.2l3.315-2.332c.243-.171.011-.575-.235-.4l-3.315,2.332c-.243.171-.011.574.235.4" transform="translate(-117.833 -125.836)" fill="#2b244a"/>
              <path id="Trazado_150022" data-name="Trazado 150022" d="M219.036,222.626l9.815-6.724,2.825-1.936c.245-.168.013-.572-.235-.4l-9.815,6.724-2.825,1.936c-.245.168-.013.572.235.4" transform="translate(-116.894 -114.129)" fill="#2b244a"/>
              <path id="Trazado_150023" data-name="Trazado 150023" d="M226.623,196.611s4.873,15.511,12.609,16.619c6.646.952,10.538-.936,11.573-12s-.753-31.142-.753-31.142a12.937,12.937,0,0,1,2.964-1.094c1.241-.207,2.766,2.244,5.159,1.578,1.254-.349-1.2-4.4-2.948-6.31-1.83-2-3.815-2.754-9.349-1.771s-6.572,4.331-7.034,6.827c-.517,2.793-3.75,21.517-3.75,21.517Z" transform="translate(-121.131 -86.621)" fill="#e0785e"/>
              <path id="Trazado_150024" data-name="Trazado 150024" d="M255.9,165.966a9.4,9.4,0,0,1,2.236-1.838,9.552,9.552,0,0,1,2.624-1.138.233.233,0,0,0-.124-.449,9.983,9.983,0,0,0-2.735,1.184,9.819,9.819,0,0,0-2.33,1.911c-.2.225.132.556.329.329" transform="translate(-136.573 -86.875)" fill="#2b244a"/>
              <path id="Trazado_150025" data-name="Trazado 150025" d="M242.6,229.725q.509-3.051,1.018-6.1c.049-.293-.4-.419-.449-.124q-.509,3.051-1.018,6.1c-.049.293.4.419.449.124" transform="translate(-129.426 -119.371)" fill="#2b244a"/>
              <path id="Trazado_150026" data-name="Trazado 150026" d="M211.954,198.135q1.308,7.782,2.982,15.5.471,2.174.969,4.343c.067.292.516.168.449-.124q-1.767-7.691-3.184-15.456-.4-2.189-.767-4.384c-.049-.295-.5-.17-.449.124" transform="translate(-113.288 -105.747)" fill="#2b244a"/>
              <path id="Trazado_150027" data-name="Trazado 150027" d="M278.226,226.414c0,1.872,0,3.744-.072,5.615a38.993,38.993,0,0,1-.539,5.678c-.055.293.394.418.449.124a39.513,39.513,0,0,0,.552-5.705c.075-1.9.081-3.807.076-5.711a.233.233,0,0,0-.466,0" transform="translate(-148.384 -120.899)" fill="#2b244a"/>
              <path id="Trazado_150028" data-name="Trazado 150028" d="M284.683,164.289a4.316,4.316,0,0,1,1.015.961c.449.516.865,1.06,1.267,1.613q.576.792,1.111,1.614a7.691,7.691,0,0,1,.643,1.087s0,0,.013.034c.037.105.066.215.092.323a1.693,1.693,0,0,1,.041.787,1.066,1.066,0,0,1-1.225.687c-.293-.048-.419.4-.124.449a1.493,1.493,0,0,0,1.842-1.483,3.178,3.178,0,0,0-.524-1.551,29.655,29.655,0,0,0-2.533-3.566,5.575,5.575,0,0,0-1.383-1.357.233.233,0,0,0-.235.4" transform="translate(-152.103 -87.581)" fill="#2b244a"/>
              <path id="Trazado_150029" data-name="Trazado 150029" d="M349.376,411.162c1.932-.6,3.862-1.206,5.794-1.805.285-.088.164-.538-.124-.449-1.932.6-3.862,1.206-5.794,1.805-.285.088-.163.538.124.449" transform="translate(-186.59 -218.557)" fill="#8c75b5"/>
              <path id="Trazado_150030" data-name="Trazado 150030" d="M252.539,130.527c.345-5.016,4.53-6.254,9.155-5.335s5.86,2.823,6.675,6.776a65.743,65.743,0,0,1,1.383,9.93c-.062,1.593-1.43,4.115-4.971,3.167a17.773,17.773,0,0,1-7.834-4.552c-1.243-1.206-4.754-4.971-4.408-9.986" transform="translate(-134.97 -66.766)" fill="#e0785e"/>
              <path id="Trazado_150031" data-name="Trazado 150031" d="M263.624,126.285c-2.007-1.652-6.936-2.963-10.786-1.7a6.487,6.487,0,0,0-3.916,3.393c-1.138,2.123-3.323,7.119-1.926,9.466.986,1.656,3.1,1.975,4.627,1.968.218.2.281.167.281.167a4.075,4.075,0,0,0,.908-.236c.11-.013.212-.025.293-.036s.114-.063.135-.146c1.211-.587,2.805-1.978,2.78-5.227a3.016,3.016,0,0,0,2.978-1.75c.775-2.029,1.384-3.364,2.714-3.563a2.5,2.5,0,0,1,2.259.533,5.526,5.526,0,0,1,1.061,1.705s1.235-2.4-1.408-4.579" transform="translate(-131.779 -66.322)" fill="#2b244a"/>
              <path id="Trazado_150032" data-name="Trazado 150032" d="M265.288,139.626a14.325,14.325,0,0,0,3.3-6.155.233.233,0,0,0-.449-.124,13.835,13.835,0,0,1-3.179,5.95c-.2.221.127.551.329.329" transform="translate(-141.588 -71.186)" fill="#8c75b5"/>
              <path id="Trazado_150033" data-name="Trazado 150033" d="M263.19,138.314a13.448,13.448,0,0,0,1.313-2.6.235.235,0,0,0-.162-.286.238.238,0,0,0-.286.162,12.908,12.908,0,0,1-1.266,2.484c-.164.252.238.485.4.235" transform="translate(-140.441 -72.384)" fill="#8c75b5"/>
              <path id="Trazado_150034" data-name="Trazado 150034" d="M259.169,139.387a4.611,4.611,0,0,0,.63-1.229.234.234,0,0,0-.162-.286.238.238,0,0,0-.286.162c-.018.052-.036.1-.056.156-.01.026-.02.052-.03.077,0,.008-.036.087-.016.04q-.064.147-.137.29a4.432,4.432,0,0,1-.343.554.233.233,0,0,0,.083.318.239.239,0,0,0,.318-.083" transform="translate(-138.294 -73.69)" fill="#8c75b5"/>
              <path id="Trazado_150035" data-name="Trazado 150035" d="M257.02,152.5l-.39,2.827a3.018,3.018,0,0,0,3.891-2.365c.93-3.326-3.5-.463-3.5-.463" transform="translate(-137.17 -80.9)" fill="#2b244a"/>
              <path id="Trazado_150036" data-name="Trazado 150036" d="M267.052,147.625a2.648,2.648,0,1,1-2.534-2.757,2.647,2.647,0,0,1,2.534,2.757" transform="translate(-139.911 -77.431)" fill="#e0785e"/>
              <path id="Trazado_150037" data-name="Trazado 150037" d="M285.13,143.957a2.121,2.121,0,0,1-.23-.064c-.8-.258-1.414.254-1.636-.476-.158-.533.145-.957,1.138-.92a2.543,2.543,0,0,1,.729.128h0a.9.9,0,0,1-.006,1.331" transform="translate(-151.385 -76.164)" fill="#2b244a"/>
              <path id="Trazado_150038" data-name="Trazado 150038" d="M276.167,144.074c.047.76-.706.5-1.368,1.015-.608.477-1.1.6-1.252.213-.186-.468.255-1.29,1.234-1.7.917-.38,1.351-.087,1.386.467" transform="translate(-146.19 -76.667)" fill="#2b244a"/>
              <path id="Trazado_150039" data-name="Trazado 150039" d="M265.119,149.934a1.293,1.293,0,0,1,.305-2.261c.292-.067.169-.516-.123-.449a1.6,1.6,0,0,0-1.167,1.36,1.86,1.86,0,0,0,.75,1.752.234.234,0,0,0,.318-.083.237.237,0,0,0-.083-.318" transform="translate(-141.172 -78.688)" fill="#2b244a"/>
              <path id="Trazado_150040" data-name="Trazado 150040" d="M282.513,150.685a1.4,1.4,0,0,0,1.03-.371.559.559,0,0,0,.184-.52,1.175,1.175,0,0,0-.3-.482c-.183-.223-.377-.438-.552-.666a5.468,5.468,0,0,1-.467-.746c-.141-.264-.543-.03-.4.235a7,7,0,0,0,.85,1.217c.09.107.181.215.269.323.054.067.189.183.123.275a.734.734,0,0,1-.3.2.985.985,0,0,1-.439.069c-.3-.016-.3.45,0,.465" transform="translate(-150.719 -78.991)" fill="#2b244a"/>
              <path id="Trazado_150041" data-name="Trazado 150041" d="M280.462,156.6a1.806,1.806,0,0,0,3.2-.428.143.143,0,0,0-.151-.2l-2.954.391a.143.143,0,0,0-.092.233" transform="translate(-149.89 -83.367)" fill="#2b244a"/>
              <path id="Trazado_150042" data-name="Trazado 150042" d="M277.71,148.418a.56.56,0,0,0-.5-.178.528.528,0,0,0-.373.457,1.829,1.829,0,0,0,.041.652,1.168,1.168,0,0,0,.348.672.49.49,0,0,0,.785-.34,1.619,1.619,0,0,0-.3-1.262" transform="translate(-147.96 -79.23)" fill="#2b244a"/>
              <path id="Trazado_150043" data-name="Trazado 150043" d="M286.121,146.973a.56.56,0,0,0-.5-.178.528.528,0,0,0-.373.457,1.829,1.829,0,0,0,.041.652,1.167,1.167,0,0,0,.348.672.49.49,0,0,0,.785-.34,1.619,1.619,0,0,0-.3-1.262" transform="translate(-152.456 -78.457)" fill="#2b244a"/>
              <path id="Trazado_150044" data-name="Trazado 150044" d="M275.7,136c.638.317,3.356-2.488,3.26-4.579s-2.553-.628-2.553-.628a5.209,5.209,0,0,1,.1,2.37c-.261,1.211-1.57,2.459-.81,2.837" transform="translate(-147.239 -69.642)" fill="#2b244a"/>
              <path id="Trazado_150045" data-name="Trazado 150045" d="M265.478,161.978a18.007,18.007,0,0,0,5.049,2.623,6.278,6.278,0,0,0,4.337.084,2.771,2.771,0,0,0,1.7-1.967c.067-.292-.382-.416-.449-.124a2.317,2.317,0,0,1-1.5,1.69,4.853,4.853,0,0,1-1.971.3,11.732,11.732,0,0,1-4.312-1.4,19.053,19.053,0,0,1-2.616-1.606c-.243-.177-.475.227-.235.4" transform="translate(-141.845 -86.34)" fill="#2b244a"/>
              <path id="Trazado_150046" data-name="Trazado 150046" d="M266.5,155.49a.551.551,0,1,1-.574-.526.551.551,0,0,1,.574.526" transform="translate(-141.858 -82.828)" fill="#ffeae0"/>
              <path id="Trazado_150047" data-name="Trazado 150047" d="M367.879,425.886c1.483.639,2.943,1.326,4.4,2.023a4.45,4.45,0,0,1,1.827,1.492,5.669,5.669,0,0,1,.831,2.532c.032.295.5.3.466,0a6.4,6.4,0,0,0-.8-2.614,4.667,4.667,0,0,0-1.761-1.645c-.734-.4-1.518-.735-2.276-1.089q-1.218-.57-2.454-1.1c-.272-.117-.51.284-.235.4" transform="translate(-196.567 -227.411)" fill="#8c75b5"/>
              <path id="Trazado_150048" data-name="Trazado 150048" d="M104.544,274.208s-1.337,5.92,3.533,5.92H144.7c3.772,0,4.225,5.18,2.005,11.625s-6.23,18.93-6.23,18.93h2.578s5.736-16.794,6.66-18.715,5.156-14.753-2.2-17.045-42.969-.716-42.969-.716" transform="translate(-55.789 -146.283)" fill="#b06641"/>
              <path id="Trazado_150049" data-name="Trazado 150049" d="M327.109,253.388h9.048a54.912,54.912,0,0,1-.276,9.06c-.589,3.749-1.674,5.077-2.557,5.584a3.949,3.949,0,0,1-3.384,0c-.883-.507-1.968-1.835-2.556-5.584a54.93,54.93,0,0,1-.276-9.06" transform="translate(-174.802 -135.437)" fill="#d9a389"/>
              <path id="Trazado_150050" data-name="Trazado 150050" d="M344.687,264.986a5.286,5.286,0,0,0,4.088-2.859,5.026,5.026,0,0,0,.439-2.7,3.524,3.524,0,0,0-1.162-2.118,4.278,4.278,0,0,0-2.658-1.095c-.3-.014-.3.451,0,.465a3.564,3.564,0,0,1,3.337,2.657A4.428,4.428,0,0,1,347,263.57a5.347,5.347,0,0,1-2.441.967c-.3.043-.169.491.124.449" transform="translate(-184.08 -136.946)" fill="#d9a389"/>
              <path id="Trazado_150051" data-name="Trazado 150051" d="M396.867,288.066a4.3,4.3,0,0,1,2.43,1.87,3.932,3.932,0,0,1,.349,1.376q.125.9.25,1.791.26,1.866.52,3.731,1.037,7.439,2.074,14.878l2.1,15.078q1.049,7.528,2.1,15.056,1.032,7.406,2.064,14.811.129.928.259,1.856c.041.3.49.17.449-.124l-2.1-15.047q-1.063-7.624-2.125-15.248-1.061-7.609-2.122-15.218-1.056-7.581-2.113-15.163l-.53-3.8q-.129-.93-.259-1.86a13.825,13.825,0,0,0-.259-1.714,4.321,4.321,0,0,0-2.693-2.617c-.089-.037-.18-.073-.272-.1-.286-.092-.408.357-.124.449" transform="translate(-212.041 -153.726)" fill="#dec6bd"/>
              <path id="Trazado_150052" data-name="Trazado 150052" d="M325.081,287.613a3.133,3.133,0,0,0-3.029,2.7c-.256,1.165-.348,2.388-.513,3.57l-.507,3.638-2.054,14.737q-1.034,7.417-2.068,14.834t-2.065,14.813L312.8,356.582q-.126.9-.252,1.81c-.041.293.407.42.449.124l2-14.378q1.012-7.264,2.025-14.527,1.015-7.283,2.03-14.565,1.01-7.246,2.02-14.492.5-3.609,1.006-7.218l.253-1.812a8.934,8.934,0,0,1,.292-1.551,2.653,2.653,0,0,1,1.434-1.7,2.725,2.725,0,0,1,1.021-.191.233.233,0,0,0,0-.465" transform="translate(-167.057 -153.73)" fill="#dec6bd"/>
              <path id="Trazado_150053" data-name="Trazado 150053" d="M404.2,286.778H315.757a1.157,1.157,0,0,1,0-2.314H404.2a1.157,1.157,0,1,1,0,2.314" transform="translate(-168.155 -152.047)" fill="#b06641"/>
              <path id="Trazado_150054" data-name="Trazado 150054" d="M411.44,284.7a1.98,1.98,0,0,1-.034,1.72.238.238,0,0,0,.084.318.235.235,0,0,0,.318-.084,2.477,2.477,0,0,0,.033-2.19.235.235,0,0,0-.318-.083.238.238,0,0,0-.083.318" transform="translate(-219.883 -151.988)" fill="#2b244a"/>
              <path id="Trazado_150055" data-name="Trazado 150055" d="M413.535,150.269h-1.278s-3.4,7.4-4.307,7.4c-.672,0-.167-7.4-.167-7.4H356.064a.907.907,0,0,1-.9-1.012l4.228-36.1a.907.907,0,0,1,.9-.8h57.472a.907.907,0,0,1,.9,1.012l-4.228,36.1a.907.907,0,0,1-.9.8" transform="translate(-189.833 -60.057)" fill="#8498d9"/>
              <path id="Trazado_150056" data-name="Trazado 150056" d="M417.046,163.356H374.839a75.466,75.466,0,0,1,1.885-12.41,22.808,22.808,0,0,1,3.282-7.685,13.541,13.541,0,0,1,6.41-4.576,32.026,32.026,0,0,1,8.537-1.615,55.441,55.441,0,0,1,8.719-.088c3.556.307,7.122,1.275,9.585,4.338a10.234,10.234,0,0,1,1.662,2.993,22.034,22.034,0,0,1,.973,4.115c.312,1.978,1.024,11.3,1.154,14.928" transform="translate(-200.353 -73.144)" fill="#ffeae0"/>
              <path id="Trazado_150057" data-name="Trazado 150057" d="M415.432,138.837q.392,6.647.784,13.293.107,1.8.213,3.6c.018.3.483.3.466,0q-.392-6.647-.784-13.293-.107-1.8-.213-3.6c-.018-.3-.483-.3-.465,0" transform="translate(-222.05 -74.089)" fill="#2b244a"/>
              <path id="Trazado_150058" data-name="Trazado 150058" d="M330.474,139.24a5.09,5.09,0,0,0-1.377-1.326,9.38,9.38,0,0,0-3.728-1.032c-3.164-.328-10.952-.653-12.885-.258a1.273,1.273,0,0,0-1.038,1.114,1.045,1.045,0,0,0-.593,1.234c.078.264.593.672.593.672a1.753,1.753,0,0,0-.249.955,1.337,1.337,0,0,0,.544.873c2.132.951,9.088,1.945,11.257,2.635a4.972,4.972,0,0,1,1.921,1.054c.491.461,1.787,1.755,2.027,1.535,1.781-1.635,4.614-3.995,5.212-5a23.962,23.962,0,0,0-1.683-2.461" transform="translate(-166.128 -72.928)" fill="#ffa58f"/>
              <path id="Trazado_150059" data-name="Trazado 150059" d="M338.487,135.5s-2.2-2.357-7.248-3.831c-3.623-1.058-4.094-.329-3.88.429.223.789,2.947,2.275,2.947,2.275Z" transform="translate(-174.951 -70.096)" fill="#ffa58f"/>
              <path id="Trazado_150060" data-name="Trazado 150060" d="M335.819,140.057a3.256,3.256,0,0,1,.4-2.407c.157-.256-.245-.49-.4-.235a3.737,3.737,0,0,0-.452,2.766c.066.292.515.169.449-.124" transform="translate(-179.208 -73.39)" fill="#2b244a"/>
              <path id="Trazado_150061" data-name="Trazado 150061" d="M331.348,136.842a6.07,6.07,0,0,0,1.1.443,9.165,9.165,0,0,0,1.092.3.239.239,0,0,0,.286-.163.234.234,0,0,0-.162-.286,9.119,9.119,0,0,1-1.063-.287,5.443,5.443,0,0,1-1.021-.4.233.233,0,0,0-.235.4" transform="translate(-177.046 -72.911)" fill="#2b244a"/>
              <path id="Trazado_150062" data-name="Trazado 150062" d="M312.35,139.348q3.522.351,7.052.553c.3.017.3-.448,0-.466q-3.533-.2-7.052-.553c-.3-.03-.3.436,0,.465" transform="translate(-166.833 -74.232)" fill="#2b244a"/>
              <path id="Trazado_150063" data-name="Trazado 150063" d="M312.062,143.185q3.588.357,7.186.564c.3.017.3-.448,0-.465q-3.6-.207-7.186-.564c-.3-.03-.3.436,0,.465" transform="translate(-166.68 -76.283)" fill="#2b244a"/>
              <path id="Trazado_150064" data-name="Trazado 150064" d="M482.472,117.827a1.4,1.4,0,1,1-1.4-1.4,1.4,1.4,0,0,1,1.4,1.4" transform="translate(-256.39 -62.233)" fill="#fff"/>
              <path id="Trazado_150065" data-name="Trazado 150065" d="M472.472,117.827a1.4,1.4,0,1,1-1.4-1.4,1.4,1.4,0,0,1,1.4,1.4" transform="translate(-251.045 -62.233)" fill="#fff"/>
              <path id="Trazado_150066" data-name="Trazado 150066" d="M409.812,176.039c-1.559-1.545-4.324-3.533-6.982-3.4-2.239.116-6.447,2.635-7.341,4.59a1.028,1.028,0,0,0,.042,1.131,1.307,1.307,0,0,0,1.029.531.454.454,0,0,0,.112-.009c-.121.107-.247.209-.363.326a1.386,1.386,0,0,0-.4.614,1.123,1.123,0,0,0,.54,1.187,2.325,2.325,0,0,0,1.42.251,1.8,1.8,0,0,0,.023.9,3.523,3.523,0,0,0,.174.321h10.02a7.162,7.162,0,0,0,1.22-2.751,21.916,21.916,0,0,0,.507-3.7" transform="translate(-211.311 -92.273)" fill="#ffa58f"/>
              <path id="Trazado_150067" data-name="Trazado 150067" d="M416.22,119.779l.7,7.977s-2.757,2.409-7.253.624l.122-4.754Z" transform="translate(-218.968 -64.022)" fill="#ffa58f"/>
              <path id="Trazado_150068" data-name="Trazado 150068" d="M401.5,107.228a2.87,2.87,0,1,1-2.87-2.87,2.87,2.87,0,0,1,2.87,2.87" transform="translate(-211.537 -55.78)" fill="#2b244a"/>
              <path id="Trazado_150069" data-name="Trazado 150069" d="M410.5,103.177c-.716-4.116-3.918-4.888-7.661-3.731s-4.6,2.836-4.936,6.174a70.281,70.281,0,0,0-.291,8.327c.061,1.066,1.45,3.224,4.3,2.137A14.648,14.648,0,0,0,408,111.8a11.153,11.153,0,0,0,2.5-8.621" transform="translate(-212.513 -52.893)" fill="#ffa58f"/>
              <path id="Trazado_150070" data-name="Trazado 150070" d="M405.707,104.693a11.724,11.724,0,0,0,1.1,3.093c.834,1.569.83,2.727,3.217,3.622v-3.915s2.056-2.061,1.127-3.95a2.872,2.872,0,0,0-.175-4.875,1.328,1.328,0,0,1-.463-.815c-.313-1.125-1.786-2.327-4.443-1.9s-2.876,1.309-3.491,1.455-1.346-.524-3.193-.02a2.8,2.8,0,0,0-1.094,4.752c1.56,1.333,4.054.427,4.384.582s.995,1.75,3.029,1.971" transform="translate(-212.388 -51.24)" fill="#2b244a"/>
              <path id="Trazado_150071" data-name="Trazado 150071" d="M398.287,115.4c.377.538.742-.045,1.467-.051.666-.006,1.062-.186.958-.529-.126-.415-.865-.732-1.742-.479-.822.236-.957.668-.682,1.059" transform="translate(-212.817 -61.068)" fill="#2b244a"/>
              <path id="Trazado_150072" data-name="Trazado 150072" d="M400.509,118.3a.463.463,0,0,0-.369-.246.438.438,0,0,0-.393.29,1.526,1.526,0,0,0-.1.532.965.965,0,0,0,.142.611.406.406,0,0,0,.7-.112,1.341,1.341,0,0,0,.02-1.075" transform="translate(-213.612 -63.1)" fill="#2b244a"/>
              <path id="Trazado_150073" data-name="Trazado 150073" d="M411.347,116.983a2.165,2.165,0,1,0,2.127-2.2,2.165,2.165,0,0,0-2.127,2.2" transform="translate(-219.866 -61.35)" fill="#ffa58f"/>
              <path id="Trazado_150074" data-name="Trazado 150074" d="M396.445,118.052s-1.543,2.452-1.426,2.953,1.591.733,1.591.733Z" transform="translate(-211.136 -63.099)" fill="#ffa58f"/>
              <path id="Trazado_150075" data-name="Trazado 150075" d="M416.266,116.905a.9.9,0,0,1,.577.582,1.6,1.6,0,0,1-.084,1.085.234.234,0,0,0,.162.286.238.238,0,0,0,.286-.162,1.948,1.948,0,0,0,.065-1.386,1.373,1.373,0,0,0-.883-.854.233.233,0,0,0-.124.449" transform="translate(-222.408 -62.241)" fill="#2b244a"/>
              <path id="Trazado_150076" data-name="Trazado 150076" d="M337.758,150.805s5.655,12.332,9.192,17.892l13.686-.023-13.6-21.835Z" transform="translate(-180.533 -78.486)" fill="#ffeae0"/>
              <path id="Trazado_150077" data-name="Trazado 150077" d="M410.125,133.316a12.182,12.182,0,0,0,1.972-1.455.233.233,0,0,0-.33-.329,11.57,11.57,0,0,1-1.878,1.383.233.233,0,0,0,.235.4" transform="translate(-219.028 -70.268)" fill="#2b244a"/>
              <path id="Trazado_150078" data-name="Trazado 150078" d="M390.177,175.062c-.472,2.84-.726,5.711-1.232,8.546-.052.293.4.418.449.124.505-2.835.76-5.706,1.232-8.546.049-.293-.4-.419-.449-.124" transform="translate(-207.89 -93.481)" fill="#2b244a"/>
              <path id="Trazado_150079" data-name="Trazado 150079" d="M436.137,170.38v7.3a.233.233,0,0,0,.465,0v-7.3a.233.233,0,0,0-.465,0" transform="translate(-233.117 -90.948)" fill="#2b244a"/>
              <path id="Trazado_150080" data-name="Trazado 150080" d="M397.875,182.388a14.076,14.076,0,0,1,5.56-3.226c.286-.087.164-.536-.124-.449a14.59,14.59,0,0,0-5.766,3.346c-.218.206.111.535.329.329" transform="translate(-212.451 -95.517)" fill="#2b244a"/>
              <path id="Trazado_150081" data-name="Trazado 150081" d="M400.932,186.936a21.331,21.331,0,0,1,5.564-3.388c.273-.113.153-.564-.124-.449a22.051,22.051,0,0,0-5.769,3.508c-.229.193.1.521.329.329" transform="translate(-214.082 -97.857)" fill="#2b244a"/>
              <path id="Trazado_150082" data-name="Trazado 150082" d="M426.046,179.88a82.975,82.975,0,0,1,9.061,6.348c.231.186.562-.141.329-.329a83.8,83.8,0,0,0-9.155-6.421.233.233,0,0,0-.235.4" transform="translate(-227.664 -95.913)" fill="#2b244a"/>
              <path id="Trazado_150083" data-name="Trazado 150083" d="M405.037,138.066a7.273,7.273,0,0,0,4.494,2.124,7.758,7.758,0,0,0,4.83-1.178,8.554,8.554,0,0,0,2.167-1.936c.184-.232-.143-.564-.329-.329a7.494,7.494,0,0,1-8.583,2.5,6.559,6.559,0,0,1-2.25-1.511c-.209-.215-.538.114-.329.329" transform="translate(-216.458 -73.049)" fill="#2b244a"/>
              <path id="Trazado_150084" data-name="Trazado 150084" d="M397.595,126.78c0,.5,0,.945,0,1.3a3.9,3.9,0,0,0,2.016-1.4c-.135,0-1.052.051-2.016.1" transform="translate(-212.514 -67.71)" fill="#fff"/>
              <path id="Trazado_150085" data-name="Trazado 150085" d="M342.781,159.879l9.2-4.248c.272-.125.035-.526-.235-.4l-9.2,4.248c-.271.125-.035.526.235.4" transform="translate(-183.028 -82.958)" fill="#2b244a"/>
              <path id="Trazado_150086" data-name="Trazado 150086" d="M358.425,113.679h-15.7a2.715,2.715,0,0,1-2.707-2.706v-1.521a2.715,2.715,0,0,1,2.707-2.707h15.7a2.715,2.715,0,0,1,2.706,2.707v1.521a2.714,2.714,0,0,1-2.706,2.706" transform="translate(-181.742 -57.056)" fill="#ffeae0"/>
              <path id="Trazado_150087" data-name="Trazado 150087" d="M380.448,115.828V119.5a.465.465,0,0,1-.632.435l-3.657-1.4Z" transform="translate(-201.058 -61.91)" fill="#ffeae0"/>
              <path id="Trazado_150088" data-name="Trazado 150088" d="M353.245,113.271a.43.43,0,0,0,0,.859.43.43,0,0,0,0-.859" transform="translate(-188.589 -60.544)" fill="#2b244a"/>
              <path id="Trazado_150089" data-name="Trazado 150089" d="M362.219,113.271a.43.43,0,0,0,0,.859.43.43,0,0,0,0-.859" transform="translate(-193.386 -60.544)" fill="#2b244a"/>
              <path id="Trazado_150090" data-name="Trazado 150090" d="M371.194,113.271a.43.43,0,0,0,0,.859.43.43,0,0,0,0-.859" transform="translate(-198.183 -60.544)" fill="#2b244a"/>
              <path id="Trazado_150091" data-name="Trazado 150091" d="M241.4,41.357a16.1,16.1,0,1,1,16.1-16.1,16.117,16.117,0,0,1-16.1,16.1m0-31.731a15.633,15.633,0,1,0,15.633,15.633A15.65,15.65,0,0,0,241.4,9.625" transform="translate(-120.426 -4.896)" fill="#2b244a"/>
              <path id="Trazado_150092" data-name="Trazado 150092" d="M257.865,28.078a13.644,13.644,0,1,1-13.644-13.644,13.644,13.644,0,0,1,13.644,13.644" transform="translate(-123.245 -7.715)" fill="#ffeae0"/>
              <path id="Trazado_150093" data-name="Trazado 150093" d="M259.153,14.152v1.584a.231.231,0,1,0,.462,0V14.152a.231.231,0,1,0-.462,0" transform="translate(-138.518 -7.441)" fill="#2b244a"/>
              <path id="Trazado_150094" data-name="Trazado 150094" d="M260.227,27.7v9.072a.231.231,0,0,0,.462,0V27.7a.231.231,0,0,0-.462,0" transform="translate(-139.092 -14.689)" fill="#2b244a"/>
              <path id="Trazado_150095" data-name="Trazado 150095" d="M265.429,37.735l-4.389,3.683-.769.645c-.228.191.1.517.327.327l4.389-3.683.769-.644c.228-.191-.1-.517-.327-.327" transform="translate(-139.075 -20.139)" fill="#2b244a"/>
              <path id="Trazado_150096" data-name="Trazado 150096" d="M260.093,70.971V69.387a.231.231,0,1,0-.462,0v1.583a.231.231,0,1,0,.462,0" transform="translate(-138.774 -36.964)" fill="#2b244a"/>
              <path id="Trazado_150097" data-name="Trazado 150097" d="M230.3,43.94h1.583a.231.231,0,1,0,0-.461H230.3a.231.231,0,1,0,0,.461" transform="translate(-122.975 -23.24)" fill="#2b244a"/>
              <path id="Trazado_150098" data-name="Trazado 150098" d="M287.124,43H285.54a.231.231,0,0,0,0,.462h1.584a.231.231,0,0,0,0-.462" transform="translate(-152.499 -22.984)" fill="#2b244a"/>
              <path id="Trazado_150099" data-name="Trazado 150099" d="M238.561,23.073l1.12,1.12a.231.231,0,0,0,.327-.327l-1.12-1.12a.231.231,0,0,0-.327.327" transform="translate(-127.477 -12.122)" fill="#2b244a"/>
              <path id="Trazado_150100" data-name="Trazado 150100" d="M279.4,62.585l-1.12-1.12a.231.231,0,1,0-.327.326l1.12,1.12a.231.231,0,0,0,.327-.327" transform="translate(-148.533 -32.818)" fill="#2b244a"/>
              <path id="Trazado_150101" data-name="Trazado 150101" d="M239.226,63.251l1.12-1.12a.231.231,0,0,0-.326-.327l-1.12,1.12a.231.231,0,1,0,.327.327" transform="translate(-127.657 -32.999)" fill="#2b244a"/>
              <path id="Trazado_150102" data-name="Trazado 150102" d="M278.737,22.408l-1.12,1.12a.231.231,0,0,0,.326.327l1.12-1.12a.231.231,0,0,0-.327-.326" transform="translate(-148.352 -11.942)" fill="#2b244a"/>
            </g>
          </g>
        </g>
      </g>
    </g>
    <rect id="Rectángulo_40894" data-name="Rectángulo 40894" width="315" height="265" transform="translate(643.154 3303)" fill="none"/>
  </g>
</svg>
