<svg xmlns="http://www.w3.org/2000/svg" xmlns:xlink="http://www.w3.org/1999/xlink" width="85" height="85" viewBox="0 0 85 85">
  <defs>
    <clipPath id="clip-path">
      <rect id="Rectángulo_37368" data-name="Rectángulo 37368" width="4.605" height="2.954" fill="none"/>
    </clipPath>
  </defs>
  <g id="Grupo_159045" data-name="Grupo 159045" transform="translate(-1063 -2393)">
    <ellipse id="Elipse_4781" data-name="Elipse 4781" cx="42.5" cy="42.5" rx="42.5" ry="42.5" transform="translate(1063 2393)" fill="#c4d1ff"/>
    <g id="Grupo_159044" data-name="Grupo 159044">
      <path id="Trazado_128800" data-name="Trazado 128800" d="M51.511,23.248s1.169-5.952-.356-10.891c-1.5-4.86-1.5-7.764-.565-8.626,2.947-2.715,5.718,3.89,5.718,3.89s-.778-6.14,1.772-6.312,4.333,5.778,4.333,5.778S61.938-1.629,65.277.272s4.569,7.715,4.569,7.715,11.465,1.91,15.682,9.6c0,0,3.451-3.676,5.7-1.508s-2.42,5.756-2.42,5.756,3.585,2.359,3.032,5.746-4.813,1.066-4.813,1.066.717,18.127-14.68,23.109S51.511,23.248,51.511,23.248" transform="translate(1038.653 2405.251)" fill="#d65900"/>
      <path id="Trazado_128801" data-name="Trazado 128801" d="M56.211,56.409,55.472,61.9A16.293,16.293,0,0,0,57.11,63.5c8.16,6.923,18.745,1.136,18.745,1.136l2.559-19.024L58.859,55.122Z" transform="translate(1038.254 2401.96)" fill="#ff9568"/>
      <path id="Trazado_128802" data-name="Trazado 128802" d="M56.211,57.025l-.739,5.487a16.294,16.294,0,0,0,1.638,1.605c8.035-2.189,14.714-9.956,14.714-9.956L58.859,55.738Z" transform="translate(1038.254 2401.344)" fill="#36251f"/>
      <path id="Trazado_128803" data-name="Trazado 128803" d="M52.316,34.225s-2.456-3.843-4.572-.614-1.784,10.383,2.814,9.838Z" transform="translate(1038.902 2402.919)" fill="#e0693e"/>
      <path id="Trazado_128804" data-name="Trazado 128804" d="M48.077,42.242s-1.2,10.749,9.866,12.212a29.215,29.215,0,0,0,19.446-4.276l.013-.008.42-2.218,2.185-11.514,1.168-6.154s2.905-10.973-7.428-14.436c-7.55-2.53-14.99-2.22-19.2,1.33-.136.114-.269.233-.4.355a9.62,9.62,0,0,0-2.786,4.918L49.523,33.539l-.451,2.718Z" transform="translate(1038.791 2404.228)" fill="#ff9568"/>
      <path id="Trazado_128805" data-name="Trazado 128805" d="M64.849,41.839s-1.595,4.614-5.432,5.245c-4.368.718-5.165-4.742-5.165-4.742Z" transform="translate(1038.342 2402.232)" fill="#f4ece1"/>
      <path id="Trazado_128806" data-name="Trazado 128806" d="M58.025,49.145a2.321,2.321,0,0,1-.255-.093.355.355,0,0,1,.292-.648,2.276,2.276,0,0,0,2.242-.284.355.355,0,1,1,.444.555,2.931,2.931,0,0,1-2.722.469" transform="translate(1038.104 2401.785)" fill="#e0693e"/>
      <path id="Trazado_128807" data-name="Trazado 128807" d="M65.742,33.784c-.143,1.063.224,1.99.818,2.07s1.192-.717,1.336-1.781-.224-1.989-.818-2.07-1.193.717-1.336,1.781" transform="translate(1037.516 2402.942)" fill="#36251f"/>
      <path id="Trazado_128808" data-name="Trazado 128808" d="M54.406,32.259c-.143,1.063.224,1.99.818,2.07s1.192-.717,1.336-1.781-.224-1.989-.818-2.069-1.193.716-1.336,1.78" transform="translate(1038.333 2403.053)" fill="#36251f"/>
      <path id="Trazado_128809" data-name="Trazado 128809" d="M59.189,38.29a3.772,3.772,0,0,1-3.249-2.359.442.442,0,0,1,.054-.375c2.27-3.424,4.577-6.946,4.6-6.981a.441.441,0,0,1,.739.483c-.022.035-2.244,3.426-4.472,6.788a3.027,3.027,0,0,0,2.448,1.568.441.441,0,1,1-.118.875" transform="translate(1038.222 2403.204)" fill="#36251f"/>
      <path id="Trazado_128810" data-name="Trazado 128810" d="M69.813,19.743a2.591,2.591,0,0,1,2.173,2.428,4.188,4.188,0,0,0,1.759,3.062c3.111,2.617,2.1,5.5.994,7.864s3.207,7.573,7.045,1.857,2.793-18.99-6.2-20.825-21.375-.5-22.929,3.466a20.689,20.689,0,0,0-1.407,7.566,4.883,4.883,0,0,0,1.865-3.647c.231-2.593,2.154-3.369,5.207-3.369a106.712,106.712,0,0,1,11.488,1.6" transform="translate(1038.559 2404.29)" fill="#d65900"/>
      <g id="Grupo_157540" data-name="Grupo 157540" transform="translate(1087.861 2437.766)">
        <g id="Grupo_157539" data-name="Grupo 157539" clip-path="url(#clip-path)">
          <path id="Trazado_128811" data-name="Trazado 128811" d="M49.151,37.761c.271.064.558.117.853.157,1.964.264,3.644-.149,3.748-.923s-1.406-1.617-3.371-1.882q-.4-.053-.778-.07Z" transform="translate(-49.151 -35.043)" fill="#e0693e"/>
        </g>
      </g>
      <path id="Trazado_128812" data-name="Trazado 128812" d="M64.984,38.531c-.1.774,1.406,1.616,3.373,1.881s3.645-.148,3.749-.922-1.406-1.616-3.373-1.881-3.646.148-3.749.922" transform="translate(1037.568 2402.543)" fill="#e0693e"/>
      <path id="Trazado_128813" data-name="Trazado 128813" d="M72.233,28.715h0a2.523,2.523,0,0,1-3.437.83A14.045,14.045,0,0,0,66.4,28.386,2.318,2.318,0,0,1,65.048,25.3s5.213.221,7.185,3.413" transform="translate(1037.577 2403.426)" fill="#d65900"/>
      <path id="Trazado_128814" data-name="Trazado 128814" d="M51.253,25.952h0a2.523,2.523,0,0,0,3.1,1.709,14.07,14.07,0,0,1,2.614-.485,2.317,2.317,0,0,0,2.121-2.617S54,23.395,51.253,25.952" transform="translate(1038.559 2403.498)" fill="#d65900"/>
      <path id="Trazado_128815" data-name="Trazado 128815" d="M76.565,47.826c.034.124,1,3.558,2.882,4.779l.012-.009.42-2.218a7.7,7.7,0,0,1-3.314-2.552" transform="translate(1036.732 2401.801)" fill="#36251f"/>
      <path id="Trazado_128816" data-name="Trazado 128816" d="M79.642,39.967s5.019-5.138,7.53-.232c2.069,4.043-4.079,13.025-8.714,9.041Z" transform="translate(1036.596 2402.537)" fill="#ff9568"/>
      <path id="Trazado_128817" data-name="Trazado 128817" d="M79.3,47.368l-.048-.008a.443.443,0,0,1-.322-.535,8.26,8.26,0,0,1,5.68-5.962.441.441,0,0,1,.215.855,7.374,7.374,0,0,0-5.039,5.319.442.442,0,0,1-.486.331" transform="translate(1036.563 2402.304)" fill="#36251f"/>
      <path id="Trazado_128818" data-name="Trazado 128818" d="M83.888,45.438a.437.437,0,0,1-.263-.135c-.339-.36-1.39-1.272-2.17-1.18a.441.441,0,0,1-.1-.877c1.358-.16,2.761,1.287,2.916,1.452a.441.441,0,0,1-.38.739" transform="translate(1036.415 2402.132)" fill="#36251f"/>
    </g>
  </g>
</svg>
