<svg xmlns="http://www.w3.org/2000/svg" width="85" height="85" viewBox="0 0 85 85">
  <g id="Grupo_159043" data-name="Grupo 159043" transform="translate(-433 -2270)">
    <circle id="Elipse_4780" data-name="Elipse 4780" cx="42.5" cy="42.5" r="42.5" transform="translate(433 2270)" fill="#c4d1ff"/>
    <g id="Grupo_159042" data-name="Grupo 159042" transform="translate(9314.571 12261.61)">
      <g id="Grupo_83653" data-name="Grupo 83653" transform="translate(-8833.238 -9954.702)">
        <path id="Trazado_117567" data-name="Trazado 117567" d="M462,109.848s12.73,9.6,13.677,21.261c1.433,17.647-18.641,9.927-20.846-1.324S462,109.848,462,109.848Z" transform="translate(-454.498 -109.848)"/>
      </g>
      <g id="Grupo_83664" data-name="Grupo 83664" transform="translate(-8856.936 -9977.61)">
        <path id="Trazado_117578" data-name="Trazado 117578" d="M493.715,115.505a16.221,16.221,0,0,0,3.27-12.942c-.9-5.334-3.27-7.06-3.27-7.06s3.615-7.28-7.146-6.837-17.092,5.724-17.092,5.724-4.918-2.415-7.125,3.319,0,14.2,0,14.2Z" transform="translate(-461.372 -88.647)"/>
      </g>
      <g id="Grupo_83676" data-name="Grupo 83676" transform="translate(-8848.215 -9947.445)">
        <g id="Grupo_83675" data-name="Grupo 83675" transform="translate(0)">
          <g id="Grupo_83674" data-name="Grupo 83674">
            <g id="Grupo_83673" data-name="Grupo 83673">
              <path id="Trazado_117587" data-name="Trazado 117587" d="M468.3,115.64l.33,13.135s2.463,3.717,10.163,4.149c5.736.322,7.475-2.664,7.475-2.664L484.589,118.8l-13.953-2.7Z" transform="translate(-468.296 -115.64)" fill="#f27e64"/>
            </g>
          </g>
        </g>
      </g>
      <g id="Grupo_83682" data-name="Grupo 83682" transform="translate(-8848.215 -9942.688)">
        <g id="Grupo_83681" data-name="Grupo 83681" transform="translate(0)">
          <g id="Grupo_83680" data-name="Grupo 83680">
            <g id="Grupo_83679" data-name="Grupo 83679">
              <path id="Trazado_117590" data-name="Trazado 117590" d="M468.844,115.034a4.34,4.34,0,0,0,.413,1.259c3.1,6.487,13.516,8.958,16.83,9.171l-.95-6.467Z" transform="translate(-468.844 -115.034)"/>
            </g>
          </g>
        </g>
      </g>
      <g id="Grupo_83686" data-name="Grupo 83686" transform="translate(-8857.719 -9973.423)">
        <g id="Grupo_83685" data-name="Grupo 83685">
          <g id="Grupo_83684" data-name="Grupo 83684">
            <g id="Grupo_83683" data-name="Grupo 83683">
              <path id="Trazado_117591" data-name="Trazado 117591" d="M491.861,96.5s7.306,16.3,4.819,25.515-10.879,7.851-15.908,6.123a16.6,16.6,0,0,1-7.385-4.781,7.067,7.067,0,0,1-7.839-2.691c-3.172-4.324-1.293-9.342,1.37-10.513s5.859.728,5.859.728l-2.537-4.732S480.491,81.875,491.861,96.5Z" transform="translate(-463.885 -91.811)" fill="#f27e64"/>
            </g>
          </g>
        </g>
      </g>
      <g id="Grupo_83690" data-name="Grupo 83690" transform="translate(-8852.916 -9975.808)">
        <g id="Grupo_83689" data-name="Grupo 83689">
          <g id="Grupo_83688" data-name="Grupo 83688">
            <g id="Grupo_83687" data-name="Grupo 83687">
              <path id="Trazado_117592" data-name="Trazado 117592" d="M470.178,111.459s7.037,1.42,11.926-6.411S486.544,94,486.544,94l4.872,8.086s1.088-5.607-1.154-9.18-4.569-2.832-4.569-2.832L470.175,93.95l-4.086,12.437Z" transform="translate(-466.09 -90.01)"/>
            </g>
          </g>
        </g>
      </g>
      <g id="Grupo_83691" data-name="Grupo 83691" transform="translate(-8832.234 -9955.706)">
        <path id="Trazado_117593" data-name="Trazado 117593" d="M469.71,112.94a.5.5,0,0,0,.475-.351c1.068-3.49-1.4-7.033-1.506-7.183a.5.5,0,1,0-.81.574c.023.033,2.291,3.3,1.367,6.319a.495.495,0,0,0,.474.641Z" transform="translate(-467.777 -105.197)"/>
      </g>
      <g id="Grupo_83692" data-name="Grupo 83692" transform="translate(-8854.458 -9952.396)">
        <path id="Trazado_117594" data-name="Trazado 117594" d="M487.425,113.389a.5.5,0,0,0,.361-.838l-4.459-4.7a.5.5,0,0,0-.721.684l4.459,4.7A.494.494,0,0,0,487.425,113.389Z" transform="translate(-482.469 -107.699)"/>
      </g>
      <g id="Grupo_83693" data-name="Grupo 83693" transform="translate(-8854.707 -9949.424)">
        <path id="Trazado_117595" data-name="Trazado 117595" d="M484.2,111.414a.5.5,0,0,0,.075-.007l3.075-.475a.494.494,0,0,0,.413-.565.487.487,0,0,0-.566-.416l-3.073.475a.5.5,0,0,0,.077.987Z" transform="translate(-483.706 -109.945)"/>
      </g>
      <g id="Grupo_83694" data-name="Grupo 83694" transform="translate(-8839.05 -9948.185)">
        <path id="Trazado_117596" data-name="Trazado 117596" d="M473.157,115.885a9.088,9.088,0,0,0,2.912-.594.5.5,0,0,0,.127-.854l-4.4-3.45a.5.5,0,0,0-.746.163c-.053.1-1.275,2.515.071,4.01A2.65,2.65,0,0,0,473.157,115.885Zm1.686-1.248c-1.015.262-2.434.463-2.981-.142a2.423,2.423,0,0,1-.157-2.322Z" transform="translate(-470.496 -110.881)"/>
      </g>
      <g id="Grupo_83695" data-name="Grupo 83695" transform="translate(-8830.553 -9962.862)">
        <path id="Trazado_117597" data-name="Trazado 117597" d="M468.985,101.287a.5.5,0,0,0,.085-.986l-2.906-.506a.5.5,0,0,0-.171.979l2.908.506A.627.627,0,0,0,468.985,101.287Z" transform="translate(-465.582 -99.79)"/>
      </g>
      <g id="Grupo_83696" data-name="Grupo 83696" transform="translate(-8839.728 -9962.862)">
        <path id="Trazado_117598" data-name="Trazado 117598" d="M471.6,103.2a.49.49,0,0,0,.225-.054l4.766-2.414a.5.5,0,1,0-.45-.884l-4.766,2.413a.5.5,0,0,0,.225.94Z" transform="translate(-471.108 -99.789)"/>
      </g>
      <g id="Grupo_83697" data-name="Grupo 83697" transform="translate(-8866.571 -9954.737)">
        <path id="Trazado_117599" data-name="Trazado 117599" d="M488.969,109.848s-10.149,8.8-8.716,23.135,15.652,12.5,18.638,7.266c4.524-7.928-.422-22.733-.422-22.733S489.751,118.976,488.969,109.848Z" transform="translate(-480.114 -109.848)"/>
      </g>
      <g id="Grupo_83698" data-name="Grupo 83698" transform="translate(-8828.554 -9959.705)">
        <path id="Trazado_117600" data-name="Trazado 117600" d="M466.986,107.233a.511.511,0,0,0,.146-.023.5.5,0,0,0,.328-.619l-.83-2.7.74-.9a.5.5,0,1,0-.768-.627l-.908,1.109a.492.492,0,0,0-.09.459l.908,2.954A.5.5,0,0,0,466.986,107.233Z" transform="translate(-465.582 -102.176)"/>
      </g>
      <g id="Grupo_83699" data-name="Grupo 83699" transform="translate(-8836.821 -9959.266)">
        <path id="Trazado_117601" data-name="Trazado 117601" d="M472.971,107.918a.509.509,0,0,0,.146-.021.5.5,0,0,0,.328-.621l-.827-2.693,1.076-1.256a.5.5,0,1,0-.754-.645l-1.253,1.464a.5.5,0,0,0-.1.467l.908,2.954A.5.5,0,0,0,472.971,107.918Z" transform="translate(-471.567 -102.509)"/>
      </g>
      <g id="Grupo_83704" data-name="Grupo 83704" transform="translate(-8846.384 -9934.187)">
        <path id="Trazado_117606" data-name="Trazado 117606" d="M476.465,129.909a12.273,12.273,0,0,0,7.936-2.742.5.5,0,0,0-.683-.721c-.234.222-5.883,5.374-15.057.225a.5.5,0,0,0-.486.866A16.848,16.848,0,0,0,476.465,129.909Z" transform="translate(-467.922 -126.312)" fill="#fff"/>
      </g>
    </g>
  </g>
</svg>
